P2
80 60
532
100 95 88 88 83 81 77 73 70 67 70 64 61 63 60 69 78 82 87 90 93 89 91 91 90 90 87 86 84 91 91 94 92 95 102 100 98 103 99 102 103 106 104 106 110 104 102 103 106 102 100 106 106 107 105 105 106 109 110 110 107 108 108 107 107 110 105 110 111 111 108 108 111 108 102 102 102 101 102 99 
97 99 97 95 93 90 92 92 87 86 82 82 76 70 62 59 60 62 63 70 65 79 78 79 88 82 89 85 80 81 76 84 85 87 92 94 101 103 99 97 100 99 103 101 108 104 107 104 105 100 104 108 105 112 106 106 106 110 111 108 106 107 107 107 106 110 108 110 107 104 105 109 105 104 106 103 101 98 94 93 
104 102 100 99 99 99 100 102 98 96 98 93 91 88 81 79 77 69 71 71 61 62 63 67 71 72 77 79 75 80 85 85 86 96 97 107 109 113 93 96 104 100 103 96 103 99 102 104 106 104 99 107 105 108 105 106 106 107 110 108 106 104 103 105 100 108 106 107 102 104 105 105 106 107 103 104 101 97 97 94 
105 104 106 104 98 97 103 105 101 101 102 100 100 97 98 93 94 89 87 90 78 73 72 67 68 63 64 63 65 87 97 105 125 145 152 152 160 159 131 108 109 109 113 102 101 95 102 102 99 100 98 103 102 105 103 104 105 108 107 106 105 103 100 100 100 102 99 101 104 103 106 106 109 108 101 102 105 101 97 93 
104 105 103 100 104 101 107 104 104 101 104 103 103 106 103 102 103 99 98 103 98 94 92 88 87 84 81 74 79 127 166 178 167 196 217 220 220 219 208 175 154 136 131 115 107 90 93 94 96 96 96 106 100 102 100 102 103 105 109 104 100 101 101 98 99 100 97 99 100 100 103 109 107 109 105 103 103 99 94 92 
105 103 102 102 101 103 105 105 104 99 104 107 105 109 103 104 107 103 105 106 102 103 101 94 98 96 100 100 130 179 200 208 207 218 226 230 240 239 222 228 215 197 178 170 139 97 90 84 88 88 91 98 96 98 101 101 96 100 103 99 100 97 97 96 96 95 93 99 101 100 103 103 105 106 105 104 103 96 92 87 
103 109 100 106 102 106 106 104 108 106 109 108 111 107 106 107 110 106 106 109 103 105 102 102 102 111 114 126 175 199 207 227 233 244 247 246 251 249 243 240 238 222 225 204 206 138 98 84 87 83 82 88 87 91 94 99 97 99 99 99 97 98 96 97 97 96 97 96 98 99 100 102 103 111 102 100 103 96 84 76 
107 109 105 102 102 105 109 106 104 104 112 109 112 107 108 108 109 105 106 110 106 104 104 101 114 128 128 136 163 204 226 255 266 274 274 266 261 269 274 254 259 241 247 247 249 207 125 93 93 85 80 83 80 87 81 89 88 95 98 97 94 91 93 96 94 98 97 99 94 98 97 100 102 103 93 99 95 91 77 77 
107 110 107 105 105 107 111 109 107 108 112 111 113 108 107 109 111 109 108 113 105 105 106 104 120 142 160 144 175 203 260 302 302 306 290 277 275 300 299 289 283 262 262 276 284 254 204 127 110 88 80 83 79 85 77 79 78 83 91 88 89 89 89 90 89 93 90 94 95 93 97 98 96 97 95 91 92 85 65 63 
109 112 112 104 107 109 106 106 107 111 112 112 110 112 108 112 111 111 110 112 110 110 110 107 128 163 197 206 250 305 333 341 326 322 301 289 308 333 314 332 321 291 295 307 301 280 254 219 176 123 90 81 71 80 81 79 79 79 81 82 81 84 83 82 85 87 90 92 93 91 91 94 92 94 84 88 82 73 58 59 
112 114 108 109 108 110 108 109 116 113 114 114 112 111 110 109 109 110 114 112 112 115 112 114 139 199 245 272 316 347 364 368 345 350 343 368 372 376 364 364 337 340 353 339 307 285 272 237 227 188 133 98 63 58 58 64 69 77 80 81 78 76 74 79 80 84 86 84 82 84 86 89 85 85 83 79 73 64 63 74 
117 113 113 112 109 111 111 112 113 118 116 115 115 113 110 110 114 113 114 121 115 117 114 122 173 260 307 311 381 417 395 404 404 455 453 444 417 434 456 435 420 428 451 398 342 295 281 268 260 217 164 111 81 75 66 59 52 54 66 69 68 72 72 77 73 71 75 74 73 75 77 78 85 77 74 68 63 63 72 82 
108 115 111 111 112 110 112 113 116 117 117 118 117 116 111 112 117 113 112 120 115 119 127 162 246 313 325 381 467 485 439 437 445 474 483 484 473 451 455 445 460 471 491 452 382 335 317 304 286 246 174 118 97 94 84 76 73 66 58 53 51 52 60 61 64 68 64 64 66 66 68 72 71 69 57 49 59 73 83 87 
104 109 114 112 113 117 116 114 115 119 122 119 115 118 112 114 117 116 114 120 117 132 173 265 319 317 366 443 485 491 469 466 468 480 490 491 493 497 488 486 490 483 485 465 426 401 402 367 318 262 187 128 108 102 97 92 85 87 87 81 65 52 42 42 42 46 52 54 58 55 54 58 56 45 32 47 65 74 85 87 
101 110 111 112 112 115 116 117 115 115 122 117 117 114 115 118 116 115 118 119 120 150 225 316 371 374 441 467 481 488 484 482 485 488 487 489 494 499 497 495 495 491 485 470 463 471 462 428 372 292 199 141 113 105 99 95 91 93 94 95 87 83 77 62 44 31 22 31 40 40 47 43 27 12 25 59 70 78 82 87 
106 111 113 113 113 111 116 119 118 117 118 118 115 114 113 112 115 114 118 124 132 176 255 348 431 436 462 480 483 492 488 490 490 491 492 490 495 498 500 499 497 491 490 475 480 478 485 475 414 328 211 148 112 106 107 100 94 93 97 95 94 96 90 86 75 55 41 30 24 16 16 13 0 12 43 68 80 77 78 86 
106 112 114 116 112 112 112 118 115 117 118 116 117 112 112 111 115 115 118 125 139 186 292 393 480 485 481 484 483 489 486 491 489 493 495 488 493 499 498 499 496 494 490 481 481 481 488 492 469 376 247 147 114 109 105 99 96 93 97 98 95 95 92 90 85 78 72 67 53 36 20 0 10 39 57 72 81 83 81 85 
111 118 116 116 113 114 114 115 116 115 118 116 113 113 112 116 112 113 118 125 137 197 337 453 495 492 489 482 483 484 481 490 493 493 495 494 493 499 498 496 497 495 494 485 484 478 486 490 489 433 298 157 114 112 106 103 97 99 100 96 94 96 95 93 86 86 85 78 74 68 53 37 20 50 64 77 85 85 81 84 
115 121 116 115 114 116 115 113 115 119 116 118 116 115 114 110 117 113 120 124 156 270 390 483 495 494 491 480 479 485 483 490 494 494 493 491 494 499 499 497 501 500 497 485 483 478 486 486 490 465 373 201 124 117 109 105 99 100 98 93 97 96 94 96 88 86 85 85 81 76 71 56 34 46 67 80 86 85 83 84 
117 122 121 118 113 116 114 116 115 117 118 116 113 115 112 116 115 118 124 136 204 344 435 489 490 482 486 478 478 481 482 488 491 493 491 489 493 495 490 492 503 504 499 485 483 472 476 484 493 477 416 252 137 119 110 107 103 97 97 95 92 95 90 95 89 89 87 85 84 80 77 71 44 43 64 79 85 86 85 82 
120 121 117 117 118 115 117 116 115 118 119 119 115 114 113 114 118 116 123 147 261 377 458 490 485 480 477 477 474 479 477 487 490 491 494 491 494 492 486 488 497 506 498 487 483 470 471 472 485 483 456 304 150 123 114 111 104 101 96 90 89 93 92 95 93 91 87 88 83 85 81 77 58 43 61 78 84 89 86 83 
122 122 120 116 114 116 117 117 118 118 119 118 115 115 113 115 114 120 128 160 303 404 475 486 476 470 476 473 470 479 478 485 490 494 494 492 495 492 486 488 492 497 494 483 481 474 470 465 477 482 474 377 176 127 115 111 107 107 103 97 93 93 95 94 94 90 89 88 86 87 86 83 70 46 59 76 86 90 87 86 
121 122 116 116 114 117 118 117 115 118 117 120 117 115 116 113 119 117 129 175 335 427 486 478 472 463 471 469 468 476 479 488 497 498 497 491 493 492 482 481 485 493 491 482 480 475 467 460 475 479 479 415 209 133 118 113 109 108 104 99 99 97 99 99 93 93 85 86 87 86 88 85 77 56 51 72 83 90 86 89 
118 123 117 117 113 118 116 116 117 116 117 113 112 113 114 114 117 118 134 193 360 446 489 477 468 450 453 455 460 474 471 489 495 502 503 493 496 494 485 483 489 491 484 483 470 462 448 440 459 477 478 437 226 136 118 112 108 110 106 97 97 100 100 99 99 97 89 86 92 90 88 86 80 64 45 67 82 86 89 79 
123 125 119 118 115 116 115 115 116 115 117 115 111 116 114 115 120 122 132 200 379 466 486 471 450 422 422 422 428 435 442 466 486 496 499 497 496 494 489 484 481 468 454 432 428 417 422 428 428 463 479 447 259 141 119 114 110 107 108 102 98 100 99 102 99 102 96 93 93 93 93 90 84 72 51 60 84 86 85 83 
124 128 122 125 118 121 119 117 118 114 117 115 114 114 116 119 117 125 135 212 389 476 482 458 435 434 433 419 418 429 430 453 467 482 493 495 495 494 487 484 479 460 451 443 457 461 459 451 434 439 469 447 282 144 121 111 111 109 111 108 103 102 101 102 95 101 97 97 95 98 95 96 95 83 61 59 78 86 83 89 
125 129 126 129 126 125 125 121 124 123 124 119 120 116 116 119 123 124 135 220 402 465 473 445 446 449 463 464 469 475 472 481 491 488 485 488 487 495 484 486 493 487 486 489 491 483 469 457 443 436 457 447 296 153 123 113 111 109 111 105 105 103 100 101 98 103 100 99 98 97 96 99 96 91 71 60 78 81 86 88 
129 129 127 127 127 129 127 128 126 127 128 126 126 124 125 122 127 129 143 234 413 460 469 452 454 456 470 473 482 490 493 508 510 501 485 478 473 481 481 496 514 509 503 494 488 475 471 459 454 448 459 442 280 150 126 117 112 110 111 111 104 103 104 103 102 103 103 103 102 101 103 104 101 96 85 72 72 81 88 91 
125 135 125 126 126 128 125 127 128 131 131 127 126 128 127 131 136 134 155 253 423 453 470 469 464 464 466 477 492 504 508 512 516 523 488 455 447 460 472 514 522 514 509 493 490 475 463 458 463 467 466 445 283 145 124 118 111 114 115 110 104 106 101 104 101 103 102 105 104 104 102 101 99 97 94 82 75 82 86 96 
123 129 127 126 127 124 122 124 122 128 124 124 127 126 126 128 134 138 155 251 420 456 472 483 481 477 501 499 497 513 521 524 521 524 485 427 408 422 445 513 525 519 514 503 490 490 491 459 466 484 476 451 302 152 123 115 112 111 110 108 106 104 104 104 102 105 103 100 102 103 103 101 101 96 97 90 77 83 89 97 
130 129 127 128 125 124 121 123 123 122 123 122 121 122 125 125 134 140 158 259 424 451 473 488 497 501 501 496 491 511 524 527 518 512 461 398 385 389 415 498 517 520 518 503 484 484 490 491 492 491 483 453 338 167 129 116 113 109 110 111 106 105 105 106 102 105 103 102 103 106 105 100 100 102 96 93 83 85 91 94 
129 130 128 127 125 122 122 124 120 122 121 125 126 120 123 128 130 153 266 358 429 444 467 490 498 490 485 487 492 503 512 514 508 499 427 383 379 376 386 461 507 508 503 491 486 482 481 471 492 497 475 447 389 249 136 120 113 112 114 111 108 106 106 106 105 105 103 101 103 104 105 105 103 104 98 97 92 86 91 95 
127 132 127 131 127 125 125 125 126 125 125 127 125 123 127 131 134 182 316 382 424 434 451 479 487 491 492 489 492 495 499 503 503 469 404 387 381 376 375 420 488 507 497 488 487 478 478 471 483 477 462 439 403 288 148 126 117 114 115 113 112 111 106 106 107 109 105 106 103 102 105 107 102 105 101 100 94 88 93 92 
129 130 132 130 125 129 128 124 123 128 126 124 124 129 125 128 137 183 300 369 413 421 441 462 487 486 493 490 488 491 497 499 476 427 401 393 382 377 380 404 455 494 496 489 489 482 481 474 472 456 439 428 398 277 145 125 116 118 117 112 109 111 106 107 109 106 103 104 104 105 107 107 101 107 100 101 99 91 91 94 
127 127 129 131 124 126 125 126 127 126 125 125 125 123 126 128 137 166 285 365 400 403 421 442 469 481 486 488 491 499 493 483 448 424 410 390 376 374 383 411 444 477 496 491 486 480 474 470 460 436 419 413 393 270 143 123 116 114 112 110 107 110 104 106 104 106 107 104 102 107 105 104 106 106 102 103 104 93 90 95 
131 130 131 128 127 125 124 126 121 124 125 125 124 127 126 130 137 154 269 361 390 397 409 422 445 461 474 478 483 489 483 473 447 428 404 385 373 370 378 405 446 473 487 484 483 471 462 450 441 423 412 404 386 269 144 123 120 116 113 113 110 110 106 106 105 107 104 105 104 106 107 106 104 103 103 103 104 95 88 92 
129 132 133 128 125 125 127 126 125 127 129 130 125 128 127 131 137 149 265 356 387 400 409 411 431 446 457 468 474 484 481 475 454 430 395 378 367 362 367 397 450 476 487 481 477 466 458 449 436 420 409 407 379 277 142 127 117 118 115 112 114 111 111 109 106 107 106 103 103 107 107 106 108 105 106 105 101 97 89 93 
134 136 129 131 126 128 126 128 126 128 128 132 127 129 128 130 137 148 251 351 389 405 417 412 428 437 456 465 470 480 483 477 460 417 386 361 352 353 359 392 442 481 486 476 471 461 459 449 436 420 407 409 385 272 144 124 120 117 114 113 111 111 112 107 108 111 108 105 102 109 108 108 106 105 107 105 106 100 93 92 
136 133 130 127 126 128 130 125 128 127 130 130 127 130 126 130 139 147 220 349 396 418 425 417 423 436 448 459 469 480 484 493 440 396 372 341 331 340 346 379 415 482 485 474 472 460 460 454 443 421 414 418 381 248 140 124 118 118 119 117 114 112 113 113 107 112 108 111 108 110 111 107 108 109 105 107 112 103 96 97 
136 134 131 131 128 129 128 128 130 130 131 132 133 129 130 131 135 147 199 337 406 427 443 428 424 433 444 456 462 483 494 498 420 389 378 330 329 328 347 388 410 478 488 480 474 470 469 461 454 431 421 422 363 219 136 124 120 120 121 115 114 112 113 113 110 109 110 113 106 109 110 111 109 108 106 109 107 105 94 95 
133 136 129 126 126 128 128 127 129 128 132 130 129 128 130 130 139 145 205 320 405 439 448 420 425 433 445 453 461 486 501 511 449 418 416 343 320 327 383 438 453 501 502 484 482 476 474 470 459 440 429 422 338 184 134 127 119 121 116 114 111 109 112 111 107 109 109 109 105 108 108 108 111 108 105 107 111 104 98 97 
134 135 130 128 130 124 130 127 128 131 133 131 130 130 130 131 135 149 215 295 396 438 441 421 425 434 446 456 467 493 507 506 489 469 413 389 362 378 404 418 470 496 508 500 493 481 480 472 459 445 429 417 307 170 131 122 118 116 118 114 114 113 112 112 110 110 106 107 106 106 104 107 105 109 109 109 109 106 107 95 
131 133 133 125 126 127 125 131 131 130 129 129 129 130 130 130 138 157 221 267 372 437 437 417 424 436 448 461 474 504 511 505 484 445 397 378 408 417 392 413 450 490 506 504 502 483 477 467 460 444 428 400 242 148 128 123 121 119 118 112 113 115 110 113 109 110 109 106 108 105 107 107 111 110 110 109 111 105 104 104 
131 135 133 131 126 130 130 129 130 133 133 132 130 139 145 144 142 167 224 260 320 431 435 417 418 435 457 471 490 509 509 491 462 427 407 372 407 407 410 437 457 478 499 505 511 491 475 470 459 438 423 329 172 142 124 124 116 119 120 115 115 111 113 114 109 113 106 110 106 106 104 106 109 109 109 111 111 107 104 99 
128 135 130 130 128 127 126 127 129 131 134 130 136 160 212 215 190 197 246 270 307 419 433 421 426 437 460 478 494 501 479 461 441 416 417 403 444 438 435 459 466 456 467 489 507 493 481 470 459 435 411 252 150 133 124 120 117 118 120 116 115 114 115 114 111 110 107 112 108 108 103 108 108 112 109 112 112 112 106 107 
135 139 133 134 130 131 133 134 138 143 142 145 173 205 248 249 251 252 263 284 315 398 430 425 432 442 463 485 488 460 439 435 432 431 424 430 464 474 457 467 466 457 457 467 494 492 484 467 451 434 383 239 154 134 127 122 119 122 121 117 116 115 113 117 116 114 110 114 106 110 109 108 114 111 110 115 116 112 108 113 
136 134 132 134 132 138 142 161 186 203 195 209 250 263 271 261 262 265 274 291 308 360 427 429 434 443 463 488 485 467 467 464 474 484 485 490 498 503 510 514 508 486 473 470 485 493 484 470 456 432 343 253 169 130 128 123 119 119 121 120 119 118 117 116 113 114 113 111 107 107 108 112 111 115 112 111 115 115 109 112 
136 135 136 133 139 147 211 270 280 290 307 305 293 277 275 276 275 271 282 293 311 326 415 431 433 440 463 484 483 509 513 526 519 507 505 498 499 498 498 500 515 515 520 499 501 495 485 469 451 415 313 258 185 138 126 124 121 119 121 118 115 117 117 117 113 115 114 115 108 112 110 113 113 112 112 111 112 113 109 111 
138 139 141 150 170 232 298 317 312 304 325 344 326 298 283 283 282 279 280 295 310 305 372 428 440 446 464 485 491 522 524 515 500 499 492 485 486 493 486 491 503 517 523 519 514 498 481 463 446 388 301 266 219 179 144 125 124 122 123 120 117 116 117 118 111 116 110 115 110 108 108 110 114 113 114 118 117 114 110 109 
141 161 193 233 272 301 323 330 332 323 310 346 350 323 295 284 289 278 281 287 303 301 321 417 442 450 467 487 492 524 520 511 485 458 461 467 471 474 472 470 475 497 522 523 515 497 475 459 437 348 294 268 240 254 209 147 128 120 122 119 116 119 117 118 115 117 115 111 108 108 111 110 111 114 113 114 121 115 107 116 
176 240 281 301 307 309 320 335 350 336 308 325 357 341 318 291 282 284 283 286 297 298 290 382 442 459 475 477 479 518 521 525 505 484 469 443 436 443 444 447 478 517 529 527 515 491 472 453 409 323 289 269 250 273 250 184 138 130 126 120 123 121 117 119 115 117 115 115 109 112 111 110 115 116 114 114 117 115 112 113 
252 304 320 320 310 308 315 337 355 350 320 306 351 348 331 307 291 283 282 289 296 291 276 329 416 458 475 468 473 512 523 523 518 516 509 485 478 479 480 485 511 523 532 514 503 482 471 441 364 310 285 266 264 277 262 271 244 195 157 131 129 121 119 118 117 120 116 118 112 113 112 112 112 119 116 116 119 116 113 114 
287 318 326 335 322 310 311 331 359 361 331 301 329 345 328 322 297 277 273 289 294 282 271 295 377 437 465 458 478 505 510 510 510 506 514 511 513 511 509 504 511 522 515 493 482 472 466 400 336 297 274 265 274 268 265 321 315 314 290 249 204 148 127 121 119 118 119 119 114 112 113 116 114 119 117 119 122 119 113 115 
292 314 329 336 328 309 307 327 356 371 341 298 303 339 323 322 316 279 266 277 280 276 269 280 329 408 434 433 461 495 492 493 494 500 495 497 502 504 493 493 499 508 503 476 463 476 445 369 323 290 271 273 280 260 280 337 320 313 326 322 295 244 164 130 122 121 116 117 114 115 114 117 115 116 114 118 120 119 114 120 
304 314 318 337 334 316 306 326 361 378 354 305 295 329 323 321 322 296 271 263 268 272 268 272 304 372 427 413 432 479 474 465 473 474 486 486 488 482 477 474 479 487 479 458 462 444 442 355 312 289 280 286 271 258 312 349 324 308 319 325 308 287 243 161 131 125 124 124 118 117 116 119 116 120 118 123 124 121 114 112 
318 317 317 329 332 317 304 320 362 380 357 305 286 311 323 310 312 310 286 259 257 267 271 269 288 329 425 432 406 424 438 443 451 448 469 476 475 470 455 452 448 456 447 433 429 441 430 338 305 285 286 279 249 263 339 345 326 307 307 320 314 298 275 226 150 129 125 121 117 120 117 119 117 120 117 119 122 121 115 116 
329 323 307 315 319 310 301 314 355 379 369 316 281 295 324 307 304 305 305 275 251 257 264 263 278 300 370 451 429 405 373 395 418 420 453 463 459 443 418 426 431 417 401 416 413 463 391 329 303 280 267 262 252 307 344 339 325 308 301 307 312 303 282 255 203 142 130 125 119 118 118 120 120 123 121 122 125 120 117 115 
340 336 312 303 305 303 296 307 345 379 377 327 281 281 319 318 305 297 305 299 261 253 253 260 271 287 325 416 473 463 412 377 371 384 384 390 390 384 370 370 364 372 409 414 419 447 357 316 291 272 261 259 289 340 333 332 321 309 296 300 303 299 288 269 244 192 149 131 121 120 120 123 121 120 122 123 126 122 117 118 
350 346 315 300 300 291 291 301 332 370 380 340 286 275 303 328 313 300 298 314 292 259 252 251 263 280 305 340 415 463 459 456 442 439 430 393 374 363 371 377 392 407 412 382 448 398 325 296 278 262 259 282 336 347 330 323 315 308 299 296 301 298 283 275 258 232 219 161 131 118 117 121 120 123 119 122 125 123 118 122 
352 359 328 295 292 284 292 296 320 360 379 349 287 268 285 324 322 305 292 298 315 273 258 242 254 262 275 301 347 391 398 427 451 463 473 460 449 436 430 418 418 400 363 402 448 360 291 282 264 257 266 326 344 346 327 314 314 308 297 293 299 295 282 272 256 244 242 244 160 127 113 116 118 123 117 124 127 118 116 118 


