P2
80 60
57
26 32 30 28 25 28 24 29 17 23 27 27 36 31 32 32 32 33 32 37 40 36 36 37 35 37 37 36 37 37 39 39 40 40 40 39 38 39 36 36 35 35 37 39 38 40 43 38 42 37 39 34 37 41 41 44 44 50 51 56 57 55 52 44 45 50 48 50 48 48 49 50 51 54 55 51 49 52 53 56 
25 28 26 23 24 25 23 18 19 26 28 30 32 34 32 31 32 35 32 36 34 34 33 35 32 35 38 36 36 37 34 36 36 37 35 38 40 39 34 36 37 35 37 37 40 38 37 39 39 36 34 37 35 36 35 41 48 48 48 50 52 52 47 44 44 50 44 46 43 46 48 49 48 50 54 51 48 52 51 51 
21 26 26 24 25 23 22 13 20 31 27 32 29 35 33 29 32 35 34 33 35 31 35 35 36 36 33 35 36 38 40 34 37 33 35 35 34 36 35 35 32 34 35 38 37 41 42 39 37 38 36 37 36 35 38 42 45 48 50 53 50 46 44 41 43 46 42 43 45 43 45 47 50 47 51 47 50 47 47 51 
22 25 27 23 23 23 15 18 23 29 28 29 34 32 30 33 31 36 33 35 37 32 33 34 38 35 34 31 40 38 35 35 35 34 34 34 38 32 35 32 34 33 34 39 34 39 36 36 36 36 33 37 36 34 36 42 45 45 49 50 50 45 42 38 39 43 39 43 45 45 45 45 51 51 48 47 46 47 43 51 
21 20 22 22 18 17 13 21 28 29 29 32 34 32 30 29 31 35 33 34 31 31 32 35 35 35 33 34 38 36 35 34 38 34 33 35 32 31 29 33 33 33 32 32 39 35 37 36 34 34 28 31 31 35 35 40 44 46 47 51 44 38 39 36 37 44 41 42 43 47 44 44 47 46 44 42 48 44 46 45 
20 19 22 18 15 10 14 21 26 28 28 29 28 28 25 29 28 31 29 30 29 32 30 31 32 29 31 32 31 34 32 32 35 33 32 36 33 32 30 27 31 29 31 29 30 32 32 35 32 32 29 27 30 33 37 42 43 42 48 48 37 37 38 33 37 32 39 40 41 41 38 42 43 42 39 46 44 46 41 46 
14 18 23 19 15 10 18 18 26 27 26 27 29 28 28 27 31 32 28 32 32 28 31 33 29 31 29 33 33 33 33 32 31 32 30 32 32 30 25 28 28 25 27 28 31 30 32 33 31 31 28 28 29 32 35 39 45 42 45 42 38 35 34 33 37 39 41 37 39 39 38 42 40 42 41 38 40 43 44 39 
15 18 19 16 6 12 20 24 20 26 25 33 30 30 32 30 27 33 29 31 30 31 29 30 32 28 31 33 32 34 31 31 35 34 37 35 34 32 27 27 28 27 29 29 33 31 31 30 33 29 30 28 27 35 38 42 45 44 46 37 32 34 34 35 35 37 36 37 38 38 43 42 42 39 39 40 43 44 40 39 
13 16 16 5 2 15 19 23 24 28 25 33 26 29 27 26 29 30 33 33 32 31 33 28 30 31 29 30 35 33 30 31 33 33 32 35 32 35 31 28 28 28 27 26 32 31 31 32 29 29 28 25 31 38 36 43 45 47 40 37 31 35 34 34 32 36 34 37 37 38 39 38 37 39 41 40 36 43 39 43 
15 17 9 0 1 15 18 22 21 24 26 27 27 27 26 29 25 28 31 29 29 27 27 27 31 29 26 29 27 27 30 30 32 28 31 33 36 33 32 30 30 23 27 28 31 28 30 30 27 26 28 25 31 37 37 38 43 41 37 33 34 33 32 34 36 28 33 37 36 36 37 37 39 38 38 38 36 39 40 40 
17 16 6 6 11 15 21 20 24 25 27 26 28 26 28 24 28 25 32 28 29 27 28 27 28 31 28 29 25 30 29 28 30 30 33 33 33 33 34 31 25 27 26 31 31 27 30 31 27 29 26 26 34 38 34 41 42 40 32 32 33 35 35 31 35 36 36 35 37 34 34 36 39 41 38 34 37 39 36 35 
16 10 10 14 12 15 16 20 25 24 27 25 26 29 27 25 27 25 27 27 28 28 24 27 28 25 29 28 24 28 28 25 31 29 30 34 34 32 33 32 32 28 28 28 29 31 28 29 26 29 25 28 37 36 38 41 39 35 30 32 29 32 31 31 35 31 35 33 36 33 36 40 35 40 40 40 35 38 36 36 
16 14 8 16 20 17 23 20 20 20 22 25 24 24 28 25 25 25 27 28 27 27 27 27 25 26 26 24 25 24 25 27 26 28 30 33 30 31 31 35 33 29 29 26 29 29 30 32 28 24 25 32 36 35 37 38 36 29 32 34 34 32 32 31 34 34 31 36 34 36 36 39 36 39 37 40 39 35 37 34 
13 12 19 21 20 20 19 25 21 23 22 23 24 24 26 20 25 25 27 27 23 26 24 25 28 25 28 26 25 24 23 22 26 24 25 32 30 31 31 32 32 35 28 28 27 29 29 29 24 24 28 32 35 40 37 37 33 28 28 30 31 29 32 31 32 31 33 34 35 34 32 34 37 39 38 35 35 37 37 34 
11 15 25 20 17 22 23 23 23 24 26 23 25 20 22 24 22 23 28 20 21 25 21 24 27 24 24 27 27 24 24 24 26 27 27 23 30 30 30 35 34 35 32 32 25 28 32 25 28 26 32 33 38 40 34 35 29 28 30 31 30 31 32 33 33 35 36 34 38 37 36 33 38 39 37 37 37 35 38 38 
12 20 24 24 23 22 21 23 24 24 23 23 20 20 21 23 23 23 22 24 26 24 23 25 26 23 21 22 28 26 24 18 25 22 23 26 30 32 29 32 34 33 32 33 33 26 28 28 27 28 32 37 35 42 33 28 27 25 30 29 31 31 32 31 33 34 31 32 35 35 35 30 36 37 35 36 36 37 32 37 
15 17 26 23 23 22 24 26 20 23 22 22 22 22 14 19 19 17 20 21 19 24 23 20 24 24 24 23 30 25 27 19 26 23 28 28 25 27 28 31 32 29 32 34 36 29 29 32 30 30 36 35 39 36 27 26 26 26 25 27 29 31 32 32 32 35 31 34 32 35 33 30 35 33 35 33 35 33 32 32 
17 23 26 28 25 30 26 22 24 24 25 24 19 18 18 21 18 19 24 21 21 25 23 26 25 25 24 23 25 24 24 23 26 24 25 26 26 25 28 27 35 33 31 34 33 34 35 34 31 32 33 32 38 36 26 25 27 27 27 29 26 31 33 28 31 33 32 31 34 33 30 33 36 36 38 33 36 30 30 29 
20 20 29 23 26 25 22 25 24 29 24 23 24 18 15 20 20 20 21 18 22 23 23 21 25 24 23 25 23 24 22 21 24 22 25 27 26 28 27 25 34 34 31 34 34 32 37 39 38 33 34 33 33 31 26 25 27 26 27 29 32 31 31 32 32 33 27 34 32 32 32 34 35 39 32 30 31 34 32 37 
23 24 25 26 25 23 25 28 26 24 25 21 23 22 18 23 17 20 22 21 19 22 19 24 24 24 26 25 25 26 24 23 27 26 29 26 27 26 25 28 31 31 37 36 33 35 39 38 39 36 33 33 35 36 33 30 27 28 31 30 31 32 31 34 32 31 31 33 32 32 35 37 35 33 29 33 37 36 33 38 
23 27 30 24 26 27 25 22 22 22 26 21 26 25 20 20 21 22 18 20 20 17 21 21 24 22 23 23 27 27 26 23 26 24 26 27 25 29 29 26 29 26 30 31 32 36 35 42 39 36 34 34 39 35 35 30 27 28 30 29 30 33 29 33 31 33 32 31 31 33 32 32 34 36 34 33 34 36 31 33 
23 28 27 29 26 24 27 27 22 28 26 22 25 22 19 21 23 27 25 24 24 19 23 18 24 24 22 24 25 27 24 27 26 25 26 24 28 28 28 27 28 27 31 34 34 37 38 39 39 36 35 34 36 35 41 36 31 30 31 34 32 32 29 33 34 33 33 34 34 34 36 33 34 36 34 31 36 35 31 37 
28 27 29 28 26 26 23 24 24 26 22 22 23 23 21 18 20 21 23 22 22 20 20 21 20 22 23 24 28 26 24 23 25 27 25 26 27 28 26 27 28 23 29 30 32 34 35 34 35 33 35 30 32 32 34 36 37 38 39 36 36 39 36 35 35 36 36 36 35 35 33 31 33 36 32 29 35 31 34 36 
23 29 30 28 25 24 21 24 25 25 21 24 21 23 20 21 21 22 25 23 19 19 17 19 22 20 23 21 20 24 21 23 24 23 23 24 25 25 26 24 24 25 27 27 33 31 35 34 35 33 31 30 29 34 34 36 35 33 37 36 38 37 39 34 35 37 38 40 36 37 37 37 38 37 36 36 35 33 37 37 
25 29 27 27 25 25 24 30 27 29 24 28 23 26 24 27 24 23 26 23 22 21 21 23 19 25 23 23 26 24 22 23 24 23 29 25 28 26 26 28 26 29 32 29 33 35 34 35 32 34 30 32 32 31 35 35 39 36 37 37 40 38 40 36 37 39 39 42 42 42 38 38 39 41 40 44 41 42 37 31 
25 28 26 27 26 24 25 27 26 23 24 25 24 23 25 22 26 27 26 25 24 24 23 22 21 20 20 24 22 23 22 20 24 23 24 27 25 27 27 30 34 32 32 30 30 33 32 32 33 30 27 30 32 33 33 36 39 38 35 36 39 37 41 36 35 40 41 40 43 41 38 39 41 37 39 37 40 41 37 39 
22 26 23 27 28 27 27 26 25 26 26 23 22 21 20 21 25 27 27 26 23 19 20 22 23 24 24 24 26 25 22 23 25 24 27 28 28 32 33 32 34 34 36 34 35 31 32 30 32 30 30 30 29 29 30 31 36 37 39 36 40 36 38 38 36 38 39 39 42 40 41 41 42 41 41 40 41 44 39 38 
24 22 29 21 29 27 22 25 24 30 23 25 24 22 27 23 29 23 25 24 22 22 22 23 24 24 24 23 24 25 24 20 21 23 27 32 33 32 34 34 33 33 34 35 34 31 32 31 32 32 32 30 29 28 28 25 29 31 33 32 32 37 38 34 37 36 39 39 42 41 43 43 41 41 39 38 36 44 37 37 
25 24 25 27 25 30 27 27 28 28 28 26 21 25 26 24 27 26 26 23 23 23 22 21 23 21 25 24 24 28 29 24 27 32 29 38 35 36 34 35 34 36 35 34 31 31 35 34 34 31 33 34 30 28 28 28 31 29 29 33 32 30 30 32 36 36 37 38 39 40 44 41 42 40 37 38 40 42 37 41 
24 28 29 25 26 26 28 26 27 27 24 24 27 24 26 25 27 27 26 28 20 23 25 26 23 23 25 28 27 26 28 29 30 33 31 34 32 35 31 35 32 33 36 30 30 29 34 38 36 30 32 31 28 29 25 29 31 29 30 30 30 30 31 30 33 30 35 32 35 35 40 39 42 43 41 39 41 39 39 45 
23 29 26 23 23 23 24 22 25 20 19 22 22 24 24 22 23 25 23 23 18 21 17 20 19 20 21 24 26 32 30 29 32 30 31 31 32 27 31 30 35 31 29 27 30 27 28 33 36 34 33 32 28 24 24 27 28 28 27 28 31 28 28 30 28 30 26 31 31 31 32 30 35 33 33 36 37 36 33 34 
20 28 24 30 22 20 20 23 24 22 22 21 21 23 22 21 22 26 22 20 21 20 21 19 20 20 23 25 30 32 28 28 28 26 31 30 33 26 30 27 25 27 29 27 28 26 27 31 35 35 33 33 32 27 21 27 25 26 27 27 26 26 27 26 28 29 30 31 28 32 32 32 34 30 31 32 28 32 30 36 
22 28 32 29 26 23 20 21 24 26 21 23 21 21 22 23 27 25 23 21 18 20 18 21 23 25 28 30 31 34 33 30 29 33 29 33 30 28 26 24 28 27 26 27 26 25 29 35 38 35 36 35 29 24 22 25 26 28 26 30 26 28 29 29 26 29 31 31 31 30 33 33 33 35 32 30 32 34 31 31 
24 26 27 27 23 20 19 18 20 24 21 22 18 19 20 20 22 20 19 17 18 18 21 23 28 27 30 31 31 28 29 25 29 29 27 28 27 27 27 24 24 23 25 25 24 25 28 30 34 32 30 30 30 23 23 25 26 24 24 27 25 26 27 26 26 26 29 25 27 28 30 26 29 29 33 28 27 31 30 31 
27 30 30 26 23 22 19 20 18 20 19 21 18 21 20 21 22 23 22 19 18 24 29 26 29 31 28 30 31 29 29 32 29 27 27 24 24 24 24 23 24 25 23 23 23 22 27 30 36 32 32 32 31 27 24 23 25 24 27 22 24 26 27 26 26 28 27 29 31 27 34 25 31 30 30 28 31 32 31 24 
30 30 27 28 26 24 22 21 23 20 20 18 21 18 21 23 27 19 19 22 23 27 24 27 28 30 27 29 29 29 29 30 27 23 23 24 25 23 24 24 21 23 22 24 24 23 22 32 34 30 30 31 30 29 22 23 25 22 27 30 28 25 28 26 26 24 29 30 29 30 31 30 32 30 28 26 31 32 29 27 
25 30 27 26 23 22 21 22 20 18 16 18 18 18 19 19 23 23 20 18 17 25 24 25 28 27 30 30 31 30 28 24 21 24 25 22 23 24 23 21 23 19 21 23 23 21 17 25 33 30 34 32 28 31 22 23 23 23 28 27 26 23 26 24 27 26 29 29 27 28 33 28 30 28 29 25 29 29 29 29 
28 30 28 27 28 24 23 23 23 19 20 18 21 18 22 21 24 23 21 19 18 25 27 29 28 27 30 30 28 25 25 22 24 23 19 24 27 23 23 23 20 25 21 22 22 23 20 27 36 35 33 31 27 28 25 21 24 27 26 25 27 26 28 27 26 24 26 28 29 29 30 27 33 29 30 30 26 32 29 28 
27 32 27 27 24 24 28 22 25 21 20 17 13 15 18 17 22 19 20 19 18 19 28 26 30 30 31 28 25 23 23 23 22 22 24 26 23 23 23 23 20 24 20 23 19 20 20 22 32 32 30 28 28 31 22 26 25 24 24 25 27 28 26 25 25 28 26 28 31 29 31 27 30 34 27 26 29 31 30 31 
30 28 30 27 26 25 28 22 26 24 23 18 19 18 17 17 18 21 21 20 20 17 23 27 24 26 21 25 22 21 21 20 21 24 21 22 22 24 22 20 20 19 21 19 21 21 17 21 30 29 28 27 24 28 23 22 26 23 25 24 26 27 26 25 26 26 27 29 27 28 29 26 26 29 28 28 27 31 31 33 
29 26 28 28 24 23 27 22 20 25 20 16 21 15 19 19 16 18 23 19 21 20 21 27 26 23 21 21 22 23 23 22 22 20 24 22 23 26 22 21 21 22 22 23 24 23 22 23 33 32 33 28 33 33 27 25 26 25 27 29 26 28 28 26 26 26 27 28 29 30 29 28 33 31 29 29 31 34 30 27 
27 33 29 32 28 30 28 24 27 23 19 23 20 18 21 20 22 17 23 20 18 20 19 22 21 21 21 23 25 22 21 22 22 24 25 24 23 23 22 21 24 23 23 27 23 26 27 24 32 32 31 32 34 38 30 26 25 28 28 28 27 26 30 28 31 30 27 28 32 28 30 28 31 33 29 35 36 37 31 34 
31 32 31 30 26 27 29 22 24 23 16 20 21 15 19 22 19 14 18 17 14 15 16 21 18 19 20 19 21 25 20 20 19 23 21 21 25 24 23 21 24 24 23 25 25 25 27 23 31 35 34 34 33 36 33 28 26 24 28 27 28 27 28 28 28 32 30 30 28 30 31 31 31 31 31 30 30 31 33 38 
30 30 30 29 24 29 21 25 29 23 20 20 20 18 19 19 17 18 18 16 16 19 17 18 19 20 22 20 24 19 24 21 21 22 23 24 23 22 21 21 22 24 23 23 23 24 27 23 31 34 32 31 35 38 33 25 23 24 27 27 27 28 26 26 28 31 30 31 28 28 29 30 32 33 32 32 32 33 32 32 
26 31 25 32 27 24 24 22 23 22 20 19 19 21 21 17 18 19 17 18 15 18 18 18 18 20 18 18 22 20 23 21 21 23 21 24 22 22 22 21 26 23 25 23 23 26 25 26 30 32 36 31 37 35 33 28 26 26 30 27 26 26 26 27 29 28 28 27 29 28 28 33 29 32 33 29 32 34 36 36 
30 35 34 33 29 27 28 25 25 26 21 20 19 20 20 20 19 24 17 19 18 19 16 20 18 21 24 23 19 25 22 23 21 21 27 26 24 24 25 24 25 28 25 25 24 28 32 25 31 32 35 33 35 34 36 32 25 26 25 28 31 29 28 30 31 31 30 32 30 29 31 32 34 35 35 34 34 39 33 37 
30 31 33 32 25 23 22 22 26 28 19 22 21 19 22 17 19 22 21 18 20 18 18 18 16 17 21 20 21 26 22 22 23 22 24 22 22 25 24 23 24 22 26 26 27 27 29 26 30 34 33 33 34 36 33 34 24 28 27 30 27 29 26 30 27 26 29 29 28 27 30 33 34 29 35 34 35 33 36 36 
27 26 30 33 24 26 21 25 25 17 20 24 19 20 19 18 18 23 19 19 19 17 19 19 18 20 20 21 20 21 19 20 21 21 22 24 25 23 23 22 26 22 21 26 25 24 27 23 26 32 32 33 35 35 35 34 26 23 24 29 26 28 25 28 26 30 27 31 31 28 32 30 29 32 33 34 33 33 32 36 
26 25 30 29 23 21 23 24 24 23 23 20 18 17 21 18 20 17 20 20 20 19 21 16 19 20 20 16 21 23 20 19 21 22 19 24 24 20 23 23 25 22 25 25 27 24 27 26 29 29 31 31 31 34 31 31 25 24 27 28 30 29 28 28 27 30 27 28 26 29 28 29 32 32 32 34 33 35 31 36 
26 26 25 28 17 16 20 19 22 23 22 19 22 23 18 19 19 18 18 18 16 19 19 19 19 21 21 22 17 21 20 21 22 19 22 26 25 21 20 24 22 23 23 22 23 21 23 25 25 28 32 30 32 32 28 30 26 26 29 27 28 26 28 26 29 28 28 30 31 29 28 28 27 31 33 34 39 32 36 36 
23 26 27 27 19 25 25 25 25 23 22 23 22 20 27 22 20 23 21 21 20 22 22 18 25 20 20 20 17 21 24 21 23 24 24 26 25 24 24 25 23 26 29 25 23 24 28 27 27 28 32 31 36 36 32 33 27 26 28 30 31 30 31 27 29 29 30 31 30 31 29 32 35 34 33 36 36 34 34 35 
20 29 28 27 22 29 26 25 26 27 22 23 23 23 23 21 22 21 22 20 22 24 23 19 21 21 22 22 22 21 21 23 25 28 23 25 24 23 22 28 26 27 25 27 27 26 26 26 26 32 30 30 31 33 32 31 30 30 29 30 33 30 29 31 33 34 32 33 35 34 33 30 34 37 35 34 36 32 34 37 
23 27 26 26 24 24 24 22 22 23 21 20 24 23 22 24 23 24 20 20 22 23 23 23 19 20 20 19 24 22 19 22 24 22 20 24 25 26 25 22 27 20 24 25 29 28 23 25 24 30 31 29 34 35 30 32 28 24 27 26 29 29 29 29 32 31 33 29 30 32 31 34 30 34 30 33 36 38 34 32 
16 24 23 25 24 24 20 26 24 26 21 19 22 27 22 20 23 25 23 24 22 23 21 18 23 21 21 22 23 24 19 23 21 23 22 21 22 23 26 25 24 23 24 25 28 29 25 22 26 27 29 28 31 32 30 32 30 27 29 29 33 30 31 32 29 30 32 31 29 32 29 29 33 34 36 34 35 37 34 34 
15 16 21 25 25 25 25 24 22 27 25 23 23 24 25 28 21 25 25 24 22 27 24 22 24 21 22 25 22 25 21 23 22 21 25 23 24 24 24 24 27 27 26 29 29 27 29 23 28 27 31 29 34 32 30 35 33 28 33 29 31 32 31 30 32 34 35 34 34 37 35 37 35 35 36 33 37 37 34 33 
15 13 15 19 24 26 23 26 28 25 25 20 29 24 23 24 22 25 27 23 20 22 20 23 22 22 23 24 26 28 26 22 24 25 21 24 22 26 23 25 26 26 23 28 30 25 24 27 24 29 31 28 31 33 34 34 32 31 29 33 33 31 34 28 34 36 30 32 34 35 33 35 37 36 38 36 38 34 32 33 
20 12 8 13 18 25 22 22 20 26 20 23 22 21 22 24 19 23 21 22 22 22 21 21 24 24 23 24 23 24 22 25 25 24 19 22 25 24 26 27 26 24 24 26 24 24 25 25 25 28 28 28 31 30 25 30 27 27 29 27 31 29 30 29 29 34 29 32 31 31 38 33 33 35 34 32 34 33 36 34 
26 20 15 14 22 22 27 28 28 28 24 25 24 25 25 25 25 25 27 21 24 22 22 24 25 24 23 23 24 25 22 23 23 26 22 25 25 24 26 23 24 26 24 27 26 24 27 26 25 29 24 22 25 23 27 29 28 28 29 32 30 33 33 31 34 33 33 36 39 34 31 35 34 38 37 34 37 39 37 33 
28 28 27 16 18 20 24 24 27 30 25 23 23 23 28 26 22 22 24 24 23 23 22 21 20 24 25 25 24 24 27 21 19 23 24 24 25 23 26 26 30 22 25 25 24 28 27 28 23 24 24 22 25 28 25 29 26 27 29 32 33 32 33 33 30 32 32 31 34 35 33 35 34 37 37 38 40 36 37 34 
33 34 28 26 23 20 24 26 29 27 26 26 25 23 24 23 22 25 24 23 24 24 25 22 22 25 21 22 23 25 23 22 22 24 25 19 26 22 24 25 24 23 24 23 23 26 26 26 22 24 24 23 25 24 21 28 26 27 31 31 31 29 31 34 31 35 32 34 34 31 29 32 35 39 37 36 39 35 37 34 


