P2
80 60
844
15 11 11 16 18 11 9 16 21 19 26 24 26 21 23 19 18 18 19 18 22 25 25 24 18 13 17 24 22 22 20 23 21 26 24 25 27 30 27 27 27 28 27 26 28 23 25 23 18 21 25 26 24 29 30 40 46 48 51 46 49 39 33 30 33 30 30 27 27 29 15 15 20 22 23 25 20 19 20 20 
14 7 14 15 16 10 7 15 19 21 26 26 23 25 23 16 20 21 20 23 25 23 24 23 18 16 16 21 22 21 22 21 22 25 26 25 31 28 28 29 30 30 28 27 25 28 24 20 16 23 25 27 27 24 31 39 47 46 47 44 50 43 35 29 32 29 32 27 28 25 16 15 22 22 28 25 23 20 23 28 
13 12 13 14 9 12 12 22 25 20 27 29 21 19 19 18 18 20 22 25 21 24 25 24 18 18 18 28 27 22 22 25 20 27 27 30 29 28 31 29 29 30 30 27 29 26 23 21 19 24 27 26 28 24 29 38 46 47 46 49 52 42 35 31 32 28 29 27 25 25 15 20 23 22 26 27 24 22 23 18 
13 12 15 17 11 8 12 21 25 21 23 26 20 21 20 16 18 23 20 23 24 23 21 20 16 12 19 36 38 33 30 24 23 23 25 24 28 29 29 28 29 29 32 32 28 26 24 20 20 22 27 27 28 27 29 41 50 47 50 48 50 41 34 28 27 28 28 26 25 21 17 18 24 26 30 31 29 25 20 22 
10 15 13 17 10 8 17 23 27 25 25 25 21 19 16 18 18 22 21 21 20 25 21 21 13 13 27 43 43 39 44 39 35 29 25 25 26 27 29 29 31 30 29 29 29 27 22 19 21 26 27 25 28 27 29 38 50 52 54 50 54 39 34 29 27 27 26 24 25 21 17 19 22 23 29 30 26 27 25 26 
9 13 13 10 8 10 17 25 24 22 22 22 21 18 17 18 18 24 22 24 21 21 19 19 13 17 31 42 41 41 43 42 40 40 40 36 33 27 32 30 31 30 32 30 25 27 22 22 25 23 28 27 27 27 32 42 54 51 51 53 56 41 33 34 27 21 25 24 21 22 18 19 27 26 31 31 27 27 28 27 
13 15 15 7 8 15 20 27 27 18 23 21 21 17 22 17 17 18 20 22 23 21 18 16 11 18 37 42 42 44 42 42 42 42 45 42 44 40 38 34 32 26 29 28 27 28 20 21 23 25 28 26 28 29 29 41 54 54 56 57 55 44 31 30 28 25 22 25 25 22 20 20 26 25 30 31 30 26 24 33 
12 14 12 8 13 18 20 24 23 23 23 19 20 20 19 14 18 19 17 20 21 21 17 14 9 22 38 39 42 39 39 40 43 45 45 43 45 46 45 47 39 35 33 30 31 23 23 21 26 27 29 23 29 27 27 42 59 61 66 63 64 46 38 34 29 29 29 24 23 21 18 23 25 26 28 31 29 27 28 36 
11 14 12 8 11 19 26 25 22 21 24 20 17 17 21 18 18 23 20 22 19 18 13 11 11 30 40 41 42 44 41 44 42 42 45 44 43 42 43 47 45 48 45 41 33 26 23 23 25 27 26 28 32 28 29 43 68 74 80 78 72 45 41 32 32 32 29 28 23 23 18 23 27 27 32 35 36 39 40 41 
8 13 12 8 16 17 26 18 22 19 19 19 17 17 17 15 16 19 17 22 21 19 13 8 10 26 37 40 39 40 40 42 42 44 42 43 45 41 46 48 45 46 48 48 45 40 35 29 28 27 25 27 30 33 35 53 102 120 132 124 99 59 42 36 34 32 32 29 25 20 18 23 32 30 41 45 47 45 39 39 
7 8 7 12 15 16 19 20 20 16 18 15 15 13 17 13 16 13 14 18 16 13 8 4 6 17 22 29 39 33 39 38 40 44 42 41 43 41 46 44 44 45 46 53 50 48 53 51 43 37 31 30 35 39 54 113 221 285 308 274 196 104 60 47 38 32 35 29 28 25 31 39 46 46 50 50 48 49 39 43 
8 6 3 3 13 16 20 21 17 16 17 15 13 13 15 13 13 17 12 16 16 13 7 8 11 15 19 19 19 20 26 32 36 42 42 43 43 44 47 45 47 48 48 48 49 50 54 57 56 58 53 45 42 85 195 346 461 499 502 475 418 312 154 71 43 38 41 43 45 48 47 52 53 48 51 53 48 48 41 42 
12 3 2 5 15 20 18 18 19 13 16 16 12 12 13 11 14 13 13 15 15 10 5 4 14 17 15 16 14 15 15 18 19 24 30 36 37 40 44 42 46 48 49 48 48 53 54 57 60 60 70 85 115 226 406 521 569 580 577 544 493 439 351 175 79 65 62 60 58 55 51 50 51 48 54 51 44 51 48 43 
5 4 2 7 17 15 20 19 21 17 16 16 12 9 10 10 10 14 16 13 12 6 4 8 14 16 15 13 15 14 16 18 16 20 22 24 24 29 36 38 44 45 48 52 48 51 53 59 59 63 81 117 213 389 526 583 630 658 664 623 547 478 424 335 170 100 77 65 59 54 55 56 53 52 55 53 46 47 44 43 
6 1 8 10 17 16 17 20 23 16 16 14 12 10 13 12 17 15 16 17 12 4 4 6 13 21 15 15 13 14 15 17 16 20 19 23 21 21 25 22 29 32 39 44 48 51 53 57 60 71 96 154 302 478 569 636 705 752 766 700 603 509 450 403 271 137 89 70 63 59 59 53 55 49 51 46 37 33 25 22 
6 2 2 12 16 18 11 22 21 17 16 11 9 11 15 18 19 17 14 15 9 0 2 8 12 15 18 12 14 18 15 18 16 19 22 22 22 20 24 24 22 20 22 21 28 35 49 54 60 73 109 171 349 506 587 657 745 816 819 759 662 567 487 432 344 179 104 75 64 58 54 49 44 34 31 28 18 19 21 17 
3 1 6 10 18 19 15 19 18 15 13 13 10 13 16 16 20 16 14 13 9 3 4 11 17 16 20 15 15 17 17 17 18 16 21 20 20 19 22 19 19 19 15 12 12 13 27 40 50 58 100 172 358 512 594 662 742 801 836 818 740 640 544 476 384 199 104 72 55 47 39 29 26 18 22 21 19 20 13 13 
4 1 4 13 15 15 13 16 13 16 11 14 13 14 17 19 15 19 15 13 10 1 4 14 18 20 21 18 14 15 19 17 16 18 21 18 19 22 21 19 18 15 14 11 8 14 24 29 33 34 59 142 338 489 588 652 729 794 844 836 770 683 592 510 394 169 63 38 30 23 22 23 23 18 20 23 17 18 19 16 
10 1 6 14 17 18 17 16 15 13 15 12 10 16 16 19 19 21 19 16 7 3 12 18 18 19 19 18 16 15 19 16 13 17 19 18 20 21 19 19 17 14 13 9 9 12 21 25 31 32 50 124 292 441 555 624 698 768 805 795 750 682 598 516 364 145 52 32 23 25 21 25 24 19 22 18 21 19 18 14 
4 4 12 16 22 20 16 13 12 10 10 12 12 14 17 20 23 19 17 16 6 3 13 20 18 19 20 19 17 18 17 18 17 17 17 17 19 17 18 19 17 12 12 6 12 18 24 25 29 33 43 98 213 372 502 577 645 706 743 736 699 641 572 486 289 109 46 33 26 25 27 27 24 18 21 21 22 19 20 13 
5 3 12 14 17 18 18 15 11 10 11 13 12 16 19 20 23 23 22 17 8 8 14 22 20 21 18 18 15 17 18 15 14 15 18 19 18 17 18 20 17 15 13 13 13 18 25 27 29 31 37 72 147 308 405 518 583 631 663 662 635 590 523 387 201 74 43 32 28 27 26 24 24 19 22 26 20 18 16 13 
3 9 17 17 18 17 22 13 12 10 16 15 14 15 22 19 20 24 23 17 10 12 15 21 17 20 16 20 17 16 14 15 16 16 17 21 20 21 21 21 19 15 17 13 16 21 27 30 32 34 37 60 127 209 327 382 475 550 582 578 557 492 395 264 138 60 40 29 25 27 28 25 26 21 21 22 17 16 12 12 
6 10 15 16 17 16 13 10 8 10 14 15 18 17 18 23 22 24 21 13 11 12 16 20 17 18 17 21 16 16 15 15 17 18 21 21 21 26 22 22 20 20 16 16 18 25 29 33 33 38 49 79 111 158 204 280 348 376 399 398 388 346 261 187 114 65 43 29 28 28 26 26 27 23 21 22 17 13 13 11 
7 9 16 14 20 16 12 11 13 11 17 18 23 20 22 24 23 26 20 14 9 15 17 16 18 17 16 18 17 17 14 15 16 17 22 24 25 29 26 26 24 21 19 19 21 30 31 37 36 43 61 76 94 118 150 177 186 213 239 231 221 195 153 117 88 76 50 30 29 26 28 24 25 20 21 23 16 16 10 8 
7 11 14 12 15 17 15 13 13 14 21 21 23 22 25 29 24 26 19 15 9 14 17 15 14 17 18 17 15 14 16 17 18 22 25 23 24 26 27 28 23 23 22 21 28 29 35 35 40 53 63 71 82 95 111 114 102 110 115 103 91 104 100 88 72 69 57 35 25 28 26 27 24 22 21 20 16 14 10 18 
10 13 22 17 21 20 20 17 17 19 19 24 24 24 28 27 27 26 22 16 13 19 17 14 14 17 20 18 17 14 16 19 20 24 26 24 26 29 26 27 24 24 23 24 27 33 37 38 50 58 62 66 73 80 86 68 53 45 45 46 49 62 74 71 68 59 57 49 30 27 26 27 24 24 25 21 17 14 10 17 
12 13 19 19 23 24 19 22 19 21 24 22 25 24 29 28 27 29 24 17 19 20 20 19 17 20 21 22 18 16 19 20 22 23 27 26 27 29 29 28 24 24 19 25 28 33 38 46 55 57 59 65 65 72 68 47 39 39 42 42 46 50 62 65 64 58 57 51 43 34 27 27 25 20 21 23 17 16 11 11 
14 21 24 23 26 25 23 24 20 22 23 26 25 27 31 30 31 27 23 19 22 22 22 25 21 23 23 21 22 21 22 20 23 24 25 27 25 29 28 30 24 24 22 29 33 36 46 54 53 57 56 58 63 64 49 37 37 36 37 36 42 45 49 59 55 55 56 52 50 39 32 26 29 21 21 24 18 21 13 14 
16 19 22 25 27 30 27 27 22 25 25 29 28 30 30 31 35 29 26 19 21 27 24 25 24 25 25 24 23 24 24 26 23 25 24 27 27 29 31 27 24 24 25 28 31 40 54 54 53 53 57 57 60 53 37 35 35 33 34 34 42 44 47 52 58 55 52 54 51 52 37 32 27 24 22 27 21 21 19 15 
17 22 26 28 27 27 29 27 28 25 24 29 31 31 34 35 29 28 25 23 24 27 23 27 23 24 24 27 24 23 25 26 26 23 27 26 26 28 29 28 25 24 23 31 37 53 55 54 55 52 56 56 58 41 32 32 30 32 33 34 42 41 42 43 51 53 54 53 51 54 48 33 29 25 28 24 22 22 20 15 
27 24 26 25 28 31 28 24 26 22 29 28 29 29 31 31 28 27 25 20 25 29 25 24 24 26 25 23 25 23 25 29 21 25 25 24 25 26 26 26 20 21 23 31 47 54 53 55 55 51 52 52 47 34 33 30 30 30 32 32 37 40 40 37 40 47 49 50 48 51 50 41 32 26 24 25 24 26 19 17 
24 25 28 25 31 27 28 27 26 23 27 27 29 28 29 32 28 26 20 22 25 26 27 29 28 23 26 25 25 24 24 28 25 25 25 25 28 24 22 23 18 18 21 40 52 53 57 56 53 53 51 44 36 31 27 25 26 25 28 29 37 39 38 35 32 43 49 48 52 51 50 48 42 25 27 24 21 23 15 17 
24 27 28 26 28 28 29 27 28 26 26 26 28 30 30 31 25 25 22 25 26 25 25 25 26 24 27 24 28 25 27 24 27 26 27 28 26 26 20 18 19 19 33 51 53 55 55 53 50 53 47 35 33 26 25 24 22 23 25 25 32 34 35 34 29 25 42 48 50 48 54 49 50 33 27 24 24 23 21 23 
27 25 27 31 33 31 31 31 29 30 29 29 28 29 30 29 23 22 21 24 27 28 27 28 26 25 26 24 25 25 26 26 23 26 26 26 26 26 23 21 16 24 47 55 56 56 55 54 51 47 37 31 30 24 23 17 21 21 24 21 29 28 31 31 27 19 27 46 50 53 49 50 51 44 29 26 23 26 22 24 
25 26 31 29 32 29 26 28 27 28 30 30 30 30 29 30 25 21 19 23 26 26 26 26 31 27 27 27 29 26 27 27 25 26 24 27 25 24 22 19 22 43 50 53 56 54 53 53 48 38 31 29 27 22 20 17 19 18 23 19 27 31 30 28 24 16 18 36 47 50 51 51 52 48 40 30 28 26 22 23 
27 27 28 29 32 28 30 25 25 23 26 27 30 30 31 26 23 20 19 26 28 28 29 27 27 27 27 22 25 26 25 26 26 24 27 28 28 22 24 24 37 49 51 50 51 52 52 51 42 32 30 29 26 26 22 19 19 21 23 21 28 27 28 28 18 16 19 28 44 50 50 50 50 47 47 35 29 28 25 23 
27 23 27 26 31 29 29 26 25 26 25 24 28 30 28 25 22 24 25 32 30 29 30 30 29 27 26 25 27 27 29 30 26 26 30 25 29 26 26 34 46 51 50 49 52 52 53 50 38 34 29 26 28 26 25 18 21 23 19 21 26 27 25 26 18 16 20 23 33 47 49 50 48 51 46 45 34 28 23 21 
26 29 26 32 29 30 28 26 23 25 24 22 28 27 27 30 22 22 23 29 32 29 30 29 29 27 27 27 28 28 30 27 29 28 29 29 27 27 34 44 47 49 50 51 49 50 51 42 29 28 29 27 31 27 24 23 25 23 23 22 26 29 26 22 17 17 21 24 31 39 48 48 50 47 46 48 43 31 22 23 
27 24 26 27 32 31 28 26 25 23 25 28 25 24 27 24 19 23 26 31 29 32 31 32 32 27 29 30 29 29 30 32 28 30 29 26 27 31 44 46 46 49 50 47 48 50 47 35 28 25 31 28 31 28 25 27 23 24 22 21 23 25 25 21 15 14 21 24 29 32 44 49 51 46 47 48 46 39 26 26 
30 27 26 30 32 29 29 26 24 24 26 29 25 27 27 22 19 20 25 28 28 29 30 28 28 28 31 29 27 31 31 30 29 30 30 30 30 43 49 48 50 49 51 49 49 51 40 30 27 25 30 30 29 28 26 26 23 24 23 21 26 26 21 23 18 19 24 24 28 35 40 45 50 46 46 50 46 46 33 28 
28 27 28 28 32 28 31 28 25 23 26 24 27 26 24 17 13 18 23 28 30 29 29 31 30 30 28 27 26 28 32 30 32 30 30 31 37 45 48 49 51 46 52 49 49 41 33 28 27 26 25 28 29 28 26 22 25 24 24 19 23 26 23 20 15 16 24 23 26 27 29 40 44 43 47 46 49 45 40 29 
25 27 24 24 29 28 27 25 24 20 27 27 24 22 20 20 14 21 23 29 27 31 30 30 29 29 29 27 30 29 27 31 28 28 30 36 47 47 49 52 50 52 50 52 46 33 32 29 28 26 25 27 27 27 26 22 27 22 23 21 27 27 27 22 16 20 23 26 30 29 26 34 45 44 49 47 47 46 43 35 
25 22 25 25 28 31 28 24 23 24 26 26 22 21 21 17 13 22 22 25 30 30 28 29 27 26 27 26 28 26 27 28 27 28 34 44 45 49 50 49 49 49 50 50 38 35 30 32 28 26 25 27 28 26 27 24 25 23 25 22 25 27 25 20 18 22 24 23 26 27 23 25 34 42 46 49 48 45 40 42 
27 24 25 23 29 28 25 24 24 22 27 25 22 24 20 12 10 19 25 24 28 28 29 29 30 25 28 27 26 25 26 26 25 27 29 37 44 46 49 48 48 50 50 40 32 32 31 30 29 28 28 27 31 28 26 24 25 26 24 20 27 27 25 21 14 21 21 25 27 25 27 24 27 38 45 48 45 48 43 41 
24 20 21 20 26 21 23 24 23 23 18 19 22 24 19 14 11 18 23 22 26 23 25 28 27 24 25 26 25 25 27 27 25 27 27 30 35 45 49 47 50 50 43 33 29 32 33 29 29 30 25 26 28 27 26 25 24 24 26 24 27 28 24 18 12 17 22 24 26 27 25 23 26 32 43 49 47 46 39 28 
25 24 21 19 22 19 23 20 22 20 20 22 19 24 19 10 7 19 21 26 23 26 25 27 24 29 24 25 25 25 25 27 26 27 25 25 24 27 40 48 50 47 36 31 30 31 29 27 28 29 27 28 30 29 24 21 25 25 27 25 26 29 22 18 16 19 22 24 23 25 21 27 26 24 36 44 44 38 26 22 
20 20 17 15 14 16 17 18 17 21 17 21 17 19 14 7 11 19 24 23 27 27 26 25 21 21 25 23 21 22 25 24 23 25 24 22 24 20 19 33 42 39 32 28 30 29 31 28 27 26 28 27 30 29 27 21 23 24 28 23 24 26 19 17 19 19 25 22 26 22 27 23 25 24 29 42 38 29 22 19 
23 23 18 16 14 12 15 16 14 14 18 22 19 21 14 9 11 20 23 22 24 26 25 26 22 24 24 24 23 25 23 25 23 22 23 23 21 17 14 16 26 31 29 30 30 30 31 31 26 24 28 30 29 28 28 21 24 21 26 24 25 26 21 19 21 21 22 19 25 21 22 23 26 22 24 29 25 23 19 22 
24 22 12 12 14 12 15 18 15 16 19 22 18 20 12 12 15 24 25 24 27 27 25 23 23 24 22 22 23 24 27 22 22 24 23 22 21 13 13 20 24 30 29 29 30 28 28 29 25 27 28 31 28 30 29 25 28 26 25 22 26 25 21 19 23 26 26 21 25 20 25 25 23 26 22 25 22 22 19 19 
22 20 15 15 13 9 14 16 12 15 17 18 19 17 14 12 16 24 26 27 30 27 23 23 23 25 22 25 27 25 25 27 24 24 24 23 18 13 11 22 27 27 30 33 27 31 29 32 28 30 28 28 30 27 31 24 29 26 26 21 28 25 20 24 21 24 22 20 23 27 24 26 26 25 25 23 25 24 20 18 
20 19 15 13 13 8 10 16 15 16 18 21 18 21 13 13 21 28 29 28 28 28 24 24 21 26 22 23 24 24 25 23 21 23 26 23 21 11 12 24 25 30 30 29 29 29 31 33 27 26 30 27 30 32 28 27 28 26 27 22 26 22 21 20 19 27 26 24 25 27 26 24 25 23 27 25 21 23 18 22 
23 21 14 16 13 9 10 13 14 16 18 18 20 21 13 14 21 27 30 31 32 28 27 25 22 26 22 28 24 20 25 24 25 25 23 22 19 17 16 24 27 29 30 31 30 32 31 31 27 28 28 30 32 29 30 29 29 25 26 25 29 23 22 24 22 23 28 27 25 27 26 25 25 22 24 27 22 22 18 20 
25 18 16 13 16 12 13 16 14 16 20 19 21 22 14 16 22 30 30 30 29 26 25 25 20 27 25 24 24 21 25 28 23 24 23 21 17 16 20 25 29 29 31 32 33 32 31 30 32 29 30 28 31 31 31 27 27 25 26 26 27 24 24 26 25 27 28 27 28 28 27 24 26 22 27 28 23 23 20 18 
19 19 17 18 18 14 17 15 16 18 19 22 21 20 15 20 27 34 29 30 28 31 26 22 22 26 23 25 25 24 24 25 22 25 22 20 18 16 20 27 29 30 30 33 31 32 31 35 28 34 33 30 32 31 31 27 30 27 27 24 27 24 24 27 31 30 28 30 26 30 24 27 25 21 24 27 22 24 22 15 
26 21 24 20 19 20 22 21 20 18 21 25 25 20 16 23 27 32 32 33 31 26 26 23 25 27 25 25 22 24 26 23 24 23 21 18 12 18 23 27 30 32 30 30 31 32 32 33 27 31 30 30 30 29 25 25 29 28 27 24 27 26 27 30 30 31 29 28 26 27 25 27 26 23 24 25 23 25 22 20 
26 19 23 21 25 23 24 25 20 21 22 26 19 18 18 27 31 35 35 30 33 30 31 28 21 25 26 25 20 20 25 23 24 21 22 18 18 13 23 28 28 32 30 30 33 35 29 32 27 29 29 31 32 29 30 24 29 28 28 25 23 24 29 34 30 30 29 30 31 28 26 26 25 25 25 26 23 25 24 18 
25 23 22 27 23 25 25 24 20 20 23 25 18 17 17 26 28 36 31 31 32 28 28 27 24 23 24 26 22 23 26 25 24 23 24 15 14 19 24 29 30 30 31 30 32 31 30 33 26 30 31 33 33 29 28 25 27 30 25 23 23 24 29 33 31 30 30 29 27 30 29 28 25 22 23 27 22 24 20 22 
26 21 23 26 30 28 28 24 25 21 19 28 19 16 14 26 29 35 33 32 30 30 30 28 22 26 22 23 20 21 24 25 23 24 22 13 14 19 22 24 28 29 28 30 33 29 31 31 28 28 30 32 28 29 29 25 26 25 23 25 23 26 30 31 34 27 27 29 29 27 27 26 25 22 23 28 25 24 20 23 
27 28 29 30 27 27 22 23 23 23 21 26 20 15 14 29 30 35 32 32 30 29 33 26 26 25 21 19 22 22 22 25 22 20 22 10 10 17 26 27 27 28 27 29 30 30 29 30 27 31 31 28 34 30 30 26 26 21 25 21 23 27 29 31 28 30 31 30 25 26 25 27 26 23 23 25 23 24 23 28 
29 28 28 29 31 27 25 24 27 23 26 25 18 17 18 28 26 36 34 34 34 29 32 29 27 24 21 17 19 19 22 23 23 23 19 9 13 18 24 26 26 31 29 29 30 35 33 31 27 31 30 29 34 30 30 26 26 25 23 16 23 26 29 29 29 30 28 31 27 29 24 27 28 21 25 26 22 24 21 20 


