P2
80 60
842
20 26 22 25 30 32 30 31 30 34 36 38 32 36 30 27 21 15 21 22 30 27 24 19 23 22 25 25 24 26 24 27 27 27 33 30 26 22 22 26 30 30 28 39 44 49 48 47 50 45 32 32 31 31 33 27 35 34 35 34 33 31 37 34 41 42 40 34 33 37 34 39 40 30 31 32 28 26 26 27 
22 23 27 26 27 33 25 25 29 31 32 33 34 33 31 25 21 16 22 22 24 27 19 19 19 20 25 24 21 23 24 25 25 26 29 26 25 21 18 22 26 30 28 39 44 47 48 45 48 46 33 30 30 28 30 28 37 36 37 32 33 29 32 35 37 35 34 33 32 33 31 33 33 28 34 29 31 31 29 23 
28 26 27 23 28 27 25 25 31 32 34 31 32 31 28 23 23 16 25 22 26 25 22 22 24 25 21 24 20 23 27 22 23 24 28 26 25 21 17 22 23 26 26 33 40 47 49 47 48 50 34 29 24 29 28 29 34 33 32 30 26 27 30 34 32 33 30 31 32 29 30 30 27 31 30 33 31 32 26 26 
31 27 26 25 26 30 25 27 25 29 28 28 30 30 31 23 27 17 24 24 28 26 24 25 24 29 23 23 22 29 25 24 26 27 28 27 23 17 15 19 21 27 24 32 43 45 46 47 48 50 31 26 21 24 28 26 32 36 33 29 28 27 29 29 31 28 26 30 32 31 30 32 29 30 30 31 28 29 33 22 
29 24 29 27 27 24 24 27 30 32 26 26 31 29 29 22 25 21 26 26 30 29 27 27 30 30 29 26 25 26 23 24 27 24 30 25 24 15 17 17 25 24 24 27 40 49 45 49 46 49 33 23 18 22 22 24 30 32 31 29 27 25 30 26 29 29 26 26 29 33 31 32 33 29 32 33 25 31 34 29 
30 27 23 24 29 26 23 27 31 25 30 28 28 28 28 20 24 25 27 26 30 27 26 28 27 31 28 27 24 24 26 26 26 27 30 27 22 19 20 22 24 26 21 29 38 47 48 46 52 50 35 26 18 25 26 30 29 32 34 26 26 27 27 27 30 31 27 27 30 31 32 30 34 30 32 29 30 29 27 28 
34 26 25 24 28 26 22 26 26 30 28 26 32 31 28 22 24 23 29 25 30 27 27 30 31 32 27 28 24 26 27 27 25 24 29 28 23 20 20 24 22 25 23 27 36 47 49 49 52 52 37 32 26 30 29 26 30 30 30 24 21 20 27 28 33 29 30 22 28 27 30 32 36 31 28 34 30 31 29 24 
31 25 26 24 26 22 23 21 24 24 22 27 31 29 27 30 21 25 25 27 31 28 27 24 28 30 26 27 24 25 25 25 25 29 28 26 23 20 24 24 23 25 24 26 34 46 49 46 51 55 42 34 28 32 27 29 32 32 28 24 26 23 24 29 33 36 27 25 25 25 26 27 32 30 29 32 24 29 27 23 
33 25 24 20 22 21 18 21 22 21 22 26 27 28 25 19 19 21 20 20 26 27 23 28 28 25 28 27 25 26 26 24 24 29 28 23 21 19 20 23 24 26 29 29 33 45 47 48 48 53 43 34 28 26 26 24 27 30 29 24 25 24 27 27 31 30 27 27 28 26 25 25 28 31 30 32 26 27 28 23 
31 30 26 23 23 24 19 16 21 22 26 30 29 27 23 17 21 22 28 22 26 28 21 27 25 30 31 26 26 29 25 29 28 29 29 25 23 17 21 26 25 29 29 28 31 46 49 50 50 50 43 31 26 27 25 26 31 30 29 23 26 24 25 29 29 32 32 31 30 27 31 28 29 29 39 40 29 27 25 23 
33 31 24 20 21 23 19 20 17 22 25 29 27 27 21 16 20 22 30 24 29 26 24 23 27 26 26 26 23 25 26 25 27 29 28 24 23 18 24 27 26 25 30 29 30 45 48 51 53 52 47 32 22 24 20 23 24 27 27 28 26 24 27 29 30 29 31 28 30 27 28 33 34 45 48 47 40 31 26 17 
29 31 26 22 21 24 16 17 21 23 26 24 27 25 21 15 20 25 27 25 28 25 22 22 23 25 27 25 25 28 22 30 25 28 29 24 21 18 26 26 25 26 28 27 30 42 49 50 50 55 47 31 25 26 26 24 24 27 26 27 27 26 28 30 30 30 29 29 28 32 39 39 46 47 50 47 46 37 26 22 
34 25 25 16 22 23 17 20 24 21 27 22 26 27 18 11 22 30 37 32 32 24 19 20 25 24 26 24 26 25 25 27 28 30 27 21 24 18 26 27 25 27 28 26 29 42 52 53 55 57 48 34 26 29 27 24 26 28 26 25 24 25 28 30 31 34 27 32 39 42 47 45 47 47 50 48 47 48 31 23 
27 22 21 19 16 24 19 23 24 26 29 28 27 23 18 13 19 35 41 42 42 37 30 28 26 25 29 24 25 24 24 29 29 28 29 26 21 20 27 30 27 27 26 28 26 46 54 57 61 58 55 36 29 28 29 22 29 30 26 26 23 25 29 28 32 38 42 46 44 49 46 47 49 50 46 49 46 50 44 28 
29 22 20 19 19 22 19 23 22 25 28 31 23 24 14 13 25 40 43 46 46 40 40 42 42 36 36 25 28 27 25 27 29 28 27 25 22 21 27 26 27 28 29 29 27 47 61 65 67 69 63 42 30 31 29 27 29 30 25 23 25 25 35 40 45 50 50 50 47 48 48 50 50 46 50 49 46 51 46 21 
22 23 18 18 17 22 21 26 24 20 27 23 23 23 13 12 29 41 42 44 43 41 41 42 42 44 43 39 39 37 34 31 27 29 29 23 22 22 24 29 27 32 27 35 27 43 70 80 89 92 79 46 34 31 32 30 33 30 26 25 34 41 46 46 48 52 52 48 47 48 49 48 50 53 48 46 42 36 29 20 
24 20 20 18 21 20 16 18 21 21 28 25 26 20 13 14 30 40 45 42 46 43 41 42 39 42 43 38 42 41 41 45 42 38 34 25 21 23 27 29 26 31 29 30 33 48 104 143 171 173 146 74 44 39 35 31 35 32 35 46 51 52 54 52 54 50 51 51 50 52 49 51 51 43 35 28 25 21 18 16 
27 23 18 16 18 17 15 16 19 23 24 26 21 17 10 13 36 40 44 47 51 44 42 42 41 43 42 42 42 42 44 47 47 47 50 48 40 36 38 34 31 31 29 38 52 113 239 354 415 409 369 269 139 67 44 37 43 53 53 56 56 54 53 57 54 55 50 48 47 49 45 39 35 22 24 21 20 24 22 19 
27 22 17 14 19 17 15 14 20 25 16 22 20 15 8 11 37 40 44 45 47 42 39 42 40 43 43 40 38 44 43 44 46 49 53 51 51 53 57 52 46 43 39 57 148 319 472 524 535 525 490 435 359 210 84 65 66 62 63 59 60 55 57 53 57 50 48 48 39 31 26 22 19 18 24 21 23 22 23 18 
20 13 19 18 21 17 13 12 14 21 21 19 18 13 5 13 31 37 41 39 41 43 40 42 38 43 40 41 44 44 43 45 45 47 51 50 53 55 60 63 66 75 83 145 321 495 568 595 605 596 544 482 425 368 227 122 83 70 64 63 60 57 54 55 53 49 40 27 20 18 17 19 19 18 21 22 24 26 20 15 
22 13 15 15 17 18 16 11 14 15 20 18 13 9 2 14 19 20 26 26 34 34 33 38 40 40 43 40 43 41 42 48 46 49 51 52 56 55 60 65 69 90 138 276 461 562 615 663 699 691 620 527 455 416 349 191 104 79 64 59 63 54 53 45 33 26 20 18 17 20 19 17 20 21 21 24 24 25 22 15 
23 20 13 12 15 18 14 11 11 14 18 17 13 9 7 12 17 16 16 15 14 17 17 18 23 27 34 38 39 40 42 46 46 46 52 52 57 54 61 66 77 108 177 361 513 592 667 739 789 771 683 584 499 444 400 264 133 87 68 59 56 42 30 25 18 20 19 18 19 17 19 18 19 18 23 23 22 23 19 21 
20 18 9 12 12 10 10 8 9 12 18 16 12 4 6 10 15 17 17 14 18 14 16 17 18 21 24 21 22 26 26 35 37 41 45 48 50 55 59 64 79 119 203 399 527 606 686 773 820 808 753 669 573 494 436 323 155 80 54 38 34 27 26 23 18 19 18 23 19 18 14 19 18 17 21 22 20 24 20 18 
22 17 11 14 11 12 10 12 13 13 17 15 11 4 9 11 20 18 17 17 16 15 15 17 21 21 20 19 20 19 20 22 20 21 26 28 36 44 56 65 76 123 205 393 524 603 684 750 805 842 816 733 642 550 476 335 118 54 34 29 32 26 29 23 21 20 22 16 19 18 17 20 17 19 26 23 23 25 20 20 
19 10 12 10 10 10 14 12 16 16 17 18 10 3 6 11 19 17 17 18 18 15 12 15 20 22 19 20 21 20 17 20 17 14 14 6 8 20 31 37 44 77 165 357 504 583 658 729 794 833 808 743 661 574 493 318 115 51 33 27 28 28 29 26 20 20 16 17 17 18 18 18 17 16 21 18 17 21 22 14 
21 12 11 8 6 11 12 15 18 19 20 14 6 0 5 14 20 20 24 21 17 15 15 16 18 21 17 22 20 19 16 19 19 13 13 9 16 19 23 27 34 55 127 307 444 556 626 687 750 779 762 713 640 565 469 265 99 51 33 29 27 28 26 25 23 22 20 17 16 14 15 16 17 17 21 19 16 21 18 18 
26 15 9 9 11 12 15 13 20 18 23 15 5 4 9 16 22 25 23 21 19 16 15 18 18 20 18 19 16 18 16 21 14 13 12 6 14 19 24 28 33 43 103 217 367 493 576 624 679 713 701 663 599 531 388 195 78 49 34 29 35 27 28 25 26 23 22 18 18 16 13 14 12 16 16 16 18 20 21 13 
22 15 15 11 12 14 17 18 19 19 20 16 8 6 13 17 23 26 24 19 21 19 17 18 17 18 20 15 16 19 20 22 15 11 12 10 15 20 26 28 31 40 67 137 280 388 482 559 601 625 617 591 526 422 280 152 66 49 35 32 36 29 30 23 24 26 22 18 17 14 14 15 14 16 18 17 19 19 17 15 
21 17 14 12 15 18 16 16 20 18 22 15 8 10 14 21 26 23 22 20 21 16 11 15 14 17 16 16 17 18 19 20 15 14 14 12 16 23 30 31 34 42 47 106 186 287 370 413 467 494 485 442 382 292 191 127 86 51 35 30 34 28 28 23 25 20 20 16 15 18 21 17 14 12 17 17 18 21 19 16 
15 13 12 11 16 14 16 20 20 24 19 16 12 10 19 21 23 21 23 23 17 15 14 14 16 16 18 20 17 19 20 19 19 13 18 14 18 27 32 33 38 43 63 101 137 185 229 283 317 333 316 281 231 177 129 96 83 67 37 29 29 27 25 24 24 22 21 21 18 17 18 15 16 17 18 17 18 18 18 10 
17 8 7 12 10 15 13 17 17 16 21 21 14 12 17 24 24 22 26 20 20 13 11 12 18 18 18 21 20 22 22 21 24 23 18 14 21 27 37 34 39 52 74 91 107 132 166 169 160 150 143 126 110 111 92 76 73 63 51 34 31 27 23 23 20 20 19 16 16 17 16 17 18 18 16 15 17 18 16 16 
15 8 14 16 13 15 16 18 20 23 23 17 10 15 20 20 20 24 24 23 18 14 12 14 17 24 22 20 24 25 26 26 23 22 23 16 22 31 36 36 42 62 71 81 88 106 116 89 70 72 61 58 56 75 76 70 64 62 57 51 38 28 27 24 23 24 20 17 16 20 19 20 17 21 22 18 19 19 15 18 
16 7 16 16 15 16 12 16 20 19 19 14 10 13 20 22 19 18 21 16 15 14 13 15 19 22 22 25 25 26 28 26 25 25 26 22 27 32 36 41 49 64 67 74 78 89 89 56 49 47 43 47 43 53 62 60 59 57 54 55 50 33 27 24 21 25 17 19 19 21 20 25 20 17 20 21 21 18 20 17 
12 17 19 21 23 18 19 21 26 24 22 12 12 17 19 16 18 20 20 15 17 15 16 15 19 19 21 25 28 27 32 26 26 24 21 23 27 34 38 46 58 68 69 69 69 77 63 46 45 39 44 47 40 42 50 56 58 60 53 55 52 44 31 25 25 24 19 21 19 23 22 23 23 24 23 19 22 21 19 17 
16 15 23 19 22 20 18 25 27 22 22 15 8 16 20 18 20 17 22 20 15 19 16 17 18 21 22 22 28 29 27 27 25 22 23 24 30 34 38 55 62 63 64 66 66 65 45 36 38 39 38 42 39 39 45 52 55 53 55 53 53 48 41 32 28 27 22 22 24 22 22 24 25 26 23 25 23 24 26 16 
18 19 22 21 24 24 23 22 26 24 20 17 13 19 21 20 23 20 23 19 22 21 19 15 21 22 23 22 24 26 28 28 23 22 23 25 31 33 46 55 57 59 60 62 61 53 39 34 33 35 34 37 36 40 39 37 49 53 56 53 53 49 48 39 28 28 25 23 23 21 27 23 26 24 27 22 23 25 21 14 
27 22 22 23 26 24 24 23 27 24 18 17 16 19 22 22 26 24 25 24 24 23 21 25 20 23 21 22 24 26 30 25 24 21 23 24 31 39 54 53 53 58 57 59 53 39 35 31 29 30 30 34 31 35 35 33 42 50 54 50 54 51 54 47 42 31 27 23 23 24 28 25 30 27 26 25 21 25 22 18 
24 22 22 24 25 26 26 26 24 25 24 17 19 21 25 20 28 25 27 23 25 24 23 22 23 23 23 23 24 24 27 26 22 20 22 26 32 47 54 54 53 53 52 57 40 29 29 25 27 26 27 32 28 33 34 32 33 33 49 54 51 50 47 48 45 43 29 24 25 23 28 25 25 25 26 24 22 24 19 20 
27 27 26 27 25 27 27 26 27 29 26 20 22 27 25 29 27 27 27 27 28 29 23 22 21 24 23 24 23 24 24 24 21 18 19 24 42 51 52 51 54 53 53 49 35 26 26 24 24 27 26 31 27 28 28 30 30 24 35 49 52 46 45 48 49 47 38 27 26 27 29 27 27 25 25 27 26 24 20 17 
31 31 28 27 29 29 30 28 29 26 24 19 25 28 29 26 27 30 31 27 26 27 24 24 25 26 25 25 21 23 23 19 17 16 18 32 47 53 54 51 53 54 53 37 29 22 24 21 23 25 24 28 25 26 28 27 30 20 18 37 50 49 49 49 49 50 49 37 29 28 26 25 27 24 26 24 25 21 20 14 
24 26 26 27 26 27 27 27 27 23 26 19 26 28 26 28 29 27 28 26 28 26 25 26 22 24 24 23 23 22 23 19 15 13 21 44 49 50 53 51 53 53 47 32 26 24 19 18 19 24 21 24 25 24 28 26 26 21 17 23 47 48 44 47 49 46 44 46 35 28 25 23 25 24 22 24 25 21 20 11 
32 25 25 27 28 28 28 26 28 27 22 20 24 25 28 28 28 25 29 22 28 26 23 26 28 26 24 25 24 19 20 17 15 13 33 47 50 48 54 47 50 49 39 32 23 21 22 16 21 23 21 24 25 23 27 26 24 19 17 23 27 42 45 48 46 47 46 44 45 35 25 26 24 21 25 21 20 24 19 17 
32 29 27 29 29 28 27 27 27 28 22 17 23 24 26 23 29 27 27 23 26 25 25 27 24 26 23 25 26 24 23 23 17 25 49 52 51 50 52 51 49 47 33 32 22 23 22 21 18 24 21 23 25 25 25 25 24 21 19 22 30 30 43 47 46 47 47 45 47 46 34 27 24 26 25 23 23 22 23 16 
33 30 28 27 26 26 26 23 28 26 20 17 26 25 25 26 27 26 27 29 24 29 23 26 31 26 24 23 26 24 21 22 21 41 53 51 49 50 54 49 48 40 30 31 26 28 27 24 22 23 20 24 26 27 26 25 23 20 19 26 29 29 33 44 46 46 46 45 47 48 46 35 29 27 24 24 21 25 24 19 
30 32 30 32 25 29 25 23 24 24 16 13 25 28 26 24 26 31 28 25 26 27 26 27 24 29 25 26 21 27 25 26 33 50 53 49 54 52 54 51 43 33 27 33 27 27 31 26 28 28 28 29 29 24 28 25 24 19 19 29 33 29 30 37 46 48 45 48 46 48 46 42 30 26 26 23 24 25 26 24 
32 33 28 24 29 32 24 24 27 22 22 17 30 26 27 26 26 28 23 28 24 26 26 29 29 27 29 30 24 27 25 32 42 49 53 52 53 51 53 50 36 30 29 31 27 28 26 25 29 32 26 27 28 27 28 23 24 21 22 27 31 29 32 31 40 46 46 48 46 45 43 45 44 31 27 26 27 28 24 24 
33 30 25 26 30 30 26 25 25 22 18 19 24 30 27 27 27 30 29 25 26 31 27 28 26 25 30 28 26 24 26 37 44 49 50 52 53 49 53 43 30 27 25 25 26 26 27 23 30 28 24 26 27 26 26 25 22 18 19 25 33 30 29 30 31 41 46 49 46 45 46 45 46 33 26 29 24 25 24 24 
33 28 25 23 26 30 28 27 26 21 20 18 24 30 27 24 28 28 28 24 27 29 28 28 28 32 31 30 23 28 36 47 48 46 48 49 51 49 49 38 25 26 22 27 23 24 22 22 26 28 25 28 22 25 24 27 25 16 21 28 30 32 29 26 29 31 43 47 43 44 45 45 40 28 25 25 25 23 24 27 
35 27 23 22 24 29 26 25 30 19 19 22 28 29 26 27 29 30 28 25 24 31 29 29 31 31 27 29 28 31 45 49 47 47 47 49 47 49 44 35 29 30 25 25 21 24 23 21 23 24 28 28 26 25 26 25 18 16 18 26 32 27 27 27 25 25 32 43 44 44 46 46 30 27 25 24 21 26 23 23 
33 29 26 23 24 26 25 24 24 22 14 19 26 28 27 30 31 27 27 26 33 29 26 31 30 28 31 27 29 40 48 48 49 48 48 48 51 48 35 30 27 29 26 25 21 23 25 22 27 31 26 27 25 24 28 23 17 16 20 29 33 28 26 27 28 26 26 35 41 44 42 30 25 24 23 25 24 25 26 26 
34 28 25 24 27 29 31 27 26 18 14 17 28 27 30 28 32 29 29 26 29 30 29 30 30 30 25 29 34 42 47 51 48 50 51 48 48 44 33 30 24 27 25 29 25 26 26 25 29 28 26 31 28 28 27 25 21 18 22 29 31 29 27 32 31 30 27 25 36 43 35 26 24 24 26 27 27 23 24 25 
29 28 28 26 26 33 31 24 21 18 16 19 28 32 30 28 29 28 30 27 32 31 30 30 30 29 32 25 31 44 47 51 48 49 51 50 47 35 31 32 29 27 27 26 23 22 23 24 28 27 27 27 23 27 28 27 22 21 24 28 31 27 28 31 29 32 29 26 30 29 24 26 22 25 31 26 27 24 24 27 
30 27 23 22 27 32 29 25 23 19 18 21 27 32 28 28 30 26 28 27 31 29 28 29 31 30 30 29 27 33 43 50 50 48 48 50 39 30 30 30 27 29 25 28 24 26 25 26 27 30 25 27 25 25 27 25 22 19 25 28 32 25 27 30 28 30 27 30 26 29 25 26 26 25 26 29 26 28 25 30 
34 33 29 28 26 29 26 30 25 22 17 22 29 33 30 30 31 25 29 29 32 29 29 28 31 26 29 26 26 31 34 39 45 50 54 49 34 32 31 31 28 28 28 28 25 28 26 26 29 29 25 32 29 28 26 26 25 21 26 32 32 30 27 28 31 33 28 29 25 27 24 27 28 31 29 27 25 27 35 26 
31 33 27 24 28 29 25 25 25 17 16 22 28 30 32 29 29 26 29 26 32 27 27 30 30 32 27 29 27 27 28 24 26 34 46 41 30 30 32 33 30 31 26 35 30 30 28 28 29 27 27 31 30 29 23 24 22 23 29 30 35 27 29 31 32 31 30 28 29 27 28 25 29 25 27 29 29 29 31 30 
31 29 29 27 30 30 21 25 24 17 14 23 28 31 28 28 31 26 28 25 29 25 27 29 30 30 27 27 26 26 26 23 17 23 33 32 34 32 33 30 30 30 28 33 26 31 30 30 29 32 30 32 26 31 28 20 21 22 25 29 33 27 31 32 31 32 27 28 29 27 27 27 29 29 28 28 25 25 28 29 
28 30 28 29 24 27 25 27 23 15 18 26 30 31 32 30 31 29 28 25 29 27 30 32 31 30 30 25 27 23 23 23 17 22 30 30 34 32 33 31 31 32 28 32 24 27 30 28 30 31 25 32 29 30 29 21 20 25 25 30 33 29 32 32 31 32 29 29 30 25 27 27 29 26 29 27 26 27 28 29 
27 22 27 23 23 25 23 22 22 17 18 24 29 33 27 26 29 28 25 26 25 30 26 29 31 26 25 25 27 25 23 20 17 20 24 32 31 29 30 26 30 36 29 30 25 30 29 29 30 30 25 27 26 29 26 23 22 24 27 26 32 29 29 30 28 26 26 25 25 25 27 25 25 29 27 27 26 28 29 31 
26 21 25 21 24 23 23 23 24 17 18 24 31 29 28 27 32 25 31 26 27 26 25 25 27 25 24 21 25 20 25 16 12 20 28 29 30 28 31 26 27 33 29 31 25 26 28 28 27 29 28 31 30 30 26 22 22 26 28 32 31 29 31 30 28 25 27 27 27 26 24 28 24 26 25 25 29 27 32 30 
24 23 24 21 26 26 28 25 26 24 28 29 38 36 35 34 32 29 28 27 26 32 27 27 28 28 26 23 25 22 24 18 14 22 27 32 27 30 31 29 30 34 30 34 30 29 28 29 27 28 29 29 31 27 28 25 20 26 27 30 33 30 33 27 33 28 28 27 23 26 22 31 27 29 30 28 25 26 34 35 


