P2
80 60
284
208 210 207 203 204 203 202 215 220 249 270 200 127 46 28 10 1 13 20 21 14 17 21 24 28 30 27 26 26 30 31 33 35 39 40 34 31 25 24 29 34 33 31 34 35 31 36 34 37 32 36 34 37 34 39 33 35 37 36 38 43 44 44 42 42 40 38 32 34 32 32 32 34 33 34 32 32 34 36 35 
208 206 205 202 201 202 204 212 222 266 250 190 95 41 24 5 4 15 13 14 12 17 22 26 29 26 29 31 30 28 31 33 36 37 43 36 29 20 23 29 30 35 33 33 33 33 36 36 35 38 33 34 34 33 36 33 36 36 35 37 46 47 43 43 44 40 40 33 39 29 32 31 32 33 35 32 32 33 35 32 
206 205 203 204 198 199 204 217 229 274 233 176 77 37 19 3 11 15 17 15 13 20 24 27 27 29 27 28 31 28 29 33 34 35 35 32 27 23 22 26 30 33 32 30 30 32 33 38 37 36 34 34 36 33 37 35 36 36 36 37 42 44 45 42 45 43 40 35 37 34 33 29 37 35 31 31 31 34 30 32 
204 210 202 203 200 204 207 217 240 272 223 157 64 37 22 3 13 16 20 15 14 21 24 28 27 28 28 30 26 25 26 28 35 36 37 33 25 23 24 27 30 29 33 33 31 32 35 34 32 36 33 34 36 33 35 34 36 33 33 35 40 47 47 42 45 43 42 34 34 28 34 32 34 36 34 31 30 32 30 33 
203 203 201 199 197 199 208 221 256 265 212 138 50 35 22 5 14 16 21 11 13 22 25 22 24 24 26 26 27 25 27 28 31 33 39 31 25 19 22 29 29 28 30 28 29 30 30 31 30 31 32 35 32 34 35 38 32 31 32 32 37 47 42 44 39 39 36 35 35 30 32 30 30 31 24 27 30 32 32 27 
202 201 200 199 199 204 207 224 269 256 191 114 40 35 22 6 14 17 17 14 14 21 23 22 26 22 22 26 28 28 29 30 33 33 36 28 22 21 22 22 24 26 25 27 26 25 32 31 31 30 30 31 32 29 31 32 31 32 31 36 34 39 41 41 47 41 38 37 33 27 30 27 32 32 31 29 32 32 30 29 
203 199 204 202 200 200 212 228 276 241 185 92 42 38 19 13 17 17 16 15 15 19 25 25 23 25 30 26 26 25 30 28 31 31 34 24 21 22 20 25 25 26 27 29 25 25 30 29 30 29 29 28 34 28 33 29 33 29 29 33 32 36 41 41 41 41 37 40 32 32 31 32 31 32 29 29 30 32 28 27 
203 201 200 201 201 205 215 237 283 226 171 77 38 32 21 21 17 17 14 15 18 23 23 21 25 25 23 26 25 26 26 30 29 32 29 26 21 20 24 23 23 22 27 21 23 26 27 30 27 28 28 30 30 29 32 28 31 26 26 30 29 34 39 42 43 39 40 40 37 28 30 27 30 32 31 31 32 29 31 29 
205 201 201 197 198 205 216 250 284 215 159 61 37 35 23 22 24 19 16 17 22 23 25 25 27 27 24 25 29 25 26 32 31 33 33 23 15 21 23 24 26 23 23 24 27 26 27 27 29 31 31 28 28 32 31 32 30 27 28 31 30 33 41 38 43 37 40 39 34 29 31 28 33 29 27 30 35 33 26 31 
198 200 202 196 203 212 219 262 275 205 141 50 38 31 26 26 22 18 16 17 21 25 26 25 27 22 22 25 24 24 27 27 31 31 29 25 20 20 23 24 26 23 26 26 27 27 28 26 27 27 30 29 30 28 31 29 27 27 27 33 32 32 38 40 45 41 40 40 36 27 27 30 32 31 34 32 30 29 26 34 
201 197 202 198 199 212 222 263 258 194 121 45 39 31 23 27 26 22 13 14 22 23 25 23 25 25 20 25 26 25 27 26 32 32 31 28 19 24 24 27 26 24 30 28 29 31 29 28 31 30 28 30 30 27 28 29 28 27 26 30 34 32 35 41 38 42 37 38 38 28 26 28 30 29 30 28 31 31 30 19 
196 200 199 201 200 210 229 272 241 184 99 48 35 28 25 26 26 18 14 16 18 24 26 24 27 26 27 22 28 26 24 26 28 29 29 24 20 23 22 25 29 28 28 30 25 30 29 30 28 30 29 29 28 29 29 29 23 29 29 30 31 28 32 40 41 38 36 39 44 32 29 30 29 33 32 29 31 30 29 27 
197 197 197 200 202 209 233 274 225 170 79 40 33 28 24 25 25 20 17 18 22 23 29 27 24 26 25 25 25 28 28 28 34 29 33 25 24 22 25 27 25 27 26 33 27 27 31 29 28 29 30 32 26 31 29 28 29 30 27 33 34 31 33 38 41 40 38 37 39 33 31 31 32 30 32 30 32 32 29 28 
196 196 197 203 200 212 241 266 214 156 65 38 31 25 26 28 23 14 12 18 19 21 27 27 23 23 25 26 26 24 27 30 32 29 32 27 19 23 27 27 28 30 28 31 29 29 28 28 29 28 28 28 30 31 31 28 30 30 28 30 31 30 33 38 40 37 39 42 43 32 30 32 33 32 27 30 29 31 29 30 
195 199 197 197 201 211 249 267 206 140 52 34 27 21 25 26 24 18 16 16 25 23 31 25 25 26 27 25 29 27 23 30 32 31 31 20 23 25 26 27 26 29 29 32 30 28 31 29 30 36 32 32 29 31 30 30 29 31 29 32 35 34 30 34 40 41 42 41 39 37 33 31 27 35 31 28 31 31 32 28 
194 198 195 199 201 219 253 250 201 120 48 34 22 22 28 26 23 10 16 22 21 22 26 23 23 24 21 26 26 26 24 25 34 32 29 24 25 26 26 29 24 28 28 30 31 33 30 28 32 30 35 29 28 31 33 29 29 29 30 31 31 32 28 28 42 39 40 44 43 34 36 31 30 28 29 28 33 29 28 28 
193 197 195 197 202 220 262 240 191 98 40 31 17 20 25 26 20 12 13 18 20 22 25 25 21 24 24 21 28 24 25 26 32 31 30 22 20 27 26 26 26 25 33 30 30 28 31 30 32 31 32 31 31 30 32 28 27 30 30 31 32 30 30 29 37 38 38 39 40 41 34 31 28 26 29 23 31 32 29 28 
194 195 196 198 205 230 271 228 177 75 39 27 17 24 23 25 17 13 14 20 22 22 25 21 25 25 23 23 23 26 24 29 31 30 28 20 19 27 27 29 32 28 29 28 29 29 31 33 28 30 31 32 30 31 33 30 29 31 28 32 29 30 28 30 38 36 38 39 41 36 35 30 30 29 31 29 29 29 32 27 
194 194 195 196 207 239 266 215 164 64 38 27 18 21 27 24 14 11 16 19 25 21 23 23 24 28 22 24 24 22 25 25 26 30 27 21 25 27 26 26 27 26 30 28 27 29 31 30 30 33 29 32 30 28 31 28 30 28 29 30 29 28 26 28 33 42 36 38 42 38 36 29 32 28 27 26 29 32 31 33 
196 197 198 203 214 243 264 206 146 49 35 28 14 23 28 23 15 10 19 23 25 24 26 24 24 23 23 24 24 24 24 28 30 30 29 23 26 29 28 29 28 29 33 30 34 31 30 31 34 32 35 31 33 32 30 26 28 29 30 33 32 30 31 30 30 38 39 45 42 41 34 31 32 26 29 26 34 32 37 36 
194 195 200 205 215 253 250 193 126 41 35 23 11 24 26 23 12 10 19 25 23 23 22 21 22 26 20 26 24 24 23 26 26 26 26 22 24 32 34 34 28 34 32 27 28 28 31 32 32 31 32 32 32 31 30 28 28 35 30 32 32 31 27 30 25 35 40 41 42 41 31 29 29 30 30 30 30 31 38 39 
196 195 202 205 217 261 240 182 105 39 35 24 17 29 26 19 8 12 20 25 27 23 25 24 26 25 24 26 27 25 26 30 29 29 25 20 29 38 41 37 40 37 38 37 35 34 34 34 34 31 33 34 31 31 30 31 26 32 29 31 29 28 28 28 27 35 38 48 50 53 36 33 29 27 32 27 33 43 42 48 
196 197 201 202 217 262 223 177 91 29 34 22 18 23 26 21 9 11 21 24 23 24 24 24 21 22 22 24 27 23 25 28 26 28 27 20 23 38 38 37 36 38 38 37 37 38 40 37 41 38 35 35 33 32 28 29 30 31 33 27 28 31 29 26 29 33 44 52 53 52 47 40 35 31 34 37 43 51 43 47 
197 198 199 201 222 259 211 158 72 33 32 22 16 22 25 15 8 12 22 24 23 25 23 23 21 22 22 23 26 23 25 24 24 27 19 21 27 40 37 37 36 37 36 39 37 37 38 38 37 38 38 40 40 40 42 38 34 35 31 31 29 28 28 30 25 42 46 49 47 45 46 47 48 42 39 43 45 53 50 49 
197 198 198 206 228 254 201 154 57 33 33 20 16 27 27 18 12 15 25 26 22 25 23 26 24 24 23 23 24 25 25 28 27 27 22 18 29 40 41 39 39 36 39 38 38 41 40 39 44 40 41 40 39 43 45 49 50 49 45 42 37 34 29 31 42 49 44 45 52 52 50 49 51 50 51 49 51 54 51 52 
192 192 196 208 237 245 192 140 55 33 35 21 21 28 26 21 13 22 27 25 24 21 23 24 21 24 22 22 21 25 24 23 26 25 22 20 28 43 38 38 36 39 37 38 36 38 40 38 41 39 40 40 39 44 48 48 53 49 46 45 43 45 43 48 49 49 45 48 51 55 57 57 57 52 56 56 53 54 52 50 
194 193 198 206 239 235 178 125 44 28 26 17 21 30 26 17 15 21 28 30 28 22 25 22 22 21 25 22 26 24 21 24 26 23 19 19 32 44 42 41 36 38 39 35 39 37 39 42 40 37 39 40 39 42 44 47 53 51 47 49 48 46 54 54 50 47 48 50 55 53 58 59 58 55 55 59 58 55 48 46 
193 196 198 208 242 228 173 111 44 32 30 20 22 29 27 17 19 26 28 29 27 23 25 24 26 26 24 25 24 25 26 25 24 24 16 17 30 33 35 35 40 38 41 37 39 41 39 39 44 39 41 40 42 44 49 49 50 51 50 46 50 48 54 54 54 48 53 49 55 57 59 59 57 54 55 57 52 43 42 45 
196 200 196 209 242 218 166 95 37 27 26 17 19 27 25 18 21 26 27 28 29 22 24 23 24 22 26 22 26 23 23 24 24 24 19 19 24 27 28 27 22 29 30 31 31 34 37 35 38 41 41 40 42 43 48 48 51 52 48 48 49 52 53 54 48 47 47 50 52 55 56 58 57 55 57 52 47 37 36 42 
191 194 201 213 243 207 158 78 36 24 21 17 20 27 25 15 23 27 26 26 25 18 25 20 24 22 24 23 23 22 21 21 22 23 20 19 23 25 27 26 27 26 31 29 27 30 32 28 33 28 31 30 27 32 35 39 40 46 45 44 43 49 50 51 51 50 50 50 50 55 56 57 57 54 55 50 46 37 38 38 
189 193 202 214 238 197 148 76 32 21 15 12 15 25 21 14 20 23 27 26 27 19 24 25 22 21 21 21 22 20 21 22 25 18 17 17 24 24 24 22 27 24 27 29 27 33 27 30 26 29 28 28 23 22 23 24 22 24 29 29 30 31 41 45 51 50 47 47 49 53 56 55 55 54 53 49 45 38 38 41 
187 194 202 218 236 187 141 61 31 18 16 12 16 24 17 13 18 21 28 27 22 20 20 20 18 23 23 20 26 23 20 22 22 17 15 17 24 27 23 24 24 28 27 32 24 28 25 30 26 28 28 29 25 22 23 23 25 23 21 24 24 26 35 43 48 48 47 46 53 53 53 51 55 56 59 53 43 37 35 39 
182 191 199 224 232 178 128 50 35 20 13 16 18 24 17 12 18 25 24 29 24 23 20 20 24 20 19 20 21 19 23 20 20 17 15 19 26 27 24 25 26 26 30 30 30 28 27 28 29 29 28 27 24 22 20 21 22 20 20 24 26 27 34 41 46 49 50 50 51 52 53 54 58 59 64 57 51 39 40 40 
187 187 195 226 223 172 119 44 29 12 9 13 17 20 14 8 18 26 24 26 24 23 24 19 19 21 18 23 22 24 21 20 19 13 13 18 25 24 24 27 25 26 26 29 28 28 27 29 25 24 25 25 22 20 21 20 22 22 18 19 24 24 26 30 46 52 52 50 54 51 54 56 56 64 62 54 50 50 44 43 
182 183 199 239 220 171 108 44 26 10 7 19 19 23 13 13 17 20 22 21 17 22 22 19 19 23 19 21 19 20 20 19 21 13 12 16 27 26 26 27 25 24 26 27 23 24 27 29 25 27 28 28 24 20 19 17 19 19 21 20 22 27 26 32 44 51 51 55 52 50 52 56 57 59 56 46 51 51 46 42 
184 188 203 237 212 169 97 36 27 15 6 13 17 21 17 13 23 26 24 22 24 20 21 21 18 20 18 22 26 22 19 23 19 17 14 19 26 26 26 29 23 25 27 26 24 26 26 25 23 27 26 26 22 19 21 15 18 21 21 25 23 25 32 42 47 47 47 53 54 48 48 46 47 47 46 46 50 51 43 44 
181 184 205 243 203 166 80 35 22 8 9 15 17 20 16 19 25 24 23 24 23 20 19 20 22 23 20 19 25 25 23 20 19 17 15 21 26 24 26 25 24 24 26 22 22 22 25 28 24 27 24 28 21 23 20 20 17 23 23 25 26 28 37 44 39 43 41 44 45 38 41 38 36 38 44 42 46 50 49 48 
183 184 208 244 196 161 68 32 22 7 11 14 21 17 16 19 23 23 29 26 21 22 19 17 21 17 21 21 26 24 26 25 20 19 19 21 29 26 26 25 24 20 25 25 25 23 26 26 27 30 28 24 26 24 23 21 21 25 23 27 28 38 45 40 42 42 40 42 41 33 34 35 34 34 38 41 45 49 48 49 
183 188 211 238 187 149 60 34 23 3 11 20 20 22 19 20 28 26 30 26 24 20 20 20 19 21 22 23 25 23 25 22 23 17 20 25 27 23 23 22 24 23 24 25 23 26 24 26 25 31 29 31 27 28 26 23 27 27 28 29 33 40 41 41 39 38 42 40 36 36 38 34 33 34 34 36 42 50 45 49 
190 189 217 231 175 135 49 33 25 0 8 14 21 18 14 19 26 27 31 28 25 21 20 20 22 21 20 22 23 23 24 23 22 20 20 26 28 28 27 26 22 23 22 26 19 23 23 27 25 31 27 29 26 28 25 23 28 25 29 30 36 41 41 44 39 42 40 32 33 31 33 32 30 35 30 32 40 41 46 47 
183 186 220 221 170 125 45 33 23 2 11 15 18 22 14 19 26 26 27 24 21 21 19 21 20 24 23 22 22 22 26 21 21 18 20 25 25 28 23 24 23 19 22 25 24 23 23 27 28 30 31 31 27 29 29 24 25 30 28 31 44 44 42 42 41 40 37 30 32 30 30 30 34 29 28 31 34 40 44 49 
184 185 217 214 161 111 44 32 19 4 14 16 18 21 15 20 19 25 24 23 21 21 19 18 22 24 23 24 23 25 25 22 19 18 20 27 28 23 25 25 20 25 21 22 21 23 25 25 26 30 30 33 27 28 26 26 27 31 29 36 45 42 44 42 40 39 33 27 27 27 26 28 28 27 30 30 31 34 37 39 
185 186 219 206 156 102 37 30 19 5 13 18 18 20 14 18 25 20 22 26 21 21 21 19 24 21 24 25 21 24 25 23 18 16 20 27 26 24 26 23 23 22 23 22 23 26 26 27 24 28 30 30 30 29 27 24 27 30 33 41 40 42 44 41 40 38 28 25 25 26 27 28 29 28 27 27 34 30 35 34 
182 187 223 196 151 93 38 34 21 8 18 19 16 17 17 25 22 23 22 25 23 20 24 24 24 27 27 27 30 25 23 20 20 22 24 31 30 29 27 24 24 24 29 26 22 27 26 30 31 32 30 32 29 29 28 23 28 34 40 46 46 41 42 43 40 34 24 25 24 23 26 28 27 29 29 29 29 28 31 34 
183 191 225 194 145 83 37 34 23 7 18 21 17 18 20 25 22 22 21 24 26 23 25 26 27 26 25 25 28 25 24 22 20 20 26 34 31 30 27 27 25 24 25 27 26 29 29 31 31 31 33 29 31 29 29 25 30 34 45 45 45 41 39 41 42 31 24 24 26 20 27 24 26 32 26 30 26 33 30 38 
182 194 220 185 145 79 37 34 23 10 21 18 16 20 22 24 26 26 27 28 24 23 25 26 28 30 31 29 31 29 28 29 23 22 29 32 35 30 31 28 26 24 29 28 30 32 31 32 34 33 29 31 31 28 25 21 28 44 47 42 45 42 44 45 35 29 23 26 25 25 27 25 25 27 27 27 30 29 28 26 
184 195 218 178 137 67 34 31 16 5 18 17 14 19 23 24 25 25 23 25 29 26 29 26 26 27 29 28 28 27 28 25 21 24 26 33 28 30 25 29 27 24 27 29 25 28 27 27 29 33 32 28 25 23 22 18 34 48 46 46 43 41 42 39 27 25 23 20 20 21 23 26 28 27 25 24 29 28 24 28 
186 195 219 177 135 62 32 32 17 7 21 23 17 21 23 27 26 25 29 25 24 24 27 26 27 26 26 26 29 27 28 26 22 23 31 32 34 31 28 29 26 29 27 25 26 30 27 32 30 32 29 32 26 25 21 25 44 51 45 43 41 42 39 36 28 26 23 23 22 23 22 26 27 26 24 23 27 29 26 24 
185 200 214 169 125 56 35 33 14 6 22 22 19 18 23 24 26 24 25 27 25 24 27 24 28 25 23 27 29 31 22 24 20 22 28 33 32 29 30 27 29 28 25 25 25 27 31 29 29 30 27 29 27 23 22 31 47 53 47 46 43 45 42 30 27 25 22 23 24 20 25 21 25 27 22 27 27 28 25 31 
187 201 211 162 120 54 31 27 12 7 24 23 20 20 20 24 25 25 24 24 26 26 28 26 25 24 26 27 27 25 23 20 21 21 25 30 32 29 26 25 27 24 26 27 27 28 26 26 28 25 28 27 24 18 27 42 52 50 44 44 45 44 38 28 25 23 26 21 20 21 23 26 28 26 25 24 31 30 27 23 
193 203 211 164 122 52 32 28 14 9 27 26 22 20 26 29 28 26 29 30 29 27 26 24 28 26 27 28 26 28 25 23 18 22 27 33 29 28 28 28 26 29 28 27 27 26 25 30 28 30 29 28 28 23 37 50 49 52 47 46 41 42 29 26 26 26 24 28 25 19 25 26 28 28 24 24 29 31 24 23 
188 212 209 161 112 50 36 30 15 15 28 32 23 28 29 30 30 31 29 31 30 31 30 30 32 31 30 29 30 24 27 23 18 22 26 34 31 30 29 29 28 25 32 29 29 30 27 31 32 28 33 31 29 32 45 50 51 54 48 47 47 38 31 28 30 26 26 28 27 22 25 22 30 30 30 29 32 32 27 25 
192 216 209 158 109 44 33 31 17 18 26 28 24 30 31 30 32 30 30 30 36 28 30 29 31 29 32 27 26 27 24 22 19 21 27 34 30 28 30 28 28 28 32 31 30 30 31 29 28 31 28 31 29 42 46 47 54 51 46 46 45 32 25 27 25 25 27 27 28 27 28 27 31 28 27 30 31 30 27 24 
195 225 210 161 104 45 32 27 20 19 33 29 25 28 30 30 35 29 34 32 30 30 33 27 28 29 26 27 27 29 29 24 21 22 32 31 33 29 31 28 28 28 30 30 32 29 33 33 33 30 32 32 32 44 46 50 52 52 47 49 44 31 27 27 25 24 21 26 25 28 30 28 30 30 31 29 33 32 28 25 
191 229 206 160 97 45 31 30 16 22 29 28 25 26 32 35 34 33 31 33 32 31 33 29 29 30 31 30 26 28 24 21 24 23 32 34 36 29 31 32 28 27 30 29 32 29 31 33 33 32 31 32 42 43 47 50 52 51 45 50 40 34 28 28 28 28 28 26 27 29 32 28 31 32 31 27 34 32 26 29 
197 233 202 164 91 44 37 29 23 17 29 29 23 31 35 35 31 34 36 31 35 31 33 32 33 32 29 30 29 31 28 24 19 24 33 35 38 33 33 31 28 31 29 34 32 34 30 35 34 34 33 39 47 46 44 52 52 53 49 47 36 35 28 29 28 30 29 26 29 29 35 34 34 36 32 34 33 32 32 28 
198 233 200 155 92 46 35 26 20 20 31 27 22 27 35 35 35 31 31 33 34 30 30 35 31 30 29 30 29 27 24 19 19 21 32 37 34 34 35 32 28 30 29 33 33 35 31 34 33 35 35 42 45 45 48 53 56 55 52 41 34 33 30 30 28 27 28 25 30 27 33 30 35 31 35 33 31 35 35 31 
202 231 195 155 86 44 31 24 18 21 26 26 22 28 34 33 35 30 31 30 31 30 33 32 30 32 29 28 28 29 24 20 16 22 29 33 33 31 31 30 26 33 27 31 31 33 27 33 31 33 38 43 47 46 45 51 53 58 44 39 36 29 34 31 30 31 23 29 30 28 32 35 35 31 36 30 35 37 31 34 
208 229 190 155 76 43 26 25 15 23 31 27 21 26 37 36 36 30 35 32 29 32 35 31 33 31 29 28 24 27 23 20 17 23 31 35 35 32 31 33 32 32 30 34 32 31 35 31 30 33 35 40 45 48 48 54 55 60 41 36 34 35 33 32 31 28 30 31 34 27 33 32 34 36 33 30 37 34 30 31 
205 223 189 148 75 41 28 23 21 18 29 24 26 27 37 37 38 30 34 38 34 32 34 35 36 33 35 33 30 26 27 21 19 27 35 34 39 32 31 31 30 29 32 36 32 32 34 31 36 36 36 35 36 41 50 54 57 55 41 36 32 32 32 32 30 32 31 30 32 29 37 34 35 33 39 33 36 36 32 38 


