P2
80 60
230
174 177 169 169 166 163 161 159 159 156 153 158 154 150 149 145 150 149 152 157 172 217 214 157 88 23 17 11 11 11 10 10 9 9 12 10 8 9 9 8 9 11 9 8 12 9 10 10 15 12 10 13 12 14 17 12 13 16 15 14 16 14 15 17 20 15 16 11 14 16 14 14 16 17 15 15 16 15 12 18 
177 175 169 170 165 165 164 159 160 159 154 155 152 151 147 147 151 149 154 163 186 230 185 136 52 18 11 10 9 9 10 13 11 8 10 10 11 10 10 11 9 11 11 12 11 8 8 10 13 10 12 15 12 13 11 12 12 16 15 11 16 14 14 16 14 13 10 6 14 14 14 10 15 20 13 12 13 13 14 11 
178 177 170 171 165 161 162 158 159 152 152 157 155 148 147 146 148 149 157 166 206 226 163 107 28 16 11 7 9 9 10 6 7 12 8 10 10 12 8 12 12 12 8 8 8 6 7 10 10 13 10 11 11 10 15 14 11 14 14 11 14 14 12 14 12 10 8 12 7 14 11 10 15 17 12 13 14 11 11 13 
176 175 169 166 160 161 160 156 155 155 149 151 149 142 141 146 146 148 157 172 224 205 141 70 20 12 12 9 8 10 11 7 9 13 10 11 10 8 10 8 11 9 8 6 11 7 7 11 8 12 8 10 8 10 12 14 11 12 16 11 11 14 10 12 10 8 10 11 11 12 13 11 15 15 12 16 14 12 11 11 
172 168 163 166 165 165 155 153 156 152 152 152 148 147 145 144 149 150 160 184 227 175 118 40 12 11 8 6 10 9 9 9 9 10 8 10 8 10 10 11 8 11 8 3 7 8 8 9 8 10 10 12 5 9 13 10 7 11 12 14 12 9 13 12 11 12 11 8 11 12 8 10 13 13 12 13 16 8 8 11 
172 168 164 165 160 165 160 153 151 151 150 149 147 143 143 140 147 148 158 199 213 155 91 20 13 14 10 5 8 7 9 10 7 10 9 9 9 8 7 8 6 7 9 6 4 4 7 7 8 8 9 11 8 6 8 11 9 9 10 9 12 11 12 12 7 11 12 7 8 11 7 10 12 12 12 11 15 10 4 12 
167 168 165 161 156 161 159 152 153 155 149 149 148 144 145 141 147 150 166 215 193 133 60 16 16 10 6 9 10 8 12 9 5 7 9 5 8 9 6 9 6 8 8 6 5 11 9 9 8 7 11 10 6 7 8 9 9 12 10 10 9 11 13 13 7 8 8 9 10 10 12 7 9 12 13 15 11 12 9 11 
167 166 161 160 159 157 158 154 151 150 147 150 148 146 144 140 146 156 179 211 165 111 34 14 10 9 10 7 8 7 8 11 11 11 8 7 10 10 10 7 5 9 7 5 7 10 8 8 11 5 7 10 9 9 11 10 10 10 10 13 10 9 11 9 8 10 6 7 7 9 10 11 9 12 11 10 13 9 6 10 
165 162 159 161 157 157 155 155 152 146 146 146 144 143 142 142 145 157 195 198 145 88 17 9 8 10 9 6 9 7 8 8 10 9 8 6 10 9 9 7 8 4 8 7 10 8 11 12 8 11 8 10 6 9 7 8 7 6 11 11 12 12 11 9 6 11 5 7 8 7 11 7 10 14 11 12 17 11 6 10 
164 161 161 159 155 153 154 151 151 147 146 146 148 145 143 142 151 164 205 174 126 58 11 10 9 7 9 4 8 8 8 6 5 5 5 7 8 12 7 8 7 5 6 5 5 11 6 9 8 12 7 10 10 9 8 9 10 7 12 10 10 12 11 11 10 6 10 8 7 7 9 11 8 8 8 9 15 11 8 8 
162 159 158 156 157 151 153 149 146 147 148 148 145 144 141 141 150 172 202 153 109 30 11 12 9 6 8 6 9 8 8 5 6 6 5 7 6 9 9 7 9 8 6 5 8 9 9 14 14 16 11 11 10 9 10 10 9 6 9 12 14 10 9 12 6 10 9 5 10 7 9 9 12 9 12 12 10 11 8 10 
163 158 155 154 152 153 149 147 147 146 143 145 143 144 141 141 154 188 195 139 81 16 9 7 8 8 7 7 9 8 7 6 7 7 9 6 7 6 9 5 7 8 8 9 9 9 11 14 16 18 12 14 7 8 9 10 9 8 13 10 11 9 10 9 7 6 8 7 9 11 9 8 7 14 13 11 11 11 8 10 
156 158 151 151 150 153 147 144 148 144 140 145 144 142 143 144 163 198 173 124 52 10 10 8 10 11 10 8 10 9 9 7 6 8 9 7 7 7 4 7 8 6 5 6 10 11 14 15 16 14 14 16 13 12 10 12 7 9 11 8 12 10 9 9 8 8 10 6 8 9 8 10 10 11 12 12 7 11 6 12 
158 156 155 153 149 150 147 149 143 146 143 143 143 141 141 144 169 199 153 105 28 10 5 6 6 8 10 7 7 7 7 5 8 10 8 5 4 8 7 8 5 6 3 5 9 11 14 15 15 18 12 16 13 14 13 11 10 10 10 9 12 10 8 9 7 7 8 7 6 11 8 9 11 10 11 9 13 8 9 8 
158 152 149 151 147 145 145 143 145 143 139 139 140 139 142 149 186 189 136 81 16 7 4 4 8 10 9 8 9 6 7 5 8 8 7 6 5 6 6 4 6 9 6 6 8 13 13 16 15 13 13 13 14 15 14 13 14 12 14 10 11 10 8 7 6 6 9 5 6 5 9 8 12 10 11 10 10 9 8 14 
155 154 150 149 146 147 146 144 145 139 142 140 141 138 145 155 198 174 122 50 14 9 5 7 7 7 9 6 7 7 8 4 6 6 5 4 8 3 8 6 7 9 5 6 10 15 12 16 15 14 15 14 14 17 16 14 16 17 16 14 11 13 11 5 4 7 8 5 6 8 7 9 10 10 11 12 13 12 13 10 
154 151 151 149 146 147 147 143 141 141 139 140 139 139 150 169 195 149 105 27 9 8 4 6 10 9 7 8 7 6 7 5 8 7 7 8 7 9 6 7 7 9 8 5 11 15 15 15 16 17 14 13 15 13 15 15 16 13 15 12 14 9 11 9 8 8 8 4 9 9 9 9 11 13 14 12 10 12 6 10 
149 151 149 148 147 145 145 143 147 142 141 139 141 144 151 182 191 136 86 16 9 9 5 6 7 9 10 7 6 6 7 6 7 8 7 5 6 9 8 4 8 5 7 9 8 6 10 13 12 14 13 17 13 16 16 12 16 13 16 12 13 14 15 9 6 7 9 6 9 7 8 8 10 12 15 11 12 11 4 9 
149 148 145 147 141 147 144 141 144 141 136 138 136 144 157 192 173 125 59 10 10 5 2 1 7 8 8 7 7 6 8 6 6 6 9 7 6 8 9 5 5 8 5 7 7 7 8 9 10 10 13 13 11 16 15 12 12 13 18 16 16 18 12 16 11 11 9 7 7 5 8 9 11 8 11 11 13 13 15 9 
150 148 146 146 146 145 142 141 139 139 136 138 138 142 170 198 154 111 33 6 6 7 3 6 7 7 9 9 9 7 10 8 9 7 7 4 6 8 7 7 4 3 7 8 7 9 5 9 9 9 8 8 10 16 13 11 12 14 13 17 12 17 13 13 16 15 11 7 6 9 6 10 11 7 14 11 14 13 9 10 
149 148 144 145 141 146 141 141 140 137 138 136 139 146 180 185 135 87 16 5 6 7 6 6 7 12 7 10 6 7 8 4 8 7 10 6 5 8 8 8 6 5 7 8 5 8 8 8 9 10 6 4 9 9 12 11 12 14 15 16 13 15 13 18 15 16 17 12 11 9 7 5 8 11 12 12 11 14 9 7 
148 143 145 146 143 145 140 138 138 137 140 137 139 150 187 167 116 57 10 5 8 4 5 8 8 8 9 9 9 8 8 8 7 6 7 8 7 7 4 8 7 5 8 5 8 8 5 10 8 11 4 8 5 8 7 12 14 14 13 15 15 15 15 14 16 18 13 16 15 13 7 10 12 9 10 12 14 10 7 15 
145 146 144 142 140 141 137 135 134 136 140 135 142 162 194 145 103 33 10 7 7 7 6 5 6 7 9 9 5 5 7 6 5 6 6 5 6 7 6 4 6 6 5 6 6 9 6 7 9 9 6 8 7 7 7 9 7 9 9 13 15 14 14 16 15 17 17 16 15 14 14 13 12 11 8 11 12 9 8 12 
148 141 141 139 139 139 138 136 135 137 138 136 140 172 180 131 85 18 8 2 4 3 4 6 4 8 7 6 4 6 7 3 9 7 5 5 4 6 3 4 2 3 4 7 6 5 9 8 5 6 7 8 5 8 7 6 6 3 5 7 8 9 13 12 10 18 17 14 13 13 15 11 10 11 11 13 16 11 9 14 
146 142 138 141 136 136 139 133 136 137 136 142 147 178 166 113 61 10 12 5 8 6 4 4 10 12 7 7 5 4 6 6 5 3 6 6 10 9 7 7 6 6 7 8 9 6 9 6 9 7 4 9 6 9 8 6 9 8 5 7 8 8 5 8 11 17 14 17 14 17 17 10 13 16 16 12 16 15 13 10 
146 140 142 138 138 134 136 136 134 133 135 137 156 182 149 107 43 13 9 7 10 8 6 6 9 7 5 5 5 4 7 4 5 7 7 5 7 4 5 6 2 6 9 6 6 7 8 7 7 6 5 7 4 6 7 9 8 7 6 8 10 6 3 7 8 15 13 15 14 15 14 10 15 17 20 15 15 17 11 12 
145 141 137 139 136 136 132 131 133 135 138 141 160 178 135 90 22 11 11 7 6 6 6 4 6 7 7 4 4 7 9 4 6 6 8 7 6 5 7 6 5 8 7 7 8 8 8 6 7 5 7 5 8 7 5 11 7 12 6 5 5 4 4 7 4 8 7 8 14 15 17 13 18 14 19 15 17 16 14 18 
141 144 137 139 140 139 132 133 132 135 136 143 170 169 121 66 18 12 10 7 7 6 4 5 7 10 8 5 6 4 6 8 6 7 9 5 8 5 4 5 5 9 9 7 9 7 7 10 9 7 5 11 3 7 7 8 9 7 5 4 5 4 3 4 4 8 8 6 11 11 15 16 17 17 17 17 20 17 18 14 
137 139 136 135 134 136 131 130 135 135 137 148 178 151 110 45 13 12 10 8 5 7 2 7 6 7 10 5 5 5 10 6 6 8 5 6 6 6 8 6 6 8 10 7 8 7 6 5 10 8 6 5 5 5 9 6 5 6 5 4 5 3 5 5 4 6 10 7 8 13 15 16 14 16 16 14 18 17 15 15 
140 136 139 139 138 135 135 135 133 132 139 156 179 138 96 28 12 12 12 8 7 7 6 6 7 6 7 7 8 8 7 7 7 8 5 4 6 8 7 7 5 11 10 7 9 10 10 10 8 8 6 8 7 7 9 5 7 6 4 8 6 6 6 6 5 8 8 7 9 15 20 17 17 17 13 13 18 16 13 13 
142 134 138 138 135 137 136 133 131 134 140 166 173 127 79 15 11 7 7 5 6 4 5 6 7 7 9 6 6 4 7 4 6 8 6 6 5 7 6 5 7 10 11 6 11 10 7 9 7 6 6 7 3 3 9 6 4 6 2 4 4 4 4 4 4 10 6 6 11 17 20 18 19 16 15 16 15 12 10 13 
141 134 138 139 132 135 134 130 133 136 141 175 159 113 59 12 10 9 8 9 8 5 3 5 7 8 6 4 6 5 7 6 3 6 5 5 5 6 5 6 6 11 13 10 11 10 9 10 9 10 6 12 2 1 5 9 4 7 6 3 4 4 5 5 1 10 8 13 17 19 20 17 17 14 16 12 13 14 12 12 
137 137 135 137 135 134 132 128 134 136 151 181 152 104 40 9 13 9 6 8 5 5 5 3 10 8 6 3 7 6 7 6 8 8 5 5 8 5 8 6 10 11 10 11 13 12 10 7 6 10 7 5 8 9 5 6 7 10 4 5 7 7 6 6 4 9 15 16 19 19 19 17 18 16 15 13 16 16 16 13 
135 137 133 133 129 133 130 131 133 141 161 177 132 89 23 10 12 7 7 7 6 3 6 9 6 8 8 6 6 6 5 3 5 6 7 4 7 7 5 8 5 12 6 10 15 8 9 10 6 8 6 7 6 8 7 9 8 7 6 2 0 6 3 9 10 16 17 17 16 15 19 19 17 16 14 13 18 17 19 14 
136 137 129 133 132 136 134 128 136 144 175 172 122 75 15 7 9 8 9 2 6 9 2 9 10 8 8 4 7 5 6 1 7 7 6 2 6 7 4 6 7 11 10 8 11 11 7 8 7 7 5 7 5 5 11 12 5 8 7 5 6 6 7 12 9 18 17 15 17 17 17 16 14 12 13 11 16 17 18 19 
138 138 129 134 132 131 131 132 135 150 185 162 118 53 12 7 9 9 10 10 8 3 4 6 7 8 8 7 7 9 9 4 8 8 6 6 6 6 6 4 7 10 12 12 11 14 10 8 7 10 7 10 6 6 13 9 6 7 5 6 4 7 14 14 14 18 21 14 18 19 21 17 15 15 13 10 13 17 14 14 
138 135 130 134 131 132 132 133 138 158 183 147 105 33 12 6 10 6 6 7 5 5 4 5 6 6 8 5 7 7 8 3 8 6 6 3 7 6 3 7 6 7 9 8 12 14 8 8 4 6 8 7 7 9 8 9 7 8 5 4 5 9 15 15 12 17 15 15 15 20 18 12 13 10 11 8 11 13 10 14 
136 132 128 130 128 134 132 131 143 168 183 133 88 19 11 9 8 9 10 6 6 4 3 7 9 7 7 5 6 6 10 7 6 6 5 4 4 6 5 6 5 9 8 7 7 8 9 9 6 8 6 9 8 8 9 8 8 8 3 9 10 15 15 15 15 16 14 16 15 12 11 13 13 12 11 7 9 12 9 10 
133 132 131 130 129 132 133 133 146 179 173 126 72 14 10 7 12 7 9 4 5 5 4 5 7 9 8 7 5 7 12 4 7 8 6 6 4 5 6 6 6 10 9 9 8 9 7 8 8 8 9 9 4 6 7 9 5 6 8 10 15 14 13 13 14 16 15 11 13 12 9 9 9 12 9 10 10 7 10 8 
132 133 127 131 128 130 129 133 149 182 156 117 50 9 8 4 7 9 8 7 5 3 3 7 10 5 7 4 7 7 7 6 7 5 7 2 4 5 7 7 5 6 9 5 7 8 7 10 8 9 7 9 7 9 8 9 7 9 15 15 17 13 16 16 14 15 16 11 8 7 9 5 8 9 9 6 12 7 7 7 
137 132 131 130 131 133 133 135 163 183 145 103 33 10 8 5 9 8 8 8 6 8 3 4 6 6 7 3 6 5 6 7 7 8 9 2 6 3 4 7 7 10 8 8 8 13 8 8 6 9 8 13 7 10 9 10 11 14 16 13 18 14 15 17 14 13 11 6 8 8 12 10 10 10 9 11 13 8 5 5 
135 137 128 137 133 134 135 143 169 178 134 89 26 13 6 6 8 8 5 6 11 9 3 3 7 12 10 4 9 5 4 8 7 6 8 3 5 6 6 4 6 9 8 7 9 8 8 9 9 9 11 9 9 10 10 15 15 18 15 15 17 11 15 18 13 15 10 8 8 7 7 10 13 6 7 7 9 12 6 6 
137 134 132 132 130 135 135 145 175 164 118 76 17 9 11 3 6 6 5 6 5 6 5 6 8 7 6 6 5 9 6 5 5 7 8 4 7 4 6 7 8 9 7 6 11 10 11 9 9 10 7 12 7 13 15 18 17 17 15 17 16 17 16 15 10 10 8 6 8 9 9 6 12 8 8 7 8 8 4 8 
138 135 128 130 131 131 138 154 182 152 113 54 15 9 10 4 7 6 7 5 6 8 3 5 8 7 7 5 6 4 6 7 6 8 7 5 9 7 5 6 5 8 7 9 10 9 12 12 10 8 12 9 13 15 20 19 16 17 15 19 15 17 13 11 8 9 7 10 7 6 8 6 7 8 9 12 6 6 6 5 
134 135 132 132 132 136 144 160 183 144 109 30 13 10 9 6 7 3 6 5 4 6 5 6 9 4 9 6 6 9 7 6 5 8 4 5 6 7 10 5 12 8 10 7 7 12 11 13 11 12 12 16 15 18 18 16 17 13 16 13 15 15 9 10 7 7 7 7 8 9 4 8 10 7 6 9 8 10 7 7 
136 134 131 132 132 137 144 173 189 145 107 25 16 12 10 4 7 7 9 7 9 8 6 7 5 8 13 8 6 8 10 10 6 9 5 5 7 9 8 7 10 11 7 8 9 10 11 10 13 12 14 20 17 15 19 19 15 16 17 17 16 13 10 14 11 10 9 5 8 7 8 7 8 8 10 11 8 11 8 3 
137 132 131 135 133 140 148 187 191 151 87 15 9 8 7 3 5 1 7 5 7 7 3 5 9 7 7 9 9 6 7 7 5 5 6 5 8 7 8 7 6 8 7 6 10 12 9 12 10 14 16 18 20 16 15 13 11 20 16 16 10 11 12 8 7 8 9 6 4 8 2 8 10 10 9 10 7 8 7 8 
136 138 133 140 141 146 156 188 180 149 63 14 12 7 7 2 7 5 9 6 9 7 8 8 11 8 10 6 7 6 9 8 6 7 7 5 8 9 6 8 10 9 8 7 9 10 9 14 17 16 16 18 14 15 16 17 18 17 16 12 11 11 9 9 6 7 7 9 7 11 8 4 7 10 11 9 8 10 5 9 
133 129 125 127 126 128 131 135 148 120 35 12 9 9 9 3 6 5 7 6 8 9 7 8 7 7 11 8 10 8 10 8 6 6 4 7 9 9 8 7 8 6 8 6 9 13 7 14 11 17 16 17 14 16 17 19 15 16 12 8 13 10 9 8 8 8 7 8 8 7 9 10 12 13 7 9 9 11 4 8 
121 112 103 108 103 107 110 110 112 78 21 12 6 7 8 4 8 6 10 12 10 7 7 7 6 10 12 8 10 8 9 7 10 7 9 5 6 5 6 6 8 5 5 8 9 9 8 9 10 13 14 20 16 18 19 18 18 15 10 10 8 10 10 9 8 12 10 10 10 11 10 9 11 10 8 10 12 8 9 8 
101 95 93 88 87 89 85 80 72 48 16 16 11 9 10 3 10 7 11 8 7 12 8 13 11 12 10 10 10 8 8 8 9 7 10 8 8 9 7 8 8 8 9 8 8 10 10 12 11 11 16 20 16 16 17 18 13 12 8 8 11 12 15 8 10 7 13 9 6 11 8 11 12 10 7 9 9 8 5 4 
78 66 58 56 49 42 38 30 25 17 14 14 11 8 10 7 10 6 9 12 10 11 9 9 11 11 10 7 9 8 10 9 12 9 10 7 6 10 9 8 8 11 9 9 12 10 11 12 10 14 10 19 17 17 18 15 11 12 11 11 10 11 11 12 9 12 12 10 10 8 9 11 13 8 13 13 13 9 5 7 
32 25 19 19 18 15 16 13 15 11 10 12 12 9 7 5 11 8 7 8 8 11 6 9 11 11 9 5 7 8 7 6 8 7 5 6 8 8 5 9 7 9 9 10 12 13 9 9 13 10 10 12 14 14 12 8 7 8 7 9 7 10 11 11 9 9 10 10 7 7 8 11 11 10 9 11 12 8 7 10 
24 17 13 18 16 13 12 12 12 12 9 12 16 7 11 5 10 8 12 5 8 13 6 6 11 9 10 9 9 8 8 6 7 11 7 5 7 8 7 5 8 8 10 10 12 12 9 11 10 6 9 13 9 11 9 7 10 9 10 12 9 10 9 12 9 13 11 9 9 9 12 12 11 11 10 8 13 9 6 11 
19 16 14 15 5 18 12 11 13 11 13 17 15 13 11 10 10 14 8 9 12 11 7 10 10 11 16 11 12 7 11 8 12 7 12 6 10 8 6 8 9 9 12 12 10 10 10 13 13 9 9 12 8 8 8 7 15 9 11 12 12 8 11 12 13 14 12 11 13 15 12 11 14 12 12 10 14 10 7 7 
18 14 11 18 14 14 14 12 14 12 17 16 15 14 12 9 13 10 11 6 12 12 12 10 11 10 13 8 10 9 10 13 11 12 12 8 8 13 11 11 7 12 11 12 11 11 13 14 11 12 10 16 10 10 11 10 13 14 15 12 11 14 14 15 14 14 14 15 17 12 14 16 14 15 17 13 17 7 7 8 
13 13 12 11 10 12 13 10 12 12 13 13 11 14 10 10 9 10 12 7 8 12 7 11 9 11 12 10 11 10 14 9 13 11 7 7 9 9 10 10 10 8 10 12 12 13 13 16 12 10 8 13 11 11 10 10 7 8 9 10 11 15 11 14 10 15 15 17 15 13 12 17 11 13 14 12 14 11 9 9 
9 9 10 11 12 14 11 7 7 10 9 11 13 9 13 6 9 5 9 8 9 10 6 7 6 10 9 7 13 7 9 10 10 11 11 8 11 8 9 7 10 10 9 10 11 15 11 10 10 10 8 11 12 10 13 11 10 10 12 12 13 13 13 13 12 10 13 15 18 12 15 15 13 12 15 12 16 11 12 10 
11 7 6 8 9 10 9 8 8 13 9 12 14 13 11 10 11 10 11 10 9 6 5 6 11 12 10 8 11 12 11 6 7 10 12 7 8 6 10 9 9 8 6 8 11 13 10 10 13 9 12 13 10 9 9 11 11 12 16 14 16 13 13 16 12 14 14 14 15 11 13 14 15 16 17 15 14 12 10 12 
16 5 8 8 9 12 5 7 13 11 6 12 14 13 11 7 8 11 8 9 11 10 6 7 11 15 10 9 6 12 11 7 9 11 14 7 9 9 11 8 10 10 9 11 9 14 13 14 12 13 11 14 8 8 12 11 14 14 13 11 16 15 17 19 16 14 15 14 15 19 14 14 15 18 14 14 15 14 10 11 


