P2
80 60
231
184 181 179 175 174 173 167 171 164 162 158 155 155 152 147 150 151 147 154 156 175 220 213 156 87 23 14 15 10 14 13 16 16 11 10 13 16 15 12 15 16 15 14 14 12 12 15 13 17 14 16 13 17 16 19 18 18 18 17 17 20 21 21 20 21 21 16 20 16 17 21 22 21 21 22 22 22 29 23 16 
180 185 178 174 174 175 168 171 164 157 155 153 151 152 149 150 148 147 152 158 186 231 192 137 51 15 13 14 11 12 11 12 13 10 7 13 15 12 12 14 14 15 11 13 13 16 11 12 15 16 14 19 10 12 14 15 17 17 18 18 24 20 22 18 20 16 19 17 18 16 19 19 18 21 22 22 23 20 20 17 
186 180 179 181 174 174 172 172 165 159 156 157 149 146 148 150 149 148 157 165 205 229 168 111 26 14 15 15 8 13 14 15 16 12 11 12 11 13 13 13 14 13 14 11 12 13 14 14 14 14 13 13 14 15 17 14 16 21 18 19 23 22 20 17 21 20 19 18 17 15 19 19 19 23 21 19 21 16 19 16 
182 176 178 175 172 169 168 163 160 155 152 152 150 146 145 147 147 145 156 174 219 207 142 75 20 13 12 12 17 11 10 13 12 10 8 9 14 11 14 13 14 13 11 12 9 11 12 11 12 15 12 15 11 14 12 16 16 17 16 18 21 20 15 18 16 16 15 20 18 18 16 19 18 23 20 22 21 22 23 10 
183 178 180 174 171 169 166 163 161 154 150 151 149 149 143 146 145 148 158 185 229 178 123 43 14 16 12 13 15 13 11 12 11 10 11 13 13 11 12 14 11 13 13 9 10 7 11 12 12 12 12 8 11 12 12 13 14 14 18 14 16 15 18 17 18 14 16 17 15 17 18 21 18 20 18 19 15 22 20 14 
181 172 172 167 165 167 165 163 158 155 146 151 145 147 141 144 147 145 159 198 213 152 94 22 14 10 12 9 10 13 12 15 11 13 12 13 12 13 9 11 8 10 9 10 11 10 11 11 12 13 8 11 11 10 13 8 16 12 13 15 15 15 14 14 16 11 9 18 14 15 16 17 18 13 13 19 17 17 13 12 
176 170 174 169 170 168 163 161 156 158 150 149 144 145 140 139 148 149 167 211 192 132 62 18 13 14 9 11 8 11 9 9 10 12 10 13 9 11 11 11 12 13 13 11 9 7 11 10 12 12 12 10 10 10 14 9 11 15 14 13 14 16 16 15 18 13 13 14 13 18 18 17 16 20 18 18 17 17 14 9 
176 169 171 169 172 166 160 160 157 156 149 148 151 142 144 144 149 151 179 213 167 116 39 14 12 13 11 11 14 11 14 15 11 10 10 13 12 12 12 12 9 14 9 14 13 11 11 10 13 13 12 10 11 11 13 11 12 14 13 13 18 17 18 17 18 13 13 12 11 14 14 14 18 21 15 20 17 17 16 14 
172 164 170 165 166 168 163 159 158 154 149 148 145 141 142 145 147 155 195 198 146 88 23 13 10 8 12 8 10 11 10 10 9 11 13 10 10 8 11 9 9 10 9 7 11 11 10 11 12 14 12 10 11 12 14 13 14 13 15 14 15 17 15 14 18 12 13 11 14 14 16 16 17 16 19 16 19 16 15 11 
173 166 166 164 163 164 159 160 154 152 151 150 143 145 143 143 148 157 204 175 124 54 14 8 7 6 8 8 9 8 7 8 12 12 8 11 9 10 11 7 9 10 11 11 9 12 12 13 15 11 10 10 10 14 12 11 14 15 15 13 14 18 17 14 17 12 14 15 11 11 14 16 17 15 14 19 14 14 16 10 
169 165 165 165 162 158 159 158 157 150 152 147 145 141 143 141 152 174 206 156 112 33 12 14 7 12 11 12 9 10 11 10 11 10 12 7 14 7 12 12 13 11 11 11 10 16 14 16 20 14 12 14 11 13 11 11 12 14 14 16 16 19 16 14 15 11 11 16 15 13 16 18 16 17 23 18 15 18 19 11 
171 162 165 159 161 160 159 158 150 151 146 145 146 142 138 148 155 185 193 139 82 18 12 9 7 10 10 11 13 12 9 9 12 8 10 9 10 11 10 8 10 8 12 9 12 14 14 18 18 19 19 16 12 11 11 11 16 13 12 12 15 13 15 14 18 12 14 16 15 11 13 15 17 17 18 17 11 18 16 15 
170 162 165 164 159 159 155 151 150 152 146 146 144 142 139 146 164 197 175 124 53 8 11 11 7 7 9 12 9 10 9 10 13 8 10 6 10 7 8 11 9 7 11 11 10 14 18 18 16 19 15 20 16 16 14 11 14 15 16 14 16 15 14 11 10 14 12 15 16 12 15 15 17 17 17 21 13 17 18 12 
163 162 164 155 157 158 154 155 150 151 144 143 142 142 139 148 169 197 151 104 29 10 7 10 9 8 11 11 7 8 10 9 10 8 12 10 10 8 10 11 10 10 7 9 11 12 14 19 16 18 17 19 18 16 17 14 15 15 15 17 16 14 18 10 10 12 12 18 8 15 13 14 12 17 18 16 20 19 16 14 
166 160 159 152 159 153 151 148 146 146 143 142 146 145 139 152 184 188 134 80 14 10 8 7 7 8 10 11 14 7 9 7 10 9 7 6 11 10 10 10 8 9 8 12 13 18 18 18 18 13 15 17 18 16 18 20 20 16 16 13 19 16 14 15 14 12 15 14 14 16 14 12 16 20 20 22 13 15 16 15 
162 157 156 155 153 156 152 147 145 147 142 141 138 144 141 157 199 168 121 51 10 8 7 7 7 8 11 7 12 11 7 7 8 7 9 8 9 9 10 11 8 8 8 9 16 19 18 17 18 20 16 18 17 18 18 18 16 18 17 13 17 14 8 11 11 8 9 15 14 12 14 11 15 15 18 14 15 18 15 17 
168 157 159 156 152 152 152 152 145 142 141 140 137 140 138 171 203 153 106 26 9 6 8 5 5 9 9 10 10 9 9 10 9 10 11 7 7 8 10 7 7 8 8 15 10 15 17 18 18 18 19 17 16 18 19 13 19 21 19 18 17 15 11 12 8 12 10 15 11 14 12 19 17 17 16 17 17 18 18 12 
161 155 158 156 159 152 150 150 143 139 139 139 137 138 147 184 191 138 88 13 10 5 10 8 8 9 10 11 7 10 10 9 7 12 9 6 7 8 6 10 10 8 10 11 12 14 14 13 17 17 16 15 16 17 16 16 17 19 16 18 21 18 17 13 10 10 10 16 14 14 12 14 17 13 23 16 19 22 20 16 
162 153 156 155 158 155 148 146 141 141 139 142 139 143 159 198 172 122 56 9 6 7 9 10 5 8 9 12 12 9 9 9 9 9 11 10 8 5 11 10 7 8 9 11 11 11 15 7 13 11 15 14 16 17 19 15 18 17 15 21 22 22 20 22 16 16 12 17 11 15 16 14 17 17 18 17 21 23 19 19 
162 158 157 154 153 153 149 148 142 142 139 139 141 145 166 199 155 111 32 12 9 10 7 10 12 13 10 9 8 9 11 8 10 12 11 8 7 8 10 8 7 6 10 11 11 12 13 13 16 14 12 14 16 14 22 17 16 21 21 20 21 22 18 21 19 18 15 14 14 15 11 14 18 15 21 18 23 25 15 14 
159 157 152 151 155 151 146 143 145 141 136 137 140 148 177 189 138 87 17 6 6 7 8 7 8 8 10 5 7 10 8 11 10 8 9 11 5 10 9 7 8 8 12 8 9 11 13 11 11 12 9 13 13 13 15 15 16 19 16 16 20 23 19 17 22 21 20 20 15 12 11 12 16 12 19 19 16 19 17 14 
159 153 152 147 151 147 151 142 144 141 135 139 143 157 190 170 121 57 10 5 8 6 8 9 12 7 5 8 11 11 8 10 9 9 6 10 9 11 11 7 6 9 9 12 9 12 12 11 10 14 9 7 13 10 12 13 13 15 19 18 20 23 18 20 23 21 21 21 20 19 13 19 16 20 19 19 17 20 16 16 
155 149 150 148 148 145 146 142 142 138 137 139 141 162 190 148 104 27 10 7 6 6 7 5 8 5 6 10 7 8 9 9 7 8 9 7 8 8 8 7 8 7 10 11 11 11 9 10 9 10 6 9 10 11 12 10 11 10 15 15 18 19 20 20 20 21 17 20 19 23 17 19 15 18 19 17 15 17 18 19 
150 150 147 149 145 146 143 140 141 137 131 138 142 171 181 130 82 12 7 4 6 3 7 7 10 2 4 8 6 6 6 3 2 4 5 8 7 9 7 5 6 8 5 9 9 6 10 8 10 6 5 8 10 6 9 6 10 9 11 10 11 17 15 15 19 18 20 20 19 23 19 19 17 15 17 18 19 17 17 12 
151 148 145 148 143 145 144 142 141 135 138 137 149 184 163 119 61 6 9 4 7 6 8 9 8 5 8 7 6 7 6 6 6 5 10 8 9 7 7 11 8 8 10 9 10 11 11 9 10 8 9 9 9 9 8 9 9 10 7 8 12 10 12 17 21 20 21 18 23 23 19 18 20 19 22 17 22 26 19 15 
152 147 150 142 146 145 140 139 140 135 133 140 152 183 145 107 41 6 8 10 6 5 8 5 7 7 7 9 5 5 9 7 7 4 8 6 8 8 7 7 7 6 9 8 9 7 9 8 9 5 7 7 7 12 10 8 7 9 11 8 10 9 9 10 14 16 17 20 22 25 20 21 18 18 23 21 24 21 22 17 
151 147 147 145 143 143 142 136 142 137 137 142 164 179 132 89 23 8 10 7 8 6 4 8 6 7 9 8 6 6 7 5 8 6 9 8 9 7 9 6 8 8 13 8 9 7 9 11 6 7 8 9 6 7 7 7 9 10 10 9 12 12 7 9 14 11 11 13 15 20 23 21 19 21 20 24 25 22 19 19 
150 145 143 146 146 142 143 138 139 136 137 141 173 167 120 69 15 6 7 3 6 7 5 7 6 6 8 8 6 6 6 8 10 5 5 7 11 7 6 6 12 10 14 10 10 8 11 10 6 4 9 7 9 11 8 11 9 11 11 9 8 10 7 6 12 9 10 14 17 19 22 21 20 22 21 20 26 24 25 17 
150 145 149 140 143 140 140 135 136 136 137 148 178 155 109 46 13 4 10 8 6 2 2 5 7 5 7 6 8 9 7 6 5 3 7 7 8 9 9 9 7 9 11 11 11 10 10 11 10 7 9 8 7 7 8 8 8 8 5 9 5 8 7 10 11 12 7 14 18 19 20 23 20 21 22 22 22 25 19 22 
152 147 144 143 144 145 144 139 139 134 138 159 183 142 96 31 11 10 7 7 8 5 9 8 7 7 9 7 7 7 9 10 10 8 9 9 9 11 8 9 12 11 11 14 10 13 12 11 7 8 11 10 8 9 11 8 12 9 9 8 9 12 12 9 9 13 14 16 17 20 24 25 21 18 24 23 23 22 22 14 
151 145 145 145 145 140 139 136 138 138 142 167 177 126 79 16 12 5 5 4 5 2 6 9 6 6 5 9 7 7 7 7 9 3 8 9 7 6 9 9 11 13 13 13 13 14 13 12 13 11 6 8 10 7 9 9 6 9 8 6 8 11 11 9 10 11 11 15 18 23 24 22 20 21 25 19 19 23 22 21 
146 146 142 143 140 140 136 136 138 137 146 178 161 115 58 11 9 4 5 5 5 8 6 7 3 10 6 12 8 8 8 10 9 7 7 6 8 11 9 9 10 10 11 15 14 14 13 9 11 9 8 9 5 6 8 9 10 9 9 8 9 11 11 5 11 11 10 20 23 25 24 24 25 24 23 20 22 22 21 22 
151 147 144 144 145 143 139 139 139 138 151 180 150 109 39 9 9 6 10 11 9 9 6 5 6 10 8 12 11 9 11 8 8 7 8 8 9 9 7 10 10 12 13 18 16 13 14 15 10 10 8 12 10 11 9 8 9 11 9 9 11 10 13 11 15 12 20 22 24 24 24 25 23 27 23 22 20 25 22 17 
148 142 139 142 141 141 136 137 134 139 164 177 136 93 23 9 8 3 6 4 7 7 6 7 1 10 9 9 9 7 9 6 5 9 9 5 9 10 8 8 10 12 11 14 15 16 14 12 10 9 8 8 11 9 8 4 10 10 5 8 11 8 9 11 13 19 18 19 25 21 23 25 20 21 20 16 24 24 25 17 
147 144 142 139 140 137 138 136 139 145 174 172 127 75 16 9 11 6 6 6 5 5 7 5 7 5 6 8 8 9 7 8 7 8 7 7 11 6 6 8 10 11 10 13 13 14 15 14 13 7 10 11 9 7 10 9 9 10 11 7 10 11 10 16 20 20 20 26 25 21 22 24 18 20 16 17 21 22 23 18 
147 139 142 138 138 138 137 142 141 151 183 163 114 53 7 5 8 6 8 8 6 6 7 7 3 7 5 6 7 8 7 8 10 7 9 2 5 8 6 8 8 8 11 12 12 10 11 12 9 7 5 9 11 9 11 7 9 11 11 8 10 11 12 19 20 20 18 23 23 23 24 22 18 19 20 15 17 22 22 17 
145 141 141 139 139 137 136 138 140 160 189 148 102 30 8 10 8 5 8 7 5 4 6 8 5 6 6 7 7 10 7 8 7 4 8 7 6 9 7 5 8 6 13 10 9 13 12 11 8 8 10 10 11 10 10 9 10 12 7 7 12 16 19 19 19 18 17 18 23 22 21 18 19 18 14 13 12 22 16 17 
144 138 139 140 138 137 136 141 142 172 185 137 90 19 6 10 9 8 11 5 7 6 6 6 7 7 5 9 11 8 10 11 8 9 7 5 6 8 9 7 9 9 13 9 11 12 12 11 10 10 9 6 11 10 9 9 10 14 11 9 17 22 24 17 22 19 21 25 24 17 15 20 15 16 16 14 14 17 18 13 
141 139 141 143 139 139 141 141 153 185 173 127 74 10 9 7 12 7 13 5 4 8 4 8 7 6 8 8 9 7 8 8 8 8 10 8 7 7 7 8 6 11 12 10 8 13 9 8 10 10 9 11 9 10 10 8 10 11 9 16 19 21 18 21 19 19 21 21 17 18 19 15 15 15 15 15 15 15 17 13 
143 139 141 140 139 138 135 141 157 186 156 113 49 7 6 6 11 5 11 6 4 3 9 5 4 6 9 6 6 8 8 10 10 10 5 8 8 5 8 9 10 8 7 7 12 11 12 9 9 10 9 9 10 11 7 8 11 13 16 15 16 22 20 17 15 21 20 20 13 17 12 15 13 16 15 14 12 14 15 12 
144 138 141 137 138 138 140 146 162 188 145 104 36 12 9 5 8 6 9 8 11 5 5 6 7 6 7 10 6 9 12 11 9 7 9 10 7 8 9 9 9 7 10 12 13 14 14 10 9 9 9 11 10 11 12 11 13 16 20 17 21 18 21 19 20 18 13 12 14 16 15 17 13 15 14 15 15 12 17 12 
143 137 143 138 139 139 142 149 173 179 137 90 23 15 9 8 9 6 11 8 5 7 8 9 9 7 9 8 9 10 8 9 10 10 10 12 11 7 9 10 12 14 11 12 13 13 13 10 11 10 11 10 13 15 14 13 17 19 16 19 22 18 20 19 21 19 13 14 16 17 13 19 17 15 17 16 18 19 14 10 
141 143 140 138 133 141 142 150 178 170 123 72 13 11 4 6 6 4 3 8 6 5 5 7 8 7 4 7 5 10 9 11 10 9 6 6 8 10 10 8 11 8 9 11 12 10 12 9 10 8 11 11 14 14 19 19 19 20 15 15 21 20 20 20 16 10 9 10 13 12 12 11 12 12 16 12 16 11 16 7 
140 141 137 138 141 139 144 155 183 162 113 55 11 10 7 6 10 3 4 3 3 6 4 7 8 7 10 9 10 7 7 7 10 6 8 8 10 12 9 10 8 12 11 9 10 12 10 12 12 11 12 12 15 17 19 20 19 21 18 19 19 20 18 18 11 13 13 13 9 12 7 18 15 16 18 16 16 16 13 10 
145 138 137 138 142 142 144 165 184 145 111 35 6 11 7 3 3 2 5 3 6 8 8 12 8 8 8 9 9 11 9 6 8 10 8 9 10 10 10 10 11 14 13 8 11 14 16 10 12 11 15 13 20 19 19 20 19 16 20 18 20 23 15 16 13 14 10 14 12 10 11 13 14 13 17 18 18 18 15 8 
143 141 141 142 139 144 149 177 191 147 101 25 10 9 9 5 7 4 4 3 4 7 9 7 11 9 10 11 7 7 6 9 7 10 8 10 13 13 12 13 10 13 12 7 15 15 12 14 14 13 17 19 21 19 19 18 21 21 21 17 20 18 14 13 12 14 14 12 11 13 10 17 16 13 14 16 14 14 14 12 
142 141 140 142 141 145 157 194 194 157 87 19 9 6 5 2 12 5 5 5 4 2 10 10 7 9 10 10 5 8 9 9 7 11 6 8 9 8 8 13 9 12 11 12 15 10 13 10 14 16 19 22 23 20 22 20 16 14 21 21 17 14 13 10 11 14 11 13 17 13 9 15 13 11 13 12 13 16 13 11 
143 144 151 148 150 153 166 196 184 158 65 14 9 9 5 7 6 1 6 5 8 7 6 9 10 12 10 7 9 10 9 11 10 12 9 10 11 12 12 10 12 11 10 12 14 14 10 11 17 20 18 21 17 20 21 21 17 20 19 15 16 17 14 13 11 14 14 14 13 15 11 16 13 15 14 14 13 16 16 8 
141 134 136 135 137 135 138 143 148 124 38 13 3 7 0 6 5 6 7 4 6 6 7 11 9 6 5 5 5 7 12 4 7 8 10 7 11 8 8 10 10 9 9 9 10 12 9 13 14 16 22 17 19 19 18 19 20 19 17 14 13 16 12 13 14 11 13 14 13 12 13 11 15 14 13 15 13 16 14 9 
124 116 116 117 113 115 115 116 118 90 24 13 7 9 6 4 7 4 6 8 6 8 6 8 7 8 9 10 9 8 7 10 13 10 7 8 10 7 8 9 8 13 9 11 13 11 9 10 10 14 18 20 19 19 17 18 20 17 15 10 13 13 13 13 16 13 12 14 14 9 10 11 13 16 16 16 17 16 15 9 
106 101 97 98 97 95 94 85 77 51 15 12 6 11 11 11 9 4 7 4 5 10 10 12 11 9 10 7 12 11 10 9 8 9 9 7 11 10 11 10 12 10 12 10 12 14 11 13 13 16 17 21 21 19 19 20 13 15 12 11 17 15 15 11 13 17 12 14 18 15 13 15 17 17 16 14 19 15 17 11 
88 76 73 67 58 52 44 34 28 22 13 12 11 13 5 11 10 6 11 8 9 7 10 11 9 11 10 12 10 9 12 13 11 12 11 11 9 11 10 11 10 12 10 14 15 14 13 12 12 14 16 19 19 22 21 18 11 12 11 14 14 18 11 12 17 15 14 18 20 14 17 15 17 15 20 18 17 17 15 16 
39 29 31 25 26 23 25 23 17 12 11 15 8 10 9 7 8 0 8 4 9 10 8 11 12 8 8 11 9 9 10 12 12 9 9 9 10 9 8 10 11 10 14 12 13 16 14 15 12 10 15 13 19 18 17 12 11 15 14 15 16 19 13 14 16 16 17 17 14 14 14 16 17 20 18 15 20 18 17 12 
30 19 19 19 19 17 17 20 14 11 13 14 7 8 3 9 6 6 4 6 7 9 8 10 7 8 9 5 10 8 10 11 12 13 11 11 14 11 7 6 9 9 11 16 12 12 11 12 11 9 7 11 13 13 11 12 11 13 15 13 16 11 13 13 16 15 12 14 17 16 15 15 19 16 14 15 13 21 15 13 
19 19 22 15 18 20 19 20 12 17 12 12 13 11 8 8 9 3 10 10 9 9 12 10 10 9 11 9 6 9 10 11 11 10 10 8 10 9 13 12 11 12 13 11 10 11 13 12 14 14 10 14 11 14 14 12 10 16 13 12 14 17 16 17 18 14 14 20 22 14 18 21 20 20 17 19 21 15 17 15 
21 17 21 20 19 20 19 16 17 13 14 15 10 14 6 11 9 6 10 7 14 6 12 11 11 12 9 10 11 12 7 12 12 10 12 12 12 9 12 13 13 12 13 11 15 14 14 14 14 12 17 9 11 11 15 13 13 17 14 13 16 18 19 15 17 17 19 24 19 18 23 21 21 22 18 15 19 17 17 17 
17 13 18 16 21 16 15 15 15 12 11 12 11 13 10 12 8 5 8 6 8 9 8 10 8 9 10 9 10 9 13 10 12 12 12 15 11 11 9 11 11 12 11 13 12 17 15 16 10 14 15 14 10 13 12 13 13 13 14 15 14 18 20 16 17 16 15 19 19 15 18 21 22 22 19 21 21 19 19 14 
19 16 21 19 19 15 14 13 12 11 11 16 13 11 8 7 10 9 8 8 6 8 12 12 8 11 9 7 12 12 10 11 13 14 11 14 8 10 10 10 11 9 12 12 11 14 14 12 15 12 11 12 14 11 14 11 12 15 13 14 14 17 18 18 16 18 18 22 20 17 17 20 21 19 18 19 21 20 17 13 
16 17 17 16 16 19 14 15 17 11 11 14 13 11 6 9 5 5 9 5 8 7 11 7 11 7 12 9 11 13 12 15 8 14 10 9 11 7 12 12 11 12 14 12 14 15 15 14 16 15 16 13 11 13 10 9 11 16 14 14 16 19 16 20 17 19 15 20 20 18 18 23 18 24 19 22 16 19 17 12 
18 13 16 15 15 16 13 19 15 12 12 11 11 11 4 11 5 5 10 8 8 3 9 9 7 7 10 13 10 12 11 14 12 16 10 10 12 12 13 11 10 10 11 12 14 14 17 14 14 11 11 13 13 10 11 12 14 14 16 15 16 15 19 18 20 19 19 16 18 20 21 20 24 25 23 19 16 19 16 11 


