P2
80 60
232
168 175 165 166 167 169 164 159 155 154 158 154 148 146 147 144 140 149 153 162 176 221 215 151 87 21 16 7 10 9 10 7 6 8 6 7 8 9 8 10 9 7 8 11 8 9 9 7 10 6 8 12 9 10 8 13 11 14 11 11 10 11 13 12 15 14 13 14 10 17 8 15 14 16 13 14 9 11 9 6 
168 173 171 171 170 169 164 161 157 156 154 156 150 144 141 146 143 146 151 166 187 232 191 137 53 14 9 8 12 10 7 9 9 6 6 10 9 11 8 11 8 12 7 10 7 6 7 9 12 8 9 10 9 12 10 10 12 12 13 14 15 13 15 15 14 14 8 12 16 15 14 12 16 14 15 14 14 12 10 8 
169 175 167 168 168 167 165 159 156 154 155 152 148 146 145 146 143 144 157 170 204 226 166 107 28 14 9 7 8 11 11 9 6 11 6 9 9 9 9 14 9 10 9 8 6 9 5 13 11 10 8 7 10 10 8 11 14 12 10 12 10 12 12 13 13 13 11 13 10 14 13 11 14 17 16 16 16 9 4 7 
170 172 169 168 162 163 162 158 152 154 152 150 149 144 141 144 147 147 159 176 223 210 142 70 17 12 11 8 10 8 14 8 9 9 7 9 8 8 9 6 7 7 10 8 9 5 5 9 6 11 7 4 9 10 11 8 7 11 9 10 9 10 10 10 15 12 10 13 13 15 11 14 15 15 13 11 13 12 9 0 
163 170 165 166 165 167 161 157 153 150 154 149 148 144 140 142 144 145 159 191 231 179 120 41 14 13 10 9 9 11 10 9 9 8 9 9 6 7 7 9 11 8 8 8 9 7 5 5 7 8 8 8 8 7 8 9 10 12 11 12 10 10 11 10 15 14 10 13 14 13 9 13 13 16 13 13 18 9 8 9 
164 173 165 167 164 169 161 155 150 152 153 149 146 139 140 141 142 149 164 204 216 156 90 22 16 11 7 8 9 6 6 7 7 9 9 8 7 7 7 9 5 7 7 5 4 3 7 5 3 6 5 8 10 5 5 10 10 8 7 9 7 7 10 11 11 11 13 11 7 10 11 9 19 12 12 13 13 7 7 7 
163 169 164 166 163 165 160 157 151 154 149 146 143 139 140 142 143 145 167 215 195 133 65 16 13 8 5 9 13 8 9 7 7 5 6 2 7 9 5 8 6 8 9 9 7 7 6 9 3 8 9 10 9 9 5 11 7 10 10 8 6 10 12 10 12 11 10 10 9 9 9 9 12 15 16 17 12 10 7 8 
162 167 161 163 160 162 159 158 151 147 148 146 143 144 139 139 143 149 179 216 163 113 36 14 10 9 9 6 9 10 9 8 11 10 8 5 9 10 6 8 4 8 6 6 6 7 6 8 7 7 5 9 9 8 8 8 9 6 8 9 7 9 7 9 10 9 4 10 6 9 11 11 10 11 10 11 10 8 7 6 
157 164 161 161 161 159 157 148 152 147 148 147 145 141 141 142 143 157 196 203 147 91 22 9 9 8 7 8 14 9 6 3 5 8 7 5 7 10 7 7 5 2 6 6 8 4 10 9 6 8 8 8 7 7 7 9 10 4 9 9 9 9 8 10 10 9 8 8 9 11 11 11 11 14 10 13 11 8 7 11 
158 167 164 160 159 157 156 152 153 149 148 148 140 140 140 144 145 161 206 183 126 60 16 12 11 10 9 8 8 11 10 7 5 6 4 6 6 10 9 10 5 4 6 7 8 6 7 9 6 11 11 9 9 8 6 9 10 6 11 9 12 11 10 10 10 9 10 10 9 10 11 14 12 15 14 11 10 11 9 4 
157 163 161 161 160 155 156 151 149 150 147 147 147 142 140 143 151 174 205 159 113 35 16 13 11 10 10 8 7 8 12 7 5 6 10 7 8 9 10 5 8 8 7 8 9 8 8 12 14 14 11 7 11 11 12 8 10 9 8 11 14 9 10 10 11 11 10 10 9 11 9 11 16 14 11 12 10 12 4 5 
156 162 159 156 156 159 154 150 146 149 146 144 142 143 138 144 154 187 196 141 81 20 14 11 11 9 8 10 11 8 9 7 7 7 9 9 9 9 9 9 9 9 5 7 9 11 11 12 17 16 14 13 9 10 12 9 11 7 10 10 10 9 12 8 14 10 10 11 9 10 11 16 13 16 14 12 12 14 5 6 
158 161 155 157 156 158 155 148 146 142 146 145 142 140 139 144 159 202 175 127 52 14 11 10 10 10 10 9 9 11 11 10 8 6 9 6 8 9 5 8 9 9 5 9 8 10 14 13 13 13 13 15 15 13 12 9 9 9 9 8 14 8 9 6 7 13 10 11 11 10 9 15 15 16 13 14 12 8 7 6 
158 158 158 157 154 153 149 149 146 145 148 141 141 137 135 145 174 196 157 107 32 11 9 7 7 9 7 8 10 9 9 7 8 6 5 7 7 7 7 8 6 7 4 6 7 10 16 15 13 14 10 12 16 16 12 11 10 9 11 8 8 10 11 9 7 11 11 9 10 8 10 17 11 14 13 14 8 9 11 2 
153 158 153 153 150 152 148 148 144 149 145 140 139 142 139 148 184 189 143 86 18 12 8 8 10 9 9 9 7 7 7 6 6 4 6 7 6 4 6 6 5 7 8 8 8 15 12 14 12 12 11 14 16 15 13 15 14 14 11 11 8 11 10 9 9 5 9 10 12 11 13 15 12 12 11 14 11 9 7 4 
153 159 154 152 153 151 154 145 146 143 147 138 141 139 144 156 198 175 123 55 13 16 10 9 5 8 6 7 11 8 8 6 7 3 4 6 5 2 7 6 6 7 4 6 7 11 14 14 17 14 15 14 14 12 16 13 16 18 13 13 10 12 9 8 8 6 9 8 12 13 9 8 13 11 11 11 17 12 9 6 
149 156 154 150 153 152 147 143 144 141 143 140 139 137 145 171 194 152 109 31 11 10 7 8 11 8 5 7 7 6 6 5 3 5 6 8 5 8 4 7 6 9 8 6 10 13 14 13 12 12 13 13 13 16 15 17 15 15 12 11 13 9 9 10 8 8 7 10 9 11 8 8 12 16 13 13 10 11 6 7 
144 156 154 150 151 148 148 145 146 141 143 138 141 139 149 186 189 137 87 23 10 15 7 9 9 8 11 8 8 8 9 4 5 6 4 7 6 10 9 4 6 5 7 9 9 9 10 11 10 11 12 15 11 16 14 12 18 16 14 12 14 15 17 10 11 7 8 13 9 10 10 9 10 14 11 13 12 10 8 14 
149 153 149 150 149 150 150 145 144 141 140 137 136 143 156 192 173 124 59 13 8 10 9 6 10 11 8 9 9 6 8 5 4 6 8 10 7 9 8 6 4 8 7 7 8 6 10 12 8 9 9 13 14 17 13 13 15 16 16 16 13 17 13 19 14 11 13 9 9 8 9 12 16 16 13 14 15 15 10 8 
147 153 147 149 150 148 149 146 140 142 142 138 140 143 166 197 153 111 34 12 11 13 9 10 8 9 10 9 11 6 10 6 4 6 6 7 7 6 9 8 4 2 7 9 9 8 8 9 11 8 9 8 15 16 12 13 13 14 15 14 14 16 13 13 19 18 15 15 8 13 7 12 11 9 16 15 15 12 11 9 
150 153 149 148 146 148 148 143 141 137 142 136 139 148 181 190 133 87 18 11 8 10 8 8 9 9 10 8 8 10 8 4 7 10 9 6 6 7 7 6 5 4 6 9 7 6 11 11 11 9 6 5 12 10 9 11 17 13 14 15 11 17 14 15 17 19 18 17 16 10 8 12 13 14 13 17 13 12 9 13 
147 153 150 148 147 147 145 144 141 135 140 138 140 154 189 170 118 58 14 11 9 12 10 10 6 9 10 9 11 7 9 8 9 7 8 9 10 10 4 9 8 4 7 7 7 6 9 8 11 10 7 11 8 11 5 8 13 14 13 15 16 14 16 16 19 18 17 22 15 17 10 13 16 13 16 14 17 10 8 11 
148 154 146 146 147 143 143 140 136 135 140 138 142 160 191 148 102 29 10 10 8 8 8 11 7 10 11 8 7 8 5 6 5 6 7 5 6 6 7 5 7 3 6 7 7 9 6 2 6 9 4 5 6 5 6 8 8 10 11 14 14 17 14 17 18 16 19 21 18 16 16 13 16 15 12 13 13 11 11 7 
144 146 144 146 147 145 144 144 137 137 142 137 142 173 182 132 81 16 8 5 8 9 7 8 7 8 8 5 10 5 6 6 7 7 5 6 6 6 5 5 2 4 3 5 8 3 9 5 7 8 5 6 6 7 7 8 6 6 8 7 9 8 11 14 16 18 18 14 17 20 19 14 11 15 14 17 17 14 10 9 
139 149 146 145 143 140 141 138 134 138 139 139 147 174 165 114 65 7 13 9 10 11 7 8 11 9 8 8 8 6 7 7 3 5 6 9 9 9 4 7 2 5 7 9 6 5 8 4 11 7 5 6 9 6 9 5 8 4 4 7 8 8 8 10 17 19 19 17 15 20 17 15 17 18 16 16 16 18 10 7 
141 144 143 144 144 142 141 138 134 136 137 137 154 183 150 106 43 14 12 11 10 12 11 8 12 5 9 9 5 5 5 4 5 7 8 6 6 7 5 5 0 4 6 10 9 5 6 5 4 5 5 5 5 5 7 9 9 7 8 8 8 6 5 8 10 12 15 17 18 20 15 13 18 21 21 17 17 18 10 12 
140 144 142 142 142 141 140 139 137 135 139 140 165 177 132 91 22 10 14 13 10 12 7 5 10 7 6 8 5 7 6 7 7 7 7 8 8 4 8 7 5 6 8 9 7 6 6 2 4 5 9 6 9 8 7 10 9 10 6 6 6 6 2 8 10 8 9 12 13 16 19 16 21 18 20 18 21 17 13 11 
139 149 143 137 145 139 139 140 133 135 140 144 172 171 119 71 15 14 15 8 9 12 6 7 8 8 8 10 8 7 6 10 6 6 7 6 5 7 6 4 5 10 7 9 10 6 8 7 10 4 5 7 6 7 6 7 10 7 5 4 3 4 5 5 10 8 9 10 16 17 19 20 19 18 19 19 23 20 16 12 
138 143 143 140 139 140 139 138 136 138 144 153 175 154 112 47 14 8 11 12 8 11 9 8 9 6 8 9 7 8 11 6 5 11 5 6 6 7 8 6 6 9 11 9 10 9 7 5 8 8 4 5 6 6 9 8 7 7 6 4 5 2 5 10 9 11 10 11 11 18 19 21 21 21 17 18 18 19 15 11 
137 147 145 142 144 140 138 135 136 135 142 155 179 139 97 34 13 12 14 12 6 11 8 8 9 7 7 8 9 10 6 5 8 11 5 5 4 7 8 9 7 12 11 10 9 8 11 7 8 9 5 9 8 8 6 9 8 6 3 6 8 8 5 9 9 11 12 13 14 18 21 22 20 21 17 17 22 16 11 7 
140 139 143 140 145 138 139 138 131 134 144 168 174 127 80 15 10 9 8 14 10 8 10 9 7 6 7 7 8 7 7 5 4 7 8 7 3 8 11 6 6 12 11 10 11 10 11 9 7 6 6 8 6 6 4 6 6 5 0 2 2 4 5 5 11 11 8 9 15 19 23 24 23 22 17 16 18 16 13 10 
135 142 140 142 139 136 138 137 135 137 147 173 162 114 59 12 11 6 12 14 9 12 7 9 8 9 6 5 8 8 8 5 6 7 5 4 6 8 8 7 8 9 14 11 9 9 9 12 10 8 7 8 7 3 8 6 7 5 5 4 3 3 6 7 5 11 13 11 22 19 21 21 21 20 18 15 16 17 13 10 
136 142 135 141 139 136 136 137 137 136 158 181 152 105 38 11 9 9 10 9 9 11 11 7 10 9 7 7 5 8 5 6 7 8 3 5 7 4 7 8 12 9 11 14 10 11 9 9 4 10 8 7 7 11 8 9 10 7 5 5 4 7 3 7 7 12 16 18 19 20 22 19 20 22 17 15 18 18 9 12 
135 140 138 137 137 134 138 137 133 137 165 176 135 89 22 13 9 6 9 10 9 9 8 7 9 7 4 8 5 6 4 4 4 7 6 4 5 7 5 6 6 10 6 12 14 12 5 7 9 7 7 6 5 7 3 8 8 7 8 4 0 4 5 10 14 20 18 18 17 19 19 24 20 20 11 19 22 18 12 10 
138 141 137 140 138 138 143 139 140 142 177 174 123 71 15 9 9 10 12 7 9 10 7 8 11 6 9 10 7 7 10 4 7 7 7 3 7 8 4 7 11 10 12 12 11 7 4 7 7 9 6 9 6 4 6 9 10 9 6 6 5 7 8 12 15 21 20 18 20 19 22 20 17 17 15 14 16 22 14 13 
134 137 134 138 136 135 140 137 137 149 185 162 116 51 11 11 6 10 11 12 12 10 9 5 7 8 8 5 8 9 8 7 5 6 6 3 4 5 4 6 7 10 11 12 13 5 6 7 4 9 7 10 7 9 7 10 7 12 5 6 4 7 12 16 16 20 18 16 21 21 22 18 17 17 14 13 14 18 13 10 
132 135 134 136 135 135 136 134 141 159 188 149 101 27 11 8 10 6 11 11 8 8 8 7 4 7 7 2 7 8 7 6 6 5 7 4 3 4 4 8 4 6 11 8 11 7 6 8 7 6 6 6 8 7 6 7 6 8 7 4 5 10 15 14 18 17 19 15 19 20 17 12 15 11 13 11 13 14 12 11 
133 142 133 136 137 134 135 135 141 172 189 134 90 16 6 6 7 9 10 10 9 9 5 7 7 5 5 9 7 7 8 10 5 4 6 2 3 3 6 7 6 8 9 11 7 5 8 9 7 5 8 8 6 8 6 8 10 9 5 5 13 17 15 17 15 19 18 16 20 15 11 14 15 16 12 12 11 12 11 11 
133 135 134 133 135 138 134 139 148 180 179 127 72 11 9 11 6 8 11 9 10 7 7 9 7 7 8 6 6 8 9 7 8 5 6 5 5 4 1 7 5 11 7 10 8 8 7 4 5 8 6 6 5 7 9 8 4 5 10 10 14 13 13 16 17 20 21 18 14 14 15 12 11 15 11 10 10 6 7 5 
133 137 135 135 134 134 134 135 153 183 163 116 50 7 8 3 7 9 13 12 9 10 8 7 10 8 7 6 7 6 6 5 5 8 8 4 5 3 5 6 5 8 6 7 7 6 7 8 6 8 5 6 9 8 9 6 8 6 15 15 16 15 17 18 16 17 20 15 10 12 12 12 12 12 11 11 12 8 3 8 
132 138 136 136 136 137 136 141 164 186 145 104 32 9 6 5 8 7 6 12 9 9 11 5 6 6 8 7 7 9 9 6 6 7 6 5 5 2 4 6 8 8 10 10 7 13 5 8 8 9 8 8 10 10 7 9 12 14 16 13 17 18 17 16 18 16 13 9 12 15 12 12 13 14 10 10 13 8 7 5 
132 140 135 134 133 139 140 144 170 180 138 87 24 10 7 8 9 9 9 11 11 10 8 4 6 6 6 7 9 9 6 5 6 4 5 1 4 6 9 3 4 9 8 10 11 10 8 8 10 7 8 6 8 10 11 14 17 15 16 15 18 15 16 18 20 15 12 9 11 12 11 15 16 12 12 10 12 8 3 2 
130 137 134 134 134 138 139 151 172 165 122 74 13 7 7 3 4 7 6 11 6 11 8 6 7 8 8 10 7 10 6 6 4 3 7 5 5 6 5 8 5 9 9 9 10 7 10 6 11 7 9 11 12 13 15 17 16 17 16 16 16 17 11 14 14 10 9 10 10 12 11 9 13 10 11 10 10 9 7 2 
133 135 132 133 134 139 141 154 183 154 117 54 15 9 6 3 8 2 6 12 10 10 8 4 6 8 7 8 6 6 7 5 3 7 4 3 8 8 6 9 7 6 7 11 7 8 13 9 11 11 13 10 12 17 20 17 17 14 16 16 15 14 13 12 9 12 11 11 11 12 12 8 10 9 9 10 7 8 2 4 
132 143 134 135 133 138 146 163 181 143 112 32 10 7 9 5 6 4 8 10 6 12 11 8 11 8 8 8 5 9 6 8 2 6 5 8 8 8 8 7 9 6 11 10 10 10 10 11 11 13 14 11 16 16 18 16 15 19 15 14 14 14 10 11 10 10 9 11 9 10 4 10 12 11 10 11 8 9 5 6 
132 138 136 133 139 141 147 177 185 146 105 24 14 8 7 4 4 4 7 10 10 12 8 7 8 10 11 8 8 11 10 9 6 8 7 4 8 12 6 8 9 9 10 8 10 10 10 11 17 12 16 16 19 18 18 16 19 16 14 17 14 13 11 11 11 8 13 10 9 7 9 11 13 15 10 14 8 11 9 5 
132 141 132 140 138 142 152 193 190 150 89 14 10 7 7 4 2 3 7 12 9 10 8 7 11 4 5 10 9 11 9 5 4 7 8 8 6 7 7 8 4 10 11 6 8 9 7 11 9 11 15 17 19 16 15 10 15 17 16 16 7 14 14 9 8 9 10 8 8 11 6 7 12 13 12 10 12 8 4 3 
132 140 137 142 144 150 163 188 178 153 66 12 12 7 6 7 5 2 10 7 7 10 11 6 7 4 10 6 9 8 8 8 6 5 7 3 6 4 5 7 6 6 8 6 11 10 9 9 13 15 15 15 17 19 12 14 17 16 12 10 9 7 8 9 11 6 8 7 8 10 13 9 7 10 12 8 11 9 2 2 
132 133 128 126 132 132 135 142 147 122 37 14 8 7 8 4 6 1 10 12 8 11 10 9 8 6 7 9 9 10 11 8 5 5 4 6 5 9 5 6 6 7 8 8 8 9 8 10 11 13 17 17 16 14 14 16 15 16 10 10 10 7 8 12 11 8 8 11 9 8 8 11 12 11 8 11 7 9 4 3 
112 110 105 106 103 108 113 119 108 79 23 9 7 6 4 1 5 6 9 12 11 9 10 7 9 7 9 7 10 7 8 6 6 5 8 6 3 4 5 4 4 9 7 7 6 7 8 6 8 13 15 17 17 17 16 17 17 13 8 8 8 7 8 7 9 11 10 10 13 12 12 8 11 9 8 11 8 5 5 1 
97 95 94 92 92 90 89 84 73 48 19 12 7 6 6 5 4 4 4 10 12 14 10 6 9 11 8 12 7 10 7 9 7 5 8 6 8 6 5 6 10 8 11 11 8 9 10 9 9 11 17 17 19 14 17 18 12 9 7 7 10 12 12 12 12 10 13 11 10 11 13 11 12 12 7 9 11 7 6 6 
74 70 64 57 52 46 43 32 24 19 15 15 8 7 9 3 8 5 10 16 11 11 11 8 12 8 11 9 9 10 12 8 14 10 9 5 6 9 8 5 6 8 8 10 13 11 10 8 9 11 10 18 19 18 15 13 13 8 11 9 10 9 12 11 11 13 13 11 10 10 7 12 12 16 12 13 14 10 7 5 
29 29 25 21 20 17 26 15 15 12 12 16 9 6 6 5 8 11 11 10 8 12 7 10 11 8 7 6 9 10 7 8 9 10 6 5 6 8 6 11 5 9 8 11 10 12 11 10 8 7 9 8 14 15 11 9 9 11 8 9 6 7 12 9 12 12 12 13 10 10 10 14 14 15 7 11 11 8 6 8 
19 20 20 18 18 14 17 14 10 10 11 10 11 4 6 6 5 12 14 10 8 15 7 6 10 10 11 8 9 11 10 6 5 6 8 6 5 5 7 5 6 8 12 12 11 8 9 9 8 7 10 12 9 8 8 6 8 10 13 9 7 10 10 11 11 13 15 13 9 12 11 14 14 15 9 12 12 10 8 4 
15 17 15 16 14 15 15 14 13 12 15 12 10 9 7 7 11 10 16 14 12 14 10 5 10 12 10 9 11 11 10 8 11 7 7 7 10 6 9 9 7 7 8 15 10 12 12 12 9 10 8 8 9 10 8 9 10 5 12 10 11 8 12 10 16 17 14 15 13 16 13 13 19 16 11 11 13 12 6 7 
12 21 13 17 14 11 15 16 11 10 15 12 11 10 10 9 12 8 14 16 15 14 10 11 14 9 11 8 9 10 10 11 10 9 9 5 9 12 12 9 7 12 11 13 11 10 13 12 11 9 9 13 14 12 8 10 11 13 14 9 10 15 12 12 13 18 16 17 15 16 16 18 15 17 15 12 13 12 8 7 
8 16 11 15 9 12 13 13 9 9 15 10 9 12 11 10 10 5 11 9 10 12 8 11 9 12 8 13 12 8 10 9 12 8 6 8 9 11 12 9 8 10 14 10 13 11 10 14 11 8 8 10 13 10 7 9 7 9 8 12 10 13 13 16 16 18 16 15 14 16 18 18 16 17 15 14 14 11 8 8 
9 15 8 14 11 11 16 9 9 11 12 6 10 10 7 7 4 7 7 10 10 12 8 9 7 6 10 6 9 11 9 7 9 7 9 9 9 8 7 7 8 9 8 9 11 12 8 9 7 9 9 9 10 9 9 8 9 13 11 10 8 12 11 13 14 12 16 17 17 12 16 15 14 17 15 15 13 12 8 8 
6 14 10 10 11 13 14 9 11 11 14 10 8 9 7 7 6 7 8 14 14 11 8 8 10 7 12 10 7 12 9 9 10 6 8 9 9 5 7 7 7 8 6 11 11 13 11 10 10 9 11 9 9 9 7 11 10 10 14 13 14 17 14 16 15 14 16 14 15 17 13 18 16 15 15 14 15 13 10 7 
7 11 11 13 12 9 13 11 11 10 15 11 10 8 5 7 5 6 11 13 13 11 9 7 8 9 11 9 7 10 10 8 7 6 9 7 10 14 8 6 7 8 8 15 11 9 9 13 10 9 11 11 9 9 9 13 10 14 12 15 11 16 13 16 16 17 15 12 11 14 14 14 17 18 16 15 12 14 12 11 


