P2
80 60
244
181 194 192 191 193 195 200 203 204 206 204 205 201 195 205 201 203 207 205 208 213 220 219 220 214 204 206 209 202 197 198 196 198 202 202 210 206 210 212 220 220 225 224 231 216 216 218 211 214 209 210 210 209 214 214 219 216 218 214 221 227 224 227 221 232 228 224 227 222 220 215 222 219 221 219 209 210 208 200 199 
183 195 190 193 197 200 203 205 209 212 208 203 195 198 203 202 206 212 205 205 213 220 219 218 217 204 205 210 205 197 201 201 199 205 200 209 209 212 212 228 220 232 232 229 221 225 215 218 213 214 209 216 210 217 212 218 216 218 223 227 223 229 233 233 238 232 226 231 227 219 221 226 225 224 225 217 219 214 209 200 
179 189 188 193 192 192 194 204 201 198 204 201 187 192 200 200 204 202 197 206 216 218 221 206 207 196 200 202 197 193 192 192 200 195 202 205 205 215 219 228 229 236 227 224 218 218 217 212 211 210 209 211 210 207 213 213 215 216 220 219 226 229 235 229 235 234 231 228 230 229 213 226 226 225 223 211 212 212 202 201 
179 187 187 190 195 195 200 199 199 196 200 191 193 181 196 198 200 195 199 206 221 221 203 198 196 192 191 195 193 185 195 193 193 198 202 207 212 214 224 228 233 229 229 222 215 220 211 214 213 213 210 211 211 212 211 217 220 219 223 221 226 230 231 234 230 232 233 241 233 227 224 228 227 229 226 217 215 214 205 202 
175 188 189 194 189 194 193 195 196 193 191 187 179 184 192 191 197 197 194 209 222 209 203 189 181 182 180 182 189 186 188 188 192 196 200 209 209 207 214 224 226 223 221 222 219 219 211 206 213 208 215 207 209 209 209 214 214 211 216 218 221 225 233 236 234 234 231 232 233 232 229 230 232 222 220 218 209 215 208 200 
175 184 182 178 185 184 186 185 188 191 181 180 179 179 185 185 185 188 194 210 221 203 183 167 169 164 169 172 174 178 187 185 188 187 194 203 201 204 209 218 218 216 217 222 218 215 211 206 208 213 209 206 206 207 209 212 218 212 219 213 228 229 229 233 235 232 232 235 231 238 226 225 225 224 222 215 214 217 210 198 
169 174 180 178 178 180 183 181 176 185 182 174 172 175 177 175 179 188 196 216 211 193 165 153 162 156 156 163 166 167 174 177 177 182 190 196 194 201 210 212 210 212 211 223 214 211 209 206 210 210 210 210 209 207 212 209 216 216 217 224 221 224 226 232 232 234 232 236 231 234 226 228 228 226 225 215 214 215 212 204 
166 177 178 179 175 181 181 178 177 177 177 171 167 172 174 174 179 183 196 211 199 180 142 137 145 141 146 155 156 155 167 170 174 172 181 184 186 189 196 201 192 205 221 220 217 210 211 205 210 207 206 205 208 205 208 209 212 214 216 216 224 229 228 228 235 232 235 229 230 230 229 233 231 228 219 221 218 218 214 206 
165 174 169 171 174 173 172 174 171 175 168 163 160 161 172 170 177 187 196 206 185 156 126 128 134 132 132 141 146 148 158 159 162 161 176 173 179 177 181 183 188 211 219 215 212 211 209 204 210 207 208 206 208 206 208 214 217 213 213 220 222 228 227 227 236 237 231 230 236 234 234 231 232 234 228 220 218 215 213 204 
167 170 166 171 169 167 173 172 165 169 164 164 164 156 163 168 177 187 194 193 169 140 113 120 125 122 128 139 143 146 148 150 158 163 168 171 171 170 178 185 188 216 220 216 212 209 211 208 212 208 206 206 210 206 211 213 218 217 215 223 221 231 228 231 234 232 239 232 235 233 231 236 235 231 230 227 219 221 213 208 
155 165 157 164 162 167 166 164 161 161 160 160 159 157 162 162 171 195 195 177 159 123 110 114 120 124 128 133 138 142 142 144 149 154 164 165 168 163 164 176 204 217 222 216 209 211 210 207 208 206 207 207 205 208 210 209 216 217 218 217 223 225 230 228 236 233 230 232 232 232 232 235 233 233 230 225 221 225 214 210 
158 163 165 160 166 162 164 160 158 159 155 153 154 155 158 165 172 193 195 170 138 103 103 106 120 123 127 136 142 138 145 145 151 147 158 162 160 160 162 185 213 218 222 216 215 210 210 207 211 207 205 206 204 205 205 211 219 215 221 216 223 229 231 229 238 234 233 238 234 233 228 234 232 233 227 222 222 226 213 210 
152 165 160 157 161 163 158 156 155 158 154 159 152 152 156 162 174 198 185 159 124 103 104 115 123 125 126 136 139 137 146 149 152 151 154 158 158 159 163 208 216 216 215 218 211 212 210 207 210 212 207 207 206 209 212 211 221 217 224 221 223 230 223 232 235 237 230 235 236 231 229 232 228 228 226 224 220 229 216 210 
154 162 162 160 157 164 161 164 155 159 157 152 149 153 161 163 184 199 168 146 108 104 112 117 121 126 129 133 144 137 147 144 150 150 152 157 159 159 179 215 213 215 212 210 212 208 206 205 210 211 208 204 209 205 209 216 221 218 218 221 223 227 232 231 234 238 233 239 230 238 227 230 229 228 229 222 224 225 218 213 
154 167 155 165 165 158 161 163 159 159 155 154 157 164 166 172 187 198 165 138 111 114 114 122 128 130 132 141 141 140 149 147 149 151 150 156 156 167 203 218 215 211 215 214 209 213 212 207 209 208 206 206 210 211 211 212 217 220 221 221 225 232 232 234 239 237 237 237 240 237 230 231 231 232 228 223 220 223 216 214 
163 168 165 170 168 164 169 165 164 160 164 163 159 161 173 175 194 187 164 133 121 124 125 128 133 133 141 142 148 147 146 146 149 149 158 161 167 185 203 227 212 218 219 211 211 212 213 205 210 210 206 209 211 214 212 214 219 218 224 226 225 227 235 233 236 237 236 237 235 233 232 234 235 233 227 228 223 223 220 215 
166 175 173 170 168 172 173 167 172 169 171 164 168 175 174 184 199 186 164 140 139 137 139 138 144 142 141 155 155 156 157 150 156 160 164 173 177 205 224 222 220 219 213 213 209 214 212 210 215 215 212 204 215 217 215 215 218 222 227 223 230 232 233 232 238 238 238 238 240 233 235 236 234 238 227 227 227 226 224 217 
168 184 179 178 172 170 178 174 167 168 170 167 164 170 183 195 200 188 164 148 153 148 152 153 159 154 154 162 163 159 163 164 163 170 175 177 197 222 219 220 219 218 217 217 215 210 213 209 213 206 208 208 211 217 219 216 219 218 228 223 231 233 234 233 239 240 238 244 242 238 237 233 242 231 229 231 227 230 225 218 
173 179 174 177 178 179 179 171 174 171 179 177 171 179 192 200 194 188 166 158 164 160 154 162 162 165 167 165 169 171 172 172 176 182 187 193 209 220 220 222 218 217 215 214 210 213 213 206 211 210 205 206 213 218 214 218 220 221 221 224 227 233 234 235 237 239 236 238 240 239 234 239 232 231 228 226 230 230 222 220 
173 186 178 176 175 179 176 176 178 180 180 180 180 180 195 199 194 192 172 175 177 172 172 170 178 177 176 182 180 178 183 181 188 191 197 210 213 219 215 216 213 211 211 214 211 209 208 210 215 214 210 205 210 217 213 218 220 222 227 228 227 231 228 233 233 235 237 240 232 238 233 235 236 230 234 230 226 232 228 222 
175 188 183 180 178 182 182 182 183 181 180 181 182 184 199 199 195 192 183 182 183 181 181 184 184 183 184 191 191 192 198 199 198 204 215 220 220 218 219 216 216 212 215 212 211 210 210 209 208 208 205 207 210 214 213 218 221 221 226 227 227 232 230 227 237 237 235 238 236 235 232 232 237 234 236 235 225 229 230 223 
177 190 183 184 183 179 188 187 187 192 189 187 189 189 205 206 204 195 191 185 193 189 187 190 189 190 187 199 200 200 202 202 205 209 214 224 219 219 221 217 211 212 213 214 211 211 212 206 212 211 206 208 213 219 218 221 222 219 222 227 232 232 233 236 240 241 239 237 240 239 234 241 231 235 235 238 229 233 230 223 
181 189 186 186 186 186 191 192 190 191 191 190 197 196 204 199 198 195 192 191 191 190 186 188 192 188 191 203 198 200 206 212 213 213 217 223 223 218 214 215 214 217 215 211 214 212 208 207 211 209 204 209 212 213 213 218 221 219 225 222 229 230 231 238 237 239 241 238 238 244 236 239 233 236 235 232 226 233 231 223 
181 192 185 185 190 194 186 193 190 192 192 187 192 198 208 199 199 198 191 191 186 185 192 193 195 192 191 199 199 196 206 205 213 213 215 224 215 215 211 214 213 214 208 216 210 211 207 211 208 210 204 213 213 213 215 216 222 223 222 222 226 233 233 231 240 238 240 239 242 237 238 239 243 237 236 235 233 228 227 217 
180 183 177 185 181 182 184 185 192 192 193 191 193 191 204 200 192 187 190 184 184 184 187 187 188 186 189 198 199 197 207 205 209 209 213 219 213 209 210 215 216 212 214 216 209 211 208 206 210 207 205 209 214 216 213 217 220 218 217 220 227 231 230 231 235 238 234 239 239 234 233 235 238 237 233 227 225 229 221 216 
171 183 178 179 180 178 182 188 189 184 190 191 191 193 202 193 194 185 179 183 183 180 183 184 185 186 187 193 194 194 204 205 205 203 209 213 211 207 204 212 212 212 209 209 209 209 209 206 205 202 205 213 209 214 211 216 217 216 222 223 228 231 231 230 237 238 236 238 236 234 231 238 231 237 234 231 229 227 223 210 
172 178 175 174 178 176 188 189 186 187 191 186 191 190 198 190 180 185 182 177 177 180 177 180 185 183 187 195 195 197 198 201 204 203 208 208 202 197 199 211 213 219 211 212 207 209 204 207 204 206 205 210 211 214 214 212 215 218 219 223 224 229 225 231 235 237 233 232 233 235 230 238 229 232 235 228 226 227 222 216 
166 178 171 173 176 176 176 188 178 184 186 186 196 189 192 187 172 174 169 166 174 170 172 173 181 176 184 192 192 192 196 197 197 200 198 203 200 191 197 207 214 217 212 209 204 206 206 201 200 204 204 211 212 212 209 214 214 214 219 220 222 222 227 228 237 238 230 237 233 235 225 236 231 235 227 228 223 224 221 214 
165 171 173 169 171 170 178 177 181 178 183 186 193 187 191 170 162 167 162 168 165 168 164 169 172 173 179 185 191 187 191 190 192 193 189 199 188 191 200 217 212 212 214 214 209 206 205 208 206 205 205 205 208 212 214 211 217 214 221 221 220 225 229 225 231 235 232 234 232 237 232 234 234 235 232 229 223 226 218 217 
166 168 162 168 170 173 169 170 172 176 182 187 194 185 187 162 154 156 146 154 160 158 160 160 168 165 171 182 182 178 191 187 188 185 187 188 181 191 202 218 216 214 215 214 208 208 207 212 207 207 209 213 205 211 213 213 212 208 216 219 221 225 226 225 228 237 228 232 237 231 229 235 234 230 231 227 219 228 221 214 
159 162 162 167 163 166 168 165 170 174 178 186 191 175 168 144 144 147 147 145 150 151 153 158 163 161 169 173 180 172 180 179 181 178 179 183 180 187 205 218 216 212 214 212 206 206 204 205 205 204 203 209 207 209 206 212 212 212 212 216 222 220 220 222 225 232 231 228 229 228 229 235 231 228 233 224 217 222 219 213 
151 162 159 163 162 162 166 162 168 168 173 194 182 171 152 141 142 144 137 142 145 148 148 157 161 165 165 175 176 174 180 178 179 178 181 180 184 199 211 213 215 216 214 214 207 208 206 202 208 207 208 201 200 210 208 212 209 209 212 213 219 222 220 222 225 230 230 230 234 230 228 231 231 230 232 225 221 217 212 213 
151 161 158 163 161 161 167 166 168 177 182 187 187 165 150 132 142 139 141 144 147 145 148 160 162 165 167 179 173 168 178 173 173 173 173 182 185 202 215 220 215 215 210 216 210 210 204 206 207 206 204 207 207 210 207 209 211 210 206 212 217 212 219 218 226 227 223 227 226 227 219 233 224 226 223 227 220 223 211 204 
150 158 153 151 162 160 164 166 169 171 184 184 173 156 143 135 136 137 136 141 145 143 154 157 159 161 162 172 172 169 173 166 170 173 173 176 194 209 216 214 215 215 218 215 211 207 206 206 203 207 200 202 203 211 207 207 209 208 207 210 210 218 214 216 223 227 217 223 226 224 219 226 224 222 226 221 214 217 205 204 
146 152 156 157 160 159 171 169 167 175 186 180 167 150 142 135 136 141 138 143 145 147 154 156 166 164 160 172 169 163 172 171 168 171 176 182 201 206 215 219 214 216 213 214 208 210 206 206 206 205 204 205 206 209 204 203 206 207 209 207 208 213 217 214 218 219 220 224 221 223 219 225 221 223 218 222 216 221 210 206 
144 156 155 164 164 165 164 170 166 174 194 177 163 142 132 138 133 138 139 140 149 151 152 162 162 164 159 167 167 163 169 164 170 169 177 183 204 215 214 221 214 218 214 213 206 211 207 204 209 202 200 203 207 209 205 204 202 208 204 210 212 211 208 215 220 218 217 217 220 224 217 224 219 218 223 219 215 215 211 201 
142 147 155 163 161 164 163 168 166 177 189 171 155 137 133 134 133 145 144 141 149 152 151 158 162 154 159 166 159 159 163 161 166 167 180 196 206 211 211 215 213 211 217 210 203 208 204 204 200 202 200 203 205 207 206 204 205 199 202 205 211 211 207 209 213 213 215 215 220 219 213 221 218 215 212 211 217 215 207 202 
143 151 162 161 163 168 164 168 168 181 193 169 157 132 136 136 142 141 146 145 150 151 153 158 163 159 156 164 161 161 163 168 165 168 187 205 212 216 210 216 216 213 210 212 209 203 206 202 202 204 200 202 205 209 199 198 204 206 203 202 202 209 207 210 210 216 213 216 216 217 214 219 215 220 218 209 212 208 204 201 
152 157 160 168 167 164 171 175 179 183 185 168 145 128 137 139 138 145 149 154 155 154 152 156 163 158 157 166 163 159 165 167 170 177 196 208 212 213 215 218 212 213 213 208 202 206 198 200 200 207 199 206 205 203 202 198 201 198 204 200 201 206 202 210 212 215 212 211 212 216 211 217 211 217 213 213 204 209 203 200 
153 156 163 171 167 165 164 179 174 185 180 165 145 128 138 140 145 146 148 155 158 153 160 159 163 162 160 167 166 165 170 169 176 181 194 205 214 210 208 214 209 211 208 207 202 200 199 199 199 201 198 205 195 202 200 197 197 196 199 204 201 208 202 206 207 207 205 208 209 213 210 216 213 219 211 210 208 212 203 195 
148 158 166 167 171 168 179 178 180 188 175 168 147 139 149 150 154 158 156 164 166 160 168 162 168 166 169 170 174 169 177 180 183 187 200 210 211 209 209 213 212 211 213 205 196 202 201 197 202 201 204 202 202 204 202 198 200 192 199 199 202 205 205 205 207 206 209 209 209 207 208 215 209 212 209 211 207 209 206 192 
155 166 169 166 170 171 178 183 183 188 180 164 152 147 154 158 160 166 169 170 171 174 177 171 175 170 166 178 181 176 183 187 189 196 205 207 210 207 207 211 206 211 205 206 201 203 196 198 201 201 203 204 200 202 200 199 194 197 199 197 196 206 203 202 206 213 206 206 211 204 208 210 213 209 214 211 210 212 205 192 
162 170 175 181 175 176 178 179 183 189 178 168 156 157 163 163 168 177 175 178 178 178 176 181 176 178 175 184 186 184 188 184 192 192 199 203 200 205 201 205 208 201 201 201 193 196 192 193 201 207 200 202 198 203 198 200 199 195 196 195 197 201 205 203 207 206 208 201 205 206 202 209 204 206 209 213 208 207 202 198 
162 169 168 177 175 172 179 183 181 184 176 168 165 156 167 169 174 175 171 175 177 172 179 174 180 174 180 185 181 187 184 187 189 192 197 203 200 199 199 206 201 201 197 197 188 190 187 192 201 204 201 202 196 193 192 194 194 194 196 197 195 198 196 199 202 202 199 202 203 200 200 212 211 212 211 211 206 207 201 196 
162 173 168 171 174 175 182 185 188 176 178 162 157 161 170 165 167 176 173 176 180 173 173 180 174 175 173 182 176 178 185 178 188 189 194 203 197 193 195 199 189 197 191 190 191 189 189 192 204 204 201 198 197 196 188 192 192 190 192 194 196 202 204 200 203 199 203 199 202 200 200 209 210 209 212 211 207 208 201 189 
162 172 170 177 174 178 177 184 189 181 173 165 158 156 172 164 167 177 166 171 176 168 170 172 171 165 169 178 175 173 177 179 178 183 188 193 192 190 190 193 187 187 184 181 181 185 189 193 204 203 199 204 199 201 192 192 194 194 194 191 198 201 201 197 200 196 201 200 200 206 202 206 209 209 209 210 209 205 197 189 
155 172 165 172 172 169 177 192 183 183 169 152 155 155 154 152 160 168 163 162 165 160 161 166 167 165 164 175 166 166 170 176 176 178 181 184 182 185 182 186 179 176 177 173 173 177 185 196 200 200 200 200 198 195 197 191 196 189 191 195 197 197 202 194 197 197 203 198 202 198 194 206 204 206 209 209 204 200 199 184 
150 162 160 163 169 174 177 185 180 180 152 140 140 139 151 149 146 156 155 157 156 153 153 155 160 155 157 164 165 165 166 161 166 166 174 176 172 174 170 174 165 164 162 170 163 181 183 193 202 202 201 199 196 196 192 193 191 191 190 193 194 202 196 190 197 201 194 198 199 198 192 204 202 213 213 210 205 205 201 195 
145 161 153 157 156 161 168 161 166 169 136 127 123 126 134 134 136 148 142 144 141 144 142 145 147 147 149 149 154 148 155 149 155 153 160 159 162 161 159 159 153 156 152 158 158 167 183 193 201 202 199 195 197 195 196 190 191 187 197 192 193 197 192 191 189 198 193 195 196 200 195 205 204 208 206 205 198 206 193 187 
140 147 144 148 147 151 153 156 154 151 123 121 116 116 132 126 131 136 133 133 130 134 133 137 135 134 136 140 145 138 142 142 146 147 152 147 152 144 151 147 147 150 148 150 159 170 184 194 206 197 197 195 199 199 192 193 193 194 198 191 191 197 192 193 196 194 193 195 201 195 194 205 200 212 213 203 200 204 197 188 
127 138 128 132 132 135 134 134 130 121 108 102 103 101 118 116 123 120 122 118 116 123 119 126 126 126 125 134 132 124 133 131 124 128 136 135 131 143 138 139 137 139 134 146 150 168 182 197 205 201 198 194 192 193 192 192 192 186 190 190 191 196 191 189 195 189 193 192 196 198 194 202 205 208 204 202 200 198 194 187 
111 114 101 112 104 106 107 100 97 103 90 93 91 92 102 104 101 103 108 108 104 103 111 114 119 113 117 122 124 121 122 121 119 115 128 128 130 127 129 129 128 132 134 147 153 169 185 198 198 200 194 196 195 193 192 194 190 190 185 192 190 191 185 187 192 191 191 191 198 198 192 198 201 202 207 204 197 200 193 180 
74 79 75 78 82 80 77 83 81 85 85 84 76 81 93 90 94 96 92 97 103 97 95 105 103 105 101 110 110 105 108 109 115 111 115 115 119 122 123 123 122 128 134 145 157 173 189 200 202 200 198 196 191 194 190 189 191 188 189 191 186 194 188 189 189 195 191 192 196 194 194 200 202 207 202 202 201 198 188 180 
54 59 58 64 65 73 71 67 67 74 70 74 68 71 81 80 81 86 80 85 86 92 90 92 93 97 91 99 100 96 100 94 105 104 107 110 112 113 113 120 119 123 137 148 157 179 198 199 200 199 192 196 190 194 186 192 188 186 189 183 183 184 185 191 192 189 186 188 197 195 194 199 204 202 198 197 195 194 188 178 
45 51 52 55 56 61 61 57 58 65 67 64 60 65 71 72 77 80 82 79 82 79 82 83 92 88 85 92 92 90 95 95 92 98 104 105 110 110 115 121 122 127 138 149 162 184 201 201 200 206 195 196 193 195 192 188 191 188 187 186 184 192 184 189 190 188 187 186 194 194 196 199 203 204 206 199 195 197 187 182 
34 35 38 37 42 39 47 45 44 58 55 52 51 55 60 64 62 64 68 69 73 68 72 76 77 72 79 84 85 77 87 87 85 92 100 101 101 106 112 118 125 123 140 153 167 192 199 196 200 196 193 194 192 186 189 185 185 186 187 182 181 187 182 185 186 188 184 190 199 195 192 198 205 204 201 198 188 189 184 174 
22 26 28 28 34 34 34 38 37 36 44 43 44 49 54 49 55 64 56 64 63 62 66 75 72 68 75 80 76 80 82 88 89 96 98 106 105 103 109 123 119 131 143 159 168 198 199 193 198 197 192 193 190 194 187 188 188 181 185 187 183 184 189 185 185 189 187 195 190 188 190 195 197 199 197 198 190 192 182 175 
14 25 17 22 25 24 26 23 35 37 30 34 36 38 49 52 49 58 50 50 59 61 63 66 67 67 69 75 77 75 83 80 87 92 94 109 108 108 107 119 126 133 151 161 178 197 200 198 195 194 191 197 191 190 185 185 187 184 178 179 185 180 184 180 184 190 186 186 190 189 186 194 198 200 195 193 190 189 179 174 
6 15 9 14 13 11 12 17 27 32 30 33 29 31 39 40 46 49 44 53 52 55 59 64 64 61 68 72 78 77 83 84 85 94 102 99 108 111 118 122 125 136 149 162 180 195 192 195 195 195 193 191 188 188 180 181 180 179 179 178 179 178 173 179 181 183 176 181 190 183 184 196 192 198 195 188 186 187 176 169 
0 10 6 11 7 9 10 15 17 29 33 28 25 31 45 36 43 50 52 52 55 56 57 69 64 62 68 76 80 78 87 88 93 97 100 96 115 119 123 124 128 144 152 166 184 197 195 190 191 189 192 185 186 184 179 185 181 177 179 176 172 178 177 177 182 184 175 180 188 183 183 188 198 189 192 187 182 180 180 170 


