P2
80 60
275
253 258 259 263 261 263 269 263 255 253 256 250 257 260 254 254 257 259 259 259 257 254 256 256 256 255 258 258 255 255 254 253 252 261 257 260 260 266 267 265 271 262 268 263 261 257 257 252 250 246 241 235 235 227 222 229 228 223 225 224 221 225 219 213 212 211 215 211 203 204 200 201 193 194 189 178 179 180 166 157 
253 254 261 263 257 264 268 262 257 260 257 252 256 262 257 254 259 260 252 259 259 258 253 250 250 257 255 255 250 252 256 256 256 254 257 261 265 265 269 266 270 264 263 262 258 258 256 255 250 241 240 237 230 230 220 226 230 227 220 221 226 224 219 215 210 212 216 208 206 203 196 192 188 184 189 176 176 162 161 152 
251 255 253 259 263 263 271 265 258 257 257 259 258 258 255 256 254 258 253 257 259 263 255 253 250 252 249 251 253 254 253 249 250 252 258 257 263 257 266 261 263 265 260 261 259 253 252 250 248 241 242 237 232 230 222 222 220 225 220 224 216 217 217 208 210 207 205 204 200 197 181 188 184 183 181 169 161 161 150 146 
255 251 252 258 257 266 269 261 255 261 255 266 258 261 260 255 256 256 247 260 258 259 253 255 257 251 253 255 251 256 254 255 260 255 257 264 265 264 260 261 265 261 263 260 261 259 256 250 250 240 243 236 236 230 223 226 228 223 220 221 216 218 219 210 209 212 209 204 195 193 188 177 180 180 172 168 161 151 141 137 
246 243 249 248 258 261 264 266 258 256 259 260 259 260 255 254 255 252 256 252 259 256 252 255 252 250 252 251 250 251 253 253 248 256 256 260 258 256 255 257 258 259 256 256 256 245 249 247 244 240 240 234 230 229 224 219 221 219 213 211 215 212 212 207 202 200 199 197 190 190 181 179 169 166 164 153 145 139 129 119 
240 243 248 245 253 260 268 265 256 258 261 258 265 266 256 249 259 258 250 258 257 252 259 252 254 255 253 252 249 259 256 254 252 252 252 256 262 255 259 256 259 253 261 255 256 257 247 247 247 244 239 232 228 229 224 219 216 220 214 213 209 211 207 205 204 204 199 196 191 186 174 174 170 164 156 145 142 132 113 110 
238 238 239 248 248 257 263 261 255 257 255 259 263 262 255 255 253 256 255 256 257 251 250 252 254 249 253 249 252 252 251 256 250 251 252 256 257 252 251 251 255 252 254 250 256 245 248 239 248 238 234 232 227 227 223 221 222 216 214 207 208 203 201 198 197 193 187 188 187 177 167 165 158 155 146 133 124 116 104 97 
232 238 241 241 249 259 265 263 261 257 257 262 261 260 257 256 257 261 251 251 249 257 251 254 255 254 253 254 245 254 251 246 245 252 254 254 257 252 254 245 254 251 253 251 246 243 242 236 242 240 228 234 225 222 224 214 211 208 208 201 202 200 199 198 191 185 182 184 176 173 165 155 146 142 132 120 116 106 96 89 
235 232 235 244 250 255 262 263 256 254 260 259 266 262 257 258 255 257 253 254 256 254 259 255 253 248 248 252 246 245 246 247 245 245 248 250 248 250 246 248 245 242 244 249 247 238 244 233 239 234 226 224 224 219 213 214 212 208 206 200 196 194 192 187 186 181 177 176 170 164 150 143 135 130 122 107 100 93 86 71 
226 232 238 235 253 254 261 262 257 252 259 261 266 264 255 257 261 261 259 255 256 256 253 253 256 247 244 251 242 250 242 243 248 247 243 252 245 249 250 242 242 246 245 243 236 237 238 232 229 235 231 223 222 220 216 209 211 202 196 199 195 196 191 184 182 175 167 168 157 153 147 133 128 122 106 95 95 84 74 66 
223 230 240 246 251 258 260 257 258 260 257 263 267 264 262 264 261 264 256 253 260 260 260 255 253 251 249 251 249 250 248 246 247 244 245 248 247 248 247 241 242 243 241 245 239 237 239 240 232 231 224 224 223 220 214 207 209 199 202 193 187 186 187 180 179 167 164 160 151 145 135 128 117 114 102 89 84 78 67 59 
222 228 236 242 255 252 259 256 253 255 258 257 266 257 260 260 258 259 255 261 259 255 258 253 251 252 248 250 247 243 243 248 242 242 245 243 246 241 241 240 239 241 236 240 238 232 236 228 230 223 220 217 215 216 207 205 204 197 191 188 186 181 182 175 171 159 154 150 139 132 122 116 108 98 92 80 75 67 59 48 
226 226 238 255 253 259 256 256 256 259 259 266 264 261 263 261 261 258 258 261 266 256 255 258 252 246 251 242 247 246 244 244 242 242 245 246 242 242 241 237 234 234 236 236 235 232 232 225 229 226 221 219 215 210 207 208 198 201 190 183 179 178 172 171 163 151 147 143 128 127 112 105 97 91 81 74 68 59 50 41 
229 232 244 247 249 256 256 257 260 260 262 267 265 266 259 255 259 262 256 264 259 255 257 254 247 253 248 247 246 241 244 243 237 233 239 236 242 240 238 233 235 234 232 226 232 229 230 226 222 221 219 214 211 205 202 200 196 185 182 176 174 169 167 156 153 144 132 132 120 108 103 95 84 80 74 65 54 53 44 36 
228 236 241 251 252 256 252 255 256 259 266 267 275 271 260 261 264 265 262 262 263 254 257 252 253 251 246 248 241 243 240 244 237 237 239 236 237 241 238 230 234 228 229 224 229 218 226 217 216 216 214 209 204 204 198 199 197 186 179 173 168 164 154 153 148 130 122 123 107 105 94 85 77 65 64 59 57 44 36 26 
228 235 244 247 249 257 253 254 257 262 262 268 270 267 263 265 263 260 259 263 264 257 259 257 249 246 245 247 239 240 240 238 235 234 238 236 233 236 233 224 229 228 230 228 223 219 224 216 213 217 212 203 201 202 194 188 190 180 175 167 161 152 147 132 135 121 113 108 99 89 81 78 65 65 61 44 46 39 28 27 
238 241 244 250 250 251 255 255 252 259 266 267 270 275 267 263 267 255 263 264 267 260 257 254 252 250 248 247 240 243 238 236 235 232 230 237 238 234 232 224 226 224 222 216 219 217 217 218 209 209 206 201 201 199 182 191 186 174 167 162 154 146 141 123 120 115 103 98 84 81 72 65 63 62 54 44 38 32 21 22 
235 242 244 253 254 252 256 256 256 262 270 268 273 269 267 267 263 264 261 266 266 264 261 251 252 250 249 243 240 240 239 234 234 230 237 232 236 232 229 224 225 221 224 220 222 214 216 210 210 206 198 194 195 188 182 181 178 172 163 153 142 134 125 117 114 99 93 91 77 71 65 62 49 47 44 34 30 31 22 16 
230 236 248 250 255 257 252 252 256 259 261 267 275 270 261 260 264 267 262 264 261 264 257 248 253 244 246 238 235 238 236 228 232 229 226 228 232 230 224 220 221 217 216 214 214 208 211 205 203 199 197 188 188 183 177 168 166 162 152 141 127 124 116 99 103 93 83 80 62 63 51 41 44 34 35 24 27 22 17 15 
239 243 253 253 257 251 255 253 255 258 257 266 274 270 264 267 265 266 265 269 264 263 258 252 249 247 243 241 238 236 235 231 231 224 224 230 227 225 228 221 219 218 219 212 210 209 205 202 202 197 191 187 181 178 170 164 157 153 145 132 127 116 111 99 91 84 76 79 60 56 45 40 43 37 33 22 25 22 17 11 
239 244 253 259 255 254 257 252 251 257 263 267 268 272 269 266 271 266 256 262 263 261 261 252 251 247 245 240 236 232 232 231 230 224 225 222 225 221 220 221 220 215 212 213 205 200 204 197 200 189 184 182 172 173 162 155 148 145 134 122 116 106 105 84 83 76 67 67 49 45 41 35 25 26 29 19 15 19 10 9 
240 248 253 259 260 256 257 257 252 261 263 262 267 267 263 265 267 268 261 269 262 255 258 251 252 248 243 238 237 231 232 228 226 223 223 223 224 220 218 218 215 211 208 204 206 201 199 193 188 185 182 175 168 162 154 146 140 131 122 113 106 94 90 82 75 62 61 60 48 40 36 28 29 26 21 17 15 17 14 11 
243 245 258 259 255 254 257 252 256 258 255 261 271 270 266 268 262 266 261 265 262 257 254 252 250 245 243 238 235 235 231 227 228 223 223 228 224 219 224 215 212 211 211 205 205 195 196 187 182 180 173 166 160 160 146 133 124 116 113 101 92 91 76 69 63 63 52 50 43 41 32 27 21 21 19 18 17 12 12 16 
243 251 258 262 257 258 257 256 251 258 256 256 267 268 261 262 263 267 257 260 262 254 254 248 249 245 243 242 233 232 231 226 225 223 219 223 216 217 215 211 208 204 206 204 197 189 191 185 174 171 162 156 151 144 134 124 114 110 102 90 83 72 72 59 57 52 52 46 34 35 29 25 21 18 21 19 17 18 13 15 
249 253 261 256 260 256 253 253 247 254 258 259 265 265 263 264 264 270 262 260 264 252 252 247 252 243 238 230 231 235 234 225 224 221 220 218 218 214 218 210 207 207 202 198 197 185 185 178 173 160 158 147 140 132 126 114 106 101 89 80 75 65 60 58 53 51 39 41 33 30 24 19 16 17 20 18 10 16 18 13 
252 253 256 258 263 258 258 256 251 252 259 258 268 261 265 265 270 261 263 265 263 253 252 251 245 242 237 240 231 229 226 226 223 217 220 223 214 212 209 208 203 200 201 191 188 183 174 171 163 155 148 140 127 123 116 105 98 88 80 71 64 56 51 43 45 40 34 33 32 27 21 14 17 19 23 18 18 18 18 18 
251 253 260 259 263 260 256 252 250 252 256 257 263 266 263 268 268 268 257 255 256 252 249 250 244 239 235 234 232 228 228 228 224 223 214 215 214 212 210 199 204 198 192 189 185 180 172 161 155 150 137 122 117 113 100 94 87 78 68 66 57 47 42 33 35 30 24 26 19 19 17 19 24 20 23 17 20 19 15 13 
249 252 258 261 262 256 260 250 251 253 257 255 265 263 259 264 265 269 257 260 255 249 246 243 242 235 233 235 229 225 224 224 221 221 218 215 213 204 204 203 201 193 192 181 181 171 162 155 149 136 125 116 111 104 97 86 82 72 62 55 47 44 34 28 26 19 17 17 16 19 18 16 20 18 22 20 21 19 10 13 
255 255 257 261 258 257 254 255 246 247 255 258 261 261 261 260 265 263 257 258 248 250 240 240 237 238 235 231 228 223 228 220 215 216 214 210 209 209 206 199 195 189 186 175 174 163 154 142 137 126 116 103 98 90 86 79 72 59 53 44 37 39 30 21 20 17 15 14 14 17 18 17 20 16 19 20 19 14 11 10 
255 257 259 258 258 260 258 257 253 252 258 255 262 263 264 264 265 261 257 254 253 246 245 243 241 236 235 230 224 229 228 222 216 216 214 211 210 203 205 193 189 189 186 175 167 156 150 139 129 121 106 98 90 83 76 68 64 52 48 36 36 31 24 14 18 17 15 18 15 18 20 18 20 21 20 16 18 17 16 12 
266 264 267 258 263 259 257 253 252 250 263 257 262 263 264 266 270 271 258 254 250 246 243 240 239 235 229 226 222 223 222 220 219 212 215 212 206 198 198 196 191 182 181 168 163 150 140 130 120 109 100 91 81 83 71 63 57 51 42 32 29 26 19 15 20 13 11 15 16 21 23 23 20 25 19 18 16 18 15 12 
253 263 263 258 258 256 261 250 250 257 260 253 262 267 258 260 264 257 253 251 245 246 238 238 240 227 230 227 222 221 215 216 215 209 210 207 201 195 197 188 182 177 171 156 151 141 129 120 109 99 86 81 72 66 62 49 45 37 37 26 18 19 16 15 19 9 13 17 14 17 17 23 22 16 19 16 18 17 15 10 
256 263 266 259 256 257 259 249 249 257 257 255 264 261 260 259 262 259 257 246 247 240 241 242 235 229 232 230 220 219 219 219 214 209 209 204 199 192 193 183 178 169 164 151 139 130 122 112 100 90 77 70 63 56 53 44 38 32 32 22 18 15 18 11 12 9 19 20 20 14 15 18 20 19 17 14 18 18 9 10 
254 259 265 257 258 255 254 247 253 256 258 257 263 259 259 259 265 258 251 243 241 235 233 232 231 224 226 223 218 215 212 210 206 209 201 199 198 190 184 180 167 162 157 140 132 119 111 101 90 80 71 61 52 51 45 39 32 26 26 16 13 13 11 11 14 18 22 23 15 18 16 14 17 16 17 16 13 16 14 14 
253 259 262 259 256 250 255 256 257 255 256 258 262 267 258 255 264 259 249 241 241 235 232 232 226 218 227 220 217 212 212 212 207 203 202 193 190 182 180 165 162 154 145 129 123 113 102 93 78 71 63 55 48 40 36 34 27 23 22 16 8 4 6 12 19 21 20 22 16 14 17 16 14 20 15 12 14 17 16 14 
252 254 260 258 254 255 251 257 251 257 253 255 261 263 261 260 258 254 245 241 236 231 230 232 225 222 221 219 213 213 211 208 206 196 196 196 186 176 172 160 156 143 133 123 111 97 91 77 72 61 51 43 40 35 27 23 21 17 15 13 6 5 13 15 19 18 19 19 16 16 15 16 16 14 11 8 11 13 10 13 
251 255 262 261 262 256 256 257 256 260 253 253 260 261 262 259 260 254 248 241 233 231 232 224 225 223 219 222 208 211 209 206 202 198 194 191 183 174 168 160 148 136 126 111 109 93 85 75 62 57 46 39 34 29 23 23 22 16 14 14 11 13 17 17 22 20 17 22 14 22 17 15 15 14 12 10 14 15 12 6 
254 255 262 257 262 265 255 256 256 259 262 253 264 260 257 255 257 253 248 238 236 230 225 226 219 219 217 210 207 209 206 203 200 192 188 178 178 165 159 139 140 127 119 102 98 79 80 63 56 48 41 33 31 29 20 17 17 13 12 12 15 17 17 18 18 18 18 22 17 16 16 14 13 13 15 8 9 12 11 11 
253 264 259 265 268 257 263 257 257 259 256 263 266 268 261 257 258 255 247 236 235 227 226 224 220 215 215 213 202 209 202 199 191 188 182 179 166 159 150 140 125 115 109 96 88 75 68 60 48 41 36 30 27 23 17 15 16 15 14 17 17 20 22 15 17 17 19 21 16 15 13 10 12 14 14 11 14 10 7 11 
253 253 259 257 262 262 259 262 258 258 258 261 262 267 260 251 258 250 240 240 235 223 217 217 216 209 207 205 203 202 198 188 187 179 171 170 164 148 138 131 124 108 95 87 74 66 58 50 39 32 29 24 19 21 12 11 14 13 16 14 17 15 15 14 13 11 17 19 10 11 8 9 12 12 16 11 13 14 11 12 
255 253 259 256 262 266 259 258 256 261 259 262 266 262 256 252 251 251 238 237 229 221 212 212 212 202 207 203 198 193 191 185 179 176 164 159 152 140 133 116 108 96 91 77 68 55 46 44 39 22 20 20 16 15 13 16 14 19 16 16 14 15 16 14 19 13 12 14 7 10 12 10 9 8 9 8 12 11 6 6 
252 249 251 253 260 264 262 259 252 256 260 254 263 267 259 253 251 253 236 237 234 223 217 215 210 205 206 202 196 193 187 182 169 167 158 151 144 130 123 112 103 91 81 70 58 52 44 35 31 24 20 16 11 15 17 14 20 14 19 17 18 16 19 17 22 12 9 9 9 7 12 14 10 15 10 10 9 7 4 7 
251 254 254 253 263 264 265 264 257 258 264 260 264 263 256 257 254 248 234 237 228 220 218 213 212 206 208 203 195 190 183 173 165 162 150 141 133 119 115 102 95 82 75 63 53 42 41 36 27 19 16 19 15 21 17 21 21 19 17 17 17 20 20 18 14 12 14 9 6 13 10 12 15 15 15 11 12 9 6 0 
252 245 252 250 259 256 261 257 256 261 262 262 258 256 251 245 252 246 234 230 227 217 216 211 205 199 197 194 187 180 175 165 158 147 142 135 122 110 103 90 85 66 61 55 44 40 31 29 22 17 15 18 16 19 15 19 17 22 20 19 18 22 18 10 11 11 11 9 7 6 8 10 14 14 13 9 10 7 4 8 
242 247 246 250 250 257 259 263 255 260 259 261 257 260 248 251 249 239 235 228 221 216 209 206 207 197 195 192 183 176 167 161 149 141 133 118 114 103 93 87 76 62 57 45 42 33 29 25 19 15 15 18 19 21 19 24 22 20 19 16 18 19 17 13 15 11 10 10 7 9 5 6 7 8 10 4 11 9 11 4 
239 239 244 241 249 258 261 261 255 261 256 254 264 254 250 250 241 236 237 224 224 215 208 208 201 189 190 184 179 166 160 146 136 130 119 113 102 93 88 78 70 56 47 40 32 26 24 13 19 16 16 17 18 23 18 19 19 16 20 15 17 15 12 9 11 17 11 12 7 4 5 7 7 10 14 11 9 8 8 5 
242 234 236 244 244 250 256 262 256 260 252 257 256 253 249 248 246 236 225 227 219 213 207 205 196 190 184 177 174 163 148 141 130 122 112 106 94 83 75 67 63 46 42 35 31 19 21 16 17 10 19 20 17 21 20 16 21 19 19 20 14 14 17 13 16 16 10 9 10 6 3 10 8 8 9 6 11 13 7 5 
230 228 227 234 247 253 258 258 257 256 254 254 252 249 240 240 241 240 228 226 217 207 205 198 196 183 176 175 163 156 144 131 125 114 109 97 88 76 74 62 54 44 36 29 23 17 18 21 18 17 22 18 18 22 18 16 20 17 18 11 12 14 17 12 15 12 11 13 12 9 4 9 13 14 13 7 12 13 11 1 
226 225 232 230 242 246 247 250 255 250 250 249 251 251 243 239 236 235 222 222 212 206 200 194 188 178 170 166 154 144 141 118 111 103 94 85 77 69 62 53 45 38 31 19 21 15 18 17 17 16 20 22 16 20 17 19 20 14 10 13 9 8 12 14 10 10 11 15 10 6 5 5 10 10 12 7 5 12 4 3 
220 215 216 214 228 239 246 248 250 251 252 248 256 247 241 237 241 230 217 214 217 204 197 189 180 173 169 156 149 140 127 116 103 97 88 76 72 62 54 45 36 30 25 20 14 12 12 16 15 19 21 19 20 16 16 20 20 14 7 7 9 15 9 8 13 9 15 15 7 9 8 3 10 11 16 7 10 8 7 2 
214 209 212 207 216 224 237 242 240 251 246 241 249 249 237 230 232 227 217 211 208 197 189 184 177 168 148 151 139 126 117 108 88 84 81 70 63 51 46 38 34 22 24 19 15 12 13 6 10 10 17 20 14 17 17 13 16 13 10 9 7 12 17 14 12 10 14 15 12 12 7 7 8 7 11 8 8 11 3 5 
200 189 195 196 203 222 231 232 239 239 242 237 236 237 231 232 227 222 211 210 199 193 184 176 167 156 143 140 121 116 107 95 83 78 75 61 51 43 38 29 28 19 16 17 13 14 12 14 12 9 9 12 14 16 14 13 9 8 10 6 7 14 12 8 12 10 11 15 6 9 9 6 7 7 8 6 7 8 3 4 
171 170 177 182 198 207 219 222 229 240 235 236 245 238 228 223 222 217 208 203 195 187 177 166 159 144 139 123 120 108 103 86 74 64 61 52 45 35 31 22 22 17 18 15 13 14 12 16 13 10 11 9 11 13 9 8 10 14 8 9 8 12 15 9 12 12 15 10 12 10 10 5 10 9 10 6 10 12 6 4 
171 168 177 180 194 207 218 224 224 231 237 238 240 235 224 218 220 211 200 206 196 180 173 167 148 140 130 117 109 104 90 79 63 59 52 42 41 33 26 23 16 9 16 17 15 7 13 13 12 10 7 12 10 7 10 9 9 11 10 12 9 11 13 13 12 14 14 12 13 11 13 13 13 11 14 7 12 14 9 5 
157 162 168 181 183 201 210 215 220 229 230 233 235 230 222 216 217 207 200 194 184 177 165 153 140 130 121 105 97 96 83 71 57 51 41 40 34 21 25 14 15 10 12 11 14 11 12 12 13 14 7 7 7 8 8 5 10 11 9 12 10 14 12 13 11 12 15 16 13 12 10 9 12 10 11 8 9 10 12 8 
154 158 162 166 184 198 207 213 222 222 228 227 226 221 216 206 211 202 190 187 179 162 154 140 127 116 105 97 86 81 75 64 52 42 36 30 30 24 18 12 11 12 10 10 13 12 9 10 8 12 9 9 10 10 7 8 9 12 9 11 9 13 11 12 11 7 10 11 11 12 10 9 12 10 13 9 10 12 9 7 
156 151 163 164 181 199 208 225 220 226 230 228 229 221 213 197 209 197 187 184 167 154 143 135 122 108 101 92 77 74 65 52 45 39 30 27 21 15 18 12 13 12 12 12 13 10 9 10 10 10 7 7 8 12 7 8 10 5 10 10 9 11 14 10 7 10 10 13 12 9 13 11 9 8 14 12 11 15 10 5 
154 157 167 173 182 196 213 224 229 229 230 227 220 214 205 199 197 190 177 172 160 146 137 124 110 97 89 82 73 66 60 49 37 31 28 23 24 14 15 13 11 12 13 12 12 10 6 13 11 7 5 10 10 10 10 9 11 10 12 9 7 15 13 7 12 12 12 14 10 12 10 11 13 12 12 13 10 11 10 9 
158 154 167 175 184 200 222 231 229 237 227 218 215 209 201 194 198 188 166 162 146 132 124 117 100 91 83 71 57 59 51 40 26 25 19 22 14 14 13 10 12 11 11 8 13 5 10 10 8 6 9 10 10 11 6 9 13 13 12 11 9 13 17 10 13 10 12 12 11 13 12 10 11 10 12 9 11 10 7 10 
153 150 166 172 193 205 222 230 230 227 220 217 208 202 192 187 183 170 157 151 139 125 114 105 86 83 74 63 54 48 41 37 25 23 13 15 19 13 14 9 17 12 12 8 10 10 7 9 7 11 8 6 8 9 8 9 9 12 11 7 7 11 17 9 13 8 13 14 10 13 10 10 11 9 13 11 11 11 7 8 


