P2
80 60
234
178 173 173 168 169 168 169 167 162 159 158 148 149 157 146 147 150 146 150 157 170 219 214 158 87 20 10 12 10 11 11 9 12 13 11 9 11 11 13 11 11 9 8 11 10 8 11 10 10 10 10 10 7 11 13 10 16 14 14 17 14 18 14 15 12 12 14 13 8 13 12 15 17 16 18 13 18 16 13 18 
176 176 175 172 167 170 170 166 159 157 157 152 151 154 149 142 145 148 152 162 184 234 190 133 50 15 10 6 8 9 10 9 12 9 11 11 11 11 10 12 13 13 8 7 9 9 9 9 12 7 10 11 7 10 11 13 12 17 13 13 18 14 13 13 9 12 14 10 10 13 16 13 14 14 17 15 12 18 12 16 
177 171 166 174 169 169 165 163 160 155 151 152 147 152 147 144 146 148 150 165 204 230 165 107 24 13 6 8 7 9 9 9 6 7 12 10 12 10 8 12 10 11 10 7 8 7 4 7 7 11 11 10 7 8 13 14 14 15 12 15 14 13 18 12 16 13 11 10 10 13 13 12 13 16 17 12 15 15 15 11 
176 168 172 173 164 168 168 161 156 155 151 148 152 149 148 145 147 147 151 172 219 208 142 71 18 13 10 8 3 10 10 9 11 11 10 12 10 12 7 10 12 9 10 10 10 7 8 8 9 10 10 10 9 10 10 11 12 13 14 12 10 13 14 14 10 13 14 9 12 11 15 11 17 15 14 16 12 15 10 13 
177 169 168 169 168 165 167 162 157 152 153 147 150 151 146 146 144 146 155 183 227 180 120 42 15 11 6 9 13 8 10 11 8 13 12 13 8 11 9 11 12 11 6 6 7 5 7 9 7 7 7 9 9 7 11 10 10 11 15 14 11 15 14 18 12 11 8 8 9 9 11 12 12 12 14 12 17 9 8 12 
175 169 168 165 163 167 160 157 158 152 148 144 146 151 147 142 145 145 157 202 210 152 93 19 10 10 6 8 6 8 10 10 5 8 8 12 10 8 6 9 8 5 10 6 7 4 3 6 9 8 8 7 5 7 9 11 11 11 11 9 10 13 14 11 13 11 7 7 11 8 11 9 9 13 15 15 7 12 4 7 
172 165 166 168 162 163 161 160 159 152 148 141 144 148 150 142 143 147 161 213 189 131 60 13 9 8 6 7 9 7 9 7 8 8 9 11 9 9 5 10 9 9 3 7 3 4 7 8 10 7 7 9 6 6 9 9 11 13 10 10 6 10 12 14 10 7 9 8 10 8 12 11 12 15 13 11 8 9 9 6 
167 162 169 161 160 163 156 160 155 152 149 145 148 145 145 142 144 152 176 213 163 113 36 10 7 7 9 8 7 12 12 9 6 5 10 8 10 8 5 6 9 9 4 7 7 1 5 7 10 10 5 8 10 9 9 9 10 7 11 10 10 11 10 14 11 4 7 8 8 7 13 9 10 15 11 9 11 10 8 8 
169 163 163 166 163 160 159 159 152 152 148 143 148 147 144 142 146 153 189 198 142 88 21 11 7 5 6 6 7 7 9 9 7 8 9 11 7 9 7 7 6 9 7 9 5 9 6 7 11 9 8 8 7 10 11 11 9 13 10 12 17 13 12 13 11 10 9 10 8 7 10 9 13 11 14 9 14 10 2 9 
164 160 169 159 160 158 156 161 155 146 147 144 146 148 149 144 150 161 203 178 129 56 13 11 11 9 5 9 10 12 7 10 10 8 9 11 7 12 10 7 6 7 8 6 3 7 10 7 13 13 12 9 7 10 9 11 12 13 10 11 14 11 12 11 11 7 10 10 11 8 16 16 10 15 7 13 17 11 4 13 
164 162 170 166 158 159 156 157 155 150 148 144 150 152 148 144 156 173 206 157 111 32 16 12 8 10 10 10 9 11 13 10 10 11 14 11 10 7 11 8 11 7 9 7 8 9 10 15 14 13 10 11 9 12 14 10 15 15 14 15 13 13 12 10 12 7 10 9 14 13 12 14 14 15 13 15 16 10 6 8 
161 162 165 157 157 154 156 150 148 147 144 141 144 144 143 147 155 185 192 138 82 14 13 6 7 10 11 10 8 9 10 7 8 9 4 10 9 8 10 8 10 11 7 9 6 11 10 13 15 15 15 14 13 9 11 11 7 10 13 13 10 13 17 8 11 6 9 10 9 10 14 13 16 11 16 10 12 12 8 14 
160 160 157 157 156 155 154 150 152 150 146 141 141 142 142 144 162 197 173 121 55 9 12 12 8 4 10 8 8 11 10 6 7 7 13 10 11 10 6 9 6 8 8 8 8 9 16 11 17 12 15 13 16 10 12 11 9 11 12 12 11 8 10 11 7 7 6 9 10 11 12 11 14 16 12 10 13 10 5 10 
158 160 158 158 150 156 154 153 149 143 145 141 138 143 144 147 172 201 152 106 26 9 10 6 4 7 10 11 11 4 9 8 9 4 6 11 11 8 9 6 7 7 7 5 8 14 15 12 13 17 15 12 15 12 15 11 9 7 11 6 15 13 10 7 8 8 6 12 11 9 10 9 11 13 13 14 10 15 9 6 
161 157 154 157 155 153 156 151 149 142 144 139 141 141 144 153 187 191 136 80 13 9 9 9 8 10 8 11 12 8 9 10 10 7 10 10 9 10 7 9 8 5 6 8 10 10 15 12 12 17 13 12 13 12 14 11 12 12 12 11 15 8 10 11 10 9 7 14 10 13 12 11 11 12 10 12 16 11 8 8 
156 154 152 155 152 150 151 150 146 147 145 139 143 142 148 159 199 173 121 53 12 7 9 10 5 9 10 10 7 11 8 13 6 10 10 8 11 11 6 4 7 6 6 8 12 13 13 13 13 13 15 13 11 15 13 10 15 17 16 15 14 9 12 9 11 5 10 9 10 14 9 11 12 11 13 13 14 14 7 14 
155 153 157 154 153 155 151 147 145 142 141 136 139 143 150 172 203 146 110 27 8 9 5 9 6 10 12 8 12 9 9 6 7 6 9 7 9 6 7 10 7 6 7 5 10 9 12 14 16 14 13 13 13 14 10 16 15 20 15 17 17 11 13 6 9 10 11 9 7 8 11 10 12 12 14 14 17 11 9 11 
155 154 154 154 152 154 149 149 144 143 142 135 139 144 154 188 191 135 90 10 7 10 6 9 9 9 10 11 9 11 9 10 9 9 6 7 9 8 7 6 8 9 8 6 7 13 11 13 9 12 15 13 14 10 11 13 14 15 17 15 17 17 14 11 7 14 7 11 10 10 10 11 13 14 17 11 12 14 7 9 
160 153 155 156 147 149 150 148 144 142 142 138 142 153 163 197 176 123 60 9 9 9 5 6 10 6 9 7 12 9 9 9 8 7 8 9 10 8 8 7 4 6 7 8 8 9 12 8 11 11 11 14 16 12 12 13 14 14 17 15 18 15 16 16 14 14 11 12 7 11 11 9 14 11 13 10 13 15 13 14 
156 153 152 150 149 149 149 150 148 142 139 137 141 152 173 196 154 113 32 9 9 9 7 7 7 7 7 12 7 8 9 11 8 7 11 10 9 8 7 9 8 4 6 8 8 11 10 9 7 10 11 12 12 10 17 11 16 18 17 19 15 17 17 14 14 15 14 13 10 10 11 9 10 12 16 13 18 20 10 13 
154 151 152 151 151 150 146 148 139 140 141 133 142 157 187 191 140 91 15 8 8 4 9 5 7 11 12 10 10 10 10 9 8 10 10 8 9 10 9 7 6 8 7 8 10 7 9 12 11 7 11 9 10 14 10 12 15 16 17 17 16 13 17 16 19 17 22 18 14 8 14 11 11 10 14 12 16 14 10 16 
151 148 149 148 147 145 142 146 140 135 140 134 141 156 191 173 120 58 11 7 5 6 10 7 11 10 6 7 8 7 8 8 10 9 10 9 10 12 8 11 7 9 8 8 11 6 9 6 8 10 12 13 10 11 11 11 10 13 14 16 15 16 17 19 20 15 18 19 17 12 14 14 14 13 11 12 13 15 11 17 
146 147 146 147 145 144 144 142 142 140 135 133 143 163 194 151 107 35 7 8 7 4 10 7 10 12 11 12 10 9 8 5 8 11 6 7 6 8 7 6 8 8 6 9 8 9 9 7 5 6 8 8 7 8 7 7 7 10 11 13 15 17 15 16 14 21 18 17 15 16 13 12 17 12 15 15 13 14 12 13 
146 147 148 153 141 143 143 142 140 136 139 136 143 173 183 132 86 16 7 8 6 10 11 7 10 11 11 8 7 8 5 7 7 9 8 6 5 8 6 8 7 9 5 10 8 8 11 6 3 7 7 9 7 6 4 10 8 9 8 8 10 10 13 13 18 16 19 16 18 15 14 12 12 13 17 15 17 16 12 13 
146 143 146 147 143 142 141 143 138 137 136 140 151 185 170 120 65 9 7 6 6 6 8 7 12 10 11 6 7 9 8 9 7 7 10 5 6 9 5 5 6 9 8 6 9 9 9 7 7 5 9 9 7 5 9 7 10 9 8 6 10 6 8 11 18 16 18 19 17 16 18 14 12 17 21 19 18 20 12 16 
145 143 140 143 143 147 140 142 141 138 140 138 156 183 154 107 45 10 5 6 8 6 7 8 7 7 8 9 10 8 8 6 7 9 9 5 6 6 6 5 5 7 9 6 8 9 12 7 7 8 10 11 6 8 7 9 7 10 8 7 8 6 7 9 11 18 15 18 20 18 19 14 15 20 19 19 20 16 17 17 
147 142 143 144 142 142 141 145 138 139 138 138 168 186 138 93 26 13 13 7 10 7 10 12 7 9 10 9 7 7 10 7 9 7 9 6 10 10 9 10 7 8 7 7 9 6 11 7 7 6 8 6 8 8 5 6 9 9 7 9 10 9 9 8 9 10 9 14 16 17 19 20 16 20 18 22 21 20 16 22 
144 140 143 141 140 139 142 140 135 135 141 142 177 175 123 72 19 14 6 5 6 6 10 5 9 11 8 10 10 10 8 8 7 10 9 6 7 7 10 8 9 8 9 9 10 7 9 12 11 11 11 7 6 8 6 10 10 7 12 7 7 6 4 8 9 9 11 10 14 18 21 19 16 17 22 21 24 23 16 20 
147 142 141 144 140 140 140 142 139 133 140 149 181 154 111 48 16 13 8 7 6 10 10 7 8 10 10 6 10 8 10 7 6 10 9 8 9 10 8 6 12 13 12 12 14 10 10 9 12 8 11 6 7 6 13 8 6 10 8 6 9 11 6 10 10 10 7 9 16 15 21 19 20 19 19 17 19 18 15 21 
145 142 144 143 140 143 137 139 137 136 142 156 180 143 102 30 14 9 10 9 9 7 11 9 9 9 13 7 11 11 11 10 7 9 10 8 9 10 10 11 8 12 16 13 14 10 13 9 10 12 11 11 10 10 10 10 8 8 10 6 8 7 8 7 9 11 9 13 14 18 23 22 20 19 21 19 23 22 14 22 
148 146 146 144 143 139 137 141 138 135 143 162 179 131 81 21 17 10 9 9 7 6 8 6 6 7 7 10 8 12 10 9 8 8 6 11 9 5 8 9 10 11 15 14 11 11 10 11 10 7 10 13 7 8 11 9 8 8 7 6 7 5 7 6 12 7 10 12 14 19 25 20 21 20 17 16 19 16 15 19 
142 142 144 143 141 139 140 141 134 139 145 175 161 119 64 13 14 11 7 6 8 7 9 9 10 9 8 9 8 7 9 8 9 10 8 7 7 8 9 7 8 14 13 11 13 12 10 8 10 7 9 10 5 9 13 8 5 7 11 7 7 4 8 8 11 11 8 19 18 21 24 24 19 19 18 19 19 17 13 24 
141 140 142 141 138 140 138 139 137 140 157 180 152 108 43 13 11 8 5 6 12 7 10 11 10 9 10 11 11 10 11 10 10 7 8 10 7 5 8 9 13 15 14 12 13 15 11 12 12 9 11 11 9 12 9 10 6 9 8 5 9 8 9 11 8 10 15 21 23 18 22 20 19 19 20 20 20 18 18 16 
141 143 141 138 136 138 135 138 132 141 166 175 139 97 26 12 12 3 7 2 9 6 9 5 11 8 6 9 10 12 8 6 8 8 4 10 10 6 7 8 9 13 13 11 11 11 12 10 8 9 8 8 9 11 8 11 7 9 11 6 8 8 9 8 8 16 18 19 22 22 23 20 16 18 18 18 21 19 14 17 
141 138 138 140 135 137 139 141 136 144 175 169 124 81 21 11 12 7 4 4 6 9 9 8 7 7 8 7 8 9 8 12 7 10 6 4 7 4 8 7 10 13 12 11 10 12 12 10 7 8 12 10 6 8 7 8 10 12 10 7 6 3 7 12 14 18 17 21 22 22 22 19 17 19 17 16 17 19 16 14 
138 135 140 142 135 138 138 139 143 154 187 155 117 57 17 12 12 7 8 7 7 7 8 7 7 8 8 9 10 7 10 10 10 6 10 9 10 5 6 8 9 9 12 10 14 7 9 8 8 7 11 6 8 6 7 11 7 11 10 10 8 7 11 17 20 17 19 21 19 20 23 19 19 16 16 12 14 17 13 13 
136 138 138 140 138 135 137 138 143 163 187 144 104 31 14 11 10 12 7 9 6 8 10 9 8 9 10 9 8 11 9 7 9 10 10 7 7 5 7 9 14 11 11 11 11 8 11 10 10 9 6 8 10 6 6 10 9 12 8 9 10 11 15 19 19 19 19 21 19 23 20 18 16 14 13 13 12 13 11 16 
138 141 140 138 139 134 136 140 145 173 186 133 93 23 11 12 12 8 10 11 7 8 10 7 9 8 9 7 8 7 10 13 7 8 9 7 6 6 3 6 10 11 9 10 10 9 11 11 11 13 11 7 9 10 9 9 14 9 11 8 13 14 19 24 19 18 19 19 21 18 18 11 12 16 13 14 13 14 13 16 
137 140 136 142 136 135 142 137 147 183 170 126 74 17 13 10 10 13 11 8 5 8 11 8 8 5 9 11 8 7 7 12 9 10 7 8 4 4 5 6 11 12 9 11 12 8 10 11 8 10 9 7 7 8 12 10 10 10 11 13 18 17 20 15 18 19 20 17 15 15 15 14 17 16 12 16 15 9 12 8 
138 137 137 134 133 134 137 144 152 187 161 114 50 8 11 14 10 10 6 8 7 6 7 5 5 6 8 8 8 7 9 5 5 6 6 7 5 6 4 9 8 10 11 10 9 8 7 9 9 7 10 8 6 9 7 8 9 12 13 16 17 14 18 16 14 17 18 16 11 16 13 13 16 13 15 13 11 9 7 11 
138 136 133 135 136 138 137 142 165 185 147 107 36 15 8 11 11 8 10 6 7 8 6 8 9 6 9 8 10 10 11 8 9 8 7 5 8 8 5 6 9 11 11 11 10 7 8 13 14 9 8 12 9 10 9 9 11 18 17 13 16 15 18 19 17 17 13 13 10 15 13 14 15 11 10 11 15 10 9 11 
139 134 134 134 138 139 144 150 175 177 137 87 24 17 14 9 12 7 9 7 9 7 10 8 9 9 6 9 9 11 6 8 9 7 11 8 9 6 9 11 10 11 11 10 11 12 13 9 10 10 12 13 12 14 9 16 16 16 19 20 20 19 16 21 22 12 13 11 12 12 11 13 16 15 13 13 14 11 10 11 
139 136 134 136 134 136 143 155 180 168 126 67 18 17 15 7 10 7 7 8 7 6 7 11 7 10 9 9 8 10 7 9 8 12 10 9 9 8 10 7 12 11 9 10 10 13 11 12 11 10 12 13 12 13 15 18 17 20 15 16 13 16 17 18 15 13 14 13 10 15 14 13 13 16 14 15 11 14 8 10 
134 135 138 137 134 137 140 154 180 156 118 47 13 13 13 8 10 4 5 5 7 7 7 8 8 8 10 10 10 12 11 10 7 8 10 7 8 8 9 12 9 6 9 10 10 9 11 12 13 9 13 17 16 16 15 17 14 17 20 18 16 17 16 14 11 12 12 12 11 8 11 12 12 14 12 12 14 11 7 12 
138 130 138 134 135 143 142 164 183 144 110 31 15 12 12 10 6 3 5 5 5 9 9 7 9 10 9 8 9 13 10 10 7 11 10 7 8 11 11 8 13 11 11 11 13 10 13 11 12 15 15 15 19 19 14 16 15 18 17 19 18 16 13 16 10 11 11 10 11 13 11 13 14 12 11 10 14 11 7 11 
137 131 135 138 140 143 147 183 188 148 105 21 18 9 12 12 8 4 5 8 10 11 8 8 10 11 8 12 11 12 11 8 11 10 11 4 7 9 9 13 11 11 13 9 11 13 12 13 13 17 18 20 22 20 19 18 18 18 17 19 15 15 14 13 10 16 11 12 12 10 14 14 12 14 13 14 15 16 6 10 
136 133 134 142 137 142 152 195 192 158 90 16 14 11 13 9 10 1 5 6 8 8 8 8 8 10 9 11 13 11 9 8 10 7 9 9 9 9 11 11 11 10 11 7 11 10 9 13 12 11 14 19 18 21 16 14 17 18 22 16 12 12 13 13 14 12 11 10 13 12 11 12 12 12 9 13 16 12 4 6 
140 136 142 144 147 148 159 194 186 153 62 9 10 14 10 6 7 7 6 7 9 12 11 12 12 11 5 8 10 9 10 11 7 9 10 10 8 9 11 12 13 10 10 13 8 10 7 10 14 16 18 17 11 19 13 14 15 15 19 11 13 11 14 14 12 11 11 10 10 8 9 9 11 13 12 12 12 14 7 9 
135 132 129 130 136 132 136 140 148 119 40 11 14 11 12 10 6 7 5 7 9 7 10 8 9 8 8 10 10 8 9 12 10 9 10 10 8 10 11 7 10 9 11 8 9 8 8 11 10 17 16 18 16 16 15 15 19 17 11 11 10 11 12 16 12 11 12 14 9 10 13 13 11 14 11 10 13 11 4 9 
114 105 109 108 111 108 115 111 111 83 27 8 11 10 11 9 10 1 0 5 10 5 12 6 8 6 9 9 11 9 10 10 5 8 9 8 9 10 6 8 10 8 11 11 11 11 8 11 13 15 18 15 15 13 17 16 16 13 8 12 9 10 11 14 12 11 10 11 11 11 12 6 10 10 10 10 11 7 6 4 
103 95 100 100 91 88 92 85 76 48 20 11 14 13 13 8 8 8 6 4 9 9 8 9 11 10 9 13 12 13 7 10 8 11 9 9 11 12 8 13 11 10 11 8 8 10 12 10 7 11 18 16 16 17 20 16 12 11 11 12 11 14 13 16 13 13 14 14 11 14 11 10 12 12 16 12 14 10 5 7 
77 66 72 65 55 49 44 34 26 19 15 8 15 14 13 12 9 9 6 8 7 10 7 12 9 7 10 12 11 11 9 8 10 11 13 8 10 8 8 8 13 12 10 12 11 11 11 10 12 13 10 17 14 18 17 12 8 12 12 14 12 16 16 13 14 15 14 16 14 13 14 15 12 15 11 14 13 13 7 10 
28 24 21 24 19 21 20 20 11 13 11 7 9 11 12 9 11 9 6 7 7 9 9 9 8 10 12 11 9 11 11 12 6 10 9 7 9 13 3 10 9 13 10 12 12 14 11 11 11 11 13 12 13 14 11 9 10 10 11 14 12 14 12 15 13 14 16 11 10 13 14 14 15 14 15 14 14 13 9 10 
21 12 15 19 14 16 16 16 12 12 12 8 13 14 11 7 13 8 8 10 9 8 11 12 11 9 6 7 11 12 11 8 9 10 9 8 8 11 5 7 9 11 9 13 12 10 10 9 9 10 10 13 10 9 9 7 9 10 10 10 14 15 10 14 13 11 12 18 12 13 13 17 12 14 17 16 14 12 10 9 
15 14 14 14 17 16 12 17 11 14 15 7 14 11 13 12 13 6 9 6 10 14 12 13 11 15 15 10 10 12 11 11 12 13 10 9 9 9 9 6 12 9 11 13 11 10 15 10 12 14 8 11 12 11 11 7 10 12 13 15 13 14 17 14 17 15 17 16 16 15 17 16 16 16 14 12 12 15 11 10 
17 13 15 15 15 11 15 16 12 11 15 11 11 10 13 9 14 10 8 10 13 11 13 14 12 13 13 13 9 10 11 13 12 10 13 11 13 13 12 13 17 11 13 13 13 10 15 13 11 14 13 12 13 12 14 9 11 14 14 11 15 16 18 16 16 12 14 16 16 16 19 21 16 17 18 20 18 17 13 10 
17 10 12 16 11 9 13 15 13 9 15 10 13 12 13 10 12 9 9 10 12 9 10 10 10 12 12 12 12 10 9 8 14 13 11 11 10 11 9 10 14 12 11 10 11 13 13 14 12 9 8 9 8 12 9 11 10 12 12 18 12 13 16 16 12 17 16 15 16 16 19 18 17 15 18 15 19 20 14 12 
10 11 11 15 16 12 12 10 15 13 11 7 16 19 10 8 11 7 9 10 6 14 11 13 13 9 10 14 11 12 12 10 8 7 12 9 10 11 9 10 14 10 12 16 12 12 12 14 11 11 13 11 12 10 13 10 9 12 11 14 12 17 14 15 17 13 16 16 18 16 17 18 16 17 19 17 15 13 15 14 
9 9 10 9 10 12 10 12 12 15 13 8 13 16 12 12 10 6 8 13 10 9 11 11 13 13 10 12 12 10 15 10 14 11 13 10 9 12 10 10 12 11 13 11 13 13 11 13 10 12 14 14 10 8 13 10 9 13 12 13 12 12 18 18 17 16 17 15 20 15 20 18 19 15 20 17 19 14 12 19 
13 5 7 8 9 10 11 16 9 13 13 7 16 15 15 12 13 7 10 9 9 11 10 10 10 12 10 13 12 8 11 11 10 7 7 10 9 11 10 11 13 13 14 9 11 11 11 11 9 10 13 12 11 6 8 12 11 11 13 12 15 14 18 15 16 14 19 15 15 16 15 15 16 13 18 19 15 16 13 14 


