P2
80 60
232
178 173 172 169 168 166 167 163 163 161 159 153 152 150 146 149 146 146 152 157 172 217 218 158 90 20 17 12 15 8 10 9 10 11 9 9 11 11 12 14 10 8 10 11 9 8 7 8 7 10 10 14 12 6 11 12 12 11 12 15 16 18 14 14 17 11 13 10 12 15 16 14 14 13 15 17 16 17 14 14 
177 176 173 170 166 165 167 164 161 159 158 153 149 151 144 146 145 146 150 161 186 232 191 136 50 17 15 9 8 9 10 14 11 10 11 8 13 8 13 12 12 9 8 11 7 6 8 11 9 7 12 8 7 10 10 13 14 15 8 14 16 17 15 16 12 16 15 11 15 14 18 14 15 15 15 22 17 18 12 17 
178 174 172 170 167 166 168 163 161 154 157 150 152 150 145 145 144 146 156 162 202 231 168 106 26 13 8 8 10 8 8 10 7 8 11 7 12 12 10 11 10 13 7 7 6 3 6 9 6 11 10 14 9 9 12 13 9 13 11 15 12 14 14 15 13 15 11 9 13 14 12 15 14 15 20 16 12 17 14 15 
175 171 170 169 169 168 164 161 157 159 157 153 149 146 146 146 145 146 155 171 217 206 142 71 17 14 10 6 7 13 11 7 10 11 9 10 13 11 10 9 10 7 7 7 6 6 5 10 9 12 11 10 9 10 13 12 11 13 14 13 13 16 13 16 14 15 11 10 14 12 13 11 18 13 16 15 16 17 11 12 
175 173 166 168 167 164 164 163 158 153 155 149 148 147 145 146 142 146 157 181 224 179 121 41 13 9 10 9 11 9 12 9 10 14 10 9 10 8 11 12 9 10 8 8 7 1 5 12 5 7 11 10 9 7 10 12 12 12 12 16 15 14 14 16 12 15 10 9 12 10 11 16 15 15 16 18 13 13 10 16 
177 169 166 164 166 162 160 159 155 155 153 147 150 149 148 139 146 146 160 201 212 151 96 18 12 12 13 8 6 14 10 9 7 9 7 11 15 10 10 9 7 5 8 8 5 6 4 7 7 6 6 6 5 5 10 7 10 11 9 10 10 16 14 12 13 15 11 9 11 10 8 13 13 15 18 17 13 16 8 12 
172 170 167 167 163 161 162 155 156 149 151 145 145 148 148 146 143 148 167 213 189 131 64 13 10 9 12 6 12 8 8 10 12 7 7 11 9 7 8 5 9 6 8 9 5 3 6 6 9 8 7 9 4 7 9 12 10 12 10 12 10 9 13 14 11 12 9 8 12 10 12 12 15 14 15 13 13 16 8 9 
169 166 167 163 163 163 160 157 154 153 150 147 149 145 144 143 146 152 176 210 164 115 34 13 10 11 11 8 9 12 8 8 11 9 10 9 11 9 8 7 9 7 8 8 6 3 6 9 7 13 7 8 8 9 9 12 9 9 13 13 11 10 12 11 10 6 6 9 10 13 14 15 12 15 14 14 15 15 6 14 
168 162 160 160 161 162 161 156 155 149 150 143 147 146 142 146 146 154 191 195 145 89 24 12 10 9 12 7 9 8 10 8 7 5 6 10 7 10 9 8 6 5 7 7 5 8 6 9 6 10 9 6 7 9 9 10 9 12 8 11 11 9 9 10 13 10 8 9 11 11 10 10 15 11 17 9 13 14 8 11 
166 158 158 158 160 160 157 160 152 147 148 145 144 141 145 143 149 162 202 175 127 55 13 11 8 9 9 9 10 9 7 8 12 8 7 10 6 11 8 6 7 7 5 4 2 6 7 6 5 13 7 8 10 11 8 8 8 9 10 13 12 10 12 11 12 11 9 8 12 12 12 10 12 16 13 10 15 9 8 11 
166 164 162 161 157 157 155 153 155 151 151 145 144 142 144 146 153 173 208 155 110 33 14 14 6 11 12 10 10 10 12 8 10 7 11 10 10 9 11 9 8 7 6 6 5 6 9 17 14 11 11 12 8 9 9 11 12 8 13 15 13 10 7 11 13 9 9 10 10 10 10 10 12 12 12 14 12 14 9 7 
160 160 164 159 158 154 156 153 147 147 147 144 145 143 142 146 152 186 191 138 81 16 12 12 7 11 11 8 9 7 9 10 6 8 8 11 8 7 7 11 10 7 8 7 7 8 11 13 13 16 14 12 10 9 6 10 7 9 14 15 9 11 13 8 11 9 11 11 9 12 11 10 11 9 14 16 13 15 13 8 
165 158 159 160 156 152 152 152 152 148 149 141 144 143 142 146 160 198 175 121 54 11 11 12 8 9 14 12 13 11 9 11 8 8 11 9 11 12 9 10 9 10 6 8 9 11 11 13 12 15 15 14 16 12 11 14 10 13 9 13 9 16 11 11 10 9 9 11 10 12 6 15 13 15 16 16 16 13 11 11 
165 158 157 155 158 156 152 150 149 144 145 141 140 141 142 148 172 201 153 105 20 10 10 8 4 11 11 10 13 6 10 9 9 5 4 6 9 10 10 6 9 8 5 5 8 12 17 16 14 14 15 14 13 13 12 12 11 10 11 9 15 16 13 9 9 10 6 12 11 12 12 6 14 14 14 16 17 17 14 12 
160 156 154 153 152 154 149 148 147 143 147 140 142 140 144 153 187 187 136 82 15 10 7 7 7 10 12 9 9 10 10 10 7 9 9 11 7 12 8 8 7 7 9 3 9 7 10 12 10 16 13 15 13 13 12 15 13 10 11 13 14 17 10 8 8 12 8 13 12 14 11 8 14 10 14 17 15 14 9 12 
158 154 156 151 152 151 148 148 147 146 145 142 140 140 146 166 199 171 121 52 12 9 8 8 6 7 16 11 9 9 9 9 5 10 11 9 10 13 8 6 8 8 9 9 11 13 12 13 10 12 14 10 11 15 14 14 15 17 15 13 11 16 11 9 11 9 11 8 11 14 10 12 8 13 16 12 15 17 6 13 
159 154 152 153 152 150 147 148 147 143 143 136 141 139 151 171 201 149 107 28 7 7 7 8 10 11 12 10 11 10 9 8 7 8 9 10 13 9 8 6 7 5 5 7 10 7 11 13 8 12 13 11 14 14 8 16 13 16 13 14 17 12 11 9 8 12 12 12 9 10 9 11 14 14 15 17 16 15 11 9 
158 154 156 153 151 148 148 145 149 142 143 139 142 142 150 187 190 136 87 11 6 8 6 8 9 13 16 11 11 9 11 6 7 11 8 9 8 7 9 9 7 6 7 6 11 7 8 12 10 14 10 12 10 9 11 13 15 13 16 15 15 16 13 7 12 12 10 10 13 11 12 10 11 17 18 12 17 20 10 15 
155 154 155 152 152 151 148 143 143 143 141 140 144 145 158 196 173 127 58 11 6 8 7 9 13 10 12 10 10 6 11 8 7 8 9 10 8 12 6 9 5 5 5 7 9 9 7 9 9 11 10 13 14 12 11 13 10 14 14 14 15 15 18 14 12 17 11 11 9 12 8 10 13 11 15 15 15 18 14 13 
158 153 154 149 150 146 145 145 144 142 141 137 144 149 171 198 152 111 32 8 8 9 7 9 9 11 12 11 6 11 9 11 7 5 9 10 13 8 9 7 5 6 5 8 10 7 8 7 8 7 11 12 12 11 13 11 13 16 15 18 18 16 20 19 16 16 16 13 12 12 10 11 11 13 17 18 19 19 13 12 
154 150 148 152 150 148 145 139 140 141 138 138 141 151 186 191 138 90 13 8 5 6 9 9 9 13 14 10 11 10 7 8 6 8 9 6 7 7 7 10 8 6 8 7 7 7 7 10 10 7 10 13 10 13 7 12 15 15 16 16 18 16 20 17 21 16 19 18 15 10 13 12 16 13 17 18 16 19 11 16 
149 145 149 148 146 148 144 147 139 138 142 139 139 154 191 170 121 57 9 5 2 6 12 8 9 12 9 8 10 7 6 8 9 9 10 9 8 9 5 8 7 3 7 5 7 6 6 7 5 6 10 8 9 7 9 12 10 14 14 15 17 14 19 17 20 19 18 19 18 12 10 12 14 11 13 12 16 18 14 18 
153 148 147 146 147 145 142 139 142 139 142 136 145 162 196 153 104 32 6 7 2 6 7 10 8 12 14 9 10 11 8 5 10 10 10 8 8 5 9 8 5 6 7 7 6 4 7 7 4 4 8 9 8 10 10 7 7 10 12 11 14 16 15 13 14 21 18 17 16 19 17 18 13 13 13 16 13 15 9 9 
152 149 147 147 141 143 141 138 140 139 141 134 144 170 183 134 81 17 5 4 5 4 8 9 9 10 13 8 7 8 8 7 9 6 7 6 7 7 6 3 3 6 6 6 4 4 8 6 2 4 7 6 9 8 8 9 10 11 6 7 8 10 14 13 17 18 20 18 21 16 15 15 19 14 16 18 17 20 9 13 
147 147 145 141 141 143 140 136 140 137 141 140 151 183 171 121 64 10 7 8 7 6 9 5 12 11 12 8 10 10 10 10 5 9 12 9 8 8 9 7 6 7 10 6 10 9 8 7 5 7 9 7 7 4 11 8 9 10 9 6 10 6 8 13 17 20 19 19 21 19 16 15 15 17 18 23 21 25 15 21 
146 138 144 140 142 142 140 141 140 137 138 139 156 179 154 109 42 6 6 7 4 5 5 6 6 9 8 7 9 9 7 7 6 5 10 6 7 7 6 5 2 5 10 6 4 6 8 7 5 6 9 7 7 8 8 7 6 7 7 7 8 4 7 10 12 14 15 19 23 16 18 15 13 18 18 20 19 16 19 18 
145 141 141 142 142 139 137 139 136 138 141 142 168 183 138 93 23 12 7 4 2 6 8 9 8 8 13 6 11 7 10 8 9 10 9 9 10 9 6 7 5 6 7 6 8 8 8 6 6 9 9 6 7 8 8 8 9 6 7 6 10 8 7 6 11 11 12 15 20 18 17 16 18 21 20 22 19 24 17 17 
142 141 141 141 141 140 139 136 134 136 141 141 178 174 124 73 15 12 6 6 3 5 11 9 11 10 9 7 8 12 10 7 7 8 10 7 7 7 5 9 7 11 7 7 8 8 7 10 7 6 8 7 8 9 11 10 9 8 11 6 7 7 5 8 9 9 13 11 19 19 18 16 20 20 23 24 19 25 19 18 
145 144 142 143 139 141 138 138 136 132 140 148 180 156 114 48 12 9 7 7 5 7 6 7 8 8 8 7 9 8 10 9 5 9 7 8 7 11 8 8 7 10 11 11 11 8 7 8 9 6 8 6 8 6 8 9 7 7 8 6 9 9 6 9 11 9 13 12 17 16 19 20 20 18 18 21 21 21 16 18 
144 140 143 140 139 143 138 138 139 135 143 158 182 143 104 32 12 7 7 6 6 4 12 11 7 8 14 9 10 11 13 11 8 8 7 7 10 6 8 11 7 11 13 10 10 6 9 11 9 10 8 8 8 9 7 9 8 9 10 7 7 8 9 6 12 12 10 11 15 17 22 21 21 22 21 21 22 22 16 19 
144 142 139 137 136 138 139 136 135 135 145 164 176 129 83 21 13 12 7 7 5 5 6 7 9 9 9 6 9 9 8 7 9 7 6 8 7 5 6 10 8 8 14 11 12 7 9 11 10 7 8 9 7 8 10 8 7 7 6 6 6 4 4 10 11 9 9 11 15 19 23 21 18 20 16 18 19 22 17 14 
145 142 139 137 141 137 138 140 137 139 150 174 163 118 63 13 9 6 6 5 2 8 6 8 10 10 11 9 8 6 6 8 6 10 8 10 8 6 9 10 9 11 13 9 12 10 9 9 10 8 5 9 6 6 9 7 8 6 10 5 7 6 9 9 9 11 11 16 19 23 22 23 20 17 17 17 23 17 17 18 
143 141 141 137 135 139 135 134 136 139 156 181 152 104 39 17 9 6 5 5 4 5 8 12 11 11 11 7 9 10 7 10 11 5 7 8 9 3 7 9 11 11 14 11 10 12 7 11 7 9 7 7 6 6 8 8 4 9 8 5 5 8 9 10 10 10 15 17 22 19 20 19 19 21 17 19 19 22 14 17 
143 139 139 135 138 135 135 134 135 142 167 180 139 92 25 10 11 2 7 2 4 9 5 8 12 7 8 9 10 7 7 5 7 10 6 10 8 5 5 9 7 10 11 11 10 7 9 10 4 7 7 7 7 7 8 10 7 8 9 6 4 7 9 10 9 17 21 17 20 21 17 16 18 19 17 18 19 22 12 17 
140 137 140 135 136 133 135 136 139 147 178 171 125 78 15 10 10 5 4 0 5 8 8 7 9 7 11 5 7 6 9 8 8 7 5 5 6 4 6 7 7 8 11 8 10 13 8 8 7 8 9 7 6 7 5 9 8 9 8 8 4 2 7 10 15 20 21 20 21 19 18 17 17 18 16 15 19 18 17 16 
140 134 139 137 134 136 133 133 141 153 188 158 116 56 13 12 7 5 6 8 6 8 9 11 8 9 10 11 9 8 10 8 7 8 8 9 8 4 5 8 8 10 13 9 11 7 7 7 5 7 9 7 6 6 7 10 8 9 9 6 8 5 14 18 20 20 19 20 21 19 19 16 18 13 15 13 15 18 15 15 
140 137 140 136 135 134 134 135 140 163 191 146 104 34 13 11 9 9 8 7 3 6 9 9 9 11 11 8 8 11 8 8 8 10 6 10 5 8 5 9 11 7 7 6 11 9 7 6 6 6 6 8 9 7 10 10 7 9 8 9 6 11 17 19 17 21 19 20 17 23 18 18 16 15 11 13 15 18 12 15 
140 134 140 134 135 135 133 137 147 173 188 131 94 20 11 14 8 5 6 8 7 7 6 9 4 13 11 8 8 6 7 9 8 7 8 7 6 5 5 6 8 7 11 8 10 5 8 7 8 9 11 9 6 11 10 8 9 7 10 7 13 16 17 21 20 18 18 20 22 18 18 17 14 13 15 11 13 15 10 11 
138 136 138 136 132 133 134 137 146 183 171 124 75 16 14 11 8 9 11 7 4 6 11 8 9 7 10 12 7 8 9 7 9 9 6 7 3 7 3 10 8 8 10 9 8 5 6 8 5 9 9 9 10 8 8 10 6 7 10 16 17 16 18 16 19 17 18 22 15 17 15 14 13 14 14 14 15 14 9 10 
137 137 139 133 133 136 134 138 154 191 164 116 53 12 12 9 8 8 7 9 9 5 7 9 10 10 10 8 8 8 10 5 8 7 5 7 6 8 5 9 9 7 9 9 9 6 6 10 5 7 7 10 5 9 11 8 10 10 14 16 20 16 14 17 16 16 18 16 11 16 13 14 16 11 15 13 13 9 11 13 
143 137 135 133 134 142 137 141 166 187 148 106 34 12 12 8 9 11 7 10 4 6 9 9 9 11 12 9 11 5 11 11 8 9 8 4 7 7 6 9 10 7 11 9 8 6 6 12 11 6 8 13 9 8 13 12 11 17 19 14 17 16 18 22 21 18 14 15 11 17 17 13 16 14 15 15 14 15 12 10 
140 133 138 134 135 138 144 146 173 178 141 89 24 11 14 9 9 8 5 6 8 8 11 8 11 10 11 10 10 8 10 7 9 7 10 6 8 9 7 10 10 8 11 9 8 11 8 9 8 8 10 10 8 9 14 12 17 18 19 17 16 15 18 21 21 12 12 12 12 13 15 17 16 16 17 12 15 13 10 13 
137 135 137 130 136 138 137 148 180 167 128 70 15 12 11 7 5 5 4 5 2 6 10 10 9 13 9 8 9 9 6 8 7 6 11 5 9 4 9 8 8 8 11 9 11 8 7 10 8 7 9 9 12 14 14 17 18 16 15 16 16 17 14 17 15 10 13 10 12 13 11 14 14 15 14 13 14 16 6 13 
142 131 133 137 138 136 139 153 181 151 120 52 12 10 13 8 8 4 4 4 6 7 7 9 9 11 11 9 9 9 8 6 8 7 8 10 8 7 11 9 8 6 8 9 9 8 8 11 8 7 10 14 15 16 15 17 12 14 18 14 16 16 17 14 11 13 13 8 13 7 8 15 15 18 16 12 16 11 6 9 
139 139 138 138 135 139 138 161 184 150 111 34 16 10 11 9 9 3 2 5 3 8 5 10 9 13 12 6 9 10 8 10 7 10 8 5 7 9 10 8 10 9 8 8 9 12 9 12 9 11 12 14 17 18 16 19 17 18 16 16 17 16 15 14 14 10 11 14 13 13 10 11 13 14 15 10 18 17 13 13 
140 133 137 135 141 140 145 181 189 150 105 18 16 11 10 8 5 3 8 5 7 5 9 8 14 10 11 8 14 9 9 7 11 7 8 9 8 9 14 13 9 8 6 9 12 14 11 11 9 14 16 18 20 19 19 18 16 16 19 19 14 14 11 11 10 16 14 14 11 9 13 13 14 14 14 15 13 15 12 11 
142 136 135 137 139 143 151 193 191 160 89 18 12 9 12 8 6 0 2 5 4 10 7 9 10 10 9 7 11 10 8 10 11 6 9 8 6 8 8 8 7 7 9 6 11 9 9 11 12 11 16 19 17 18 14 16 14 16 19 15 13 10 13 13 11 12 13 15 15 10 11 12 12 11 14 13 12 15 9 11 
137 135 141 141 145 153 160 192 184 152 62 11 10 10 8 8 6 5 3 7 3 8 11 10 12 10 9 9 6 10 7 9 10 6 13 9 8 9 12 12 9 9 9 9 9 9 8 11 12 14 18 18 15 16 12 17 15 17 16 11 14 13 10 15 14 12 10 10 14 10 9 8 14 13 12 14 14 15 9 9 
135 134 133 127 132 134 131 140 150 120 37 12 12 10 10 10 5 5 6 5 7 8 11 7 12 10 9 11 11 9 11 9 7 7 10 8 9 8 11 10 9 9 9 7 9 10 7 12 8 15 18 19 14 18 15 16 17 18 11 12 10 8 9 14 15 10 13 12 14 11 11 11 14 13 12 12 9 13 7 9 
121 104 110 106 111 108 109 113 110 83 27 9 12 7 9 9 9 1 2 2 10 6 13 9 11 9 15 9 10 8 8 9 7 12 8 10 10 9 11 9 10 6 7 6 8 9 8 12 9 11 17 15 16 13 16 15 16 14 9 11 8 10 13 13 15 12 11 14 12 11 14 8 13 16 15 12 10 12 8 4 
105 97 93 94 88 89 88 85 75 49 19 10 13 12 15 9 5 3 6 4 8 6 8 10 10 11 9 10 12 9 9 8 6 8 9 9 12 8 7 11 11 6 9 11 8 10 10 9 6 9 16 16 13 15 17 16 13 11 9 9 11 12 15 17 13 14 13 13 18 14 15 10 17 11 15 11 14 13 8 15 
83 67 66 60 49 44 38 30 24 16 14 6 16 10 14 14 8 6 7 4 6 9 8 12 10 12 14 12 11 10 10 7 8 10 12 9 10 9 7 8 10 5 8 12 11 8 10 11 8 11 11 13 17 17 16 13 10 8 12 11 12 14 15 13 16 16 13 16 14 10 12 14 17 15 15 14 11 13 9 14 
30 20 21 19 22 18 19 15 16 14 12 11 12 10 12 9 9 5 8 4 7 7 10 10 8 8 14 9 10 11 14 9 8 6 10 9 7 9 7 8 9 8 8 11 7 7 7 12 8 8 9 11 11 13 9 10 8 11 8 11 10 11 14 12 15 15 14 13 16 11 16 12 12 13 13 14 14 17 10 7 
24 14 18 15 16 18 14 14 12 11 19 7 11 12 11 9 9 6 8 10 9 7 11 12 9 14 10 10 11 11 10 10 8 10 8 6 7 9 7 9 10 6 7 12 10 8 8 8 6 10 6 11 13 8 12 10 6 10 11 12 11 13 15 11 13 15 13 13 15 14 14 14 18 17 16 13 13 14 9 12 
22 13 12 11 12 14 11 12 14 12 15 8 13 11 13 10 14 4 12 12 9 11 13 13 12 11 12 10 8 12 10 12 7 12 11 8 11 7 9 8 14 8 8 11 10 11 11 10 8 16 7 10 9 10 9 8 10 10 14 13 13 14 17 14 17 17 17 16 18 17 15 17 18 15 17 14 13 17 10 13 
17 14 13 13 12 14 9 9 12 10 15 10 15 10 10 11 10 7 9 8 10 13 15 10 10 13 12 12 12 10 12 12 11 7 9 13 12 15 11 12 11 11 9 11 9 11 11 9 9 13 10 13 12 11 11 10 9 16 13 14 14 16 13 14 18 15 12 17 16 19 17 16 20 17 14 20 18 17 14 15 
14 15 14 13 9 9 6 8 7 10 14 9 14 9 12 9 11 4 8 7 6 8 8 13 11 12 12 12 15 8 9 8 12 12 11 10 11 13 10 12 12 9 11 10 10 10 7 12 9 10 9 8 8 15 10 11 10 11 11 13 9 14 17 16 13 15 14 16 18 16 16 16 17 13 18 17 19 22 11 15 
18 14 12 13 11 10 8 9 12 12 18 11 12 13 8 14 11 6 10 6 8 9 7 14 13 12 13 13 14 10 11 10 10 10 13 10 12 10 9 11 11 11 13 15 11 11 10 13 9 10 7 11 12 10 14 11 11 11 12 14 12 15 17 13 18 15 18 17 16 17 16 16 22 17 17 19 15 17 13 17 
17 12 13 9 8 10 7 7 8 12 12 7 12 11 10 12 12 3 7 10 9 8 10 13 12 11 12 13 13 10 14 12 11 10 10 7 11 11 10 13 9 9 10 7 10 9 9 12 9 8 14 13 11 10 8 12 11 13 15 16 12 16 17 16 17 18 19 16 17 18 17 17 19 15 19 17 18 17 13 10 
14 5 7 9 7 8 7 9 9 11 9 10 10 10 12 11 11 4 9 8 9 6 11 12 8 13 12 7 11 10 10 12 10 8 8 10 13 11 10 11 16 10 12 7 7 10 7 6 7 8 10 8 10 9 10 12 8 11 14 11 9 12 18 15 18 16 17 16 18 23 16 16 20 15 20 16 16 17 13 16 


