P2
80 60
229
175 172 170 164 166 169 167 164 160 155 157 153 154 145 144 149 148 147 152 159 173 217 216 153 86 20 16 10 13 9 9 10 10 10 12 11 12 10 11 10 13 13 11 12 11 9 11 12 13 15 13 14 14 12 16 14 14 15 15 18 16 16 16 12 17 15 13 11 13 15 14 15 16 17 17 17 17 14 14 12 
173 173 167 169 167 171 168 163 164 159 158 153 152 148 145 148 146 147 151 162 184 229 189 137 50 12 13 7 10 7 13 13 10 10 12 11 12 10 12 13 13 12 11 13 10 10 10 12 12 11 12 13 11 13 11 13 13 14 15 15 13 18 17 12 16 12 9 10 12 15 15 12 19 17 17 15 18 12 10 14 
174 175 166 168 168 166 166 161 160 155 156 156 151 143 145 147 143 145 153 163 201 223 166 105 26 12 11 8 10 8 12 7 11 10 11 8 10 11 13 10 14 10 9 9 6 7 6 13 11 13 13 10 12 12 12 14 15 15 15 14 13 12 12 11 14 11 7 11 8 12 12 14 17 14 12 14 11 16 11 9 
174 173 168 169 165 164 164 160 158 155 152 152 148 139 143 147 148 147 158 171 220 206 140 68 16 14 11 10 11 8 14 9 12 12 12 12 13 11 12 11 10 8 11 11 12 5 9 9 11 14 8 8 9 14 11 14 10 12 12 12 12 15 9 12 12 12 9 14 9 12 11 14 16 15 14 17 12 16 12 7 
168 169 165 169 166 170 160 157 159 153 156 148 148 144 143 146 146 146 158 184 226 176 117 42 13 11 7 5 9 10 9 12 10 11 11 12 10 11 11 12 12 13 7 8 10 9 8 8 9 9 11 9 10 11 15 10 12 11 13 15 12 12 13 13 11 14 5 9 13 13 9 12 13 12 15 19 18 11 7 1 
168 169 162 171 164 168 165 155 155 153 152 146 146 141 141 144 145 147 159 201 211 151 91 20 12 10 7 7 7 4 6 7 7 11 11 10 9 9 8 9 6 8 8 8 5 1 7 9 7 10 7 9 9 6 8 10 11 8 10 11 8 11 12 12 10 10 12 8 11 11 6 7 13 10 15 14 15 9 6 3 
164 168 166 164 161 162 160 157 155 152 149 144 147 144 144 144 144 149 164 213 190 132 62 16 12 8 7 10 9 9 8 8 6 8 10 10 10 9 7 10 10 11 12 11 6 7 8 10 9 8 10 10 10 9 9 14 10 13 10 10 9 11 8 13 7 9 7 10 6 10 10 9 11 17 13 15 15 10 4 6 
163 167 165 160 163 160 160 158 154 148 148 147 145 146 142 142 148 156 178 211 160 113 34 11 8 6 10 8 8 7 9 11 12 11 8 9 10 10 10 9 8 8 9 10 5 10 9 9 8 9 9 10 10 8 12 9 9 9 10 11 11 10 10 10 9 9 5 9 7 8 10 12 8 16 10 11 15 7 8 6 
160 165 159 160 161 161 157 154 153 148 149 147 141 141 140 144 146 155 191 197 140 87 21 8 8 7 8 6 12 7 7 7 8 8 10 8 11 9 8 11 9 7 12 8 9 6 11 10 10 14 11 10 9 12 9 10 9 6 9 12 12 9 9 11 7 8 8 6 7 9 13 8 10 13 10 13 14 9 6 4 
160 161 159 159 157 159 157 157 151 148 149 148 145 138 139 144 146 163 203 176 120 55 17 9 8 4 8 5 8 6 10 5 9 8 9 11 9 10 8 10 9 10 8 10 7 7 7 10 8 17 12 13 11 10 8 10 11 9 11 10 8 15 13 9 10 8 9 9 8 7 12 11 8 13 14 13 13 13 9 7 
159 158 158 154 158 154 151 155 150 147 150 146 145 138 138 146 154 173 202 151 105 30 14 9 6 7 8 6 8 8 9 9 5 9 5 8 8 10 11 10 9 10 7 8 9 7 9 14 15 15 10 12 10 10 13 11 10 11 10 13 13 12 10 12 9 9 9 8 8 9 11 11 13 12 13 14 12 14 5 10 
156 160 153 157 156 156 153 149 150 146 145 143 142 140 139 145 156 185 190 136 81 16 11 8 6 6 10 9 9 10 10 8 10 8 10 8 10 9 10 9 11 9 8 10 9 11 13 14 16 19 16 15 8 10 10 13 12 9 12 13 10 8 11 8 7 7 6 11 5 8 12 7 12 15 15 12 14 12 6 9 
157 157 153 155 156 155 149 152 146 143 144 143 144 141 143 147 161 197 170 122 48 12 12 11 9 8 10 6 9 9 11 10 9 10 10 11 9 8 5 9 10 9 6 8 8 10 15 15 16 15 14 16 15 13 11 15 8 10 12 14 15 8 10 8 8 10 7 8 7 8 9 11 14 13 14 16 14 10 6 12 
157 156 155 156 152 153 153 152 146 146 146 143 141 137 134 148 171 197 152 106 25 10 9 5 6 6 11 7 9 7 7 9 11 12 8 8 7 9 11 8 6 7 7 6 10 11 16 17 15 15 13 14 17 16 12 13 13 10 10 11 11 10 9 7 6 6 7 6 7 7 9 10 10 16 14 8 12 11 10 7 
156 153 154 156 148 150 149 148 147 142 143 143 138 138 140 152 186 188 134 82 11 11 6 4 7 6 9 7 7 8 7 7 6 8 8 8 7 7 9 8 9 9 7 10 7 12 15 17 14 12 13 15 15 15 13 16 16 11 14 11 10 10 9 5 6 5 4 9 5 9 9 10 10 11 11 12 12 13 9 4 
154 153 150 149 149 151 152 147 146 142 144 139 140 135 141 158 195 172 119 50 11 9 9 6 4 6 6 8 9 5 6 5 8 8 5 7 10 7 10 8 8 10 9 7 10 14 14 16 17 17 16 16 14 14 16 13 17 17 17 17 13 11 10 5 5 7 7 7 6 7 10 7 12 12 11 12 15 14 8 7 
150 154 149 152 150 149 149 148 146 143 144 139 143 137 148 170 198 150 106 26 7 8 5 4 8 8 5 9 6 6 6 8 9 9 7 9 8 15 5 9 7 9 10 10 14 16 18 15 15 15 16 14 17 14 16 18 14 14 17 16 14 10 11 8 6 8 6 7 7 9 9 8 10 12 15 13 14 13 9 8 
151 153 150 151 150 151 149 150 148 144 144 137 140 139 149 186 192 137 86 16 6 8 7 4 6 8 9 7 7 8 8 7 9 7 10 9 8 11 12 6 7 8 8 11 10 8 11 11 14 15 15 18 17 17 18 13 18 17 17 14 16 14 14 10 6 6 8 10 8 11 8 7 11 12 16 11 15 15 7 9 
149 148 147 147 146 150 147 145 143 141 139 138 139 140 155 192 173 122 57 9 6 6 6 0 3 5 5 6 5 7 6 8 6 9 8 8 7 10 9 6 5 8 8 8 7 9 8 9 9 9 14 15 13 15 13 13 13 15 18 18 15 15 13 16 10 11 9 9 6 8 11 11 12 10 11 12 13 15 8 9 
149 150 150 152 150 149 147 147 143 139 141 135 142 141 166 199 152 111 30 7 5 8 5 4 9 7 11 6 8 8 10 8 9 8 8 9 8 9 10 7 7 6 10 10 10 10 10 10 11 10 9 9 13 15 12 12 15 17 16 18 14 15 15 13 17 15 11 8 6 7 8 10 11 10 13 13 13 15 9 10 
151 149 144 147 147 149 146 142 141 140 141 135 141 143 182 191 136 87 13 8 3 6 7 4 6 7 7 9 8 8 8 5 9 7 11 11 8 8 10 7 9 10 9 9 11 9 11 12 10 7 9 10 12 11 11 13 13 17 16 16 13 14 16 17 16 14 17 17 12 9 6 8 10 12 12 13 13 15 11 15 
144 145 145 147 145 148 140 142 138 137 140 135 139 152 187 174 116 59 9 5 8 7 8 6 5 7 8 7 9 7 10 8 7 9 11 10 9 9 6 8 7 7 10 6 7 7 7 9 7 9 6 12 11 12 9 11 13 15 15 16 17 15 17 16 18 19 16 17 16 14 10 13 12 10 10 14 16 13 10 10 
147 148 143 145 144 145 141 140 136 138 141 136 142 162 189 149 103 32 10 8 4 7 10 7 4 4 11 9 6 5 7 5 7 6 8 6 8 8 7 7 7 6 10 10 8 8 6 5 7 10 6 8 8 8 8 10 10 9 11 13 15 14 15 13 16 14 16 17 16 13 13 13 15 12 11 13 13 14 7 15 
144 143 141 142 143 142 144 140 136 135 141 135 140 170 179 133 81 18 4 4 2 5 5 9 6 5 5 7 6 5 6 6 11 10 7 8 6 8 6 5 3 5 7 10 6 4 7 6 7 9 5 7 6 7 7 7 8 5 4 9 9 8 10 12 13 14 17 14 15 16 19 12 13 12 15 11 16 13 11 11 
144 144 139 144 140 141 143 139 137 137 141 138 145 175 164 119 62 11 12 5 5 9 7 4 8 9 8 5 6 4 4 8 5 5 7 8 9 8 9 9 5 8 10 8 9 6 9 5 7 7 8 8 9 10 6 7 9 10 5 9 7 8 8 7 11 18 17 18 15 17 16 14 14 18 16 16 17 17 10 11 
142 143 142 142 144 140 138 140 136 134 138 138 154 181 150 108 44 13 8 8 2 11 7 7 7 4 7 7 5 5 6 4 7 6 9 6 5 6 5 8 4 7 6 9 7 8 7 7 7 6 5 5 9 7 7 8 8 7 7 8 9 7 5 7 7 12 17 19 16 18 16 13 13 20 19 19 19 18 12 9 
142 142 140 141 140 139 139 136 137 138 139 141 166 175 132 95 23 12 12 8 7 8 7 6 7 7 5 5 4 6 9 7 7 9 7 10 10 5 7 7 8 9 8 9 8 8 7 7 8 7 10 5 10 9 8 12 10 10 8 8 4 6 3 6 8 8 8 10 12 16 17 17 21 20 21 19 21 18 14 13 
142 141 140 142 142 139 138 140 134 137 136 141 172 168 120 71 16 11 9 8 7 6 9 4 6 5 6 7 8 6 5 11 7 8 10 8 8 9 8 6 6 10 7 8 10 7 10 8 10 8 7 9 7 7 9 10 10 10 6 8 5 4 6 4 8 7 9 11 15 15 18 18 18 20 21 19 21 19 15 17 
139 138 143 140 137 142 137 136 137 138 140 147 175 151 109 51 14 13 11 8 5 5 3 7 7 6 8 6 8 6 11 9 5 8 8 8 9 6 9 8 9 8 11 9 10 9 8 7 9 8 6 4 9 7 9 9 8 7 7 7 5 2 5 6 6 5 8 8 8 16 18 19 18 18 16 17 19 20 14 13 
141 142 142 141 140 136 137 139 139 139 143 157 182 134 95 34 12 13 13 8 6 9 8 9 8 3 9 9 7 9 9 9 10 10 7 7 8 10 10 10 11 11 9 11 12 9 13 9 9 8 8 11 9 12 9 7 9 11 7 7 6 7 5 8 6 8 10 9 13 16 19 19 17 20 16 15 22 18 14 13 
141 138 139 141 138 139 137 140 134 137 145 171 173 124 79 20 10 9 7 6 7 6 6 5 7 6 6 8 7 4 9 6 7 9 10 7 7 9 10 7 9 10 13 11 10 9 8 8 10 9 10 8 6 8 6 9 8 5 3 5 5 5 5 6 7 11 7 9 14 16 21 21 19 15 18 16 18 19 17 14 
136 138 140 141 134 138 135 136 135 140 145 173 157 111 59 11 10 8 9 5 5 7 5 5 5 6 5 5 6 5 8 6 5 8 5 9 7 9 7 8 9 12 13 12 12 9 9 12 11 9 6 9 10 6 6 11 8 7 7 6 4 6 6 6 4 9 11 12 17 19 20 19 16 17 16 15 16 14 13 14 
137 137 135 141 137 134 133 135 136 138 156 181 150 103 36 12 11 9 7 5 4 6 8 3 6 6 3 3 7 7 7 7 8 9 5 8 10 6 10 10 12 11 15 13 11 12 10 7 5 8 9 8 10 9 9 9 9 7 5 8 5 6 6 7 6 11 16 18 19 18 20 21 19 18 17 14 18 17 14 12 
138 136 134 137 133 136 133 134 134 140 165 181 134 89 22 10 10 6 9 5 4 7 7 9 6 6 7 7 5 3 4 6 6 6 8 6 9 9 6 10 7 12 11 14 15 12 9 13 7 8 8 8 9 9 6 11 8 8 7 3 2 6 6 10 13 15 18 16 16 15 20 23 22 19 16 14 20 18 15 14 
137 136 132 137 138 137 140 133 138 145 179 174 126 71 15 13 11 9 7 4 6 11 6 6 7 4 9 5 9 6 7 6 8 7 8 4 8 10 8 7 8 9 14 10 13 10 6 8 11 9 8 11 8 7 8 8 7 11 8 6 6 5 6 11 14 19 19 15 18 16 21 18 15 13 16 12 18 20 13 12 
135 137 134 139 135 133 134 138 135 154 185 161 119 50 12 13 9 11 8 8 5 8 9 5 6 6 7 9 6 7 8 7 7 10 6 7 8 8 10 8 12 12 15 11 11 9 9 10 8 12 10 10 11 9 9 8 5 11 7 8 5 8 13 15 17 20 17 15 20 18 22 17 17 16 15 13 14 17 16 14 
134 133 136 136 132 135 136 132 141 161 186 150 104 27 9 10 10 8 6 5 5 6 6 4 3 9 7 2 4 6 10 7 9 8 8 6 6 7 7 7 8 8 10 8 10 11 6 6 7 10 7 8 9 6 7 9 8 9 5 5 5 12 16 17 16 14 18 18 17 19 18 12 14 12 14 11 13 14 10 9 
130 132 130 136 132 134 138 136 143 172 189 137 90 15 11 10 9 9 9 7 7 5 5 4 7 7 5 7 6 5 10 10 7 6 7 7 5 6 7 9 8 9 12 10 8 8 9 7 9 8 6 5 9 9 8 8 9 11 5 10 13 16 15 16 16 15 16 14 17 12 14 15 15 14 13 10 10 15 10 8 
135 135 131 136 134 135 138 139 147 181 179 126 72 7 9 10 9 9 8 4 3 4 7 5 6 5 9 7 5 7 12 8 11 8 7 8 7 6 3 12 7 10 8 11 9 8 7 7 11 10 7 8 7 9 9 11 8 9 9 9 13 13 14 12 14 16 17 15 15 13 14 12 14 12 13 9 11 11 7 7 
139 135 131 136 133 137 134 135 152 184 161 118 52 6 8 7 9 8 8 6 5 8 8 5 7 7 9 5 6 6 7 8 8 9 11 5 6 7 9 10 10 6 9 7 9 7 7 6 7 9 5 10 10 9 8 9 8 11 16 16 15 14 15 16 15 15 15 12 9 7 11 11 11 7 10 11 14 9 7 10 
139 134 137 132 137 136 139 141 164 187 146 104 35 7 8 7 9 5 5 6 6 7 9 6 6 9 10 5 6 7 10 10 7 6 9 8 6 6 6 9 8 9 8 12 7 12 11 8 8 9 8 11 9 12 7 10 13 15 18 15 21 13 18 15 13 16 10 10 11 9 12 10 13 11 8 8 14 9 7 10 
135 136 132 136 136 139 140 147 170 181 137 87 25 10 6 14 8 5 6 5 7 7 7 5 7 7 9 6 8 7 9 9 8 7 8 10 7 8 8 7 10 13 8 9 11 10 7 10 9 10 9 10 13 10 12 13 18 17 16 15 16 14 17 16 17 14 11 8 10 9 10 9 16 8 12 12 18 9 6 8 
132 134 133 135 135 136 137 150 174 164 124 75 16 5 6 6 9 5 4 7 4 9 7 1 8 6 7 8 4 8 6 7 7 6 7 8 7 7 6 7 10 10 8 8 10 8 7 7 10 11 11 13 13 17 15 17 16 15 17 18 14 14 16 13 13 11 9 6 9 10 11 9 10 10 12 9 12 9 6 7 
135 133 130 135 134 136 141 155 183 156 119 50 15 8 6 6 6 5 2 5 3 7 6 2 6 4 9 5 4 8 6 8 5 8 3 8 9 9 8 10 8 10 9 11 7 8 12 10 11 12 12 11 14 19 19 18 19 17 15 18 16 14 17 12 8 9 9 10 9 6 11 10 9 7 10 10 8 6 4 8 
135 139 138 136 133 136 148 160 184 146 113 29 10 6 8 8 7 3 4 6 2 6 9 5 7 4 6 6 9 9 7 8 5 7 5 8 10 7 12 6 15 8 10 10 9 10 12 12 11 16 14 13 17 19 18 17 17 16 15 16 16 15 10 9 8 11 9 9 7 7 6 9 10 9 11 10 9 9 6 3 
135 135 133 133 136 142 147 175 189 147 110 26 14 10 7 6 5 7 5 6 6 7 8 7 6 5 9 6 7 8 13 9 7 6 8 7 10 9 7 10 12 10 9 10 9 9 9 12 12 16 15 18 17 19 18 18 21 17 17 17 13 12 9 9 11 11 8 7 8 7 8 10 11 13 13 13 11 12 7 2 
136 134 137 137 138 142 148 191 190 153 92 16 9 4 8 8 8 2 6 4 2 7 7 6 7 4 8 8 10 7 8 7 6 6 7 9 7 9 9 7 11 12 10 7 10 12 6 11 7 16 18 20 19 16 16 13 18 20 16 17 11 11 14 8 10 10 7 7 6 10 7 9 10 11 13 9 8 8 4 7 
133 141 134 141 144 148 160 194 181 154 66 18 9 6 6 6 5 1 6 4 4 8 10 8 6 5 6 6 5 6 6 10 5 6 10 5 9 8 8 9 10 9 9 7 9 10 11 13 12 17 19 16 17 19 16 17 17 16 14 11 13 6 11 9 9 8 8 9 7 10 8 8 8 8 12 9 9 12 3 4 
131 132 125 129 129 134 133 139 149 122 39 14 9 5 7 6 6 3 7 3 5 9 7 8 5 6 9 9 11 7 11 10 6 8 5 7 9 10 8 11 10 8 9 10 9 10 6 10 11 16 17 18 17 16 17 17 16 17 13 9 12 6 10 7 12 7 9 12 7 8 9 14 12 9 11 13 9 9 3 3 
115 111 105 109 103 108 114 113 109 79 24 12 7 6 6 7 6 5 8 4 6 7 8 8 8 6 10 8 7 9 6 9 6 7 9 7 8 8 9 9 8 8 8 8 8 9 10 9 8 15 14 20 16 16 19 15 20 14 8 9 8 8 9 7 11 12 11 10 10 10 7 12 10 12 13 11 11 12 6 2 
98 95 94 91 90 91 89 80 70 44 18 12 10 6 8 8 9 5 3 5 4 10 10 7 8 10 9 9 8 8 8 8 8 8 9 11 10 11 9 7 11 10 12 11 9 8 10 11 12 13 17 18 18 15 19 20 13 10 9 11 9 13 13 8 12 11 10 10 9 10 10 11 14 10 11 10 12 8 3 3 
75 69 61 58 52 44 41 33 25 16 17 12 11 8 8 10 9 5 7 10 7 11 10 6 6 6 9 8 8 10 10 7 12 11 11 8 8 12 9 8 11 11 12 11 11 11 10 9 8 12 12 18 19 18 17 17 13 10 13 10 9 9 11 9 12 11 9 12 8 9 6 10 12 14 15 12 14 12 5 6 
29 28 27 23 25 19 24 16 15 13 15 10 11 5 9 8 9 9 7 8 8 7 7 6 7 8 9 9 8 12 9 7 8 9 9 9 7 8 9 10 9 10 10 13 8 10 8 10 12 10 12 14 18 17 13 11 8 10 8 11 8 9 11 8 10 11 9 11 9 6 10 12 13 14 12 10 10 12 7 10 
25 17 17 23 20 13 16 17 15 12 11 12 11 5 8 10 11 7 9 9 7 12 6 4 6 8 9 7 10 9 11 10 7 12 9 9 10 7 9 9 9 8 12 12 13 10 10 10 10 10 12 11 11 12 9 9 10 9 11 12 10 10 9 11 9 14 10 10 10 11 13 13 13 14 10 10 13 11 7 6 
19 15 14 16 13 17 16 15 14 13 15 14 12 9 10 12 9 10 6 7 7 10 8 8 8 6 12 11 12 8 9 11 10 8 12 7 11 7 9 9 13 13 12 17 12 13 11 9 12 18 12 10 11 9 9 9 12 8 12 14 12 8 13 10 15 15 12 14 12 12 12 13 14 17 16 13 15 12 6 7 
17 17 11 14 14 16 19 14 13 12 19 13 14 7 10 11 12 9 9 7 7 12 7 10 10 8 11 7 12 10 10 14 12 11 13 12 9 13 12 11 11 13 14 13 12 13 13 12 12 14 12 14 12 11 12 9 13 13 13 13 13 15 14 13 14 15 12 16 12 12 15 15 14 17 17 16 18 13 5 8 
16 14 13 11 13 12 16 14 12 12 19 8 13 8 11 12 9 6 6 5 6 10 9 9 10 10 8 11 12 10 11 11 13 10 7 13 12 10 11 11 11 10 15 16 13 12 11 13 11 13 11 12 12 10 13 11 12 12 12 12 13 13 10 14 10 14 13 15 13 12 13 19 13 17 14 14 13 13 9 7 
10 11 12 13 15 15 15 13 11 15 15 10 10 6 10 9 10 6 8 5 7 11 10 5 4 6 9 8 11 11 12 11 11 12 11 10 13 9 11 12 11 9 11 12 14 14 8 8 11 10 11 13 11 11 13 12 12 13 12 14 14 13 13 14 15 12 12 16 15 15 15 13 12 15 15 14 15 14 12 6 
6 11 10 11 12 12 13 11 12 12 13 10 11 7 9 13 10 7 7 8 9 10 6 6 9 6 11 7 10 12 10 9 8 11 10 12 11 12 8 11 12 10 7 12 11 12 12 11 14 13 11 12 14 10 8 11 13 10 13 12 17 14 13 15 13 14 14 15 14 12 14 17 16 16 15 15 17 12 11 8 
6 9 10 13 13 13 14 13 14 15 13 9 9 8 10 11 7 6 8 8 8 9 6 4 9 10 8 10 6 10 11 9 8 9 11 10 12 14 10 9 10 11 10 13 13 10 13 13 11 11 13 15 9 8 10 14 15 14 13 13 15 17 13 16 16 16 16 11 16 14 13 13 19 16 14 17 18 16 8 9 


