P2
80 60
230
177 180 173 172 171 171 168 165 164 161 160 158 159 150 145 145 146 150 151 155 175 217 214 153 84 19 16 12 9 12 11 13 8 11 8 12 9 13 11 9 12 10 8 4 8 5 10 8 10 11 12 9 13 8 13 11 13 11 10 10 13 16 16 11 12 12 11 10 9 10 15 15 17 17 15 15 13 13 15 13 
178 179 178 172 170 174 170 167 170 164 159 155 157 153 145 145 147 149 151 155 186 230 186 136 49 15 9 11 7 10 10 13 11 9 11 13 12 12 9 11 10 7 7 9 11 12 7 10 11 11 9 13 8 4 6 12 11 12 11 13 13 13 14 13 13 10 12 14 11 8 13 15 14 16 16 16 17 13 13 13 
182 175 177 177 173 177 168 167 164 164 158 156 154 150 147 145 150 148 151 162 204 227 168 108 27 11 15 12 9 10 13 12 12 9 8 8 9 12 9 10 12 11 11 9 8 10 8 10 8 10 10 10 9 7 11 7 10 13 13 12 13 15 13 17 15 12 12 7 13 12 15 15 13 13 10 12 16 10 12 11 
176 171 179 169 172 173 169 163 158 159 156 156 155 149 142 144 147 144 152 167 219 205 140 73 17 11 10 10 11 8 13 15 8 8 9 9 11 10 11 8 10 8 8 4 7 7 9 9 10 10 5 10 7 6 9 9 7 11 11 12 13 10 16 13 14 10 10 15 13 11 10 9 10 11 12 11 11 11 9 12 
178 175 176 173 169 169 167 161 163 156 154 150 153 149 144 147 147 147 154 182 228 175 122 43 10 15 8 8 11 11 11 15 8 6 10 12 10 8 8 9 9 9 8 8 7 5 6 8 11 8 7 6 9 6 8 10 8 5 11 9 9 10 12 14 12 12 11 9 10 5 9 12 11 9 10 12 9 14 11 10 
174 167 169 164 166 171 162 161 160 157 150 151 151 150 141 141 147 143 155 195 212 155 89 23 9 8 10 7 7 9 12 11 8 9 9 10 8 11 8 9 8 6 8 8 8 6 5 8 7 10 4 8 4 6 8 9 7 10 5 5 8 11 9 13 14 7 5 6 8 7 12 7 14 7 8 10 11 11 16 12 
172 165 171 167 170 169 166 158 157 156 151 149 150 145 141 138 146 145 167 209 190 131 59 13 11 10 8 9 9 9 12 10 6 5 8 10 7 8 9 7 8 9 5 8 5 7 6 6 9 10 5 6 5 5 5 4 3 9 6 7 8 8 11 11 8 9 7 8 5 8 9 10 10 11 10 13 11 7 12 8 
168 161 168 164 167 164 163 156 158 159 150 147 151 148 140 145 146 151 177 214 166 116 33 10 9 7 8 8 12 11 10 9 9 5 10 9 9 7 6 9 6 8 7 7 7 4 9 10 9 7 8 9 6 6 6 8 6 7 7 6 11 9 7 5 10 7 7 7 10 8 9 10 7 12 8 10 9 9 7 11 
167 165 167 164 164 161 161 156 161 154 147 148 151 144 140 141 149 158 193 198 144 86 16 10 9 6 7 8 9 8 9 8 7 8 10 10 7 9 6 6 8 9 7 4 6 5 7 9 9 10 9 5 7 7 10 8 8 5 6 7 5 9 8 7 11 8 6 7 12 11 9 6 6 8 13 14 11 8 12 12 
165 162 163 163 160 162 162 160 160 155 150 147 149 146 140 142 149 160 202 177 126 55 11 9 4 7 8 10 8 7 8 10 9 7 10 10 6 7 8 9 7 8 8 6 6 6 10 11 9 11 7 7 7 8 8 9 8 10 8 8 10 10 9 10 8 7 9 6 4 6 5 10 10 12 8 14 8 8 8 10 
167 162 165 162 158 161 155 156 158 152 149 147 151 146 139 141 151 173 206 156 112 30 11 13 9 10 11 8 10 12 10 9 9 9 12 12 11 7 7 10 7 5 9 8 8 10 11 14 15 14 8 10 7 8 8 9 9 8 9 11 11 12 7 8 10 7 9 7 11 11 10 10 12 10 13 11 8 11 10 13 
161 160 163 159 162 159 158 152 153 151 147 145 150 145 138 145 155 183 192 139 83 16 5 8 6 9 10 8 12 8 6 9 6 9 10 8 5 9 5 8 7 3 7 4 9 8 10 12 15 12 15 11 10 8 4 5 7 7 9 10 10 10 9 10 11 7 9 10 6 6 8 9 9 9 10 11 9 13 9 12 
161 158 158 161 158 162 157 152 152 153 147 150 151 145 139 145 163 196 177 122 51 11 7 6 7 9 7 11 7 9 10 11 9 8 10 7 7 8 4 6 6 6 6 9 9 11 14 13 17 15 13 16 10 9 7 6 12 10 11 7 10 12 6 7 7 5 10 8 10 7 7 11 8 8 13 13 8 11 11 9 
159 160 161 157 154 158 154 155 149 154 145 147 146 143 140 144 171 199 150 103 27 9 5 6 7 5 9 7 9 7 10 7 10 8 10 8 9 8 7 7 6 8 4 7 7 9 12 16 15 13 13 13 15 12 12 11 12 7 9 7 10 6 11 6 6 8 9 8 5 10 6 6 8 10 14 12 15 7 7 9 
155 157 152 155 157 156 151 152 151 151 144 145 146 146 142 151 186 190 136 80 16 8 8 4 8 7 7 10 11 8 10 7 7 7 6 7 6 6 6 6 9 5 6 9 11 13 15 12 12 12 10 13 13 6 14 14 13 10 12 6 12 9 11 9 8 7 9 10 9 8 9 6 8 10 10 13 11 10 9 6 
160 155 156 157 157 155 152 150 151 150 146 144 145 143 142 156 200 168 121 50 11 8 5 4 6 8 8 6 13 8 6 10 9 7 6 7 9 12 8 6 8 5 6 6 11 16 13 14 14 13 14 12 12 12 11 10 11 9 14 9 8 9 8 8 6 5 7 8 9 8 8 6 11 11 10 9 10 10 11 11 
158 158 158 153 154 156 151 149 150 149 141 139 143 142 142 170 207 154 105 27 10 6 8 3 6 9 8 8 8 10 9 6 9 8 8 7 8 6 9 4 8 7 6 9 6 13 14 18 14 14 14 11 12 12 12 12 15 15 12 11 10 10 8 8 5 10 7 6 9 10 10 11 9 13 7 7 11 9 9 7 
155 154 156 155 158 154 153 149 145 148 141 146 147 144 149 184 194 138 85 14 11 5 3 7 9 9 9 9 10 11 10 7 11 12 7 7 8 6 5 4 6 5 6 10 7 8 9 11 16 16 15 13 13 14 11 14 14 13 12 13 14 16 11 10 8 7 8 7 10 9 9 7 8 8 12 11 14 15 12 12 
155 155 155 153 155 158 153 150 149 150 143 143 146 150 157 198 175 125 57 9 7 7 3 7 5 8 6 8 11 9 8 9 9 7 7 7 5 5 10 7 8 6 8 9 8 11 8 5 10 7 13 11 13 15 13 12 15 14 12 15 13 14 16 17 10 11 10 8 7 7 10 10 10 12 11 13 12 14 19 14 
156 155 153 156 153 155 148 147 149 150 142 141 148 148 171 201 156 114 32 6 12 5 6 9 10 10 8 10 9 9 9 10 11 9 8 7 8 9 8 7 8 4 8 10 10 9 8 8 11 13 9 10 10 10 12 17 13 17 17 19 14 15 13 15 13 16 12 12 9 11 7 10 12 11 13 12 15 17 15 19 
155 154 152 148 151 151 149 147 148 146 137 141 144 150 179 187 139 91 13 5 6 7 4 6 10 7 9 5 9 8 7 8 5 7 7 9 6 7 9 8 8 6 6 6 7 9 10 9 8 8 6 10 9 5 7 12 13 14 16 12 16 16 14 13 15 14 15 17 12 9 7 8 7 8 11 11 14 14 13 15 
155 151 152 149 149 154 150 145 152 147 137 138 150 155 192 174 123 58 8 1 9 8 4 8 6 6 5 9 8 9 7 7 8 9 7 10 7 10 8 5 4 6 5 10 8 7 7 6 7 7 8 6 8 7 6 9 9 12 13 13 17 14 14 17 18 17 18 16 15 14 10 12 13 11 10 14 10 14 11 14 
153 152 149 148 147 153 146 146 146 148 142 142 150 169 194 149 105 29 6 6 9 5 3 6 5 6 6 9 8 6 10 7 7 9 5 8 8 9 7 5 7 4 7 6 8 7 5 6 8 7 5 4 7 5 7 6 8 5 9 11 12 14 16 15 17 14 16 15 15 17 14 13 14 10 13 13 13 12 13 15 
151 150 147 146 148 149 142 141 143 144 138 141 150 174 183 133 88 17 5 4 4 2 7 5 6 3 6 5 9 5 7 6 5 6 4 7 6 6 5 4 2 5 6 9 6 4 9 5 6 4 4 5 4 4 5 3 4 5 6 7 3 12 12 16 15 16 16 13 17 15 15 14 12 10 10 12 12 11 13 19 
154 150 146 146 146 146 143 142 141 143 140 142 154 186 171 120 63 7 7 4 5 5 8 5 9 10 7 3 7 7 8 6 6 2 9 7 7 9 7 5 6 5 9 9 7 7 6 5 8 7 2 5 6 3 4 8 6 7 4 3 4 7 9 13 18 15 18 15 19 19 13 16 17 13 15 15 17 19 12 17 
153 148 146 146 145 148 143 146 147 141 138 143 161 189 152 105 46 10 7 9 9 9 7 6 7 9 3 7 6 5 10 6 7 6 6 8 5 9 4 6 5 6 6 6 10 7 5 5 9 7 6 7 5 3 6 8 3 4 8 5 6 4 8 10 8 16 13 16 19 18 17 10 14 18 19 17 17 14 19 17 
152 147 147 141 145 152 144 143 145 147 142 145 170 184 135 89 25 15 8 7 7 5 5 8 5 8 6 8 8 5 7 6 8 4 7 11 6 7 7 9 5 8 6 10 9 10 6 7 6 4 6 5 5 5 5 6 4 5 5 6 5 6 3 7 9 11 9 11 13 16 18 17 16 18 16 17 16 17 17 15 
146 149 146 150 147 148 143 142 145 144 140 147 181 172 125 73 16 8 5 6 9 8 2 4 10 9 8 8 7 8 7 8 8 7 5 8 10 10 6 5 9 9 10 10 8 10 9 7 7 6 5 8 6 5 5 8 3 4 8 5 5 4 3 7 10 7 8 9 11 15 15 14 15 17 16 16 19 18 15 16 
145 147 143 143 146 144 139 139 145 140 142 153 188 160 111 49 15 10 6 10 7 4 4 6 8 8 5 8 10 7 9 8 6 6 8 8 7 9 10 10 8 10 8 10 10 11 10 8 10 6 6 5 10 5 6 5 7 4 4 7 3 3 3 8 9 10 8 9 14 17 15 18 17 16 17 18 17 21 16 17 
148 149 142 142 142 145 142 140 139 143 142 158 191 145 100 30 12 9 5 9 11 7 6 5 8 5 10 8 10 6 8 10 10 9 4 11 8 9 9 10 10 8 9 10 8 10 10 12 8 5 7 6 6 5 5 5 6 4 4 5 4 5 7 7 9 14 11 9 11 15 19 19 17 18 17 16 14 18 14 20 
147 141 143 141 145 142 141 137 142 145 143 172 180 134 81 15 12 6 3 4 7 4 4 7 6 4 6 5 6 6 5 9 9 6 6 7 6 6 7 7 9 10 11 11 10 9 12 8 7 5 4 5 4 3 3 4 4 6 3 2 6 4 5 6 6 9 10 12 10 18 20 19 15 18 18 13 14 14 13 16 
149 143 142 143 140 139 138 139 140 142 149 182 169 123 60 10 13 9 4 5 5 9 4 7 7 7 8 8 5 6 10 14 5 8 5 6 5 9 8 9 8 10 8 13 12 12 10 6 8 6 5 5 1 2 5 6 5 4 3 2 4 6 4 8 9 10 11 16 18 20 18 21 21 20 17 15 15 16 19 14 
144 140 142 146 144 143 139 139 146 142 158 183 161 113 41 9 15 6 8 7 9 5 4 4 8 5 5 8 9 15 10 11 6 5 6 7 7 6 6 11 11 9 9 14 13 13 11 10 9 8 7 6 6 5 6 7 7 7 6 5 3 3 7 7 12 10 18 18 18 20 21 22 17 16 16 17 16 19 17 20 
143 141 139 141 141 140 139 140 142 148 169 182 144 98 24 9 9 3 4 3 6 5 5 5 3 6 2 7 11 8 8 6 6 7 6 5 7 9 6 8 6 9 9 10 11 10 11 8 6 8 6 5 4 4 5 4 5 5 5 3 3 5 6 10 12 19 18 16 20 16 20 18 17 14 16 17 19 19 16 16 
141 142 140 140 138 142 143 139 146 151 181 177 134 80 15 9 10 5 4 6 5 4 5 6 7 9 3 7 8 11 9 7 8 8 8 7 8 6 6 7 7 9 7 11 10 12 8 9 9 5 5 7 6 4 4 5 6 6 6 4 3 7 8 13 18 19 17 19 22 21 21 19 13 12 13 13 13 13 13 17 
142 141 142 140 141 146 138 140 145 156 192 167 120 59 10 7 9 6 6 6 5 7 7 7 4 7 6 7 7 10 9 12 7 7 7 4 5 8 7 7 6 6 11 9 8 8 8 13 8 7 5 7 7 6 7 4 3 8 6 6 5 6 10 18 15 17 16 20 21 18 17 17 14 13 12 9 11 17 16 13 
139 140 138 140 141 142 135 140 146 165 193 155 109 35 10 7 9 8 9 9 8 6 7 9 10 5 8 6 8 8 5 11 9 6 8 5 4 6 3 5 8 5 10 10 9 12 9 9 7 5 7 7 9 5 8 6 7 7 5 5 8 12 16 20 19 16 17 17 21 19 16 16 13 13 10 9 11 16 17 16 
144 138 143 139 140 144 136 146 148 183 190 141 99 25 6 10 10 8 6 6 6 6 5 5 8 7 8 11 7 7 8 13 8 9 12 7 6 7 6 6 7 6 6 9 10 12 11 8 7 8 8 5 9 9 7 5 7 10 8 4 11 17 21 21 20 19 22 20 22 14 13 17 12 13 10 8 7 8 11 6 
143 139 140 144 139 141 142 143 157 191 177 131 80 16 11 7 9 4 9 6 6 8 4 5 6 8 7 9 9 7 6 10 7 8 11 7 6 6 5 9 7 11 8 9 6 13 5 9 8 8 6 11 5 5 7 8 8 4 8 11 15 16 17 18 17 17 22 17 12 14 11 14 11 10 13 7 6 9 10 11 
140 139 141 143 141 140 136 146 161 195 161 120 55 10 10 4 10 5 7 3 8 4 9 6 6 7 6 5 8 11 7 9 12 8 5 6 5 5 7 7 7 8 9 7 8 8 8 8 10 6 6 7 6 7 4 5 7 7 14 15 14 18 16 20 13 18 19 14 9 11 9 7 8 11 11 8 8 10 9 11 
142 137 141 137 144 141 143 150 167 195 147 106 41 13 10 6 10 9 7 9 11 9 7 4 8 9 7 12 8 11 9 10 11 6 8 9 6 5 6 5 8 9 9 9 9 11 10 8 7 8 7 7 7 5 9 9 11 12 19 15 17 16 14 19 18 17 9 9 10 10 11 12 10 11 8 8 11 8 9 7 
143 141 140 137 139 139 140 149 177 188 140 93 29 18 7 6 10 5 9 6 8 10 6 7 8 5 7 7 10 9 10 9 8 5 8 9 10 4 8 9 10 12 8 11 8 11 5 8 10 8 7 9 8 9 10 13 13 17 16 17 15 18 16 18 18 17 13 10 10 8 9 12 8 10 12 9 8 14 8 13 
138 141 134 139 138 142 142 150 183 173 128 74 20 14 7 4 11 9 8 7 8 7 4 7 6 7 7 6 5 9 7 10 9 8 7 7 7 9 8 9 11 7 7 8 7 8 8 9 7 9 7 11 11 11 15 18 16 15 11 12 15 17 14 17 13 9 9 3 7 9 6 5 9 6 8 7 6 6 9 13 
143 142 136 138 139 141 146 155 185 163 117 57 16 13 7 1 10 6 2 5 7 7 6 6 7 8 12 9 7 7 8 8 6 7 5 8 7 11 8 8 8 8 8 5 8 6 6 11 9 9 10 10 11 12 16 18 16 18 16 18 14 15 13 14 9 8 8 9 5 7 6 8 9 8 7 10 11 8 8 9 
141 140 140 137 141 141 145 168 189 152 113 36 15 13 5 3 7 0 3 0 8 6 8 9 5 8 10 10 7 9 8 6 5 8 6 9 9 8 7 10 9 11 7 11 8 9 10 8 10 9 10 11 17 14 16 18 17 15 16 14 15 17 12 12 9 10 7 10 4 7 7 7 8 9 10 12 10 11 10 11 
141 143 139 141 145 150 149 181 194 154 103 28 15 11 12 9 5 3 2 4 11 6 10 7 9 10 9 8 10 8 6 12 11 9 11 11 10 12 12 13 10 10 10 11 12 13 10 13 13 13 14 21 19 17 17 15 18 20 17 13 18 13 9 10 12 10 9 10 7 10 9 10 12 10 9 12 8 9 9 9 
143 142 141 143 142 149 160 197 199 162 91 20 20 13 8 4 12 7 7 3 7 6 9 7 10 9 9 9 6 10 10 11 8 9 10 9 7 10 7 11 6 8 9 10 10 8 10 10 8 14 17 19 19 15 20 17 16 12 16 17 14 8 10 8 9 8 9 10 11 7 3 10 11 8 9 8 7 6 8 11 
142 143 144 147 149 156 170 194 190 162 68 20 19 13 4 8 7 5 5 5 9 10 9 7 10 10 9 8 7 13 10 9 10 11 13 9 8 13 10 8 8 7 6 9 11 9 5 11 14 17 15 18 14 16 16 17 16 15 13 11 11 10 7 8 9 11 12 11 8 9 5 7 9 10 9 9 7 10 8 6 
138 135 133 133 137 140 142 141 151 134 41 12 12 7 3 5 5 8 3 3 6 4 6 9 7 6 8 7 9 10 9 6 6 8 10 6 8 8 9 9 9 6 8 9 10 8 8 11 11 18 17 16 16 16 17 16 16 15 14 10 7 8 6 9 8 11 13 10 9 8 8 10 8 8 9 10 8 8 6 7 
120 116 113 118 114 116 118 117 118 95 26 18 15 15 6 4 10 4 8 8 5 10 8 9 9 7 9 10 11 11 6 11 10 9 11 7 8 8 8 7 8 9 8 11 11 10 8 6 11 12 17 19 20 18 16 17 17 12 8 9 9 10 6 7 7 11 12 11 12 6 4 8 7 14 10 9 7 8 10 7 
106 101 97 97 97 100 96 87 80 56 18 15 17 11 11 10 10 6 8 4 7 11 10 11 10 12 9 9 12 13 11 12 7 8 10 8 8 9 10 10 8 9 7 11 13 11 9 11 13 13 15 18 16 17 17 17 11 9 8 7 11 12 11 8 10 8 10 8 11 11 9 10 9 11 9 10 11 9 7 10 
85 73 72 63 57 55 44 35 32 24 13 15 17 13 9 10 10 4 9 8 10 9 10 10 11 10 8 9 12 12 13 11 9 9 14 12 8 11 9 6 10 10 7 11 11 13 10 13 14 13 14 16 14 16 18 13 8 8 9 15 8 14 9 13 12 12 10 10 16 12 9 9 12 14 13 11 9 7 11 6 
39 30 28 25 27 25 22 22 20 16 12 13 13 11 9 7 10 7 5 3 11 9 9 8 10 5 10 9 11 9 10 8 10 8 12 8 11 10 7 9 11 7 9 11 11 10 9 13 12 7 11 10 13 15 10 9 8 9 10 11 10 11 9 10 11 13 13 12 9 10 11 11 10 13 11 9 12 12 10 8 
28 17 17 19 18 15 21 17 16 13 12 13 16 14 7 5 8 10 4 6 8 9 6 6 7 7 6 7 12 8 7 9 8 9 8 6 8 7 7 5 8 9 9 10 11 9 9 8 11 9 6 8 7 10 5 8 6 8 9 10 10 7 7 11 9 10 11 9 11 9 10 8 11 10 8 8 10 12 10 10 
24 18 18 17 17 21 17 18 13 20 12 15 16 13 10 9 12 7 10 10 11 9 11 7 12 10 7 10 8 10 13 10 10 10 11 10 9 10 9 10 9 10 11 8 10 12 10 10 12 8 10 16 8 11 8 10 8 13 10 9 9 12 12 13 12 13 11 11 15 11 14 13 12 14 8 7 12 10 8 8 
20 13 16 15 18 18 18 17 17 19 15 14 19 15 11 10 9 5 8 10 10 10 8 10 10 10 9 10 9 10 11 14 10 10 14 9 7 10 9 10 12 13 9 12 14 12 14 13 14 11 12 8 7 7 5 11 9 14 11 11 9 13 10 17 14 13 12 14 16 12 15 14 18 17 15 13 11 10 13 12 
18 18 16 15 17 19 13 14 17 17 16 14 15 17 10 8 11 6 4 7 11 10 8 12 11 11 10 10 11 10 16 14 12 13 15 14 10 7 7 6 10 10 7 12 10 15 12 12 6 13 9 10 8 7 9 11 8 10 9 13 10 11 17 15 12 11 13 13 14 10 12 14 15 17 14 15 9 13 10 12 
17 16 15 16 16 12 16 11 15 16 13 14 19 12 9 5 10 7 4 6 10 9 14 13 7 10 7 8 7 14 10 15 11 12 10 9 9 9 8 9 10 8 9 8 10 10 13 11 11 8 9 8 8 7 7 8 8 8 8 8 7 12 10 11 13 14 15 14 13 14 13 15 18 16 11 15 14 9 9 12 
15 17 16 12 14 18 12 12 16 16 12 16 21 13 7 7 8 8 6 5 8 7 9 7 11 10 13 7 9 13 12 12 12 9 8 7 10 10 11 9 9 7 9 11 11 10 10 8 11 10 11 10 10 7 4 8 7 12 13 14 13 13 10 13 15 15 10 10 14 14 13 14 18 16 14 15 14 11 9 14 
13 13 14 11 13 13 12 12 16 15 10 11 13 13 8 7 7 5 3 5 5 9 8 9 5 9 7 11 7 11 14 18 12 12 8 9 8 14 11 7 5 9 7 10 10 11 10 11 9 11 9 8 9 6 6 11 12 10 11 12 10 11 12 13 15 12 15 9 11 15 14 14 18 13 13 13 12 14 13 10 


