P2
80 60
232
181 183 178 172 174 173 172 168 162 160 158 156 150 152 146 143 142 150 153 155 179 219 216 156 92 21 13 14 10 14 14 13 17 15 14 14 13 15 16 15 17 17 17 15 15 17 11 16 15 13 15 21 16 19 20 22 22 19 16 21 20 22 23 20 20 19 19 21 19 21 23 22 27 21 29 23 24 21 21 23 
187 182 177 177 179 173 175 167 161 162 155 158 151 150 144 144 145 148 154 162 189 232 187 136 52 19 14 12 13 10 16 13 17 14 17 14 15 11 16 13 16 16 16 15 13 18 14 15 15 19 14 19 14 16 20 20 19 21 21 20 19 18 20 22 20 22 20 21 18 24 21 26 27 23 26 28 24 23 19 13 
183 178 179 178 174 174 174 168 163 164 158 156 150 153 146 147 145 149 152 168 207 228 166 110 32 17 9 13 13 14 15 12 15 15 18 19 16 14 18 15 14 13 18 14 14 14 9 14 15 18 18 17 13 16 17 16 16 20 20 20 19 20 24 22 23 26 19 21 24 23 20 25 26 25 25 29 23 21 20 20 
186 179 178 175 174 169 169 161 163 155 160 151 151 150 146 143 146 152 160 176 225 206 146 72 19 16 14 11 14 11 13 13 14 13 14 16 17 16 18 14 16 15 15 15 11 13 16 17 15 17 17 15 14 15 16 19 16 19 17 24 18 17 20 25 22 22 18 20 21 23 25 21 26 23 24 26 24 21 21 22 
184 177 177 171 171 167 168 161 158 157 153 151 149 148 144 138 144 148 160 187 225 180 126 41 17 13 13 16 12 14 13 14 13 12 12 13 15 13 12 16 15 14 13 16 11 14 12 13 13 14 17 13 14 13 16 17 14 15 17 17 17 18 18 17 19 19 18 15 20 21 21 22 23 24 21 23 25 21 18 18 
180 174 173 171 170 165 167 162 160 156 150 153 146 145 141 141 142 149 160 201 217 153 96 22 17 11 12 13 11 8 12 11 13 10 15 14 13 13 12 11 12 12 10 14 12 10 11 12 11 11 12 15 13 12 13 16 14 16 16 16 14 17 21 17 18 16 19 16 17 19 23 20 21 20 19 22 24 23 12 17 
179 170 169 173 168 168 166 160 157 156 148 150 147 145 144 140 142 154 170 215 197 136 63 17 14 9 10 11 13 11 8 12 16 14 13 11 12 12 15 9 13 13 13 12 9 11 11 15 12 17 19 15 16 14 13 15 13 15 15 15 20 15 16 17 17 17 17 14 19 19 22 24 20 22 18 22 22 22 17 12 
177 171 169 174 170 165 168 158 155 152 148 151 145 146 144 138 145 156 179 212 167 114 37 19 10 8 10 11 13 10 9 11 14 12 14 11 12 17 13 12 14 10 12 7 9 12 11 12 11 12 14 12 15 11 16 14 11 15 16 16 14 18 17 18 18 14 16 15 18 16 18 19 19 19 21 23 24 20 19 18 
172 169 165 170 163 165 164 159 155 153 151 148 149 146 139 138 142 159 192 203 146 89 19 13 13 9 13 13 14 14 11 17 12 13 14 11 14 13 13 12 16 11 14 10 11 14 13 16 12 12 16 13 10 17 14 17 14 15 11 16 13 15 18 18 16 16 15 18 16 19 18 20 21 23 21 22 23 20 16 20 
169 169 168 166 166 158 163 155 153 153 152 150 146 142 142 143 146 167 206 180 130 57 13 12 12 10 11 7 11 13 10 13 13 10 12 11 16 14 12 12 13 12 9 10 13 13 14 14 15 13 15 13 15 15 17 16 13 13 19 17 14 14 16 15 19 13 13 15 16 20 19 19 20 19 21 18 21 22 19 15 
169 165 167 163 163 161 163 155 152 151 151 150 145 146 142 138 150 179 205 157 113 34 15 13 13 9 10 13 12 12 15 11 13 12 14 13 16 15 12 14 15 12 12 11 12 16 15 19 19 18 14 18 14 16 14 17 14 15 14 18 16 15 16 15 17 19 17 19 19 21 18 21 20 18 20 22 19 20 16 15 
169 162 161 162 163 163 156 156 152 148 150 143 146 141 142 142 153 193 195 137 82 18 12 8 9 6 12 12 12 9 15 14 11 12 13 9 11 12 11 10 14 16 13 11 11 14 15 18 17 20 15 16 12 15 13 16 13 13 17 14 17 16 14 14 18 20 15 19 17 19 19 20 22 19 23 21 20 19 18 16 
165 163 163 165 159 158 155 155 153 151 147 147 145 141 143 140 160 200 178 126 53 13 9 12 11 7 12 12 12 11 13 12 10 10 11 10 10 8 9 11 12 14 11 9 15 15 18 21 23 17 20 20 17 17 14 15 15 14 15 18 20 18 17 12 12 18 14 16 17 22 21 22 21 20 23 21 21 18 14 16 
166 162 163 158 160 158 155 153 153 146 142 145 143 142 141 147 168 202 154 106 32 13 9 11 8 9 12 11 12 11 11 12 13 12 12 11 15 12 13 13 10 12 11 9 11 14 15 20 17 19 17 21 17 16 19 19 17 14 14 16 17 14 15 13 16 12 16 18 17 17 21 19 20 19 19 19 20 19 17 21 
163 160 158 159 160 161 157 152 152 147 147 147 140 140 142 146 182 191 135 83 15 11 8 6 8 10 12 15 8 13 11 11 11 11 12 9 13 15 14 11 12 14 9 9 16 20 20 19 16 21 18 20 17 19 20 20 18 16 17 14 15 15 19 13 14 14 18 15 22 18 22 20 20 22 23 19 18 18 17 17 
165 161 157 161 155 153 151 153 150 142 144 143 139 140 143 156 195 176 120 55 12 13 8 5 10 11 11 13 11 12 12 12 12 11 11 10 13 13 10 10 14 13 13 13 17 19 19 20 17 17 17 18 22 20 21 20 22 19 22 19 14 16 15 16 15 16 19 18 19 19 20 21 18 21 21 23 20 23 19 16 
163 158 159 155 157 154 152 151 148 145 146 142 139 142 146 168 196 157 111 29 12 13 8 10 12 11 16 10 13 13 13 10 13 12 9 10 13 9 12 13 11 11 13 13 15 18 19 18 19 19 21 20 16 17 20 21 23 18 18 20 20 16 16 15 15 14 16 17 18 16 16 19 17 19 21 20 22 22 20 22 
159 156 158 158 156 153 152 150 148 148 145 141 139 144 146 182 189 143 87 15 8 12 6 9 10 10 11 14 10 10 11 15 13 13 11 10 10 10 13 11 11 9 12 12 12 17 16 14 17 19 21 20 21 19 20 20 21 20 20 20 17 22 20 15 11 19 13 18 17 16 14 15 20 21 20 24 23 22 23 21 
162 157 156 154 154 152 154 150 149 145 142 141 141 143 155 195 173 129 60 7 8 8 7 7 9 9 15 11 13 10 9 7 10 9 11 11 10 10 12 14 13 10 13 14 12 13 15 11 14 13 16 18 19 18 17 19 19 18 19 18 19 19 21 23 18 17 15 19 19 16 17 19 24 20 25 23 19 24 21 19 
159 159 156 156 153 152 153 150 147 143 141 143 143 148 167 196 156 114 31 11 8 9 9 8 10 12 13 13 12 12 12 12 13 11 13 14 10 15 13 12 13 10 13 15 13 15 12 11 11 13 14 16 16 19 17 18 20 25 21 21 22 20 21 19 22 21 14 19 20 20 16 21 20 23 23 24 23 23 19 24 
158 156 156 151 152 152 149 144 142 141 142 141 139 150 180 187 135 91 16 7 10 7 9 7 10 11 12 11 10 12 13 11 11 11 10 12 13 15 13 11 12 12 13 11 12 15 14 14 15 14 15 15 16 15 18 20 19 21 16 20 20 16 25 19 21 24 25 24 19 22 18 19 17 19 21 21 24 23 18 17 
160 152 155 156 151 151 148 142 142 141 139 142 140 156 191 165 118 59 11 8 10 8 8 9 6 10 10 12 11 9 13 12 14 8 10 11 10 12 13 9 11 13 13 16 13 13 13 12 16 12 16 14 15 14 14 16 18 19 18 18 21 21 22 24 20 26 22 25 25 25 20 20 21 22 21 19 22 24 17 22 
156 158 149 151 146 149 148 145 141 141 138 141 146 164 188 148 103 37 10 10 11 9 10 10 10 14 12 9 13 13 10 12 10 10 10 11 11 10 9 7 12 12 11 11 13 11 12 13 12 12 16 14 14 14 14 16 14 15 16 19 20 22 23 22 21 23 22 24 23 26 24 25 21 22 23 21 24 21 16 20 
155 148 146 147 146 147 145 141 135 138 140 142 143 171 181 128 81 21 9 5 7 5 8 9 11 9 8 9 8 9 8 8 8 9 7 9 9 9 10 8 9 10 13 10 12 14 9 13 11 10 9 11 10 12 16 15 15 13 13 13 13 18 20 24 25 25 23 26 27 27 23 25 19 22 23 21 20 21 20 19 
155 150 149 149 146 146 145 142 138 137 138 140 149 179 166 119 58 12 9 9 7 8 6 10 12 10 10 13 12 10 9 9 9 11 10 12 11 12 10 8 9 10 13 11 13 12 11 12 11 10 15 12 14 12 13 16 13 14 11 12 15 12 11 20 23 22 24 24 28 29 24 22 22 25 28 28 27 29 20 21 
154 150 151 149 147 148 144 140 139 137 139 143 152 186 148 105 42 14 8 8 11 6 11 10 8 9 12 11 10 9 10 8 10 9 10 10 12 10 11 9 10 10 11 14 12 13 11 12 11 10 11 14 13 9 13 12 14 17 13 13 10 12 11 11 18 19 24 25 27 25 26 22 21 26 26 27 26 28 23 22 
154 151 146 147 147 147 143 145 143 141 142 147 165 183 134 89 24 15 10 7 13 11 10 9 9 12 11 13 10 11 12 12 11 9 12 12 13 11 13 10 13 14 15 13 12 13 13 12 7 10 16 13 12 13 14 17 15 17 14 12 11 11 11 12 15 16 20 21 26 27 27 26 27 27 31 29 28 27 27 27 
150 149 145 146 147 143 147 140 136 141 139 147 172 171 123 68 14 10 9 5 9 9 8 8 9 12 11 12 12 9 13 13 11 12 11 6 12 10 15 11 11 15 11 14 13 13 11 15 11 14 13 16 11 14 17 13 15 13 13 11 9 9 10 13 15 19 17 18 22 24 26 24 25 26 29 26 27 28 23 23 
150 148 146 145 148 142 144 139 140 137 142 154 181 155 107 46 13 14 9 10 10 8 8 11 7 11 14 9 10 11 11 13 8 11 10 12 11 11 15 13 13 13 14 15 14 13 12 10 12 14 11 14 14 13 14 15 16 13 13 13 12 11 12 10 16 19 16 20 22 21 26 24 27 23 28 27 28 26 23 22 
149 148 146 148 146 147 143 138 138 140 143 161 181 144 95 27 12 16 10 8 9 7 9 9 10 14 11 11 10 13 11 13 14 10 13 11 14 15 7 13 15 16 16 16 17 17 13 13 15 14 14 12 14 13 14 13 12 12 15 11 9 13 14 15 15 21 19 19 21 24 27 26 29 28 25 28 26 30 22 21 
150 146 145 143 145 144 143 140 136 142 146 171 173 126 76 14 9 13 9 9 8 11 6 7 9 6 11 14 9 13 12 10 13 9 12 12 11 11 10 14 14 17 15 15 15 17 14 11 12 14 12 15 13 9 13 13 12 11 18 12 6 9 11 11 15 20 19 17 21 26 28 29 28 28 30 29 25 24 24 25 
149 141 142 143 144 143 140 139 136 138 151 180 160 117 61 12 6 12 8 7 8 10 3 7 9 14 10 10 9 10 12 13 13 11 11 9 11 13 13 10 16 16 16 18 15 14 16 15 10 9 11 13 13 13 11 14 11 11 12 11 12 7 12 13 11 17 19 22 26 27 28 30 28 27 27 23 23 26 23 27 
150 146 144 142 144 140 139 135 138 140 157 185 148 107 36 8 10 9 9 8 8 11 9 13 10 8 10 11 11 10 9 11 11 10 6 12 13 12 11 11 17 15 19 16 18 18 14 11 13 14 14 12 13 12 9 13 13 13 12 11 10 11 11 12 18 20 23 29 28 26 29 33 28 26 26 24 26 28 25 28 
148 144 143 142 142 143 140 139 136 141 165 182 136 95 20 7 6 8 4 7 10 10 11 6 5 11 10 10 10 7 10 10 9 8 6 8 8 10 12 12 15 15 17 20 19 17 13 16 12 9 12 14 13 12 12 13 13 15 15 10 11 11 12 12 17 24 24 24 26 30 31 34 24 25 26 25 24 30 27 23 
148 141 141 141 141 144 142 141 144 147 179 175 125 79 12 8 7 11 8 8 7 9 8 8 9 9 9 14 12 14 12 12 12 9 9 9 12 10 9 14 15 14 16 19 17 15 14 11 12 10 12 12 13 11 15 15 19 13 14 13 7 13 16 19 23 25 25 28 29 29 28 30 31 25 24 23 24 29 26 21 
146 142 142 145 143 139 139 136 142 155 188 165 114 55 9 6 9 13 9 12 9 8 11 7 11 10 9 8 9 8 8 10 11 11 8 10 13 10 10 13 16 13 15 13 16 15 11 11 11 12 11 13 10 14 11 15 18 13 14 10 9 15 19 21 23 25 27 27 29 28 29 25 24 23 19 19 21 28 18 21 
141 141 142 143 142 137 138 139 145 161 195 154 106 33 10 8 9 14 10 12 8 7 10 8 8 11 10 10 9 10 8 10 12 9 11 9 8 10 8 13 13 14 17 14 13 15 15 13 11 11 8 12 10 12 14 16 14 13 10 9 14 17 20 23 23 25 22 27 30 29 25 25 25 25 24 18 19 22 24 18 
143 143 141 141 144 141 142 141 150 173 187 140 92 23 8 5 8 12 10 12 12 6 10 8 12 14 10 11 13 10 8 12 12 11 13 13 8 9 12 11 14 14 15 15 13 17 15 10 12 12 10 14 15 13 12 14 14 18 13 16 18 22 27 22 22 26 26 24 29 28 22 21 19 21 21 18 20 23 18 19 
144 140 143 140 139 137 138 144 149 184 180 133 73 12 9 5 10 14 9 10 11 9 11 11 10 7 12 11 13 11 12 13 14 12 9 9 7 12 9 12 15 13 15 14 9 15 14 16 15 13 12 13 13 13 16 13 13 12 14 23 18 22 22 23 22 26 26 26 26 26 22 21 26 21 23 18 21 18 20 26 
145 141 141 140 139 137 141 141 156 188 164 120 54 7 2 4 2 11 8 9 10 10 12 7 9 7 9 5 8 10 11 13 11 12 8 7 8 11 13 12 12 14 11 11 11 13 12 13 11 11 15 17 14 12 11 12 16 17 17 21 19 17 19 23 22 23 23 20 21 19 19 23 19 20 18 16 20 18 17 19 
142 140 139 141 136 139 141 144 166 187 150 111 34 12 5 4 7 12 6 8 8 12 10 11 11 9 8 10 9 11 14 11 12 9 11 8 11 8 8 16 12 13 13 13 13 13 12 15 10 11 12 16 15 15 15 13 16 22 21 21 21 21 21 24 23 21 22 17 24 21 22 19 22 20 23 20 19 17 19 20 
144 142 141 142 141 140 145 149 176 184 141 98 25 13 8 4 6 8 4 9 7 13 9 13 12 13 9 13 9 10 12 11 13 13 13 11 10 11 14 12 13 15 14 13 14 14 14 12 12 14 12 17 18 17 17 20 21 20 21 20 19 24 23 22 23 21 20 17 21 20 19 18 22 21 19 16 23 19 19 18 
146 141 143 141 141 142 146 152 182 172 127 75 17 15 5 4 5 8 9 7 9 10 7 12 9 10 9 12 11 10 14 11 12 12 13 9 12 8 12 13 13 14 13 14 16 13 12 13 13 13 14 13 15 17 22 22 25 25 21 21 24 20 20 22 21 21 18 20 19 18 21 19 21 21 24 20 22 21 18 17 
143 143 140 141 139 140 143 155 186 159 123 53 8 13 5 0 2 5 5 7 9 11 8 9 11 9 12 7 9 7 10 9 7 11 12 10 11 12 13 13 15 12 17 12 14 11 13 13 15 15 14 14 17 22 22 21 21 21 21 21 17 20 20 21 18 19 20 16 14 15 17 17 22 17 20 21 20 21 16 20 
143 141 137 141 140 143 148 167 184 155 114 41 8 16 5 4 6 10 5 6 7 8 7 7 14 10 13 12 10 9 14 9 10 10 9 13 13 10 14 11 16 14 14 16 11 14 18 16 16 15 15 17 18 22 25 21 23 21 23 21 22 20 21 21 13 17 20 19 19 19 18 20 20 21 21 21 15 20 17 16 
146 145 146 142 141 144 150 177 189 152 109 29 11 14 5 5 3 7 10 9 9 14 10 11 12 12 13 10 12 11 11 14 12 13 15 14 16 13 15 13 17 14 14 17 16 14 14 18 18 19 19 23 24 23 24 23 23 24 24 21 22 20 17 18 19 22 20 21 20 17 19 16 20 24 17 22 23 20 19 16 
143 142 143 143 148 149 157 192 194 156 92 20 11 11 5 5 1 7 6 8 8 7 8 9 13 7 12 12 11 8 10 15 13 13 10 12 16 10 16 13 15 13 15 14 16 14 13 16 14 17 22 26 24 24 24 21 21 22 22 22 18 16 16 14 20 18 19 16 20 20 16 18 25 20 17 19 22 19 17 17 
140 142 144 147 152 155 166 194 184 157 66 14 7 7 2 2 3 7 4 9 9 7 11 8 8 13 9 10 11 11 9 13 9 10 8 9 11 10 14 12 15 15 14 15 13 14 10 15 14 18 21 23 22 23 21 20 22 21 21 18 16 15 15 17 17 18 18 17 17 20 19 16 17 23 17 20 20 18 16 18 
143 135 138 136 135 135 137 146 151 123 43 13 8 9 5 3 1 6 6 8 7 7 10 10 7 8 8 9 9 11 15 14 13 13 9 9 12 12 13 11 13 15 16 13 15 10 12 11 15 19 20 21 21 21 23 24 25 22 18 13 15 14 17 18 16 18 21 17 20 17 20 14 23 19 21 19 19 19 17 13 
126 115 117 118 111 112 114 114 119 90 24 15 6 8 0 6 1 6 5 6 7 6 10 10 8 9 9 10 11 9 12 11 11 11 10 10 9 13 12 11 16 12 13 16 15 13 13 13 14 17 20 20 21 22 21 20 22 14 15 14 12 15 16 20 19 15 15 20 17 19 14 20 14 20 23 15 21 17 15 18 
110 104 100 99 96 97 93 89 81 51 20 17 8 7 8 5 4 9 7 11 11 8 9 14 12 9 11 13 14 12 10 11 11 13 13 14 12 14 11 12 15 15 13 14 16 11 15 18 13 13 20 23 21 23 21 20 17 16 14 16 18 15 15 17 19 18 19 16 22 20 20 22 20 26 24 20 19 16 15 19 
84 74 67 66 55 53 42 39 25 19 17 15 7 15 3 9 6 10 9 11 10 10 10 14 13 14 11 11 13 13 12 15 16 12 12 13 12 16 17 12 14 17 13 18 15 15 16 14 15 14 22 23 22 22 25 20 16 18 14 16 18 17 18 20 22 22 23 20 24 23 21 18 24 25 20 22 22 18 13 13 
41 29 25 29 27 24 24 19 16 18 12 15 8 13 6 4 5 11 9 9 12 15 13 11 17 11 10 8 15 14 13 14 12 12 13 12 16 12 16 13 14 13 15 18 11 13 13 14 13 16 15 20 17 22 17 16 17 15 15 17 17 16 18 20 21 23 21 20 22 20 18 22 20 20 21 22 23 18 18 14 
27 17 19 22 24 22 19 15 9 15 13 16 11 15 3 4 5 10 9 10 9 8 10 10 11 11 11 9 10 13 10 12 10 10 11 13 13 13 13 14 16 14 12 14 16 14 14 13 12 14 10 16 14 15 13 14 16 18 16 16 17 16 16 17 17 19 17 20 21 22 22 21 21 22 21 22 22 21 21 18 
25 19 18 19 20 19 20 18 14 13 14 14 11 12 9 7 4 16 11 10 13 11 11 12 12 13 12 11 13 14 13 16 15 14 13 11 16 13 15 14 17 17 17 15 17 15 13 15 14 13 14 17 16 16 17 15 20 17 13 17 19 19 17 18 22 22 20 23 26 24 25 25 22 27 28 22 25 22 19 21 
20 20 19 21 19 19 17 15 15 14 18 17 13 11 6 6 4 9 11 8 10 11 13 9 15 13 11 14 11 16 17 14 14 16 15 14 13 13 12 15 19 18 13 16 18 16 18 17 16 17 18 18 14 16 15 18 16 18 16 18 20 19 19 21 23 20 20 21 25 28 26 24 27 25 27 29 29 25 21 22 
21 21 16 16 21 18 17 14 13 13 14 14 14 15 10 5 7 12 9 7 9 11 14 10 16 10 14 13 13 14 17 17 15 12 14 16 14 14 15 14 17 17 14 16 16 15 15 16 15 16 16 19 12 15 15 17 18 15 17 18 19 19 21 20 20 23 23 22 24 25 23 24 20 26 26 24 26 19 19 18 
17 17 21 17 15 19 16 13 15 12 11 12 13 11 6 9 6 9 9 7 10 11 12 9 14 11 12 11 11 15 16 12 13 10 15 11 13 14 14 15 15 16 16 16 14 15 17 16 15 14 13 15 14 15 14 17 17 15 14 15 16 17 18 21 20 21 20 23 26 21 22 27 24 28 22 23 23 21 18 18 
18 12 14 15 17 17 15 10 11 15 13 16 11 13 12 7 9 8 7 5 7 9 12 13 15 11 14 12 12 13 12 13 13 13 11 13 11 15 14 16 15 14 15 16 16 15 12 16 14 15 16 15 16 16 15 14 16 17 17 20 17 20 21 21 22 23 19 21 25 23 23 24 24 29 26 23 24 23 18 17 
20 9 13 13 18 15 19 11 14 13 18 13 13 12 8 4 8 10 11 8 9 7 9 11 10 10 13 11 13 14 15 13 14 12 13 14 14 14 14 14 14 14 16 17 13 16 12 14 14 14 13 14 15 13 13 20 17 15 17 17 19 19 21 22 20 24 21 24 27 24 22 23 26 24 25 26 24 23 19 17 


