P2
80 60
242
221 220 223 216 218 219 219 217 221 216 218 221 226 232 230 230 231 223 215 212 211 213 211 209 208 210 209 211 219 216 217 220 228 224 226 226 228 234 239 242 241 237 235 236 232 233 233 236 231 230 236 232 232 232 227 217 223 225 217 223 224 223 222 224 221 223 225 226 220 222 220 216 219 224 214 211 214 205 207 205 
231 226 222 216 223 212 213 212 220 215 221 220 227 224 230 225 219 218 210 211 213 208 207 212 205 205 211 210 213 213 217 221 216 220 225 227 225 236 234 239 236 232 237 235 233 235 234 230 227 230 233 233 229 222 226 220 224 224 226 228 223 219 214 222 222 226 218 222 216 214 213 221 214 215 218 209 213 212 205 205 
227 226 220 220 220 214 215 221 218 218 222 217 231 227 225 225 216 216 206 213 214 209 209 205 206 207 208 212 214 212 218 217 223 219 226 225 226 233 231 235 234 233 233 229 231 232 230 229 230 228 230 226 228 223 224 219 220 223 223 219 221 217 217 226 221 220 218 218 216 210 221 217 218 216 216 213 206 205 207 207 
228 223 225 216 223 213 221 219 225 216 224 221 222 228 230 229 222 209 206 210 213 209 210 207 208 205 211 214 211 212 218 217 222 219 226 226 225 231 235 241 239 233 230 235 235 235 236 231 233 230 237 226 228 228 224 220 219 223 222 225 219 220 217 215 216 217 221 219 216 217 215 218 217 218 214 215 210 209 206 202 
230 225 223 217 218 213 217 215 221 210 219 215 225 227 218 224 218 213 210 207 207 209 205 211 206 204 206 206 209 212 215 219 222 219 223 226 229 234 229 236 238 233 233 233 237 226 234 225 228 226 229 226 226 222 221 214 219 221 218 221 221 218 215 213 213 214 219 219 216 221 218 216 210 219 214 209 214 206 205 202 
226 227 224 221 226 221 218 218 222 211 216 215 218 224 224 226 219 211 208 207 208 206 209 206 206 210 214 213 214 210 214 219 219 221 221 226 226 228 235 233 232 230 234 231 233 230 230 231 223 229 227 223 227 225 222 220 219 217 219 222 220 222 215 214 218 223 218 219 220 217 215 218 213 217 219 213 206 208 203 198 
225 218 219 215 212 209 209 212 211 212 211 215 214 219 219 226 213 210 211 202 208 205 209 211 207 209 207 211 211 212 215 217 218 224 222 224 227 233 233 230 234 232 238 232 233 231 228 225 220 229 226 228 224 220 219 218 217 216 217 217 218 218 214 217 216 219 219 216 217 217 214 219 211 213 215 214 209 200 203 202 
221 214 212 211 210 208 210 207 206 207 209 215 214 217 220 218 212 209 209 205 210 204 208 208 204 207 206 210 210 209 212 218 223 218 222 223 223 231 229 230 232 232 232 232 230 230 229 227 226 225 227 226 228 220 219 215 216 217 218 218 217 217 215 220 220 213 209 220 219 214 211 210 211 214 218 207 205 204 203 202 
219 214 214 212 205 205 213 206 209 209 212 211 215 216 222 221 212 211 210 207 210 211 207 213 208 207 208 210 211 212 213 218 218 217 218 220 220 228 225 230 228 226 228 232 232 226 227 225 224 227 229 224 224 222 218 211 215 220 218 215 217 213 213 218 212 219 213 216 215 214 210 215 217 214 210 209 210 201 202 205 
210 207 207 207 210 210 209 206 210 208 207 212 212 215 220 221 211 213 209 210 217 205 206 207 207 208 211 210 210 210 216 218 222 218 223 221 222 228 228 226 225 225 231 225 230 228 231 227 223 223 225 224 224 223 218 213 217 214 214 215 218 214 218 217 217 213 216 215 215 218 217 212 213 216 216 207 206 200 202 200 
197 200 204 202 204 204 206 209 206 209 212 212 214 211 209 217 214 213 215 208 210 207 214 213 211 211 213 213 214 212 213 218 221 217 222 216 224 228 227 233 228 221 224 232 228 229 225 225 228 226 226 224 223 222 221 212 215 221 213 218 217 218 215 217 213 216 213 219 216 219 211 215 212 214 216 208 208 207 200 202 
201 199 197 196 204 203 204 202 205 202 208 206 213 210 207 215 210 215 207 207 208 207 205 207 207 208 210 207 212 208 212 215 219 215 216 218 218 221 222 223 224 219 224 225 228 224 224 224 223 222 222 219 220 218 220 212 213 216 214 212 217 212 212 209 213 215 214 215 212 213 212 216 211 215 217 202 203 202 194 197 
193 193 195 191 200 196 201 201 204 199 203 203 205 213 207 213 211 217 210 205 207 212 214 209 207 211 210 212 214 209 214 217 210 212 216 219 216 216 223 222 221 219 218 224 223 218 220 218 220 225 217 217 218 219 216 214 214 216 214 211 211 212 211 212 209 212 212 210 213 215 212 214 211 208 209 209 199 201 195 195 
184 187 193 185 192 193 196 192 196 194 202 195 210 209 201 212 208 211 209 205 209 203 207 206 209 203 209 211 209 209 212 215 216 206 215 217 216 218 219 219 215 217 218 220 220 219 216 218 221 224 218 219 218 218 218 210 214 214 212 217 208 209 206 210 208 209 211 209 213 212 210 213 212 206 210 199 199 200 195 195 
186 188 187 187 189 189 200 198 199 195 198 198 204 202 207 209 208 216 208 205 210 207 207 210 204 206 207 211 213 207 210 211 212 208 216 210 215 218 214 216 216 215 212 218 216 214 214 218 217 218 222 218 220 218 215 213 213 219 214 215 209 207 212 210 211 207 215 211 208 208 207 209 209 208 204 201 201 197 194 199 
177 181 183 182 188 194 197 196 196 194 198 197 200 206 206 210 209 215 204 206 207 204 209 210 206 207 205 210 210 207 206 212 211 207 212 213 211 217 218 216 216 214 217 219 215 214 217 211 216 214 213 219 216 215 216 213 213 215 213 214 212 209 207 209 205 208 211 211 207 207 208 207 206 210 207 200 197 199 193 194 
179 177 182 178 186 190 193 196 198 191 199 197 204 207 198 211 206 211 208 207 211 210 210 210 210 207 207 215 212 207 211 210 209 209 212 210 209 217 219 215 216 208 216 219 215 216 215 212 213 214 215 219 217 217 224 214 214 215 211 210 210 212 209 211 208 205 213 212 212 211 206 208 203 208 206 199 200 195 192 191 
171 172 174 178 180 192 198 186 198 195 193 195 201 207 198 210 206 208 207 206 210 207 212 213 209 208 209 207 209 206 207 210 212 207 212 210 210 215 211 213 214 204 216 213 212 208 208 210 215 211 213 212 212 211 219 215 215 210 213 208 206 208 207 210 207 205 206 207 209 208 205 205 205 201 206 198 199 193 189 192 
175 168 175 177 182 187 190 193 198 197 196 199 203 207 204 211 206 210 206 200 207 210 212 207 207 209 208 207 206 205 203 209 208 209 211 208 210 215 212 215 206 208 212 210 211 208 211 205 210 215 211 214 212 212 214 210 218 215 215 214 214 212 202 207 206 206 208 205 208 203 198 205 200 206 207 197 194 194 187 187 
176 178 178 175 182 187 193 195 197 198 201 206 207 206 205 214 215 210 208 207 208 209 214 209 206 204 210 209 210 205 206 209 210 206 210 209 209 211 210 213 212 207 208 214 211 209 212 208 212 209 205 208 212 211 210 209 217 216 212 216 211 211 208 209 210 205 205 209 203 205 205 204 205 200 207 196 193 191 190 190 
175 179 181 179 187 194 198 196 201 204 202 199 206 211 206 218 217 209 207 211 213 212 213 209 211 208 208 208 208 207 210 212 212 205 212 207 208 212 211 217 210 210 210 211 208 208 207 207 210 209 210 213 209 212 214 211 214 219 220 213 211 210 205 208 210 206 206 208 207 203 206 208 204 201 203 201 192 195 193 197 
180 182 180 181 189 191 199 197 205 201 206 202 205 206 210 216 215 209 209 205 210 210 213 211 207 205 207 210 209 210 209 208 212 207 205 208 209 212 210 212 204 206 214 206 210 211 206 207 208 205 209 210 206 211 212 209 214 215 220 210 210 207 208 207 207 204 207 203 204 206 199 200 198 200 205 198 199 190 189 192 
179 179 184 190 196 199 201 204 202 201 205 204 209 217 209 213 216 210 208 208 211 212 215 211 205 205 207 210 209 206 210 213 216 208 208 207 209 208 207 210 207 204 204 207 203 206 205 201 201 206 207 200 210 207 207 207 209 214 211 213 211 213 207 204 205 202 206 202 202 206 199 199 198 196 198 194 191 193 185 191 
185 184 187 190 198 197 207 203 206 205 211 208 211 212 208 212 218 215 208 206 216 210 212 210 208 206 207 213 213 211 210 211 211 206 205 206 209 210 209 205 208 206 208 205 207 208 202 203 201 203 206 205 206 208 204 205 213 213 219 217 215 217 205 208 204 200 203 207 204 205 200 202 198 199 201 193 191 193 186 190 
189 189 191 194 201 203 207 204 210 206 211 210 211 217 205 210 214 213 210 207 210 208 213 213 209 210 208 218 212 209 211 209 209 206 214 207 208 209 204 204 204 202 203 206 207 207 207 198 205 207 205 197 205 210 205 205 212 212 218 212 211 211 204 204 202 203 200 202 202 199 198 197 197 198 198 197 191 182 179 187 
191 190 193 198 204 204 202 208 211 207 211 204 212 209 207 213 217 218 209 210 215 217 218 219 218 214 212 212 212 213 213 212 211 209 202 207 206 211 206 211 207 205 207 207 207 204 202 200 207 203 203 202 201 206 204 200 208 213 217 218 214 212 203 205 202 204 199 200 197 197 196 201 194 198 197 190 185 187 187 187 
196 197 198 197 198 203 206 207 216 211 209 205 213 217 209 215 213 220 215 213 217 214 220 219 219 214 214 216 209 214 216 211 211 205 216 210 206 209 204 209 206 202 207 201 211 201 198 200 203 205 203 201 202 201 207 205 209 216 213 217 214 209 205 206 204 199 200 201 199 198 195 197 194 189 195 194 184 184 179 177 
198 198 204 200 203 205 205 209 213 204 214 206 213 216 211 213 213 220 217 208 216 217 215 216 217 210 220 215 211 208 214 214 214 208 209 208 207 207 204 210 200 200 206 201 206 202 199 199 200 202 201 201 203 199 205 201 207 213 213 218 215 211 207 207 201 202 203 200 194 198 195 198 193 194 193 193 184 184 176 183 
194 204 198 200 200 205 213 209 210 209 209 209 214 211 206 209 217 215 216 213 218 219 218 218 216 217 214 215 219 213 207 213 212 210 211 206 207 207 203 208 208 195 197 201 202 197 200 198 197 200 199 198 198 201 199 202 204 202 210 213 213 209 203 206 200 200 201 198 195 193 188 194 193 188 188 184 181 184 182 178 
205 201 204 204 205 205 209 212 208 209 207 207 213 208 206 211 210 218 215 212 221 218 221 220 219 215 210 216 214 212 216 217 210 209 209 209 206 211 208 204 208 201 203 200 206 200 201 198 200 197 201 199 201 204 200 197 204 210 207 214 213 208 203 206 203 201 198 199 195 196 193 196 195 185 187 182 183 177 176 180 
203 198 198 201 202 205 206 210 213 207 206 206 212 210 207 210 211 214 213 214 219 217 221 221 217 214 211 217 215 216 215 212 211 204 211 208 206 210 202 208 209 199 201 201 203 196 202 197 195 196 196 196 200 198 191 196 203 204 208 210 209 214 206 200 200 198 199 193 196 190 189 186 190 188 185 183 178 177 177 173 
203 191 198 203 200 198 205 205 209 208 210 205 209 208 204 210 214 211 213 220 214 222 222 220 220 216 220 218 217 216 213 213 211 206 212 206 206 212 204 206 209 201 201 199 203 197 197 198 199 195 198 195 199 201 199 198 199 205 203 207 212 213 203 204 200 196 197 198 194 192 189 192 183 182 183 183 176 174 171 173 
199 199 196 199 195 198 203 204 207 208 208 205 207 207 204 210 207 215 216 219 222 219 219 219 220 219 218 222 212 215 211 213 209 211 213 207 204 210 200 206 203 196 198 198 197 195 194 196 197 198 198 195 196 198 195 193 192 201 197 205 206 209 203 202 198 198 199 195 190 187 181 188 179 186 179 177 172 172 167 159 
196 193 193 197 194 195 203 209 205 204 208 202 206 211 204 215 207 211 213 216 219 222 223 220 221 219 223 216 216 215 217 215 216 213 210 210 207 208 203 202 200 197 200 200 194 195 198 190 197 196 193 190 193 192 199 192 196 195 202 199 209 208 206 200 197 193 198 190 191 188 183 183 179 177 176 169 170 161 160 166 
184 187 187 191 193 194 202 207 207 202 208 202 210 202 200 208 208 205 206 213 220 220 217 216 219 216 222 219 216 214 216 217 213 206 211 205 204 205 202 204 205 196 198 197 200 194 192 193 196 191 191 192 192 193 189 190 194 195 199 201 202 203 201 198 197 193 190 189 188 186 179 186 177 177 171 168 166 160 159 159 
181 190 182 186 188 195 195 200 204 205 204 203 207 205 198 204 207 207 209 214 218 217 216 220 218 220 217 216 214 213 214 214 212 207 209 208 204 204 202 202 205 195 192 192 195 193 188 192 192 190 190 191 191 194 192 187 195 194 192 194 198 194 200 196 196 192 192 190 183 182 174 177 172 170 168 166 158 164 156 153 
189 183 188 187 194 190 199 203 203 201 209 202 204 204 196 207 203 207 206 208 214 218 219 217 218 220 221 219 214 218 216 216 216 208 211 208 203 209 206 203 199 198 196 196 196 195 194 191 195 193 190 189 190 190 190 186 190 191 190 193 201 197 200 201 198 193 187 190 188 185 175 172 171 171 166 162 156 156 157 149 
185 183 191 189 186 194 200 196 205 200 206 198 205 199 197 202 199 205 205 207 209 211 218 223 217 222 218 224 212 219 217 215 218 210 210 206 205 205 205 204 201 197 198 196 195 188 186 188 188 188 184 189 187 187 188 186 187 192 195 193 194 195 190 195 195 190 190 189 180 179 172 169 168 166 161 159 154 149 148 146 
181 185 188 191 192 189 198 199 202 203 202 197 200 202 192 201 200 200 203 204 212 217 216 221 221 219 216 223 218 213 218 215 217 207 212 207 204 204 203 203 198 192 193 192 189 191 191 184 187 184 187 185 189 186 182 183 186 190 193 192 188 192 190 190 188 190 185 184 176 176 171 167 162 167 159 152 145 145 140 137 
185 188 189 188 193 195 194 199 206 200 201 192 194 195 195 197 199 200 201 206 204 210 218 220 218 217 218 220 218 218 215 217 210 213 209 207 208 204 199 202 199 192 197 193 194 188 188 183 186 186 189 182 187 188 183 180 185 185 190 189 188 189 189 189 189 181 181 180 178 172 170 167 159 158 151 143 142 139 136 134 
182 183 180 185 197 189 201 197 197 199 201 195 197 196 192 200 198 196 198 204 209 209 214 216 216 214 217 219 221 213 213 215 217 211 211 205 203 208 200 202 196 194 192 192 190 191 184 182 186 186 185 182 184 184 180 178 185 186 182 188 185 184 184 185 184 181 182 180 177 169 166 163 162 154 150 147 141 135 130 121 
178 180 179 185 188 192 196 198 203 203 205 193 190 193 188 194 191 195 198 198 207 208 212 213 213 211 210 217 215 213 212 213 211 208 213 204 203 204 199 198 194 194 191 189 190 184 181 179 183 181 181 182 178 178 181 177 179 183 181 180 183 179 179 181 179 179 178 172 167 164 158 160 151 150 145 139 130 128 118 120 
183 187 186 191 194 197 200 203 205 203 192 190 191 189 188 189 195 195 198 197 204 205 211 216 211 209 220 218 218 215 212 211 210 208 212 209 202 206 199 198 196 192 190 190 186 187 186 182 179 182 182 177 180 179 176 177 182 179 185 184 178 180 176 174 177 177 171 175 169 161 155 153 148 142 141 135 125 121 118 112 
177 181 185 188 190 195 198 200 201 194 190 183 191 188 187 184 191 195 198 199 200 204 208 210 209 213 211 210 212 210 207 209 213 206 210 206 203 206 201 204 191 190 189 190 188 185 183 182 181 178 182 173 177 177 176 173 173 174 176 176 177 172 168 173 175 173 167 164 167 156 147 148 146 140 137 129 115 115 111 106 
181 183 191 184 195 188 199 203 208 198 195 184 182 191 188 192 193 193 194 196 197 199 207 209 208 200 209 208 209 206 208 213 208 209 214 208 201 207 201 200 198 187 189 187 188 181 184 179 183 179 180 174 171 171 174 171 178 171 172 170 174 170 167 167 169 164 161 160 154 153 139 142 136 134 129 120 116 108 102 96 
177 177 183 181 194 191 200 206 207 190 195 181 181 194 190 189 190 189 190 188 194 196 196 200 200 199 205 204 206 198 206 205 207 208 209 208 202 204 198 199 195 185 187 185 183 178 180 180 174 174 179 171 174 172 168 169 169 166 168 169 167 167 163 162 159 157 164 155 151 146 138 134 132 123 118 110 107 101 98 93 
173 175 174 181 190 192 194 208 206 196 192 182 186 191 181 186 183 183 189 188 188 191 191 194 194 190 197 200 201 199 200 200 202 204 203 199 196 198 195 194 191 185 187 183 186 179 175 174 171 170 171 168 164 169 163 162 163 165 163 164 161 156 157 156 157 153 151 150 143 142 126 125 121 115 107 102 95 89 92 86 
173 174 180 185 196 195 200 208 207 197 195 189 185 190 179 181 184 183 183 180 185 188 192 189 188 193 194 196 199 194 193 196 197 200 204 199 201 200 194 195 195 182 181 182 179 172 176 169 173 176 168 169 163 161 162 163 162 156 159 156 154 158 149 149 149 145 150 139 132 133 121 120 114 110 104 98 92 87 83 75 
177 180 186 183 195 190 202 201 206 200 189 184 191 178 176 186 180 181 177 177 181 184 179 185 186 188 192 195 198 191 191 192 194 193 207 199 194 199 196 190 192 182 182 181 183 176 169 171 167 168 168 166 165 160 160 158 159 158 151 154 154 148 149 147 143 142 139 140 131 129 121 111 110 100 99 91 80 80 75 69 
176 176 178 186 190 192 199 202 204 197 192 181 184 179 171 174 180 171 175 172 175 170 174 179 183 187 189 192 196 190 190 188 191 192 205 196 202 197 192 192 193 177 183 186 182 171 176 166 166 165 163 162 163 156 156 154 155 152 154 146 148 147 141 138 136 140 131 128 116 119 106 104 98 94 91 81 77 72 70 62 
172 175 180 187 187 198 199 195 197 191 187 177 178 178 169 169 167 169 164 163 165 167 169 174 175 180 185 191 187 183 184 187 186 186 197 197 196 197 190 190 190 185 180 180 180 172 170 164 156 162 162 152 162 155 150 146 148 151 145 138 142 135 133 132 130 121 120 125 113 111 101 97 92 89 83 72 70 63 58 57 
172 172 172 172 180 181 187 190 190 178 182 172 166 162 159 161 160 160 158 158 161 157 164 168 172 175 181 184 182 178 183 186 181 180 190 191 194 193 187 191 183 179 172 175 174 171 161 160 157 159 155 156 154 146 142 142 140 139 141 133 132 128 123 124 121 111 111 106 104 95 86 85 87 82 70 64 63 47 53 48 
172 165 171 174 180 172 189 184 185 179 175 165 163 161 154 155 155 149 150 155 154 151 160 165 170 171 179 183 176 175 180 177 182 178 186 196 192 189 186 188 180 178 175 175 176 167 165 160 155 151 154 143 142 142 141 129 137 134 136 125 128 122 121 112 108 107 106 97 93 92 82 82 75 72 70 56 54 48 49 43 
167 170 170 176 175 171 181 181 173 169 170 161 159 154 146 144 146 148 147 143 150 153 156 158 166 168 176 176 177 176 172 174 175 173 179 183 189 186 185 183 180 176 175 173 171 165 161 160 151 148 148 145 135 137 134 131 134 128 124 124 116 114 106 101 102 99 96 91 84 80 74 74 68 60 62 51 53 42 38 36 
171 164 174 173 170 166 173 169 171 163 161 150 151 145 142 138 140 144 140 137 146 148 153 159 166 168 170 173 172 168 172 167 175 167 175 186 187 185 179 179 176 175 172 169 160 156 158 153 149 150 146 138 133 125 127 122 119 118 121 114 109 101 100 95 97 92 89 78 79 75 71 67 63 57 52 49 37 39 30 23 
166 164 162 157 159 156 161 153 160 149 151 135 141 136 130 133 133 133 133 130 136 143 157 157 161 162 171 171 167 166 167 167 165 164 164 173 178 183 181 178 170 166 169 165 162 160 157 151 144 145 140 129 124 122 120 117 113 111 111 103 102 97 92 88 86 79 78 80 75 66 60 57 47 51 47 36 38 28 30 18 
156 155 151 150 148 152 149 146 139 144 141 137 126 129 121 129 128 126 128 129 140 143 148 154 156 160 163 167 165 163 163 163 164 161 167 171 181 182 178 179 171 159 165 164 157 155 149 147 135 140 129 126 120 116 112 107 103 100 96 99 94 90 79 77 75 73 68 66 63 56 55 49 47 40 39 29 25 25 17 9 
145 143 140 140 139 136 135 138 131 127 126 128 124 122 115 124 124 127 120 131 131 140 147 150 152 159 160 162 164 159 158 166 163 162 163 163 172 177 170 173 166 158 160 156 153 151 142 138 133 132 127 115 114 105 104 103 93 92 91 90 84 80 69 71 62 59 61 60 59 53 43 45 37 35 32 20 23 20 14 10 
138 132 133 133 131 126 128 128 129 125 122 121 118 113 111 113 119 122 125 128 130 138 136 147 151 153 160 159 161 155 159 156 156 163 159 164 170 168 176 168 163 157 151 152 150 142 137 134 129 123 116 113 106 98 93 93 92 85 84 86 86 72 67 65 61 58 53 51 48 41 30 38 33 29 24 20 16 8 13 4 
125 127 119 125 115 114 132 127 126 124 115 113 114 109 107 111 115 118 121 122 127 136 137 138 149 155 150 160 156 156 156 155 160 154 158 160 164 167 162 159 161 150 153 144 146 132 133 126 124 117 109 101 102 96 88 85 79 80 78 73 71 69 65 58 51 50 51 42 41 39 28 28 19 20 21 15 12 4 1 0 


