P2
80 60
233
198 199 195 190 187 187 179 175 172 164 166 162 158 156 156 160 156 152 158 158 183 219 218 154 89 23 14 12 11 10 11 11 17 16 18 15 15 14 13 15 13 11 12 14 13 11 10 10 14 14 14 20 17 16 20 19 20 19 19 21 22 22 25 22 21 22 21 21 26 23 28 29 28 30 32 33 29 30 30 35 
201 196 189 185 188 183 181 176 171 166 164 158 155 156 153 159 154 149 156 159 194 233 190 136 54 17 14 13 14 8 12 12 11 11 16 14 11 13 12 14 14 12 10 11 12 11 10 12 12 11 13 13 11 12 13 13 17 15 22 21 19 18 19 20 21 19 21 21 21 22 25 25 27 29 31 31 28 26 29 31 
198 189 190 190 180 184 178 176 167 164 161 156 152 156 152 156 153 151 160 170 210 230 167 109 29 20 12 14 12 12 12 12 13 11 17 16 13 10 15 16 15 10 13 13 13 11 8 14 13 15 11 12 13 14 16 16 17 14 22 18 21 22 18 19 20 21 21 22 20 24 28 28 23 28 29 32 31 30 28 28 
201 192 183 188 180 181 177 173 169 161 160 154 155 154 156 157 153 153 165 176 225 208 146 73 19 17 12 9 12 9 9 10 12 12 16 14 14 11 15 14 13 9 10 11 16 14 11 14 13 11 13 12 11 12 15 16 13 14 19 18 18 19 20 21 21 20 19 21 22 22 26 25 27 29 33 28 33 30 28 26 
198 194 187 183 180 181 176 172 169 161 159 156 149 150 153 152 150 154 166 192 229 177 123 44 16 14 11 13 11 15 9 10 13 12 14 13 11 11 12 11 10 10 8 14 15 11 11 9 12 12 9 10 12 7 14 12 14 15 19 16 17 16 19 16 17 18 18 22 18 22 26 24 23 25 25 31 34 30 28 28 
191 187 180 179 179 175 172 175 171 158 159 153 150 151 147 155 152 153 166 205 218 153 94 21 14 11 8 13 8 7 6 11 11 9 16 14 12 11 7 10 11 10 6 12 10 10 9 10 9 11 9 12 9 13 13 11 11 12 16 18 16 16 19 16 21 16 14 18 17 18 24 21 20 26 22 28 29 31 25 27 
190 185 180 178 174 178 172 172 166 160 156 152 153 150 151 151 150 152 171 217 195 134 64 16 9 8 7 10 9 9 8 9 11 9 11 7 9 9 8 8 10 8 4 7 7 6 7 8 8 11 11 10 11 10 12 11 12 12 14 15 16 14 14 15 18 16 17 13 13 18 20 21 19 23 24 25 28 26 22 23 
187 179 176 177 177 174 169 167 166 152 152 153 148 148 151 150 153 152 182 216 166 112 34 12 10 7 9 9 12 7 6 7 12 10 12 13 8 11 9 8 9 7 6 6 5 6 8 7 8 9 5 8 12 8 17 10 9 13 13 13 15 15 16 17 17 13 16 17 15 21 15 18 22 22 26 24 30 23 20 27 
184 180 174 178 172 172 165 170 161 154 153 148 149 148 149 148 154 157 195 202 144 84 21 8 9 10 9 9 12 11 6 13 9 10 12 10 9 10 8 11 10 7 7 7 6 8 9 8 7 7 10 8 10 11 10 14 12 10 11 14 14 12 18 15 15 16 12 16 20 17 18 20 20 20 25 21 26 28 25 28 
183 179 178 173 169 168 167 163 157 154 153 153 148 151 148 152 153 165 208 178 128 55 14 7 9 8 7 6 8 11 6 8 7 7 10 9 8 10 8 7 10 6 7 7 7 8 10 12 12 10 11 8 9 9 14 8 8 10 15 15 14 11 17 14 16 16 12 15 14 15 17 20 21 23 22 22 23 29 23 27 
182 175 175 172 168 170 163 166 160 151 153 150 147 148 149 148 157 177 208 157 111 32 15 11 8 10 6 11 10 10 7 7 8 7 9 8 10 10 8 9 9 5 8 7 8 13 10 12 10 12 9 10 8 10 11 11 12 13 14 13 16 15 15 16 12 14 12 15 16 18 18 20 17 19 23 24 24 24 23 23 
179 172 169 167 167 168 160 161 157 152 154 147 143 147 145 151 160 189 197 134 82 16 11 9 5 6 7 9 10 5 10 9 6 4 11 10 7 7 5 9 4 6 8 8 9 7 8 13 12 16 13 11 8 9 8 10 9 11 13 10 15 11 14 12 12 10 13 17 15 19 20 20 20 22 24 20 24 23 27 28 
176 174 173 170 165 168 161 163 158 152 147 145 143 147 149 151 165 199 177 126 51 12 10 7 6 9 7 11 9 9 7 8 7 8 10 8 8 5 8 9 7 8 6 6 9 8 12 15 15 11 15 13 13 12 10 10 12 12 14 15 15 15 16 10 12 14 13 15 16 17 16 19 17 24 22 24 27 21 21 24 
177 171 169 166 166 162 159 160 157 148 149 145 147 145 147 153 175 199 153 104 28 11 5 5 5 7 10 8 10 8 5 7 7 8 11 12 7 8 7 8 5 6 5 5 5 8 12 15 11 13 15 13 13 14 14 13 14 12 11 13 13 10 11 12 10 13 13 16 16 17 19 17 19 19 20 21 24 23 22 23 
177 169 163 163 167 161 161 156 155 148 146 146 139 144 148 155 189 191 137 81 13 9 7 5 5 10 7 8 8 10 5 6 6 6 10 9 7 9 9 7 3 8 5 7 10 14 13 14 10 15 13 13 13 12 12 13 13 10 12 13 10 12 12 11 15 12 14 13 14 16 19 18 17 18 25 20 20 21 24 28 
174 168 164 163 164 159 157 155 154 144 143 141 139 143 149 163 200 170 124 55 10 9 5 4 8 6 9 9 8 6 7 5 8 6 9 10 7 8 5 7 7 5 3 9 11 13 13 13 11 11 10 11 15 15 11 14 15 14 15 17 12 10 13 12 10 12 14 14 16 14 20 21 18 18 22 22 23 24 27 21 
177 166 169 161 164 160 154 156 150 143 144 145 139 144 149 174 202 154 112 27 9 9 5 6 7 7 9 5 8 8 6 4 8 6 8 7 7 4 6 7 6 5 7 11 10 11 9 12 14 13 14 13 11 13 14 15 15 12 14 18 16 9 14 11 12 14 13 16 10 16 16 18 18 19 21 25 26 23 26 24 
174 166 163 164 161 161 157 157 150 148 146 141 141 147 155 191 195 141 88 15 11 8 6 4 7 7 8 11 8 5 6 7 7 7 11 7 5 6 8 7 6 3 8 8 9 9 10 9 12 12 11 12 11 13 18 14 16 16 14 14 13 18 16 12 8 15 9 15 14 14 16 18 18 20 19 25 26 25 26 25 
177 168 161 161 157 158 156 156 154 144 140 138 138 147 160 203 180 129 61 9 7 6 5 6 6 6 10 10 6 5 4 2 9 4 7 9 6 7 9 11 6 4 6 6 13 9 10 8 11 7 5 8 13 13 13 16 14 13 14 14 15 17 17 19 16 13 10 16 13 12 16 19 17 21 27 22 25 28 28 27 
174 170 164 161 157 156 157 160 152 143 143 142 141 146 172 205 158 111 33 11 9 7 5 8 7 9 10 7 8 6 8 8 9 9 10 11 8 9 7 10 1 5 6 9 12 10 7 5 7 12 7 9 10 10 14 15 15 17 15 18 18 14 19 19 22 18 13 16 14 16 14 18 16 21 22 21 27 27 27 28 
174 167 161 156 157 158 154 151 145 140 140 137 138 151 184 196 142 88 17 6 7 5 5 6 7 7 9 6 6 7 8 5 7 9 8 8 6 8 6 5 6 3 3 6 10 10 7 9 7 8 6 5 9 7 12 15 11 12 13 16 15 12 17 14 20 20 19 19 14 17 17 16 16 19 18 21 24 27 21 27 
170 165 159 161 156 154 153 154 145 139 140 138 141 157 192 173 125 59 12 6 6 5 4 6 6 6 8 8 9 6 5 6 8 4 11 4 5 8 7 8 4 8 5 7 9 7 7 5 9 6 6 8 6 6 11 10 10 14 15 12 15 18 20 17 18 20 19 21 18 18 18 19 21 19 21 21 25 27 23 23 
172 165 155 155 155 159 155 153 147 140 139 140 144 165 197 156 110 33 12 7 4 4 7 7 5 9 9 4 7 7 4 7 4 7 7 9 8 8 4 5 5 3 4 6 10 8 5 5 3 8 9 7 6 9 9 11 10 10 14 14 17 18 17 18 20 21 21 21 19 23 25 22 24 22 21 18 26 23 24 27 
172 163 156 156 155 155 152 154 142 138 141 140 144 177 187 135 88 16 11 4 4 1 3 8 5 8 5 7 6 5 5 5 6 7 4 6 6 2 8 3 5 2 8 7 9 7 6 6 7 6 1 4 5 8 10 9 6 8 9 9 11 12 13 18 23 19 19 23 20 24 24 21 15 23 22 22 29 29 23 26 
168 161 158 155 150 150 149 150 147 139 138 139 145 179 170 125 64 11 5 5 8 8 3 7 7 5 7 9 7 7 1 5 4 5 6 6 6 4 4 3 1 3 4 6 9 6 6 8 5 5 5 4 8 7 7 11 6 4 9 8 9 10 9 12 20 17 20 19 20 24 23 22 19 24 25 27 32 31 27 29 
160 158 155 153 153 152 146 146 143 140 142 144 150 184 154 111 47 12 10 10 9 11 8 5 5 4 8 8 5 3 7 3 5 4 5 7 5 5 6 6 2 2 4 5 8 9 5 9 5 4 4 4 6 4 7 5 6 8 7 9 3 6 4 8 15 14 19 21 23 23 23 20 20 27 28 23 28 28 27 27 
163 159 154 150 151 155 146 148 144 142 139 143 165 184 138 96 30 11 9 8 6 11 7 5 6 7 7 9 6 7 7 5 8 5 10 8 6 7 6 5 7 6 9 7 11 7 7 6 4 4 9 8 6 7 7 9 10 11 8 7 9 8 8 11 12 11 16 16 21 22 23 23 23 26 29 29 30 29 32 29 
162 156 153 151 152 152 149 146 143 141 136 146 172 171 126 74 17 12 10 5 8 9 6 8 5 7 6 9 7 7 6 4 5 4 9 8 8 7 7 7 5 6 5 10 10 8 6 8 7 8 5 10 3 8 8 5 10 5 8 6 8 7 8 8 9 13 15 15 18 21 23 21 24 28 28 26 28 31 27 33 
159 156 152 151 146 146 146 146 140 137 140 150 177 159 110 52 17 12 9 7 4 4 5 3 5 7 9 5 6 7 7 7 6 4 5 8 5 7 6 8 8 7 7 7 11 5 7 8 6 3 6 8 7 8 8 8 7 6 7 5 8 8 7 7 11 10 13 12 14 17 21 23 25 26 29 25 30 29 29 24 
158 157 155 152 149 150 143 144 143 134 140 157 180 144 101 34 15 11 10 8 7 6 8 6 9 6 8 8 5 9 7 8 8 4 8 5 7 7 4 5 7 10 7 11 11 9 7 7 7 8 8 7 5 6 8 9 5 9 7 4 7 7 8 9 10 12 12 14 16 21 22 23 22 29 25 25 31 31 27 27 
158 154 152 148 150 147 142 142 141 141 144 168 171 126 77 23 14 9 9 7 8 6 7 5 3 5 6 11 5 8 9 3 6 6 8 8 8 5 5 7 9 9 8 10 12 10 7 7 7 8 5 6 6 4 5 6 6 5 7 5 4 6 10 7 7 11 10 9 16 21 24 21 24 27 29 26 27 24 28 28 
157 152 150 152 153 146 142 141 140 139 152 181 163 116 64 17 12 9 8 5 9 13 6 8 6 8 9 6 9 5 5 7 8 5 11 7 4 7 6 6 8 8 8 10 10 11 8 9 7 8 4 8 7 7 4 7 5 7 10 8 8 3 7 9 11 10 15 22 24 24 29 24 24 29 29 25 25 28 28 25 
158 149 147 146 150 144 141 139 139 139 157 187 151 107 43 15 13 7 6 5 7 9 4 5 5 5 7 9 5 6 6 6 5 7 5 10 6 7 5 8 9 9 10 12 12 12 10 8 5 10 7 6 5 6 7 5 4 6 10 6 8 8 8 8 13 13 18 22 22 20 27 26 21 27 26 25 27 26 27 27 
154 151 150 144 146 145 140 142 139 141 167 181 135 96 27 15 11 5 6 0 7 4 4 3 3 6 5 7 7 3 5 6 7 4 6 6 4 5 6 9 9 8 10 11 15 11 9 7 4 4 4 4 5 4 7 9 7 6 8 4 7 7 7 6 12 19 19 20 22 26 26 25 18 22 25 24 27 31 29 27 
156 148 150 146 148 144 142 146 145 149 177 173 124 80 21 15 9 8 9 5 6 9 7 4 4 8 6 8 5 9 6 5 5 2 6 7 4 5 5 7 7 7 8 12 11 13 10 5 6 6 5 12 8 3 9 9 11 5 8 9 5 7 10 14 17 19 20 24 22 25 28 24 22 22 21 23 24 28 31 30 
151 156 149 150 148 145 143 141 147 154 184 161 116 56 16 14 14 7 11 10 7 8 8 5 7 5 8 6 9 6 6 5 6 6 5 6 6 4 7 6 9 7 10 11 12 11 7 7 7 9 6 9 7 9 9 11 9 9 9 10 8 9 17 15 20 20 24 23 22 24 27 25 22 23 22 19 25 29 28 28 
158 155 150 145 146 148 139 145 149 160 189 148 104 33 16 14 13 12 11 7 5 7 7 8 6 8 8 6 9 7 3 4 8 3 7 7 4 7 4 8 6 8 8 11 10 11 9 6 7 8 5 5 8 7 8 10 8 7 7 8 12 12 17 20 18 20 19 24 20 28 22 23 19 20 22 17 21 22 26 27 
153 152 148 147 145 142 142 145 153 173 186 136 91 23 13 16 12 9 9 8 7 5 6 4 6 8 4 9 9 9 3 7 7 6 9 9 3 6 5 8 7 7 7 10 8 11 10 8 5 9 3 10 8 6 8 9 8 9 8 10 12 16 20 19 21 20 21 24 26 23 22 22 17 18 19 20 22 22 27 26 
156 150 146 146 146 143 144 148 155 181 175 131 70 14 17 16 13 11 7 8 9 7 7 5 5 6 8 5 5 9 5 6 8 7 3 7 4 5 4 7 9 7 6 8 10 11 7 9 5 5 5 7 6 7 8 7 7 6 9 18 14 20 18 20 18 21 22 25 19 22 19 17 22 20 20 18 20 23 26 25 
153 150 149 144 142 144 145 150 163 185 163 118 51 13 11 14 10 10 7 7 9 9 8 4 4 4 6 6 6 4 6 9 5 9 4 5 3 3 5 8 7 5 6 8 9 8 9 8 7 6 7 5 8 6 7 8 8 9 12 18 18 15 17 16 19 22 18 17 14 16 16 17 15 21 16 18 18 18 20 26 
151 147 146 143 141 147 145 151 168 187 149 108 33 15 12 11 11 7 8 8 7 8 8 5 5 8 5 6 8 7 7 4 8 6 6 7 4 3 5 7 7 6 5 7 13 8 9 6 6 6 7 6 9 9 7 10 8 14 17 16 19 15 18 21 17 18 15 17 16 15 20 17 18 20 22 21 22 20 22 25 
153 149 148 146 144 146 145 156 182 182 140 93 24 17 12 14 14 7 9 6 8 12 8 8 8 9 6 10 9 9 8 6 8 7 7 5 4 6 9 9 7 8 8 10 12 10 11 6 8 6 4 10 8 9 11 14 14 13 16 14 17 18 23 18 19 15 15 16 14 21 19 17 20 21 22 21 21 22 24 23 
153 148 148 145 144 146 147 154 183 168 126 74 16 15 9 13 11 5 10 4 9 8 5 6 8 7 5 6 5 7 7 8 8 7 7 8 7 7 6 9 6 8 6 8 9 8 8 10 6 7 7 8 10 10 13 16 20 17 16 16 20 16 16 17 18 16 13 16 13 17 18 18 20 19 25 19 22 19 25 24 
156 152 142 145 140 147 146 159 186 155 119 54 7 10 11 12 6 3 6 5 6 7 6 3 6 7 3 5 8 4 4 6 4 10 9 9 5 8 6 10 6 5 8 7 8 4 6 7 9 8 8 8 10 14 15 17 14 14 17 18 16 17 18 14 13 14 12 15 13 15 16 17 23 22 23 18 24 23 23 22 
158 150 147 146 150 149 149 170 189 149 112 39 7 13 12 13 10 6 8 3 7 5 6 1 9 8 5 8 5 6 6 4 7 5 5 11 7 5 9 8 8 7 7 9 8 9 10 9 9 10 8 10 12 17 18 15 17 16 17 19 17 20 16 14 11 14 14 15 16 16 15 18 19 19 21 25 18 24 20 23 
156 151 148 147 146 150 154 182 191 149 103 26 12 12 11 12 9 4 10 2 5 6 5 3 5 7 8 7 8 8 7 10 6 7 8 10 9 8 9 7 8 8 9 9 12 8 8 11 11 12 11 16 17 18 17 16 14 17 16 18 16 15 13 12 15 14 15 16 15 14 15 15 18 19 18 20 22 22 23 20 
155 153 146 151 150 156 160 197 196 153 92 19 10 17 11 12 8 5 9 5 8 6 5 5 6 7 6 6 8 6 4 6 6 8 6 8 7 6 8 10 8 9 9 9 12 8 8 9 10 12 15 16 15 16 18 15 16 16 17 15 15 15 13 10 14 14 16 17 13 17 17 17 20 21 20 19 23 23 22 23 
160 153 151 155 153 160 169 201 192 158 65 15 9 12 10 10 7 7 8 6 7 4 9 4 8 9 7 8 7 6 7 8 6 5 9 7 8 7 9 6 8 8 10 8 11 8 5 7 12 12 17 16 18 18 17 17 14 14 18 15 14 12 13 14 12 15 15 14 16 17 21 15 15 25 19 19 20 23 20 21 
153 144 143 142 140 139 142 153 157 126 44 16 10 10 16 12 12 6 8 8 9 6 9 7 7 8 7 5 5 6 6 7 8 9 9 7 6 10 8 8 7 7 8 12 13 6 10 8 10 13 12 17 18 17 16 17 19 16 16 13 11 11 14 14 15 14 16 16 18 16 18 17 21 17 23 21 23 22 19 22 
132 122 122 123 117 119 116 123 120 90 26 15 10 12 12 17 10 6 9 4 7 5 9 7 5 9 7 7 9 6 8 7 7 7 8 9 7 8 6 9 11 5 10 7 7 8 5 8 8 12 17 14 14 18 16 18 16 9 11 11 12 12 13 17 16 17 16 17 14 15 17 20 12 24 23 18 24 22 25 21 
120 109 107 107 100 104 99 92 86 51 19 15 11 13 16 15 9 4 9 8 6 9 9 12 11 8 8 9 9 8 5 10 10 7 10 9 9 12 8 8 10 9 13 6 11 7 12 9 10 12 13 15 18 15 16 16 11 8 11 12 15 12 13 15 17 17 19 20 19 20 18 21 20 23 22 22 23 23 25 25 
99 84 76 72 61 56 46 43 29 21 18 15 11 17 16 16 13 8 12 9 9 8 8 10 8 9 8 12 13 7 6 10 9 8 12 10 9 12 9 12 9 11 7 10 11 7 12 10 13 12 13 17 13 15 16 11 9 11 13 10 15 13 15 14 18 18 19 18 16 17 20 19 19 29 20 24 24 24 26 27 
51 38 35 35 28 31 27 22 20 14 14 14 13 17 19 14 11 8 9 7 8 9 7 9 10 9 9 11 9 10 7 6 6 8 9 6 5 8 10 10 6 9 8 12 12 13 11 12 8 10 10 15 14 17 15 12 9 11 10 15 16 15 16 16 17 18 17 22 19 19 20 24 20 22 22 22 25 23 24 24 
34 26 27 26 24 25 21 23 10 15 16 16 12 14 14 17 13 8 11 7 9 10 7 7 5 8 7 8 9 9 4 11 5 9 9 10 6 7 4 7 8 6 6 11 10 11 7 8 10 11 8 8 10 8 12 8 10 9 12 14 13 11 14 14 15 16 16 19 16 21 20 23 20 23 23 21 27 23 25 27 
32 28 29 27 25 29 27 28 20 15 19 15 13 15 17 16 15 12 12 14 9 9 12 9 11 9 11 10 11 10 9 11 12 13 10 11 12 10 10 13 10 10 11 14 10 9 9 12 15 4 13 12 12 11 15 10 12 13 11 15 17 15 16 14 17 18 20 22 20 22 27 26 27 29 29 27 28 29 28 27 
31 28 28 27 22 28 21 22 19 17 16 17 16 17 17 16 13 8 12 7 10 10 10 8 11 11 10 9 12 10 9 13 7 14 12 10 9 11 9 13 10 8 11 12 15 11 10 10 13 16 12 9 9 11 11 10 12 13 14 12 13 17 17 19 19 22 17 19 22 23 23 24 24 28 26 24 32 27 28 26 
31 30 24 27 26 24 23 20 16 18 17 14 12 18 15 17 13 12 10 8 7 12 10 13 12 8 12 12 12 11 11 9 9 7 11 12 9 7 10 9 12 9 9 10 13 10 9 9 12 11 9 12 8 11 12 12 11 11 13 14 14 15 15 18 17 24 21 22 21 22 24 28 22 26 26 25 26 27 29 30 
29 28 25 26 22 22 21 24 19 19 16 14 16 12 19 18 15 12 13 9 10 11 13 10 9 11 9 12 14 10 9 12 9 9 12 7 9 12 9 9 10 10 12 10 14 13 13 12 12 11 9 8 11 9 10 13 14 12 12 13 14 17 17 19 21 22 20 20 22 20 26 25 26 32 27 26 28 27 27 27 
27 20 25 25 20 26 19 23 20 20 17 14 11 15 16 19 16 11 10 8 9 12 11 9 9 9 9 8 9 11 11 10 9 10 8 10 7 10 8 12 14 10 12 12 11 13 10 11 8 12 12 9 11 9 12 10 12 14 15 19 17 19 18 20 21 18 19 25 23 21 23 26 21 31 28 26 29 29 29 28 
28 20 21 23 22 21 17 20 20 16 20 15 16 14 14 18 14 10 11 10 9 11 11 8 11 6 9 7 11 7 13 8 10 7 8 11 9 10 9 12 11 8 9 12 12 10 11 10 13 12 11 10 10 6 9 13 12 11 15 11 18 15 18 17 21 21 22 25 22 24 22 23 24 26 27 28 30 24 28 30 


