P2
80 60
233
172 167 170 170 173 172 169 160 163 159 159 156 153 148 154 152 146 148 146 163 176 222 218 157 93 25 15 13 14 14 15 15 10 15 9 14 13 9 9 15 9 9 13 12 10 12 12 13 15 12 13 14 12 12 15 14 15 15 15 17 20 18 17 16 19 18 14 15 15 17 17 19 20 22 21 17 15 18 17 13 
176 171 175 174 172 174 167 165 163 164 159 156 153 152 152 155 149 149 149 165 188 233 193 141 55 20 14 12 13 16 13 13 15 13 13 10 12 10 12 14 9 12 10 12 12 9 10 13 14 14 16 15 12 13 13 14 15 14 18 17 20 18 18 14 17 18 12 12 19 17 18 16 19 21 21 18 20 19 15 18 
173 179 169 175 173 170 170 163 166 160 159 157 151 149 153 150 147 148 154 167 204 225 166 110 32 18 12 14 14 15 13 12 11 15 13 13 11 12 12 15 11 11 7 9 11 11 7 16 15 12 15 13 13 11 13 15 17 13 17 14 17 17 15 17 14 15 16 15 17 18 19 14 18 20 21 20 22 18 16 13 
169 172 173 172 173 171 166 163 160 158 156 153 149 147 150 151 153 149 154 176 224 209 146 73 23 15 16 14 15 14 15 13 14 15 10 14 12 10 13 12 9 8 9 12 11 8 10 12 12 16 12 10 12 12 12 16 12 17 14 16 14 16 14 17 16 18 16 14 21 17 14 18 20 17 21 21 20 18 17 13 
169 166 168 170 173 170 164 162 160 160 160 152 151 149 147 150 151 147 158 193 231 180 123 47 19 17 14 11 16 14 14 15 11 14 13 16 12 13 12 14 12 10 7 7 9 9 8 11 10 14 13 10 12 11 11 11 11 14 15 18 17 14 18 20 17 19 15 17 20 17 13 16 18 19 21 21 24 17 14 15 
166 167 168 171 171 172 163 161 158 158 154 150 146 147 148 147 149 151 159 203 214 155 94 24 17 15 11 10 11 11 12 10 10 13 12 11 10 10 14 12 2 8 7 6 9 7 9 9 9 11 10 12 11 5 11 12 14 10 10 14 15 9 13 16 11 14 17 11 13 16 13 16 17 18 20 18 20 16 18 13 
163 168 167 168 166 168 161 163 159 159 154 149 146 145 149 150 148 149 163 216 194 138 65 24 17 15 11 14 14 13 15 14 12 13 8 9 10 12 11 9 7 8 11 9 10 10 11 10 9 12 15 14 12 12 9 16 10 13 12 13 12 15 17 20 15 12 15 10 16 16 15 18 15 20 17 21 19 17 16 13 
163 168 167 164 167 167 164 163 159 152 152 150 143 145 150 146 152 150 176 218 166 115 38 17 13 15 14 12 15 16 13 13 15 16 9 9 9 10 10 10 3 8 9 8 8 9 12 12 11 13 12 13 13 12 13 12 13 10 12 13 13 14 16 17 13 13 9 14 15 17 16 15 16 17 19 16 22 15 14 10 
161 167 163 169 165 164 159 157 158 152 152 149 147 147 148 147 148 158 193 201 144 93 23 13 12 15 11 13 17 10 12 9 11 12 10 8 13 11 11 10 6 8 10 7 11 9 12 12 12 13 11 13 8 12 9 13 13 9 13 13 15 13 16 15 11 13 15 12 14 18 19 18 18 17 18 18 17 16 15 11 
161 166 164 163 164 164 161 156 156 157 152 151 144 142 150 150 150 162 203 183 126 61 19 15 13 13 11 12 11 14 13 13 11 9 8 10 7 10 12 12 6 6 8 8 10 11 9 12 10 15 14 12 13 8 8 13 12 10 15 14 16 13 16 16 14 15 13 13 15 15 17 17 17 16 17 16 18 15 15 9 
158 161 162 167 165 159 158 153 153 155 153 151 147 146 149 153 156 174 202 156 112 34 16 12 11 13 13 13 10 12 13 12 8 11 11 10 10 10 13 10 10 9 9 7 12 11 12 16 18 19 13 12 11 14 13 14 11 15 11 14 15 13 9 14 12 14 14 11 12 16 14 16 19 16 18 17 16 17 14 10 
159 164 165 167 167 167 155 154 154 151 149 149 146 147 146 152 159 187 191 142 83 20 15 13 11 12 10 13 16 15 14 12 14 12 12 10 11 14 14 9 9 11 10 10 12 12 13 18 18 19 18 16 11 13 12 14 13 11 14 15 14 13 14 14 13 13 12 14 14 18 16 15 19 20 22 17 21 19 15 8 
157 159 157 168 164 162 153 152 153 145 148 143 142 145 148 154 164 200 168 128 52 14 14 13 14 14 13 12 15 13 12 13 12 13 11 10 9 9 7 13 10 8 9 11 9 10 16 16 18 17 18 16 19 14 15 14 12 11 11 13 16 10 12 14 10 14 16 12 13 17 16 18 18 16 20 21 16 17 16 11 
159 159 159 164 166 160 154 154 147 151 151 145 143 143 146 152 176 200 154 110 33 12 12 11 10 12 11 11 12 13 14 11 13 14 8 8 10 9 13 14 6 10 9 8 10 13 18 20 17 20 16 18 16 18 16 16 15 12 15 15 13 12 12 13 9 15 14 11 14 14 14 17 19 17 18 18 17 16 16 18 
158 158 162 159 158 156 153 154 153 150 147 144 140 142 149 158 189 191 137 86 18 15 12 8 13 13 12 12 11 12 14 10 12 10 9 8 11 5 9 10 9 7 6 10 9 17 15 17 16 17 14 17 22 18 15 18 21 17 18 18 13 12 12 14 8 9 13 12 13 14 16 20 20 17 18 18 17 20 18 18 
155 158 156 155 155 154 156 152 150 148 149 140 143 142 152 164 201 176 121 57 14 13 12 11 10 11 12 11 13 11 11 10 12 10 8 8 9 5 13 10 8 11 6 7 12 16 16 19 20 18 19 20 19 17 18 19 21 14 18 17 16 13 13 12 12 13 9 10 15 15 16 15 16 21 17 19 19 18 17 16 
151 155 157 155 156 154 153 150 150 147 147 141 142 141 155 177 199 154 108 33 12 8 11 12 14 11 9 13 13 11 10 10 8 11 8 13 11 13 10 10 9 10 10 8 14 16 17 15 16 16 18 18 19 15 20 20 18 19 19 16 17 13 15 12 11 14 13 8 15 17 13 11 17 21 21 20 20 18 16 14 
150 156 157 154 156 154 151 150 151 148 145 144 144 143 157 193 196 139 87 21 10 12 9 10 10 15 13 10 11 13 13 10 12 13 10 11 10 13 12 7 8 9 7 11 11 11 11 16 16 17 17 20 16 20 19 15 22 18 19 18 19 19 18 15 12 12 12 13 17 16 15 15 14 17 18 17 18 19 17 11 
151 154 155 153 155 156 152 151 145 145 145 142 141 144 162 199 178 124 55 12 11 12 12 7 10 13 11 14 11 11 11 11 8 8 12 12 8 13 13 9 5 10 6 10 11 11 12 15 13 13 13 17 18 18 17 17 18 19 19 21 21 20 16 21 13 15 14 14 12 13 17 17 19 16 17 19 21 20 21 15 
151 150 151 152 154 152 151 148 146 142 144 139 141 149 174 205 160 118 30 15 9 11 10 11 15 13 13 15 14 11 14 13 11 10 10 9 11 9 12 11 6 8 9 12 12 12 10 14 15 12 11 12 16 15 16 16 19 17 17 20 18 17 17 18 20 21 16 16 10 15 14 13 15 18 18 20 21 17 19 17 
147 152 152 153 151 152 149 147 146 143 143 139 143 149 188 198 139 89 13 13 9 10 11 9 13 13 11 14 11 14 12 8 10 12 13 10 13 8 10 10 6 7 9 10 9 9 13 14 12 11 12 11 14 12 15 16 18 19 17 21 21 20 18 19 19 20 21 21 17 16 14 14 15 19 19 21 20 22 19 16 
148 147 153 152 151 150 144 147 145 142 144 138 144 154 196 179 125 62 10 12 9 13 12 13 11 13 13 15 12 12 15 13 12 10 13 14 14 9 8 12 5 9 8 8 7 9 10 10 11 12 10 13 10 12 11 12 14 17 18 18 22 18 21 20 20 20 19 23 20 18 16 16 21 17 19 19 20 18 17 17 
149 149 149 149 153 149 145 145 144 142 144 139 144 164 201 154 106 31 8 10 7 8 13 13 11 13 13 14 11 12 7 9 9 9 12 8 10 10 9 6 5 7 7 12 9 12 6 6 9 10 9 10 11 9 10 13 11 11 12 17 18 19 18 22 19 18 22 22 20 18 20 18 18 16 17 18 19 18 21 16 
146 145 147 148 148 148 145 148 144 141 145 138 144 177 190 138 86 16 6 9 7 7 7 11 10 11 10 10 11 12 10 9 11 11 9 13 9 8 7 6 3 6 7 7 8 8 7 11 10 11 10 10 9 9 10 11 9 7 11 11 14 13 16 19 18 19 21 17 20 22 20 18 16 21 20 19 24 20 21 19 
144 148 145 148 147 147 146 142 141 141 140 140 153 177 174 122 68 11 8 8 10 8 10 12 12 16 9 12 11 11 10 11 9 7 10 12 11 10 8 10 3 7 10 10 9 8 9 8 12 9 9 9 11 11 10 7 13 9 8 12 12 11 11 13 16 23 21 22 23 24 20 20 21 23 21 22 23 21 22 19 
147 143 147 147 146 147 142 141 141 142 140 141 159 186 155 113 46 15 10 11 9 13 13 11 12 9 12 12 8 10 10 9 9 12 12 10 11 8 9 10 3 8 8 8 11 8 9 9 8 7 9 7 9 9 10 10 11 11 9 12 14 8 11 9 10 17 19 19 22 25 19 19 23 22 22 22 23 23 21 23 
146 144 146 147 144 145 142 143 143 140 141 142 164 182 142 100 26 12 11 11 9 12 10 11 11 11 11 10 8 9 11 9 10 12 10 10 10 8 10 9 8 9 7 10 10 8 10 9 11 8 13 8 11 12 12 10 13 14 11 11 11 8 7 11 12 12 13 16 17 21 23 21 23 24 26 24 22 25 20 24 
142 146 147 140 148 143 142 143 140 141 140 145 172 173 127 78 19 15 8 14 7 12 10 10 12 11 11 13 10 10 11 12 10 10 11 9 8 9 11 8 6 11 7 10 11 13 11 11 12 9 10 10 11 10 10 12 12 13 6 9 7 7 7 10 10 12 13 14 18 21 25 25 24 23 25 26 29 25 20 22 
141 145 143 144 143 143 143 141 145 141 147 153 176 158 119 55 19 12 10 13 8 12 9 11 10 10 12 12 10 12 14 9 10 14 11 9 9 9 11 10 9 11 10 11 13 12 9 10 12 10 9 11 11 12 11 12 10 12 7 8 9 5 9 11 7 11 14 13 15 22 24 25 25 25 22 24 26 25 25 15 
143 143 145 144 146 144 140 143 142 138 144 157 183 142 103 40 19 14 10 14 7 12 12 11 11 8 8 12 11 13 10 11 12 13 10 9 7 7 9 13 7 13 11 14 12 9 13 12 11 10 11 12 11 12 9 11 10 10 8 7 11 9 11 14 8 15 16 14 17 23 26 26 23 24 22 22 27 23 20 19 
142 138 145 144 145 147 143 144 136 139 149 173 176 131 88 21 16 9 3 11 12 9 13 9 11 10 9 11 12 14 11 10 9 10 11 9 9 11 9 9 6 12 13 12 13 12 11 13 11 13 10 10 8 6 8 12 11 9 3 8 9 7 8 11 10 14 12 14 18 21 26 25 26 26 24 23 24 23 19 19 
138 141 146 142 144 143 139 142 140 142 150 176 162 117 66 18 13 10 8 10 9 13 11 12 13 13 9 9 9 11 9 9 10 11 9 7 11 6 6 8 9 13 14 13 12 13 13 16 11 11 12 14 10 5 12 12 9 8 10 6 8 7 11 10 7 13 15 18 26 23 25 24 25 22 24 17 22 21 22 23 
140 141 138 140 141 140 140 141 143 144 161 187 153 110 47 17 13 11 6 9 10 11 12 11 15 14 8 9 10 11 9 9 10 10 7 10 12 6 8 9 13 11 13 15 14 12 11 12 7 10 11 10 11 13 10 13 12 10 10 9 11 11 10 15 11 15 20 21 21 23 27 26 24 20 23 22 24 23 21 23 
138 138 141 139 140 141 139 139 140 140 167 180 133 94 28 14 13 8 4 8 7 9 12 10 13 14 11 12 8 10 9 8 9 10 9 8 9 7 7 10 9 11 8 14 19 14 10 13 15 11 9 10 9 10 7 12 14 9 13 8 5 8 7 13 15 20 21 21 21 24 26 28 26 22 17 22 27 26 22 20 
140 138 140 139 142 141 141 140 142 145 180 179 126 76 21 15 15 11 10 9 10 12 11 11 12 10 11 13 12 8 12 9 9 10 10 7 8 10 6 12 9 6 11 11 13 11 8 12 10 11 10 12 12 6 11 12 15 10 9 6 9 8 12 14 18 26 24 20 25 25 27 25 23 18 21 17 21 26 20 17 
140 135 137 141 143 140 140 141 144 155 187 166 120 54 19 16 11 10 10 13 8 10 9 11 12 13 12 11 10 14 12 9 11 12 10 8 7 7 8 9 6 12 11 14 14 9 11 11 10 15 9 13 10 10 10 14 13 15 9 9 10 10 18 21 17 23 24 20 25 22 27 22 23 21 21 18 18 25 20 19 
137 138 139 140 139 139 140 141 146 160 193 154 105 33 19 15 13 9 6 10 7 8 9 9 8 10 11 11 9 10 12 12 11 9 10 9 8 6 7 12 5 8 11 9 13 10 10 9 12 11 9 9 10 9 11 10 11 9 8 10 8 14 20 20 19 22 21 21 21 25 23 19 19 13 19 14 16 21 16 17 
134 144 136 136 140 140 139 141 147 176 190 138 91 19 16 17 12 12 6 11 11 10 7 9 12 13 9 14 12 10 13 12 9 8 9 6 6 6 8 10 8 11 9 12 13 12 11 14 11 10 9 12 9 9 11 11 13 12 10 11 16 20 19 20 17 22 23 21 23 20 18 21 17 17 19 16 18 18 18 17 
133 139 139 141 140 140 141 142 154 185 181 129 74 16 19 17 14 9 10 9 10 9 10 12 12 13 12 9 13 11 15 8 14 9 11 7 7 7 5 11 5 12 8 11 9 10 9 12 9 13 13 11 7 11 12 13 9 10 13 17 18 17 20 21 19 22 23 19 17 18 19 17 16 17 18 13 16 13 19 13 
136 137 139 138 139 138 136 140 159 188 164 119 52 10 13 13 11 10 11 11 7 10 10 10 11 12 10 11 11 9 10 11 9 12 11 5 6 6 10 11 8 8 8 10 9 13 10 12 9 8 8 8 12 10 13 14 12 12 16 20 22 17 21 20 17 20 20 17 15 15 14 16 15 16 18 14 18 14 14 16 
135 137 137 140 142 142 142 142 169 189 151 106 35 10 13 12 13 9 5 14 9 10 12 7 12 11 13 12 8 13 12 13 10 13 12 9 9 6 8 10 6 11 10 11 9 16 9 13 13 15 11 13 14 11 9 14 16 17 18 20 24 20 19 21 19 20 16 15 17 17 15 16 17 18 16 17 21 15 13 17 
135 136 139 138 140 141 145 148 176 185 142 89 28 13 15 17 10 10 8 10 9 10 11 11 12 11 11 11 14 12 13 10 10 11 11 10 8 9 11 6 10 9 10 11 14 14 9 10 12 11 12 8 14 14 16 17 21 20 18 23 25 19 20 21 18 19 15 14 15 17 15 17 18 16 16 16 16 15 15 19 
134 137 138 137 139 141 143 156 182 171 127 76 16 11 13 12 8 8 5 11 5 10 11 9 9 11 11 14 11 12 13 10 9 9 9 8 9 8 11 9 8 11 9 11 11 13 10 14 10 11 11 13 14 16 18 21 19 20 18 20 22 19 20 20 17 16 12 12 15 16 17 14 16 14 17 16 16 15 11 12 
137 133 134 139 140 142 144 160 187 160 122 58 14 11 15 11 10 6 0 10 7 9 8 8 11 13 13 11 10 12 10 11 8 12 10 7 11 9 11 9 6 9 9 12 8 12 15 14 11 15 13 13 15 19 22 22 21 19 19 20 21 17 19 16 14 15 15 11 15 12 14 14 16 13 15 17 16 14 14 10 
137 137 140 139 139 144 151 169 190 150 115 36 13 13 17 13 12 6 4 9 8 9 13 10 13 13 11 10 12 13 13 11 6 10 10 10 12 11 13 10 11 9 11 12 11 13 14 16 15 17 14 16 21 22 23 22 21 20 17 19 21 18 14 14 10 16 13 13 13 13 9 16 15 15 17 16 16 16 14 14 
138 136 139 141 144 146 151 183 191 152 112 25 15 13 15 12 10 8 6 11 11 8 12 10 14 14 15 14 14 12 15 13 12 16 13 10 12 14 11 14 10 9 14 11 13 13 13 15 16 15 21 21 20 21 22 21 23 20 19 22 20 16 14 15 16 14 16 15 14 11 16 15 15 15 17 17 14 20 16 14 
137 138 137 142 141 148 154 195 197 156 95 21 12 11 15 11 8 5 5 12 9 8 11 13 14 13 11 13 12 10 14 10 11 11 9 10 12 9 10 12 5 12 12 9 11 12 10 14 13 17 22 20 24 18 21 17 20 22 21 22 14 16 17 10 10 12 13 14 14 15 11 14 15 13 16 16 14 15 13 13 
135 143 140 146 151 156 162 193 186 158 70 15 13 12 17 13 11 3 8 8 7 9 13 13 11 8 13 9 8 10 12 13 11 11 10 6 11 9 10 13 7 9 12 9 11 10 12 12 16 20 19 20 18 18 17 22 23 17 17 16 16 13 14 13 11 12 10 13 14 16 14 10 13 15 16 15 14 15 15 16 
134 131 130 133 138 135 138 146 154 127 42 15 8 11 16 10 9 5 10 11 8 12 10 12 13 12 8 15 11 15 12 12 9 9 10 10 9 9 9 12 5 12 9 10 11 11 9 13 15 17 20 21 19 17 19 19 20 19 16 14 16 12 10 15 13 10 12 16 15 14 10 16 18 14 16 15 13 14 14 14 
117 111 108 114 112 116 114 116 114 86 28 13 9 12 14 11 9 5 5 11 10 11 9 10 11 12 11 11 12 12 11 13 9 12 12 11 9 5 9 9 5 11 7 9 8 10 11 13 13 17 17 19 20 18 19 19 21 17 12 12 16 12 11 14 11 16 15 15 16 15 14 14 19 12 13 17 14 15 13 14 
100 97 100 98 99 96 92 91 77 55 21 16 8 13 14 14 10 8 3 11 11 12 11 9 13 17 13 15 11 13 12 14 15 14 13 11 13 10 8 10 11 12 11 12 10 12 11 16 15 16 21 20 20 18 21 21 15 15 12 14 14 16 17 15 15 15 17 15 16 17 14 18 19 15 16 16 17 18 16 17 
73 67 67 62 60 57 43 35 35 26 20 15 14 15 15 11 13 10 7 14 12 14 17 10 12 12 16 14 15 12 15 16 15 16 13 14 13 12 11 11 9 10 12 10 16 14 13 14 12 14 12 22 23 21 21 18 15 12 17 15 16 12 14 15 15 19 17 15 13 14 14 19 17 18 22 20 21 19 19 12 
31 28 27 25 28 24 24 21 19 17 16 15 12 12 15 13 12 11 9 11 11 12 11 14 13 13 11 12 13 13 11 12 12 15 10 12 12 9 7 14 8 11 9 14 11 13 11 13 13 13 13 18 18 19 14 11 13 15 11 17 11 15 15 16 14 16 13 16 16 16 16 18 19 18 18 19 20 20 16 14 
20 20 21 22 24 21 18 17 17 17 17 16 14 11 15 15 13 11 8 13 9 16 11 9 13 14 14 10 15 12 15 13 9 13 13 11 9 7 9 9 8 9 12 12 14 12 11 16 12 12 11 17 11 12 12 11 12 12 14 15 13 14 13 17 13 17 19 16 15 19 17 16 14 19 17 18 18 19 16 18 
18 17 17 20 21 21 18 16 20 16 17 14 9 15 18 17 15 11 7 11 12 15 11 13 11 15 16 15 16 15 15 16 12 12 14 10 11 10 11 15 10 12 12 17 13 16 14 12 12 16 12 13 13 11 13 10 14 12 16 18 15 13 14 15 19 16 15 14 17 18 17 21 20 18 17 17 19 17 13 12 
15 19 16 20 24 17 18 19 15 17 20 17 12 15 18 15 17 9 9 13 14 14 12 11 15 14 14 14 15 12 16 15 16 14 16 12 10 15 15 14 7 16 11 15 13 14 17 14 14 15 15 18 14 13 14 15 13 14 17 17 14 20 16 17 17 17 18 20 21 23 20 18 19 20 20 18 18 18 14 18 
12 18 14 19 18 17 16 18 11 14 17 9 13 13 16 17 13 7 8 10 8 15 11 13 13 16 12 16 18 12 14 16 16 12 10 13 14 12 13 11 9 13 14 13 13 15 11 17 15 16 14 16 17 11 14 15 13 13 13 15 17 17 18 18 17 20 21 19 23 19 20 22 22 22 20 20 21 19 16 18 
10 11 15 17 18 17 22 15 16 14 17 12 13 13 19 17 14 7 6 12 9 13 12 11 10 10 12 12 14 11 13 12 13 12 11 13 11 11 12 11 11 10 9 10 15 16 12 15 13 14 10 13 15 12 15 14 14 13 13 14 14 17 15 16 16 16 19 21 23 16 20 19 21 25 21 23 20 23 15 17 
8 13 13 11 15 18 16 13 16 18 17 13 10 14 17 18 9 9 5 12 10 12 10 10 14 11 16 13 14 15 17 12 16 13 12 12 11 6 11 9 9 9 9 11 14 16 13 15 17 13 15 13 15 11 11 15 16 15 16 16 18 20 18 19 16 20 16 16 20 19 19 24 20 24 20 23 19 16 18 17 
9 8 10 13 17 15 11 16 18 13 14 15 11 11 13 12 11 9 7 11 10 13 9 10 12 13 15 13 14 11 13 13 13 12 14 11 10 11 11 9 8 10 10 14 12 11 11 17 14 15 14 13 11 10 14 17 16 13 14 18 18 20 17 20 17 20 16 16 20 18 21 21 17 22 22 22 20 18 16 16 


