P2
80 60
233
179 188 179 176 175 169 168 167 164 165 164 159 159 149 155 152 151 156 159 161 180 222 218 159 88 24 15 11 13 12 14 15 15 15 13 15 17 15 16 16 11 14 10 8 9 7 10 10 12 11 12 14 15 13 13 13 13 12 16 13 15 16 17 12 13 15 12 11 8 13 16 15 15 15 17 16 12 8 10 14 
173 181 177 173 176 170 170 167 162 161 164 156 154 154 153 152 150 154 160 164 192 233 196 141 53 20 15 14 14 13 15 13 13 17 10 15 14 17 12 15 11 13 12 10 11 14 10 11 14 14 11 17 9 13 12 15 15 12 18 15 16 13 17 15 12 14 11 12 9 11 12 14 15 14 17 17 14 10 9 10 
173 179 180 176 172 168 167 165 162 163 164 158 156 152 153 148 155 156 157 172 211 230 171 113 28 18 18 15 12 12 18 14 12 12 13 15 12 17 11 16 15 17 15 9 13 9 8 12 13 13 15 14 13 12 14 14 14 16 14 10 17 14 14 15 18 14 14 9 9 11 11 15 17 14 16 14 16 13 9 7 
173 177 177 172 176 174 169 163 160 157 160 157 152 150 149 151 153 152 162 179 225 209 144 74 24 19 13 16 14 11 15 14 14 13 10 13 17 18 14 15 13 15 14 8 8 9 14 13 12 15 9 14 11 12 14 12 14 14 14 12 17 11 17 17 13 11 14 17 9 11 14 12 13 13 16 15 16 15 6 12 
172 177 179 171 171 169 167 162 163 157 158 152 151 151 150 151 148 155 162 192 233 181 125 46 16 15 12 12 13 14 14 13 12 13 14 16 12 11 11 14 12 12 12 10 8 9 7 10 11 12 14 10 10 10 13 16 13 10 17 11 14 10 16 14 10 13 11 11 11 10 12 18 13 11 10 18 10 11 5 7 
170 173 171 170 167 168 165 160 158 158 157 150 150 151 150 150 150 153 164 205 220 161 97 24 15 12 12 10 10 12 12 14 12 13 11 14 13 15 10 13 10 13 12 8 9 9 8 13 10 12 8 11 8 12 12 12 14 11 10 5 12 11 11 13 11 10 8 15 9 8 10 11 13 13 15 14 10 10 7 6 
172 170 178 170 173 168 164 161 155 159 156 150 151 151 149 144 149 156 174 220 198 139 66 18 16 12 10 12 12 12 12 11 9 10 14 14 12 13 15 14 13 18 9 11 7 6 9 9 12 15 11 9 11 10 14 9 12 12 9 9 10 10 12 14 9 9 10 10 5 10 8 11 14 10 13 12 10 13 5 5 
164 169 172 171 165 168 161 162 158 157 158 148 149 146 147 151 151 160 187 219 171 121 37 18 16 11 11 12 14 11 12 15 14 10 14 11 13 13 13 13 9 14 12 10 12 7 11 12 12 10 9 11 13 12 10 11 10 13 12 10 12 12 14 10 11 10 9 6 7 8 10 9 11 14 10 14 13 12 8 10 
164 169 170 168 167 166 161 160 159 156 156 149 152 147 147 147 155 165 198 208 151 91 24 16 14 12 11 12 11 10 13 13 12 12 15 14 15 11 11 12 12 13 11 8 6 8 11 10 10 12 14 9 10 12 12 15 12 11 10 10 8 12 11 11 13 11 10 8 6 11 8 9 11 10 15 11 15 8 8 8 
165 168 165 166 163 164 162 162 158 153 154 152 148 146 146 149 153 168 207 183 133 59 17 12 11 9 9 13 12 11 12 11 10 13 11 12 11 10 15 14 11 15 11 7 8 9 9 11 13 12 10 11 11 12 10 12 9 11 10 10 10 12 11 11 9 9 9 6 5 5 7 11 12 9 12 14 10 10 8 8 
164 171 168 165 160 159 156 158 156 153 155 148 153 147 151 147 157 179 212 164 116 41 16 15 13 15 14 11 13 13 12 9 14 13 15 14 16 13 8 14 10 12 13 8 9 11 14 16 19 16 13 11 10 12 11 9 12 11 11 11 14 13 12 9 11 10 9 10 9 11 8 13 10 12 16 13 10 13 7 7 
158 164 167 163 163 161 158 158 154 150 152 149 151 150 150 150 160 191 200 146 85 20 13 11 8 13 14 12 14 10 11 11 10 11 11 11 10 12 10 12 10 12 12 9 9 9 14 18 18 17 19 15 11 10 8 13 11 12 11 11 10 16 11 9 13 7 11 13 7 9 9 10 13 10 16 13 12 12 2 2 
158 165 165 161 163 162 156 153 150 153 155 148 148 148 147 152 169 205 183 131 60 17 11 14 10 11 12 12 12 9 11 14 12 11 12 11 12 10 7 14 11 10 9 13 14 10 17 16 19 19 19 21 17 16 13 13 16 13 13 12 14 14 9 11 11 10 9 8 10 8 8 12 9 8 13 12 14 12 7 8 
158 163 167 161 159 160 153 155 154 150 151 146 144 145 145 153 177 208 158 111 31 15 15 11 10 9 13 11 14 10 11 13 11 14 9 13 13 11 10 12 10 12 9 11 12 12 14 19 16 18 18 18 18 14 16 15 15 13 14 12 10 10 13 7 6 12 8 13 5 10 8 9 13 11 14 13 14 10 6 11 
155 163 155 159 159 155 155 154 152 151 152 146 143 148 150 157 192 197 142 89 20 13 12 10 12 10 11 11 12 10 12 15 12 13 7 11 8 12 9 13 11 13 11 13 14 15 17 17 15 17 18 19 20 16 17 17 18 15 16 9 14 14 12 11 10 12 10 11 6 8 10 8 8 12 12 13 11 10 9 8 
161 159 164 159 156 154 155 152 150 146 152 146 146 146 149 163 203 180 127 58 13 12 12 10 11 13 12 10 17 10 8 13 9 13 11 9 11 12 12 15 11 11 11 9 13 17 16 17 17 16 16 19 17 18 14 15 17 14 17 14 14 10 7 12 7 10 10 9 6 11 8 9 11 14 11 14 10 10 11 8 
156 162 162 157 155 155 157 154 150 145 150 141 144 144 151 176 206 165 113 34 15 12 9 9 13 13 13 13 14 14 9 11 10 13 12 11 9 11 14 9 11 12 10 12 14 14 16 21 17 17 17 16 17 17 17 15 18 19 17 13 14 13 10 11 7 12 10 9 9 9 10 11 9 9 10 9 14 12 11 7 
157 163 161 158 155 154 159 150 147 147 148 145 144 147 157 189 195 149 94 21 17 10 10 12 14 12 14 12 14 13 12 13 12 15 10 9 11 11 10 9 9 10 11 12 10 11 11 16 16 17 17 21 19 20 16 18 18 15 19 16 19 18 14 14 8 11 12 7 8 12 9 7 12 12 15 14 16 15 12 12 
158 158 157 156 156 157 154 152 146 145 148 145 147 152 162 204 181 134 63 13 10 12 8 12 10 14 10 11 14 12 12 11 10 10 13 13 9 11 15 10 11 12 10 12 10 13 12 8 9 12 14 15 18 18 18 14 18 18 17 19 17 14 17 17 14 14 10 10 6 10 12 10 11 12 11 13 17 17 12 14 
155 158 152 151 154 154 150 150 148 146 149 143 147 148 177 206 162 124 37 14 16 12 10 13 14 13 11 14 14 10 12 11 11 13 13 13 11 15 13 12 12 11 12 13 10 9 9 12 12 15 13 12 18 16 18 19 16 22 23 19 19 18 19 17 17 18 13 13 8 13 10 11 12 10 15 14 17 14 15 10 
153 157 157 153 154 153 151 150 147 144 144 143 146 155 188 196 143 101 23 14 11 11 11 13 12 13 15 9 11 10 11 15 9 9 13 12 12 10 15 9 12 11 9 7 8 10 13 13 9 11 9 12 14 14 16 17 16 20 17 18 19 16 16 15 18 15 16 16 11 10 8 8 12 10 17 14 12 15 12 11 
154 153 157 152 149 148 150 146 149 145 144 140 148 158 198 180 127 65 12 11 16 13 9 15 11 9 9 12 12 12 9 12 14 12 12 13 10 15 13 11 9 11 8 12 9 10 11 10 11 10 12 9 14 11 15 13 12 16 16 15 18 18 19 20 20 17 18 16 15 14 10 16 11 12 16 16 14 15 10 13 
155 154 152 155 149 152 153 149 144 143 145 140 150 170 199 159 110 34 14 14 12 13 9 10 12 9 15 13 11 11 12 11 13 11 8 11 11 11 12 10 11 10 9 9 10 9 8 8 12 10 10 7 11 11 10 10 11 9 11 16 15 14 18 20 20 15 19 18 17 16 14 15 12 12 15 13 13 13 12 10 
150 157 147 150 147 152 145 146 140 140 142 143 150 177 188 140 92 23 11 11 8 11 11 10 9 11 10 6 9 8 10 7 8 9 8 11 8 8 9 11 8 11 6 10 8 7 9 10 8 7 6 10 11 8 10 9 6 7 8 7 8 12 16 14 17 17 19 15 18 17 18 16 13 11 13 14 17 10 11 11 
150 151 149 150 149 145 145 143 141 142 146 142 152 188 177 128 68 16 14 12 11 11 11 11 14 13 14 9 10 9 10 9 12 9 13 10 10 10 11 11 11 15 10 12 12 10 11 10 13 9 7 8 13 9 7 12 9 11 6 6 7 11 11 14 16 17 20 17 21 16 18 18 19 15 17 17 15 20 14 15 
149 147 153 147 149 145 142 142 144 138 141 143 160 189 159 114 50 17 14 16 13 12 11 10 9 10 9 11 8 8 11 10 11 12 9 11 11 13 12 11 10 12 9 13 11 9 7 7 10 8 8 8 10 8 10 11 7 8 12 8 8 6 10 10 8 19 15 18 20 19 17 16 17 16 21 18 19 17 14 15 
145 151 151 149 149 146 148 145 145 145 148 146 172 188 147 98 27 20 14 14 12 13 10 11 9 13 10 12 9 8 11 13 13 10 11 15 12 10 11 14 11 16 11 13 11 12 10 10 6 11 8 9 10 10 8 9 9 9 8 10 10 8 9 9 12 14 11 12 15 17 18 18 18 17 19 20 19 20 14 14 
147 149 150 148 148 145 143 143 141 139 146 147 182 175 133 77 18 19 13 13 12 10 8 9 11 11 9 11 8 9 9 11 13 9 9 10 14 10 9 11 12 14 12 14 11 10 12 11 9 9 9 9 13 10 8 11 7 7 10 5 7 6 8 7 12 10 10 10 12 17 16 17 17 20 19 18 22 20 15 14 
144 150 152 144 147 144 142 141 141 137 147 155 189 163 120 52 18 16 14 18 10 15 7 11 13 13 10 11 10 9 12 12 7 12 8 12 11 9 14 14 12 13 12 12 11 11 10 11 10 11 9 8 13 11 10 9 8 7 6 8 2 5 7 9 9 11 10 10 10 17 17 19 20 19 25 19 18 20 14 13 
150 148 148 144 146 149 143 141 143 140 148 164 188 147 109 36 15 18 14 17 13 10 11 11 11 10 12 10 11 12 13 14 11 11 11 12 10 13 13 12 15 13 15 15 11 11 10 13 11 10 8 13 10 11 9 10 9 7 5 8 5 8 6 7 5 14 10 12 11 17 20 21 19 17 18 19 18 18 13 14 
149 145 145 146 145 139 144 136 141 145 152 172 181 137 89 20 15 12 13 11 10 11 10 11 9 11 11 10 11 9 10 10 14 11 10 14 12 11 11 14 14 14 16 13 12 11 12 13 10 11 13 12 10 9 8 10 6 10 5 6 8 4 8 5 10 10 10 12 10 22 25 22 19 18 21 15 16 19 13 16 
146 147 146 146 144 140 140 138 143 143 153 184 169 123 66 16 15 15 12 14 11 13 7 11 10 12 10 13 8 9 10 14 10 14 10 11 11 14 14 12 14 16 13 14 13 14 10 9 12 10 12 9 7 8 7 8 6 8 8 6 8 9 7 11 7 11 12 16 19 25 21 21 24 20 19 17 15 16 16 17 
142 147 145 145 147 141 139 142 141 144 161 183 160 113 49 13 16 13 14 15 12 10 9 11 13 11 11 12 10 13 12 11 11 8 9 10 11 10 11 14 14 17 13 14 15 16 10 13 10 11 9 10 11 9 10 10 7 8 6 5 7 4 8 10 11 12 17 21 20 20 23 22 19 22 16 18 18 18 16 14 
145 145 143 140 145 139 138 140 142 148 171 184 145 98 32 15 11 10 9 11 8 9 10 8 8 10 9 11 12 10 12 9 10 12 10 11 10 12 13 11 10 15 14 13 15 13 11 9 11 11 9 6 11 10 7 8 11 9 6 5 6 8 7 10 14 19 18 16 19 19 20 19 18 17 15 18 17 19 13 11 
137 141 145 139 142 140 143 143 143 149 185 177 133 82 20 14 12 13 14 13 8 10 11 9 12 12 8 10 11 11 11 10 10 11 10 7 13 8 9 13 10 13 13 12 13 13 11 12 13 7 10 9 12 8 9 8 9 10 8 6 7 8 9 14 18 19 22 19 20 20 21 21 13 15 14 13 18 20 13 9 
141 144 146 140 142 142 139 143 144 156 196 168 120 60 13 16 11 14 12 13 12 11 12 14 8 11 10 11 11 11 10 14 12 8 12 8 9 12 8 12 11 11 12 12 15 11 12 11 13 8 7 7 12 10 11 10 5 10 8 9 8 8 13 19 19 20 19 18 21 21 23 19 16 13 15 14 13 19 13 10 
138 142 146 144 141 142 137 140 144 163 198 156 108 40 15 14 10 16 13 12 13 9 9 11 12 8 11 11 9 13 9 11 13 9 12 8 9 12 10 8 13 9 14 13 10 11 11 12 9 9 11 11 8 10 11 9 9 12 9 9 11 15 19 21 22 17 21 20 22 21 17 16 16 13 12 8 13 16 14 11 
138 140 145 140 140 143 138 142 146 178 197 142 95 22 13 15 15 16 15 13 12 11 10 8 11 12 10 13 10 9 11 14 11 11 12 11 11 9 9 8 10 12 12 15 14 12 15 12 12 12 9 8 14 15 10 9 8 12 9 8 15 19 23 22 19 22 22 19 21 15 16 17 14 14 14 9 9 9 10 14 
139 136 143 144 141 142 145 142 155 188 183 133 78 13 15 11 13 12 16 13 11 11 7 11 10 9 12 12 9 7 9 15 13 12 16 11 10 10 7 10 11 12 13 10 11 12 8 9 11 13 9 14 10 11 10 10 9 10 10 12 18 18 21 18 18 21 22 22 14 15 16 13 11 14 13 12 6 7 10 7 
142 141 144 143 139 138 135 145 159 193 169 122 55 12 16 15 13 11 12 9 13 11 14 11 13 11 13 9 10 11 12 13 13 12 10 12 8 8 12 10 10 10 11 13 11 8 9 11 12 13 8 11 9 12 10 10 8 13 16 17 18 22 22 21 16 18 18 16 12 12 9 11 12 13 10 11 10 10 10 13 
138 135 142 133 141 134 142 150 165 192 155 106 41 14 18 13 16 17 13 14 16 12 12 12 11 12 14 11 11 10 15 14 14 11 11 14 11 9 12 10 13 11 13 12 11 13 12 13 12 12 11 11 13 12 17 14 15 17 21 17 22 18 19 22 19 18 14 12 12 12 13 15 9 11 9 14 13 8 10 7 
137 140 143 137 139 140 140 153 176 183 147 96 28 17 18 10 17 15 17 14 13 12 12 13 12 11 13 11 11 11 11 14 12 15 13 14 12 13 13 15 15 14 13 12 12 12 11 15 12 13 14 11 17 14 15 19 17 19 19 20 19 21 19 18 22 22 13 11 12 10 10 11 12 10 11 9 8 12 11 6 
140 143 141 137 137 139 141 150 183 173 131 76 20 18 13 12 15 14 12 14 11 9 10 12 11 10 12 11 11 12 10 11 13 11 11 12 10 10 13 12 13 12 10 10 10 10 10 12 9 13 13 14 12 17 20 22 20 18 20 15 19 17 16 20 13 10 12 5 6 8 9 7 8 7 12 10 10 9 9 9 
139 136 136 135 139 141 148 156 181 163 124 55 19 13 15 10 10 11 9 13 11 11 10 10 10 12 13 14 9 10 10 10 13 12 9 11 11 14 12 14 11 12 11 9 10 12 7 14 13 14 13 13 15 18 19 21 18 17 19 19 15 15 15 15 9 10 9 6 8 7 8 12 10 7 10 12 12 9 8 9 
140 141 139 139 142 139 148 169 188 150 115 40 13 12 12 9 8 10 8 9 13 11 11 13 9 12 12 12 11 11 12 11 11 12 12 14 9 13 10 14 13 16 10 11 10 13 13 10 14 14 14 14 20 18 19 20 19 19 19 18 18 19 15 13 10 10 10 11 5 8 6 6 6 8 9 12 11 11 7 6 
133 141 139 140 142 148 151 178 193 155 108 29 16 13 19 12 10 15 10 12 14 9 14 14 14 14 12 14 11 8 10 13 13 15 13 15 13 15 16 18 14 16 12 12 14 16 13 15 13 15 18 23 23 22 21 21 19 21 20 16 20 17 14 12 10 13 10 9 8 12 8 10 11 10 9 12 10 10 6 5 
139 144 141 141 144 145 156 195 194 158 95 17 19 15 13 12 10 11 11 8 13 11 14 11 15 10 11 14 9 9 14 12 12 13 13 13 12 14 13 14 11 13 11 13 11 9 11 11 11 17 20 21 23 22 22 20 17 18 20 20 17 10 11 10 12 10 11 11 9 8 6 10 10 9 10 8 9 6 5 5 
138 143 146 144 146 153 163 198 183 157 70 17 17 11 11 13 7 12 10 12 11 9 13 11 14 10 14 13 12 11 12 11 14 15 13 12 13 14 15 14 11 14 10 10 13 11 9 11 16 18 19 20 18 20 20 21 18 20 14 11 12 15 10 12 11 9 10 10 8 9 6 8 9 10 11 14 9 10 6 2 
133 135 137 130 134 134 136 140 148 126 48 12 14 10 12 11 11 14 12 12 8 12 12 13 12 13 12 9 8 8 13 13 13 13 14 10 14 11 13 14 12 12 13 10 11 11 8 13 15 20 21 19 20 21 20 21 16 19 18 13 8 9 9 12 7 12 7 8 10 9 12 9 9 10 11 12 9 10 6 3 
114 115 114 116 109 115 116 118 114 92 30 15 10 12 12 7 10 11 11 13 10 12 10 12 11 10 12 11 12 9 11 12 16 12 11 10 12 10 14 12 11 12 12 14 12 12 11 8 11 14 20 20 23 20 18 18 18 15 13 8 9 11 9 8 8 10 11 10 11 6 8 9 4 12 10 11 11 10 8 0 
99 101 98 99 94 95 89 87 75 52 22 12 16 12 16 15 10 13 9 14 11 13 13 17 14 14 13 13 13 11 15 15 12 13 13 12 10 12 12 13 13 13 11 11 12 12 12 12 14 16 17 18 21 20 19 19 15 12 13 9 13 11 15 11 12 8 9 9 10 11 9 12 12 13 10 12 10 10 6 6 
81 76 71 67 59 50 41 38 27 27 18 14 16 13 14 16 13 10 15 16 17 13 17 14 13 13 15 13 16 14 15 12 14 11 16 13 12 16 15 13 13 11 12 12 13 12 12 13 13 13 17 20 21 20 24 17 12 12 10 16 14 15 11 13 14 13 11 14 14 13 8 13 13 12 13 12 15 9 8 4 
35 28 32 25 27 23 20 22 16 12 17 13 15 10 13 13 12 12 10 14 15 16 15 14 13 11 12 11 13 13 13 14 15 14 14 11 13 11 13 14 16 15 13 13 14 14 10 16 13 10 12 15 17 20 16 15 9 10 13 13 15 13 13 12 12 12 15 11 8 11 10 13 11 14 13 11 14 14 8 6 
22 18 23 20 19 17 17 16 12 14 15 10 15 14 13 10 9 14 9 10 12 15 13 12 11 10 11 11 17 13 11 10 15 15 10 12 12 12 9 11 11 14 14 15 12 14 11 13 10 13 12 12 16 14 12 14 11 11 10 12 13 9 12 16 12 12 10 9 11 11 13 9 13 10 8 9 7 9 9 7 
17 19 18 22 16 21 21 13 10 16 18 12 15 16 15 15 13 15 18 16 15 16 17 10 16 13 15 12 12 12 15 15 14 17 14 13 12 13 11 15 13 14 14 11 11 11 12 16 12 17 14 15 13 15 15 11 12 12 14 12 10 13 15 17 12 13 12 17 13 14 17 14 12 16 12 10 10 10 9 6 
17 17 17 20 21 17 19 17 15 14 20 14 18 17 14 16 11 18 16 13 16 12 12 14 15 16 16 12 13 12 14 18 14 15 15 14 13 11 14 15 15 14 15 12 15 13 13 14 12 13 14 11 13 12 13 14 14 17 17 15 10 15 12 17 13 13 14 14 14 16 15 15 17 18 14 12 10 13 8 4 
14 18 20 15 17 18 12 15 14 11 15 12 11 17 15 15 14 17 11 13 15 14 12 13 13 12 16 13 15 12 14 18 15 17 15 17 14 11 11 14 12 13 14 13 14 15 12 18 9 14 13 14 12 12 10 14 13 12 14 15 10 12 16 18 14 13 12 15 14 10 15 15 17 16 12 13 14 11 9 9 
19 19 17 18 20 15 11 15 15 15 15 10 15 15 15 14 12 18 12 8 13 13 14 14 12 12 14 11 14 12 13 13 16 16 14 16 14 12 9 10 11 15 14 11 10 11 14 14 11 13 13 14 13 12 13 13 13 13 12 13 11 13 15 13 13 16 16 13 14 13 12 17 16 13 13 14 16 11 10 10 
12 22 15 17 16 13 11 14 16 12 15 16 16 13 15 13 14 16 10 12 12 13 12 14 12 14 14 11 15 16 18 18 15 14 13 11 15 13 14 16 13 13 13 13 11 13 13 13 15 15 14 13 14 13 9 12 10 16 13 14 11 14 15 15 15 14 15 15 15 13 13 15 18 15 14 15 15 11 9 9 
9 20 19 15 15 14 10 14 17 14 18 14 11 14 15 10 11 12 15 11 11 12 11 13 9 10 13 13 15 12 13 16 14 16 12 12 13 16 15 14 12 16 13 12 14 16 14 13 11 14 13 11 15 10 12 13 15 12 11 14 11 14 14 13 16 17 13 13 15 16 15 14 20 18 15 13 14 13 14 9 


