P2
80 60
231
172 176 179 175 176 171 167 168 165 163 156 159 154 150 148 145 147 148 150 155 176 216 211 155 91 19 14 12 9 12 13 11 11 13 11 14 13 10 12 12 9 8 11 11 10 4 5 6 13 12 11 13 12 15 12 12 16 12 16 11 15 18 16 21 18 18 18 18 15 19 18 22 26 19 22 19 20 22 20 21 
175 174 176 176 171 172 169 164 163 163 156 154 155 149 146 149 146 148 150 160 186 231 187 136 50 17 8 10 9 11 10 13 10 10 11 11 13 8 12 11 9 9 9 8 6 6 6 3 9 10 9 12 8 10 13 11 15 11 16 16 14 18 15 21 19 17 15 17 17 17 17 18 22 22 23 21 21 20 17 20 
174 177 175 170 173 166 167 165 161 164 153 156 148 147 148 149 145 151 149 163 205 227 166 108 29 16 7 9 8 12 10 12 9 9 13 7 12 11 12 11 8 8 10 10 7 4 7 5 10 12 12 9 7 6 10 10 15 14 17 13 16 13 17 19 16 17 15 17 14 15 20 20 22 20 19 20 21 18 18 19 
174 173 172 170 168 167 165 161 161 161 153 152 147 150 150 146 148 149 153 172 221 203 142 73 20 12 11 10 9 11 9 12 10 9 13 14 9 11 10 11 11 9 9 6 7 4 4 8 11 13 9 10 9 13 11 15 11 12 14 15 17 17 17 19 18 14 15 14 17 18 16 18 22 21 23 16 21 20 19 18 
173 169 171 172 169 166 163 161 162 160 150 151 146 148 147 146 145 152 155 186 224 174 122 41 15 10 7 8 12 14 10 11 14 9 8 11 12 15 8 11 9 8 6 7 5 3 3 4 13 10 5 10 7 13 10 14 9 13 10 17 11 12 16 16 14 12 12 12 15 14 15 17 20 22 23 18 21 17 12 13 
171 167 171 169 165 161 161 159 161 157 150 150 145 146 143 144 146 150 158 199 215 150 91 24 14 7 4 11 9 11 7 8 9 5 10 11 11 9 11 9 7 6 6 2 1 2 4 6 6 7 10 5 3 5 6 8 11 10 12 13 14 14 13 13 11 6 13 12 10 13 12 15 18 15 19 17 19 13 14 14 
170 168 168 166 168 165 165 158 159 157 153 152 148 141 145 148 146 152 168 217 190 134 62 15 14 12 8 10 9 12 9 10 6 11 11 10 9 8 8 9 7 8 8 3 4 3 5 3 6 9 4 10 6 8 7 9 10 6 9 14 13 11 14 13 12 10 12 17 11 13 15 16 17 19 15 19 17 17 13 21 
166 167 167 163 164 161 157 158 163 158 150 149 146 146 144 143 142 155 177 214 164 111 37 14 9 8 6 11 10 8 9 11 10 9 12 13 8 11 10 11 6 5 8 5 6 1 6 5 9 7 6 10 8 12 14 10 8 16 13 11 11 11 10 13 14 9 12 11 14 13 13 14 21 15 18 16 17 15 16 19 
166 164 165 162 162 164 162 158 158 154 152 151 146 146 141 144 143 156 192 200 143 88 21 14 11 7 8 9 8 8 11 10 8 7 6 11 12 10 10 8 8 8 7 4 3 0 5 6 12 8 12 9 11 7 8 8 12 10 7 11 12 12 9 12 12 8 8 12 10 10 13 11 21 16 17 20 18 17 17 17 
165 165 165 163 160 160 161 154 158 156 150 150 145 142 143 143 145 162 199 174 122 50 15 12 11 7 7 10 7 11 11 12 12 7 8 11 5 11 6 8 7 7 6 4 3 4 8 9 10 8 8 7 7 12 4 11 10 10 14 11 12 14 10 9 11 8 9 10 13 15 16 16 21 17 15 19 16 15 15 13 
165 164 166 162 160 159 154 156 156 153 151 154 143 142 142 144 147 179 201 156 106 27 15 9 10 10 9 8 12 11 12 11 9 7 7 10 10 10 13 7 8 7 5 2 5 6 7 12 14 13 9 8 7 11 6 12 11 11 11 14 14 14 12 12 10 14 12 13 15 13 11 14 19 14 19 15 18 15 15 11 
161 160 160 159 161 157 159 154 150 150 146 151 144 143 144 142 151 188 187 139 80 16 11 12 9 5 9 11 10 9 6 8 11 10 6 7 8 8 7 8 7 5 5 2 3 5 6 11 12 13 11 11 10 8 7 8 11 10 12 13 11 12 14 7 12 11 12 11 14 14 15 17 19 18 19 18 14 14 14 17 
161 156 160 155 159 155 154 152 151 152 143 148 146 142 141 145 154 199 171 120 51 12 12 7 9 10 10 7 8 11 10 11 8 8 10 9 7 8 9 6 7 6 6 5 2 6 9 13 14 13 15 13 10 14 11 7 10 11 8 10 9 10 6 14 10 11 10 10 10 14 17 15 19 16 17 17 17 17 14 14 
158 156 163 155 151 152 152 151 149 150 148 148 142 140 143 148 170 198 148 105 26 11 9 8 10 6 6 7 9 9 9 8 11 6 9 10 8 6 9 9 9 6 0 4 4 9 10 11 12 11 10 11 11 16 13 11 10 9 9 12 12 9 11 9 12 8 10 12 13 13 10 16 18 16 16 17 21 17 16 14 
158 155 159 156 154 152 147 149 149 146 144 145 143 141 143 154 183 189 137 76 17 8 7 5 4 6 9 10 13 10 6 13 9 8 9 8 8 7 6 5 6 5 5 7 6 11 9 10 14 10 11 13 12 10 11 14 13 15 14 13 10 12 10 10 8 7 12 16 12 10 16 12 16 16 18 15 19 13 11 12 
162 157 155 155 153 151 151 148 149 148 146 144 141 143 141 158 197 173 117 54 8 8 8 8 7 11 9 6 9 5 12 7 9 10 9 10 9 9 10 7 6 6 4 6 3 11 12 12 14 8 10 9 12 11 17 11 17 17 14 15 11 12 9 9 6 10 10 12 9 17 14 16 12 9 20 16 15 13 14 15 
158 156 156 154 152 152 149 150 149 145 144 143 142 141 146 172 198 153 106 29 6 8 7 4 12 7 10 9 8 10 11 11 8 9 8 10 4 9 8 11 6 7 6 6 7 14 10 12 11 10 14 11 12 12 12 14 17 19 15 15 16 13 7 9 10 11 14 12 9 12 13 16 14 16 18 20 21 18 14 14 
156 157 157 154 152 155 146 147 147 149 142 142 139 141 153 186 191 138 82 12 3 9 7 6 8 10 9 9 9 6 9 7 7 6 7 8 7 9 11 9 5 7 3 9 9 6 10 5 11 11 10 7 7 10 16 14 11 16 14 18 16 14 10 13 12 14 12 13 12 12 15 16 13 18 18 17 18 18 15 16 
148 157 156 151 155 148 150 144 149 144 140 142 140 145 158 197 173 126 54 7 5 6 5 5 7 11 6 8 8 12 10 11 8 6 8 10 11 8 7 5 5 6 4 3 8 8 9 5 7 7 10 13 8 10 12 10 11 13 15 14 15 16 12 16 15 12 10 10 8 13 11 17 14 16 17 17 18 17 15 12 
150 154 154 151 149 150 150 146 144 142 137 142 141 147 170 198 151 116 30 9 6 7 11 9 11 8 9 11 8 10 10 9 10 10 10 7 11 11 8 10 5 6 6 8 5 8 6 5 8 9 7 9 9 10 11 13 12 15 14 14 17 17 17 19 21 22 16 15 12 16 14 19 17 15 17 18 17 16 16 17 
150 153 152 150 151 145 149 143 140 143 136 139 141 148 183 193 136 85 15 8 6 5 7 10 8 9 7 7 10 9 11 11 7 11 10 8 9 8 9 8 7 5 8 3 5 7 5 7 9 8 9 7 7 10 10 9 15 16 15 16 17 16 17 18 17 18 19 19 17 12 14 16 18 17 17 21 21 15 12 11 
149 153 152 149 146 148 145 143 140 142 137 140 138 151 190 168 113 58 4 5 5 1 4 7 7 9 9 11 11 7 10 10 10 9 6 5 7 9 6 6 3 3 5 7 5 10 3 3 5 5 7 4 7 6 7 8 8 17 15 18 16 13 12 16 18 18 18 21 16 14 12 17 19 15 18 13 15 14 13 13 
146 148 151 143 146 145 148 141 139 138 137 140 142 164 193 153 101 36 9 5 4 5 6 4 9 7 8 8 9 7 9 12 6 8 5 9 9 10 4 6 3 2 8 4 8 8 5 6 7 7 7 7 7 6 7 6 8 9 10 13 14 15 15 15 22 20 21 20 17 17 17 19 19 14 17 17 19 15 17 16 
142 143 148 145 144 141 141 137 138 138 137 144 142 170 179 130 81 16 2 6 0 5 6 6 6 5 7 4 6 8 5 7 4 6 8 6 6 8 5 4 0 4 4 3 3 4 4 3 5 4 4 4 3 3 4 4 8 10 8 8 9 10 13 14 16 19 18 20 18 18 17 16 14 15 18 15 20 19 18 15 
140 144 146 149 144 142 143 140 140 141 137 140 149 182 164 120 62 13 5 4 4 6 6 10 10 6 9 9 7 7 6 6 11 9 8 8 6 7 9 7 8 3 4 6 7 7 7 6 6 4 4 2 4 7 6 5 8 9 8 4 5 4 7 8 14 19 18 20 19 21 17 18 17 19 22 20 22 20 18 17 
148 145 147 144 144 141 142 138 141 143 140 143 153 185 149 104 37 10 9 8 7 5 5 6 8 9 5 6 6 6 7 8 9 7 7 10 10 7 8 3 3 6 6 8 3 5 3 3 4 5 8 5 7 7 7 7 8 12 11 8 4 6 6 8 11 18 18 20 22 21 22 24 20 18 19 21 20 22 17 20 
146 145 148 146 143 141 140 141 140 140 135 144 166 181 134 93 24 12 7 9 7 7 8 11 8 7 11 9 11 11 11 8 12 8 9 8 5 5 12 9 3 6 6 7 8 8 7 5 1 7 5 6 6 12 6 10 8 9 10 8 11 8 6 4 7 7 16 14 17 19 18 23 21 19 21 21 23 23 19 18 
145 144 145 142 141 141 142 139 141 140 139 144 173 174 122 72 13 10 7 8 7 5 5 12 9 9 7 7 11 10 10 9 10 5 7 8 8 7 6 7 6 7 8 6 5 7 8 3 8 9 7 6 5 9 8 8 8 10 10 7 7 5 6 6 6 9 11 11 18 22 20 21 22 23 22 22 22 24 21 22 
146 141 144 142 145 143 138 142 138 139 138 152 179 156 109 44 12 11 6 9 10 5 6 10 9 7 7 10 7 9 9 9 9 7 8 5 8 6 8 6 5 8 6 8 6 6 7 3 5 8 6 7 3 10 5 8 8 11 8 7 3 7 7 8 8 10 8 13 14 17 22 18 19 19 25 23 24 24 20 26 
144 142 144 143 142 140 142 140 139 139 142 162 176 140 100 31 13 12 8 10 6 9 8 8 11 8 10 11 9 8 8 12 9 9 6 5 8 10 7 12 10 10 7 11 11 8 10 6 8 10 12 7 7 11 5 9 9 9 7 6 10 8 9 10 8 13 11 12 17 18 23 22 23 23 20 21 23 21 23 20 
143 139 142 141 140 140 139 138 135 137 138 169 173 128 79 17 9 8 8 7 6 4 6 10 9 4 10 6 10 9 6 8 7 6 9 11 4 6 9 8 6 10 10 8 8 9 8 3 5 7 8 5 5 7 6 10 7 8 6 6 8 4 5 7 7 9 10 15 16 22 21 22 27 20 20 18 20 25 24 22 
140 137 142 140 141 137 136 134 137 140 150 180 159 114 59 13 8 10 9 5 6 6 7 10 7 11 8 7 9 10 8 8 8 9 6 7 8 8 6 7 7 11 10 11 8 8 5 4 6 8 7 3 2 6 6 9 8 9 10 8 6 1 5 8 6 9 13 15 19 23 21 22 23 19 22 21 22 26 21 22 
140 139 143 139 137 139 136 134 139 141 155 183 148 105 39 13 7 8 6 9 5 6 6 11 10 9 6 10 9 8 9 9 9 10 10 10 8 5 9 7 7 7 14 12 12 7 4 4 7 8 8 5 6 7 6 7 8 11 6 7 8 8 8 9 8 8 18 21 24 25 25 25 22 18 21 19 18 22 20 21 
134 141 143 136 137 138 137 138 139 146 163 180 133 95 25 6 4 6 3 7 4 6 9 8 9 9 9 10 8 10 7 3 6 5 6 10 5 5 8 7 8 9 11 10 10 12 8 4 6 7 4 7 7 9 7 8 6 6 6 9 3 5 6 7 12 16 20 21 20 25 22 26 20 21 20 20 20 22 23 19 
136 141 141 139 139 135 135 138 141 151 177 173 125 77 15 11 5 8 6 4 6 5 7 7 11 9 5 6 9 10 8 3 11 8 5 6 8 7 7 5 7 10 11 9 9 9 8 10 5 12 5 5 5 7 6 9 7 12 9 6 5 8 10 14 14 19 24 23 22 23 25 24 20 20 18 21 17 21 22 22 
138 141 138 140 140 137 135 137 140 154 187 165 113 55 15 10 9 10 7 6 4 5 7 6 8 7 6 9 8 9 6 7 8 5 8 4 5 6 6 9 3 10 11 10 10 7 7 6 6 8 6 8 3 7 10 8 6 10 9 8 6 7 12 18 19 19 22 19 24 22 25 22 19 17 15 15 20 20 21 19 
137 138 136 141 138 136 133 133 143 167 187 150 106 34 14 8 6 12 8 6 7 5 8 7 8 7 8 8 6 8 5 3 8 6 6 6 7 4 5 8 6 7 9 8 7 11 4 5 7 11 5 6 4 8 8 6 4 8 6 6 6 13 16 20 17 18 21 18 21 23 21 21 19 18 18 15 13 17 17 16 
134 136 136 138 137 136 135 140 145 175 187 142 92 20 13 13 7 12 8 10 7 8 12 9 7 3 10 8 8 9 10 9 8 10 8 10 2 7 5 8 8 7 7 5 9 7 6 8 8 9 4 8 8 9 5 9 7 13 9 8 11 15 19 18 18 18 16 20 19 20 17 20 17 18 18 15 18 19 17 21 
136 137 136 137 139 136 137 140 151 186 179 127 74 16 13 11 7 11 9 10 5 8 6 8 6 7 7 8 9 9 4 7 7 8 5 4 5 5 7 7 5 7 7 4 7 4 3 5 6 4 8 6 6 7 8 8 8 7 8 16 16 17 18 15 16 20 18 20 16 16 17 17 18 14 19 16 13 16 17 17 
135 137 141 138 137 136 135 144 156 191 162 120 49 15 13 5 3 9 7 8 5 7 7 5 9 8 6 8 9 9 10 9 6 9 8 8 3 4 8 7 9 5 8 4 5 6 6 6 3 8 6 6 6 7 7 10 9 7 17 16 14 20 11 17 18 18 18 18 16 18 17 21 16 13 17 17 18 16 14 15 
137 135 136 139 138 136 141 145 164 193 148 111 32 12 9 12 5 13 8 7 4 6 4 9 10 8 7 7 7 13 10 8 7 7 9 5 7 7 9 7 7 7 7 8 7 12 5 4 5 7 10 7 6 9 9 7 11 15 15 17 16 17 17 14 18 16 15 13 15 14 18 20 17 17 17 12 20 17 16 16 
138 138 138 139 141 135 142 149 172 181 136 97 23 13 12 10 6 9 8 9 10 10 7 10 10 10 7 10 13 11 9 14 7 8 7 9 7 5 11 8 10 7 10 10 8 6 10 8 10 10 7 8 12 14 13 13 19 17 20 16 18 16 17 21 19 18 18 15 16 17 14 20 18 19 21 18 19 19 14 16 
137 135 139 137 138 137 135 146 185 171 125 78 17 10 11 7 2 7 3 8 4 4 5 9 9 8 8 8 8 11 4 7 6 8 4 5 8 7 8 6 7 7 9 8 8 7 4 5 6 8 10 10 8 11 12 12 16 15 14 15 16 15 16 17 16 14 15 12 15 12 12 14 18 16 18 17 17 18 14 16 
137 132 139 136 136 136 143 156 184 158 113 53 15 10 7 6 3 5 2 4 4 3 8 8 11 8 9 8 7 6 9 6 9 7 11 6 7 6 8 7 7 8 7 8 6 6 7 8 11 7 8 8 11 13 11 14 16 15 17 16 16 14 16 14 9 13 11 11 11 13 16 13 17 15 17 15 19 16 14 17 
139 134 140 140 137 138 142 163 186 150 112 40 10 11 9 9 2 2 4 6 4 5 8 8 11 6 5 9 11 7 6 7 5 5 7 8 6 9 9 7 11 7 8 7 8 8 7 7 9 12 11 7 14 16 19 14 15 15 20 13 15 16 13 12 13 14 15 13 13 14 15 14 16 19 16 20 21 23 16 16 
139 136 140 139 139 141 149 177 190 151 108 31 14 14 7 8 8 10 5 6 6 10 10 11 11 10 10 8 12 7 10 7 10 8 7 6 11 12 10 9 10 12 11 9 8 9 14 9 12 13 15 19 17 18 16 17 18 19 16 19 20 18 13 13 14 13 15 14 15 14 13 19 20 15 20 19 21 17 18 17 
140 139 140 140 139 143 152 194 194 160 87 23 11 10 6 5 5 7 3 7 7 8 8 10 13 4 8 10 7 10 8 9 9 6 7 5 8 9 10 12 6 8 5 7 9 8 8 7 10 12 15 15 15 19 16 15 14 15 15 17 14 11 11 14 12 12 13 12 12 12 17 15 19 17 17 13 15 16 15 15 
141 140 140 143 143 151 164 198 185 157 64 19 12 7 7 3 2 7 2 5 5 7 5 9 10 8 10 6 7 10 6 8 9 6 4 2 9 10 9 7 9 11 7 5 9 8 6 4 5 16 14 14 12 17 14 17 15 14 14 13 12 12 14 13 10 12 12 17 16 11 14 14 17 18 13 12 17 19 16 13 
133 130 135 131 130 135 132 139 149 126 40 20 7 6 4 7 6 5 5 5 4 6 9 10 11 7 7 9 7 6 5 9 3 9 8 8 4 10 11 8 7 5 6 7 11 6 5 8 9 15 14 15 13 15 17 13 16 15 11 10 10 12 11 12 13 13 14 16 14 14 14 15 18 15 19 16 15 14 16 14 
117 112 113 110 109 109 112 113 119 90 23 17 9 9 8 9 6 4 7 3 3 5 6 8 9 8 10 12 8 12 6 4 5 7 9 6 4 6 12 10 8 7 7 9 9 5 8 6 6 10 14 17 13 13 12 12 15 12 13 12 12 13 13 12 9 11 11 15 13 15 14 15 13 16 18 16 19 15 15 10 
105 98 99 97 91 96 93 88 79 54 18 18 9 11 9 8 8 4 4 9 5 9 12 12 12 8 8 7 10 12 9 13 9 6 8 8 9 12 10 10 10 6 8 9 9 7 8 8 7 11 15 14 12 18 16 16 11 9 10 10 12 16 12 14 13 15 15 21 15 17 11 15 22 19 22 15 18 18 14 10 
84 70 67 65 55 50 42 34 26 22 14 17 10 14 11 10 6 8 5 7 9 6 8 11 9 8 13 12 13 7 9 10 9 11 8 7 9 6 10 9 9 8 10 9 11 11 7 8 9 13 12 14 11 18 16 10 10 9 12 12 11 15 14 16 16 18 16 15 19 12 17 16 18 16 19 18 23 18 14 12 
33 26 30 27 22 23 26 21 18 18 14 19 8 12 14 8 8 8 7 7 6 6 9 12 14 6 9 10 9 11 10 8 7 7 6 8 11 7 8 11 7 10 9 9 12 9 8 9 10 10 11 11 11 17 13 6 7 12 9 12 11 13 14 17 16 15 15 15 16 17 21 18 21 19 19 17 20 15 19 17 
23 18 22 21 23 14 14 15 15 17 11 19 13 7 12 11 6 10 7 8 9 6 7 6 9 14 10 9 9 10 9 11 8 5 8 9 7 7 9 10 9 9 10 9 10 6 6 8 11 8 10 9 8 11 8 11 6 8 7 13 10 10 11 15 14 12 17 17 12 19 17 17 20 18 22 17 23 19 14 18 
17 14 16 18 19 17 17 15 17 18 14 17 13 11 9 13 6 8 9 11 5 8 12 8 13 11 9 8 12 11 9 12 7 9 11 11 10 11 9 10 10 7 8 11 9 5 7 7 8 11 12 8 10 12 10 5 8 11 14 13 12 12 13 14 14 13 18 15 16 19 18 18 24 20 22 19 20 20 17 13 
17 13 19 13 18 16 12 14 15 20 15 14 11 12 11 12 9 9 11 10 8 7 15 13 15 12 7 10 9 10 11 12 8 7 10 11 10 11 10 12 12 11 9 7 11 8 9 12 6 9 9 9 7 13 11 8 9 9 14 11 15 13 14 16 13 18 21 19 22 20 20 23 24 21 21 19 18 18 14 16 
17 14 15 19 20 15 16 14 18 18 14 17 17 13 11 11 8 11 5 10 11 9 11 12 9 15 10 11 11 12 12 11 11 5 8 10 11 12 14 10 15 8 10 8 8 8 11 11 5 7 10 7 7 11 8 9 10 13 11 11 14 16 15 12 17 15 18 15 20 21 22 25 25 20 19 20 21 18 14 18 
12 12 14 17 14 14 15 14 18 14 16 19 15 17 12 8 9 6 6 6 9 11 7 12 13 12 7 10 11 14 8 13 8 10 8 12 9 8 11 10 8 10 7 9 6 8 8 6 8 10 9 5 8 8 6 6 14 10 8 12 12 12 15 15 15 18 18 16 18 22 19 20 20 20 26 18 22 13 20 16 
12 16 17 13 13 14 14 11 11 17 14 17 13 10 9 11 9 11 10 10 12 10 8 13 11 10 13 13 8 12 11 10 7 11 10 14 10 10 13 9 7 8 6 11 7 12 9 10 13 9 11 7 9 12 10 10 11 10 14 15 15 12 16 18 19 14 17 18 19 20 22 22 21 19 25 21 22 21 18 20 
13 8 12 13 13 13 7 11 17 18 13 12 9 10 10 11 9 11 10 11 7 14 11 12 12 11 9 12 10 11 8 10 10 10 10 12 11 10 9 9 8 9 9 9 9 8 8 11 12 9 10 8 5 7 6 9 10 10 15 14 13 15 16 20 21 16 18 18 18 20 21 22 26 23 24 18 22 21 24 22 


