P2
80 60
231
179 181 178 178 174 176 170 169 169 159 157 156 152 152 148 146 152 155 157 159 172 222 216 155 88 20 15 15 15 11 11 11 15 13 13 14 10 11 12 13 15 12 15 10 9 9 12 12 11 10 16 15 13 14 16 15 15 16 14 18 16 16 20 19 18 19 17 20 21 19 20 20 24 23 22 21 22 19 17 14 
184 182 176 176 177 172 169 167 164 157 157 159 153 150 149 149 148 153 152 162 190 231 192 138 50 18 12 12 10 11 11 14 10 9 8 9 11 11 11 10 12 12 14 10 10 8 9 8 9 9 11 16 10 11 13 13 12 14 16 17 17 16 15 15 19 21 15 17 16 17 14 20 25 20 19 19 21 20 21 18 
184 177 174 177 176 171 168 167 164 160 152 156 151 150 149 145 149 153 152 164 203 224 167 104 29 15 10 10 6 12 12 11 10 10 12 12 10 11 9 13 14 12 15 8 7 5 7 9 8 12 11 12 11 11 12 11 15 12 18 14 15 12 16 19 18 18 14 16 15 16 20 18 22 20 19 21 19 18 17 17 
178 178 177 175 173 163 167 161 161 156 152 154 147 147 147 146 148 150 155 174 222 204 142 71 21 9 11 12 11 12 12 8 8 13 8 11 10 9 9 12 10 8 12 7 10 5 9 12 9 12 10 8 11 9 11 11 11 9 14 16 15 12 10 12 14 19 13 16 14 16 15 16 20 16 18 17 17 17 14 8 
177 176 174 172 176 171 163 163 161 155 151 153 146 149 145 144 146 152 157 186 228 175 121 42 16 12 11 10 13 12 9 11 9 12 8 15 12 10 10 12 12 9 9 7 11 6 6 8 8 8 6 10 10 7 11 10 13 12 13 16 16 14 14 17 17 14 13 13 13 16 16 16 19 16 19 21 19 18 19 15 
172 174 177 170 171 169 164 160 157 154 153 151 145 145 145 145 145 154 160 200 215 153 93 19 13 13 10 8 10 9 10 10 6 10 12 12 7 8 8 10 8 7 6 3 5 3 4 10 3 8 4 9 8 10 6 10 10 12 11 12 14 9 15 9 17 13 11 13 11 13 16 14 15 15 16 18 16 16 15 9 
175 172 177 171 169 165 160 162 157 156 144 146 143 141 146 145 147 154 167 215 192 133 65 18 10 10 8 9 10 8 8 8 9 12 12 10 9 11 10 9 12 11 9 8 9 6 7 10 6 11 8 11 6 9 9 13 9 12 7 11 11 12 11 13 13 11 14 15 15 13 12 13 16 14 18 20 15 8 12 9 
173 169 168 164 167 160 163 157 155 153 147 150 144 144 145 145 146 157 179 213 162 111 38 13 11 9 8 8 9 11 8 9 12 12 7 11 11 11 9 6 7 10 9 5 7 5 7 11 8 8 9 13 9 12 12 8 10 12 12 9 13 11 15 9 12 8 10 15 10 14 16 14 15 15 21 15 16 15 13 8 
174 169 168 169 166 161 159 157 153 149 145 150 140 146 143 140 149 160 194 200 147 90 23 11 8 11 9 7 11 10 12 9 8 8 5 12 7 12 9 9 8 6 8 4 8 6 7 9 6 10 10 10 10 8 6 9 8 10 11 10 12 10 13 11 13 12 10 14 11 12 13 13 14 12 15 17 15 14 11 10 
169 167 166 165 162 159 158 156 154 148 144 151 141 143 142 145 147 167 202 177 127 56 11 11 12 8 8 7 10 12 9 12 8 6 8 9 8 8 8 8 9 6 9 5 6 7 7 8 9 10 9 7 9 8 7 9 10 7 9 11 13 10 11 11 12 9 12 11 12 14 13 13 15 14 14 18 13 12 13 11 
165 166 162 163 162 161 156 155 152 150 146 150 142 142 142 141 153 175 205 156 109 31 16 12 10 11 10 6 12 11 10 13 10 10 8 7 8 8 9 11 8 8 7 9 8 10 9 12 17 13 10 9 7 9 9 10 10 12 10 13 13 14 11 13 11 9 13 13 13 12 14 14 13 13 16 18 16 16 13 11 
165 162 160 158 160 160 153 153 154 146 142 145 141 143 140 141 154 192 194 140 78 19 10 9 5 8 10 8 11 9 11 7 10 9 8 10 8 9 8 9 10 10 12 6 7 10 11 12 13 18 13 13 10 7 11 9 8 12 10 11 15 11 10 10 12 10 9 14 10 12 14 12 16 17 16 14 13 16 13 14 
163 160 160 160 157 158 152 154 147 144 141 144 139 147 142 143 162 205 174 122 51 12 11 9 5 10 9 9 11 10 8 9 9 9 9 12 7 9 7 9 9 7 7 10 9 7 12 13 11 14 14 13 10 10 10 11 9 11 7 10 13 10 9 8 7 9 12 9 12 14 11 14 13 15 16 14 10 14 13 5 
162 158 161 159 155 156 152 147 147 146 141 142 138 142 139 145 170 203 152 104 31 11 7 6 8 5 11 7 7 8 9 8 8 6 9 9 7 5 8 7 6 9 4 3 9 8 11 14 12 16 12 11 13 14 11 11 11 14 11 13 11 10 8 10 7 12 8 10 12 11 12 12 16 11 15 12 14 14 22 13 
162 158 156 162 154 154 150 150 146 145 140 141 136 141 140 147 184 193 134 81 17 6 8 7 6 8 11 8 8 9 10 8 9 7 7 9 6 7 6 7 6 6 5 7 8 10 15 14 14 11 13 11 16 13 10 14 16 13 12 13 11 12 11 8 11 7 9 12 9 9 12 13 14 15 12 13 15 13 13 13 
155 155 155 157 152 153 148 153 146 140 140 142 133 142 140 157 198 173 116 55 11 6 6 4 8 11 6 8 9 7 5 7 8 5 6 5 5 5 6 4 7 6 6 7 11 12 14 11 11 10 11 13 12 11 13 13 13 17 15 11 14 10 6 9 7 11 10 12 7 9 11 14 12 11 13 13 15 14 13 16 
155 156 155 156 152 155 150 150 148 142 136 141 134 143 141 171 198 153 108 27 9 7 11 6 8 7 8 10 8 9 6 8 8 8 10 9 7 6 7 7 7 6 9 7 8 10 13 13 13 12 12 16 14 14 13 14 14 15 13 14 16 11 11 9 11 11 9 13 11 12 12 13 12 13 16 19 17 13 11 10 
156 155 153 153 154 154 153 148 145 142 136 141 134 145 150 186 190 140 84 16 7 7 8 6 8 9 8 7 9 9 9 7 8 6 6 8 5 8 8 7 7 5 7 5 9 9 5 9 13 11 10 16 12 15 17 12 14 13 14 15 14 16 14 10 11 10 10 11 11 10 11 11 12 13 16 15 16 14 10 11 
154 152 153 149 150 152 146 146 145 144 134 140 132 146 155 196 174 128 56 8 4 7 9 4 7 8 8 9 6 6 6 8 7 6 8 7 7 13 8 6 5 6 6 5 5 4 11 5 6 10 8 10 12 12 12 11 14 12 14 15 17 16 11 17 14 12 10 11 9 9 9 11 15 11 14 14 14 14 15 12 
151 155 152 151 149 148 149 144 142 138 137 136 133 146 165 198 154 112 29 8 4 7 7 6 8 7 9 7 8 8 9 9 8 7 6 5 7 6 7 9 6 4 7 10 11 6 8 6 10 7 6 8 11 11 12 12 14 15 13 17 13 16 15 15 17 17 14 13 11 11 9 8 13 10 18 13 14 12 12 13 
153 152 152 149 151 151 143 145 141 141 134 137 135 147 182 190 137 90 13 8 6 7 8 4 9 9 8 6 8 8 8 6 7 6 10 8 5 8 8 8 8 7 7 9 5 7 8 6 8 9 3 6 6 8 11 9 11 16 16 17 11 15 14 14 19 19 17 16 15 7 10 14 13 9 15 16 15 16 11 12 
155 149 150 152 147 148 144 140 139 136 134 134 135 150 189 169 116 62 10 5 6 5 6 2 9 9 8 6 10 7 8 6 5 7 8 6 8 7 5 5 3 7 9 6 7 5 10 5 7 6 6 7 4 9 7 8 10 12 12 15 14 14 17 13 16 21 16 18 18 13 10 12 15 14 11 14 16 12 12 9 
151 150 146 150 149 146 141 142 136 135 133 137 140 161 189 145 102 34 9 8 2 4 8 8 6 8 10 7 6 2 5 6 8 6 8 6 3 8 4 4 5 4 5 7 2 5 4 1 1 5 5 4 6 7 5 6 5 8 10 12 12 14 13 15 14 14 17 16 16 19 13 13 17 9 12 9 11 14 12 13 
154 147 149 147 143 143 141 141 140 137 134 137 137 170 182 130 83 20 6 6 4 5 6 3 5 6 8 7 5 6 7 3 6 7 2 4 3 4 2 5 3 2 8 2 8 3 4 4 6 4 2 6 4 5 5 3 6 5 8 6 9 11 11 14 16 14 18 19 16 20 16 14 11 15 16 15 17 16 12 12 
152 144 144 150 147 141 139 138 137 136 130 140 142 178 160 118 63 11 11 5 4 7 9 5 9 10 6 7 5 4 8 6 2 4 5 8 8 8 6 5 5 3 7 7 7 4 7 3 6 3 7 3 4 8 7 5 4 3 6 7 8 5 7 9 16 14 16 18 18 20 18 13 18 17 20 20 17 16 16 10 
148 146 147 147 145 143 138 140 137 135 135 138 151 180 145 106 43 16 10 7 8 10 8 7 12 8 8 7 4 3 6 6 7 8 6 6 7 6 5 8 5 5 9 3 7 8 6 3 6 1 3 4 3 7 6 4 8 6 8 8 8 6 5 4 8 12 16 21 20 22 17 18 18 17 20 20 21 18 18 16 
146 142 144 144 147 144 140 141 142 136 133 140 160 179 131 91 21 14 12 8 8 7 10 8 9 10 9 9 5 7 7 9 5 4 5 8 6 4 6 6 6 7 8 4 9 6 3 5 4 4 7 4 6 6 6 6 6 8 6 8 7 5 4 5 8 7 9 12 16 21 17 19 17 16 21 20 19 18 21 14 
149 143 143 148 147 141 136 142 137 133 136 145 170 167 118 68 14 15 11 6 5 8 8 4 8 6 10 6 7 6 6 6 7 7 7 7 5 8 7 6 3 7 11 9 9 7 8 4 6 4 4 6 4 3 7 8 7 5 6 6 6 6 5 5 9 8 11 13 13 15 19 18 20 19 21 23 19 21 17 17 
143 142 142 145 143 142 136 137 136 137 135 152 170 151 108 45 11 12 7 6 6 7 9 8 6 9 7 8 9 8 8 8 7 9 4 5 7 5 4 7 7 4 10 5 7 4 7 6 6 6 6 6 3 6 6 8 5 4 2 6 3 2 4 5 8 8 9 10 11 14 18 17 19 21 21 18 19 19 20 20 
144 144 145 146 143 140 137 138 135 135 135 159 178 133 94 29 11 15 13 12 6 8 12 7 8 5 6 8 4 8 8 9 9 9 4 6 6 8 8 6 9 9 11 10 12 10 7 6 8 4 6 6 5 6 6 5 8 6 5 7 4 4 5 10 10 11 12 12 12 18 19 21 19 18 21 21 21 19 18 19 
148 141 141 143 142 140 137 138 132 133 137 172 169 124 79 18 8 10 10 5 3 7 9 6 7 7 7 9 7 6 6 5 6 6 7 7 7 7 6 10 9 8 10 8 10 6 8 7 4 5 5 6 4 7 5 3 8 4 3 4 5 4 6 2 7 8 8 9 15 17 17 18 20 18 20 16 16 16 20 15 
146 139 140 145 138 135 137 136 133 136 138 177 155 115 56 11 11 11 7 8 4 8 9 6 6 7 6 6 7 5 7 7 5 6 4 5 6 8 5 8 10 8 12 8 10 8 8 7 5 6 5 6 3 6 8 5 10 3 4 5 5 5 3 6 6 4 10 15 19 21 23 20 16 19 17 19 18 18 19 16 
145 143 141 142 144 139 136 136 136 137 148 183 144 106 37 11 9 11 7 8 5 6 10 4 8 9 7 8 8 4 7 5 7 7 4 7 6 6 5 7 10 9 14 11 8 8 8 7 5 6 9 4 4 6 6 4 6 5 6 6 7 3 7 6 10 10 18 18 21 21 22 20 18 19 18 17 20 16 17 17 
142 139 138 145 137 137 135 137 132 138 161 178 128 91 19 11 7 11 7 6 4 8 9 4 5 7 5 8 5 7 6 3 6 4 6 6 5 6 4 9 6 7 10 8 12 9 10 4 5 4 4 2 2 5 6 7 5 3 6 1 5 2 2 8 9 17 24 16 19 23 21 21 19 16 14 16 19 19 20 17 
139 143 137 144 140 140 134 137 137 141 176 175 120 73 16 9 10 9 6 7 4 9 7 8 9 6 9 7 9 4 7 6 8 5 6 4 2 6 5 5 10 9 9 10 9 8 5 7 7 4 4 7 5 5 6 4 6 7 7 8 5 3 8 11 16 19 18 20 20 19 24 20 17 17 17 14 20 18 18 17 
139 143 140 141 142 138 131 140 146 150 184 164 111 53 11 8 9 10 10 12 7 4 6 9 6 7 8 7 8 8 8 6 9 8 6 7 6 7 6 7 11 8 8 9 11 9 5 8 7 6 8 9 4 6 8 7 8 7 6 8 6 4 12 16 17 17 22 22 22 25 20 18 19 16 15 16 17 22 16 19 
140 138 140 140 137 137 136 136 139 159 185 148 98 31 9 9 9 10 8 7 4 5 7 5 6 9 6 2 6 8 8 6 7 7 6 4 6 6 6 4 5 7 10 9 9 9 3 5 6 4 4 4 3 5 5 6 6 7 6 5 9 8 15 16 17 18 15 21 23 22 17 13 15 14 12 13 10 15 16 11 
143 137 138 138 134 137 136 137 144 171 181 136 88 15 8 11 6 14 7 6 4 5 6 4 2 8 8 8 7 6 10 8 8 6 5 4 3 0 8 9 7 7 10 8 8 6 7 6 6 5 2 6 3 3 7 5 8 8 7 5 11 15 16 15 17 17 16 19 18 16 15 12 15 11 15 10 13 16 16 14 
144 137 135 142 139 137 140 139 149 180 172 129 66 14 9 9 8 9 6 6 7 7 7 8 8 8 5 6 7 6 8 7 9 5 3 6 3 6 3 6 6 9 9 8 7 9 8 7 6 8 5 7 5 6 4 6 7 7 9 12 14 16 17 15 15 16 19 20 14 14 14 12 10 13 10 14 8 11 9 11 
140 140 136 142 137 137 135 141 157 187 160 116 45 2 7 5 5 9 9 7 4 4 9 9 8 8 6 5 5 7 8 6 5 9 5 4 6 3 4 5 6 5 8 7 6 6 6 6 5 3 7 6 6 8 8 5 7 7 10 13 14 16 16 15 15 17 18 13 14 13 14 13 10 12 8 11 11 9 13 8 
140 137 136 138 140 140 139 145 166 183 141 106 31 10 10 6 7 8 7 11 7 7 6 7 8 7 8 5 9 7 7 7 9 6 6 5 2 5 4 8 8 10 10 5 10 9 7 7 8 6 5 8 6 7 7 6 9 16 15 15 17 17 17 17 14 15 13 12 11 11 11 10 16 13 12 17 10 14 13 7 
140 135 136 141 136 140 139 149 171 179 133 94 21 13 8 6 9 10 5 7 6 8 6 6 7 7 6 7 7 8 7 8 6 6 7 6 2 5 5 6 6 6 7 7 9 6 7 6 9 8 6 6 6 8 9 13 14 15 16 14 15 16 16 17 15 14 12 12 11 14 11 11 14 14 14 15 10 11 10 7 
141 142 138 141 138 136 138 150 178 167 117 71 11 6 9 7 8 9 4 3 5 6 6 7 9 7 10 5 6 7 6 7 7 6 4 7 7 9 5 7 5 7 5 6 7 6 8 7 7 6 9 7 8 10 13 15 16 16 15 17 15 18 16 15 15 11 9 12 11 10 12 11 13 9 13 14 11 12 8 5 
143 138 136 139 136 135 140 157 182 155 110 51 8 10 5 4 6 10 6 7 4 8 5 6 6 9 8 7 7 7 6 6 8 6 5 6 6 6 7 11 5 7 9 6 8 6 9 10 7 11 9 7 9 13 16 15 13 16 11 14 15 14 12 9 12 10 13 11 13 12 13 9 15 12 14 11 10 10 11 10 
142 140 136 142 141 139 144 164 184 149 108 35 9 10 9 4 6 6 5 6 4 9 8 6 10 9 6 9 10 5 9 9 5 9 7 6 8 8 7 5 12 7 9 9 8 7 8 7 13 11 9 12 12 17 16 15 17 14 15 14 17 15 11 11 11 11 9 15 13 12 8 12 9 11 13 13 15 11 8 8 
141 139 141 139 142 141 145 178 186 145 101 26 9 12 6 5 5 7 4 7 4 8 6 5 4 8 7 9 7 8 11 7 7 8 7 10 6 10 7 9 9 6 7 3 9 5 9 9 7 11 12 13 17 15 17 16 17 15 15 16 15 14 8 10 12 9 11 10 9 9 10 9 9 12 10 11 14 13 7 10 
139 138 137 144 141 145 149 198 191 155 85 19 7 8 7 4 5 7 6 7 7 8 6 7 7 5 7 9 11 7 11 10 7 5 5 8 7 8 6 6 6 8 11 6 10 7 7 5 10 10 14 14 16 16 14 14 14 16 15 18 11 9 12 12 12 10 9 11 11 11 7 9 10 12 14 14 12 10 13 11 
140 141 145 148 152 150 161 194 182 153 58 15 8 10 7 4 6 10 6 6 5 7 10 8 7 12 6 6 5 8 9 9 5 7 6 5 7 8 6 7 11 6 8 7 9 5 6 6 10 13 12 16 13 11 15 14 15 14 13 11 7 8 8 10 10 13 11 11 9 13 11 10 13 12 13 15 14 11 11 11 
141 133 133 133 138 133 133 139 150 126 34 14 7 9 4 6 6 10 4 6 6 7 7 8 7 7 8 5 11 11 8 9 7 7 7 7 5 8 8 7 10 6 10 6 8 8 3 9 12 13 17 14 14 14 14 13 15 17 10 10 13 9 11 12 13 11 9 14 11 13 9 10 13 10 13 13 13 10 12 14 
125 115 113 116 112 114 110 115 113 84 24 14 3 6 5 3 9 6 7 7 8 8 10 7 7 10 9 9 8 10 7 7 8 8 10 6 8 6 7 11 10 7 8 7 10 5 8 9 9 9 15 16 13 12 17 15 15 10 10 10 11 10 11 10 15 15 14 13 9 12 11 10 13 14 13 8 15 12 11 11 
101 100 98 98 98 94 91 86 76 52 12 14 7 11 8 4 10 11 7 9 4 10 12 8 9 10 9 10 8 7 10 10 9 6 5 10 8 8 7 6 12 9 13 8 9 7 9 11 5 9 14 14 18 14 18 18 12 9 9 9 11 9 11 10 14 10 12 13 12 13 13 11 17 14 14 14 13 9 9 11 
83 73 65 68 58 52 40 34 29 17 13 15 5 10 6 4 7 10 11 11 9 7 10 8 9 12 9 10 10 10 12 11 13 12 8 8 10 9 9 12 11 7 14 8 12 13 9 10 8 7 13 15 16 15 15 13 9 7 10 8 11 10 14 13 12 10 11 14 14 11 13 10 16 14 13 14 14 9 14 11 
38 31 25 29 28 22 26 19 17 10 10 13 9 11 7 7 9 15 7 9 9 9 12 10 11 11 8 9 9 9 9 8 10 12 7 10 9 7 6 8 8 10 13 9 11 11 9 8 10 6 9 8 14 14 13 7 9 11 9 10 14 13 16 12 11 14 13 15 14 11 15 14 14 14 15 13 13 13 12 13 
23 20 18 22 23 20 14 15 14 16 11 13 4 8 10 3 8 13 12 6 5 13 7 9 9 10 9 8 12 11 4 9 6 12 7 5 9 8 9 7 10 5 11 10 12 10 6 11 6 5 10 11 6 7 8 6 10 10 11 12 10 9 11 13 15 14 14 19 14 13 16 13 15 14 12 17 18 12 11 12 
23 21 19 23 18 21 16 18 18 16 15 15 11 12 10 10 12 16 7 6 11 11 9 8 11 13 9 9 13 9 9 10 13 10 11 9 11 7 8 10 12 12 14 12 11 7 9 8 11 11 11 9 9 8 11 7 11 9 12 13 16 9 15 12 16 18 19 14 17 17 18 17 21 19 16 13 14 14 12 12 
22 18 19 21 17 18 18 15 15 13 13 16 13 14 13 11 11 13 11 14 9 11 13 11 12 14 10 11 13 11 11 11 9 11 7 9 7 11 12 12 12 10 11 12 12 11 12 11 11 10 12 11 7 8 12 9 13 10 12 11 14 15 14 15 16 19 18 20 18 18 19 16 16 17 17 19 18 14 13 8 
19 20 16 22 21 17 14 16 16 16 11 18 10 11 10 10 9 11 8 9 10 11 10 9 12 11 12 10 13 9 12 13 13 10 8 11 11 11 9 11 10 9 11 11 11 9 12 10 8 11 8 9 10 11 10 9 10 10 11 14 12 12 12 16 15 16 14 19 16 16 19 22 17 19 16 14 15 14 13 12 
16 16 18 19 16 18 13 14 14 9 9 11 11 12 13 8 13 13 7 8 9 9 13 8 9 10 13 9 12 8 12 12 10 11 11 14 10 9 8 9 11 8 12 11 12 13 7 8 9 6 9 7 9 7 11 11 11 10 13 14 15 15 14 16 15 14 18 17 18 22 21 19 16 16 15 20 17 14 15 10 
20 11 18 21 21 18 13 15 14 10 12 15 10 9 12 10 9 13 9 9 8 8 10 6 12 9 10 8 12 9 13 8 10 10 10 10 10 9 10 9 10 8 6 10 9 7 9 10 9 11 6 8 8 10 8 9 12 11 11 14 19 16 14 16 16 17 17 17 19 15 15 19 19 18 16 20 17 13 16 11 
15 11 14 17 15 13 15 12 14 16 10 16 8 8 11 8 10 10 9 7 9 7 11 4 9 10 7 11 9 9 12 8 11 6 6 9 7 8 10 6 11 8 9 6 12 9 9 8 9 11 8 9 11 9 10 8 12 9 10 12 13 15 16 17 16 15 19 17 19 20 17 17 15 16 17 18 16 16 17 17 


