/* XPM */
static char * TD_Icon_xpm[] = {
"32 32 87 1",
" 	c None",
".	c #000000",
"+	c #070611",
"@	c #0D0C21",
"#	c #130B22",
"$	c #250B24",
"%	c #1C081B",
"&	c #17153A",
"*	c #1A1843",
"=	c #272364",
"-	c #2A266C",
";	c #342F85",
">	c #822B8E",
",	c #942A90",
"'	c #AF2E74",
")	c #C12E3C",
"!	c #A62734",
"~	c #7C1D27",
"{	c #722F1B",
"]	c #4C3B07",
"^	c #3E3803",
"/	c #1D1A4B",
"(	c #702C8C",
"_	c #B92F6B",
":	c #DD3445",
"<	c #EB8929",
"[	c #F6D310",
"}	c #F8DE0C",
"|	c #C23061",
"1	c #E0493E",
"2	c #F3BE17",
"3	c #E56933",
"4	c #EC9425",
"5	c #3C2D07",
"6	c #6A2C8B",
"7	c #DF3F41",
"8	c #EE9E21",
"9	c #370D11",
"0	c #582D89",
"a	c #992B8B",
"b	c #CF3253",
"c	c #E2543A",
"d	c #642D8B",
"e	c #BD3066",
"f	c #2E0C1B",
"g	c #E45F37",
"h	c #D4334E",
"i	c #B42E6F",
"j	c #3A2F86",
"k	c #A22C82",
"l	c #E77430",
"m	c #24205B",
"n	c #402E86",
"o	c #D8334A",
"p	c #E97E2C",
"q	c #41194F",
"r	c #8E2A8F",
"s	c #CB3258",
"t	c #9D2B87",
"u	c #882B8F",
"v	c #7C2B8D",
"w	c #5E277A",
"x	c #130512",
"y	c #5D1A5A",
"z	c #C6315C",
"A	c #F1B41A",
"B	c #462E87",
"C	c #211D53",
"D	c #41112D",
"E	c #141232",
"F	c #0E0304",
"G	c #D3463A",
"H	c #312C7D",
"I	c #030308",
"J	c #7C6F06",
"K	c #F0A91E",
"L	c #A62D7D",
"M	c #100E01",
"N	c #E9D00B",
"O	c #F5C913",
"P	c #2E2974",
"Q	c #48260E",
"R	c #5E2D8A",
"S	c #781D2C",
"T	c #220E2C",
"U	c #0A0919",
"V	c #100F2A",
"           ..........           ",
"    ........................    ",
"  ............+@@#$%........... ",
" ......+@&*=-;;;;>,,')!~{]^.... ",
" .../-;;;;;;;;;;(,,_:::<[}}}^.. ",
" ...=;;;;;;;;;;(,,|::12}}}}}^.. ",
" ...=;;;;;;;;;(,,|::3[}}}}}}^.. ",
" ...=;;;;;;;;(,,|::4}}}}}}}}5.. ",
" ...=;;;;;;;6,,|:78}}}}}}83:9.. ",
" ...=;;;;;;0,a|:72}}}}}81:::9.. ",
" ...=;;;;;0,ab:c2}}}}2c:::::9.. ",
" ...=;;;;d,ab:c[}}}}<:::::bef.. ",
" ...=;;;(,ab:g[}}}2c:::hia,,$.. ",
" ...=;j(,kb:l}}}}87::h',,,,,$.. ",
"  ..mn>,ko:4}}}}p:::_,,,,,,,$.. ",
"  ..qr,i:78}}}[c::st,,,,,uvwx.. ",
"  ..yaz:c2}}}A7::i,,,,u6B;;C... ",
"  ..Do:p[}}}4::bk,,,u0;;;;;E..  ",
"  ..FGA}}}[g::e,,,r0;;;;;;HI..  ",
"   ..J}}}K7:hL,,,6j;;;;;;;*...  ",
"   ..MNO3::ea,,vB;;;;;;;;PI..   ",
"    ..Q7:hL,,rR;;;;;;;;;;@...   ",
"    ...S',,,(j;;;;;;;;;;&...    ",
"     ...y,vB;;;;;;;;;;;C...     ",
"      ...TH;;;;;;;;;;;C....     ",
"       ...UH;;;;;;;;;&....      ",
"        ...I=;;;;;;H@....       ",
"         ....*;;;;mI....        ",
"          ....+=PV....          ",
"           ..........           ",
"             ......             ",
"               ...              "};
