P2
80 60
205
16 10 10 11 7 7 5 7 15 23 28 37 36 38 36 38 39 41 38 43 43 43 41 40 39 37 39 38 45 48 53 52 51 52 51 50 51 53 51 53 54 50 50 53 53 53 52 50 50 50 52 49 48 54 56 57 59 57 56 53 54 60 60 60 57 61 57 65 61 60 62 59 54 59 58 60 53 55 57 63 
17 13 8 9 10 3 4 9 23 30 31 35 35 41 36 38 39 42 42 41 41 44 43 38 39 36 34 36 42 46 47 47 50 49 49 52 50 53 52 53 53 51 49 52 51 53 50 52 53 51 49 46 50 54 51 51 56 55 57 53 58 60 54 57 57 61 59 60 62 63 63 58 56 56 59 55 53 51 59 54 
12 11 6 11 4 6 14 16 27 30 34 35 34 37 38 40 38 40 39 40 39 42 44 40 39 38 34 34 37 46 43 50 48 48 53 51 49 50 48 56 53 50 50 53 50 50 54 50 53 55 55 50 48 52 50 49 49 54 54 51 56 58 56 61 60 59 62 57 58 66 59 60 59 57 60 55 51 51 60 52 
16 9 3 11 11 15 22 21 22 25 32 33 37 35 40 37 38 39 41 42 41 46 37 39 40 39 38 36 35 39 43 45 51 47 50 50 48 50 49 49 48 52 49 44 50 49 51 52 53 53 56 50 48 51 45 43 47 48 48 52 55 55 55 58 58 55 58 60 58 59 65 59 56 58 56 59 56 52 55 54 
15 7 8 13 20 26 25 26 27 24 29 34 36 34 38 36 38 38 40 40 38 42 38 39 38 42 38 37 35 39 43 45 44 49 47 49 48 47 47 47 50 48 50 50 44 47 50 51 52 51 55 50 47 47 44 46 46 46 51 50 53 54 59 59 59 57 57 60 62 58 60 53 59 59 55 56 54 54 53 49 
13 0 12 22 26 25 30 27 23 26 28 31 40 34 35 36 36 36 37 37 37 39 38 37 39 39 40 35 37 34 37 43 43 47 44 48 49 48 45 47 46 46 45 48 48 48 48 49 50 51 51 48 49 48 44 43 43 47 47 46 49 52 56 54 58 56 59 54 57 53 53 53 58 51 56 59 53 54 53 52 
8 14 22 28 31 32 31 29 29 23 27 26 34 32 37 37 36 39 37 36 40 37 40 38 36 39 41 37 36 33 34 40 41 44 46 48 48 45 45 46 48 43 48 49 47 46 49 49 50 51 52 51 53 47 47 42 44 46 46 47 51 48 57 56 57 58 58 65 59 55 57 59 57 58 61 58 57 53 53 52 
20 19 24 34 31 33 28 27 31 28 24 24 33 33 38 34 38 36 35 35 40 39 37 40 40 38 37 38 38 34 37 37 40 41 43 45 45 46 45 43 42 43 44 43 48 46 49 48 50 49 53 53 48 52 47 44 39 40 46 45 49 56 55 60 55 61 59 54 56 55 54 53 57 56 58 58 56 60 52 50 
27 27 22 33 32 31 32 34 31 26 25 26 32 36 36 35 35 38 39 34 34 37 39 37 38 39 39 40 39 40 36 37 39 39 43 43 46 45 43 46 44 45 47 46 45 46 47 49 48 49 53 51 53 54 53 44 43 39 42 42 50 50 53 56 55 59 58 54 53 56 55 55 52 56 58 56 53 53 52 49 
28 29 27 31 32 30 30 32 31 26 23 21 25 35 32 36 38 37 39 37 36 37 37 37 41 42 34 38 40 39 34 35 32 35 38 43 43 45 45 43 44 43 46 43 48 46 47 46 48 48 53 57 54 56 55 48 44 39 40 41 47 56 54 54 53 60 58 50 56 56 53 55 56 55 55 59 58 56 53 55 
30 32 31 31 29 30 36 36 30 28 24 22 28 34 35 34 38 39 38 37 35 36 38 36 42 38 42 42 41 43 41 34 33 34 39 41 43 41 41 46 45 44 45 43 47 46 49 46 48 48 51 53 53 53 52 51 45 41 41 40 53 56 55 53 59 58 56 52 54 54 56 50 54 59 57 58 55 59 58 51 
30 31 32 32 31 32 33 32 33 32 26 25 25 32 31 35 38 36 37 39 33 37 37 38 37 39 38 42 41 40 38 37 36 34 35 39 42 43 42 43 46 45 46 45 47 46 46 47 48 50 51 52 52 58 54 50 48 48 43 41 50 60 55 56 59 54 54 54 55 53 54 51 57 57 60 57 57 56 55 52 
32 30 31 34 32 33 33 34 31 31 26 22 23 27 30 32 33 37 39 34 36 35 38 42 37 42 36 40 40 39 40 43 37 34 34 35 39 40 42 43 41 42 46 43 43 44 48 45 44 47 52 54 55 56 53 51 47 45 43 49 54 54 58 57 55 58 52 59 54 52 51 51 52 54 57 53 57 55 58 53 
30 31 32 36 36 31 33 33 31 33 28 26 24 28 29 32 35 37 34 36 41 38 38 36 39 40 39 41 40 42 41 42 41 32 29 37 39 41 39 43 45 43 45 45 44 46 46 46 48 49 54 51 53 57 51 50 50 46 47 50 52 55 57 61 54 50 55 54 52 51 52 52 56 55 56 58 54 54 55 44 
35 32 34 36 36 38 36 34 34 36 31 30 25 22 28 31 34 34 37 35 38 41 38 38 38 40 44 41 45 40 43 41 37 40 36 32 32 39 39 43 43 43 45 45 43 43 45 47 47 50 53 52 54 55 52 51 50 46 49 47 52 57 59 54 51 50 51 52 51 53 50 54 55 56 55 57 56 54 54 52 
34 33 34 35 32 33 34 36 37 34 32 29 24 22 26 30 36 34 32 36 37 37 39 39 40 38 42 42 41 45 41 42 41 38 36 35 32 38 39 42 47 45 44 46 45 46 47 42 46 48 53 51 52 53 52 50 46 51 50 54 54 57 56 51 48 48 49 52 52 53 55 50 51 52 53 56 56 56 56 53 
37 33 31 35 32 33 35 36 35 32 28 33 29 22 22 28 33 32 31 33 37 35 37 39 37 38 42 41 43 43 43 42 40 38 37 35 32 35 36 39 40 40 42 43 45 43 45 44 44 49 50 51 53 53 50 49 45 50 51 50 53 55 53 46 40 45 48 49 50 53 51 49 50 54 59 52 54 55 55 52 
39 33 32 35 37 34 33 34 36 35 33 33 29 30 28 24 29 30 32 35 38 37 39 38 37 41 43 43 42 44 43 45 41 40 36 36 35 33 31 37 41 42 40 43 45 45 49 49 47 46 53 51 49 54 51 49 50 49 51 51 51 57 49 43 42 44 48 48 49 51 54 51 52 55 54 56 56 56 58 55 
33 32 34 39 37 38 37 36 36 35 34 30 31 31 27 22 26 28 32 35 36 39 35 38 40 42 42 40 44 43 41 43 44 38 39 39 40 34 33 36 38 41 41 41 40 44 46 44 45 45 47 49 51 51 51 48 48 49 49 47 54 51 49 47 41 41 44 47 47 48 51 55 51 53 55 58 55 54 53 56 
35 35 36 45 34 38 37 33 39 37 35 35 33 34 29 29 29 31 36 40 38 39 42 39 45 42 47 44 44 45 44 46 46 40 41 45 38 34 31 36 37 37 40 46 42 47 48 45 49 51 52 51 52 56 51 53 50 50 50 51 50 50 51 46 46 42 41 49 51 50 52 51 54 54 55 56 61 57 56 54 
37 30 36 39 37 38 37 38 37 37 36 31 33 31 30 26 26 27 28 36 35 38 37 44 41 45 41 38 43 42 43 41 43 42 42 40 37 33 29 31 35 34 37 40 37 43 45 45 47 46 47 51 50 55 55 54 50 48 48 48 48 51 47 47 45 43 43 40 46 45 49 47 52 54 56 55 57 54 57 57 
33 33 37 43 39 38 39 40 37 39 36 36 38 37 31 28 28 25 33 34 40 40 41 42 45 42 43 45 44 43 46 45 49 42 41 43 41 41 31 31 34 34 36 40 39 41 44 48 47 46 48 52 51 55 56 54 56 52 53 51 52 49 49 50 46 45 43 41 47 44 52 55 54 51 55 54 56 56 55 54 
30 27 37 36 35 35 35 38 36 35 30 36 39 36 35 32 24 26 30 34 35 39 39 42 41 40 41 43 42 45 43 45 43 42 41 43 39 41 36 31 30 29 32 34 39 40 43 44 45 44 49 47 53 53 55 53 52 51 53 50 47 52 54 50 47 46 46 43 42 42 50 46 53 50 55 54 55 53 56 57 
30 29 32 36 40 35 37 35 35 36 34 39 36 35 34 35 26 26 24 32 38 36 38 41 42 41 38 42 43 45 41 43 43 44 39 42 37 41 35 33 28 28 30 34 36 41 41 41 45 43 48 47 49 51 58 54 51 52 49 51 48 52 48 53 50 53 51 50 48 48 52 49 50 54 53 53 54 52 56 51 
28 28 29 40 35 35 35 35 39 37 36 39 38 39 38 37 27 23 28 32 32 37 37 40 40 40 43 43 45 45 44 45 42 41 43 42 42 42 38 38 32 27 27 32 36 41 43 43 47 44 47 46 45 51 52 52 52 49 51 50 51 50 52 54 54 55 59 55 54 55 54 52 55 54 54 55 54 54 57 50 
33 31 28 39 35 37 40 39 44 40 40 39 36 39 39 37 36 33 27 29 38 33 35 39 40 42 40 41 43 42 42 44 43 41 41 43 42 41 40 35 34 31 32 34 35 37 44 49 50 47 44 44 50 52 50 50 47 49 50 47 48 50 57 53 55 58 50 55 55 55 55 54 53 53 58 56 55 57 57 54 
32 27 27 36 39 38 36 39 40 36 38 38 40 39 39 36 34 30 25 28 26 34 34 39 34 43 43 41 40 43 45 47 42 43 43 42 42 39 39 40 38 33 32 34 41 46 49 46 46 43 46 46 44 52 45 49 49 50 48 45 46 55 52 55 52 55 53 54 57 56 59 55 52 55 55 54 53 55 59 58 
34 24 26 36 41 37 41 40 40 41 38 39 36 39 40 37 38 37 30 29 28 34 35 39 42 45 42 41 45 48 45 46 43 44 45 45 45 46 43 42 43 43 44 47 48 48 51 50 48 48 48 46 43 48 49 49 47 48 47 44 50 52 50 49 52 53 53 57 58 57 57 54 54 59 57 56 56 55 59 54 
33 24 26 34 38 40 39 40 39 41 41 40 39 41 38 40 38 39 31 27 25 32 31 35 41 40 42 42 45 46 45 47 42 46 45 41 41 42 41 44 46 51 48 48 49 49 48 48 53 49 50 48 45 47 46 46 44 46 45 46 48 51 45 43 48 48 51 51 53 55 56 54 54 55 55 55 53 55 56 60 
31 32 34 36 37 40 39 42 43 39 38 38 38 43 42 40 37 37 36 33 25 30 35 35 39 43 41 43 44 45 45 46 46 44 44 46 44 46 44 47 48 47 47 49 50 49 53 51 50 49 50 46 45 45 48 46 42 44 46 48 47 50 46 45 47 51 46 50 53 51 51 51 53 52 50 50 54 56 55 53 
34 26 21 32 33 36 35 36 43 41 38 39 38 40 40 38 38 38 36 30 29 27 28 33 35 41 41 42 40 46 45 46 44 42 41 45 43 47 46 46 48 47 44 49 47 50 51 46 48 43 43 43 43 45 51 45 49 49 50 48 46 47 46 47 45 49 49 49 49 51 54 49 46 47 45 44 53 53 54 53 
34 30 24 30 32 37 38 40 40 38 40 35 38 36 40 42 37 38 37 32 29 30 26 29 33 37 40 40 43 45 46 45 44 48 45 43 47 45 44 48 50 46 49 48 49 47 46 42 37 43 42 39 43 43 50 55 52 52 52 48 46 45 46 48 47 49 50 50 48 49 51 48 49 46 46 48 51 52 56 53 
34 30 27 28 33 32 34 41 42 37 38 36 37 42 40 41 43 42 38 38 32 27 27 31 35 35 40 41 44 45 48 46 46 47 45 47 44 43 47 47 51 46 47 47 50 47 36 35 35 39 43 43 42 42 50 51 54 54 54 52 49 50 49 51 49 50 47 53 51 48 50 48 48 49 49 47 50 55 54 49 
29 25 26 32 30 34 36 43 39 43 44 35 45 37 42 40 35 40 40 37 34 31 27 30 37 38 38 42 43 44 49 43 46 44 47 42 46 48 45 48 46 49 49 49 44 45 40 39 35 36 42 41 42 42 54 56 55 58 55 52 49 49 49 49 52 50 51 51 51 52 51 52 51 50 47 50 48 54 51 49 
26 27 25 30 27 28 34 39 40 38 41 36 39 40 41 42 42 45 41 41 36 31 29 23 31 34 39 43 42 47 47 46 43 42 46 44 45 44 44 47 45 46 47 45 42 44 41 40 33 35 37 37 37 41 47 57 55 57 55 54 50 49 50 52 49 51 50 49 54 54 54 53 46 48 48 45 44 45 51 46 
24 25 28 32 28 28 34 42 41 40 39 38 40 41 40 45 44 44 43 38 36 36 32 29 30 36 44 45 44 45 43 47 46 43 47 47 48 50 45 49 49 46 45 45 45 42 41 41 36 34 39 39 42 43 49 52 54 56 51 56 53 48 50 52 51 54 51 55 53 57 55 53 51 52 50 48 46 48 48 49 
25 25 27 31 28 28 30 35 38 40 43 42 47 43 39 44 43 44 43 40 36 35 31 29 27 31 39 42 43 43 44 42 44 43 43 46 42 43 44 43 46 43 48 41 43 45 42 40 34 33 38 38 35 43 48 54 55 54 54 52 50 50 52 53 47 50 52 53 53 55 56 53 49 52 49 50 44 47 44 43 
26 25 29 33 27 29 26 38 39 39 39 37 41 41 45 43 44 45 45 45 38 39 35 30 30 30 39 42 42 43 47 47 44 47 43 47 44 45 45 44 46 43 44 42 41 45 43 42 37 34 35 38 40 44 50 56 57 56 55 55 55 51 53 48 52 54 50 51 51 53 55 54 53 53 51 51 48 47 47 45 
29 29 31 36 30 29 30 34 38 42 40 40 43 45 48 46 47 43 48 45 43 42 40 36 32 28 35 42 46 46 49 45 44 47 48 47 44 44 45 44 44 47 48 43 45 44 46 45 38 39 35 36 37 45 47 53 55 54 58 59 54 53 55 51 50 52 53 56 53 56 53 55 55 52 51 52 49 47 48 44 
32 23 28 34 29 30 27 32 39 37 37 40 43 43 44 43 43 41 44 41 45 41 37 36 33 30 33 38 43 47 46 49 47 47 47 46 47 47 46 46 44 44 44 44 42 45 46 45 40 38 39 32 39 46 45 56 53 55 55 53 56 51 52 52 51 50 56 54 53 54 53 52 51 49 55 52 49 48 47 46 
34 28 26 33 29 32 32 30 37 36 41 40 43 45 43 45 46 45 42 44 39 45 38 34 39 33 29 36 42 45 46 47 45 49 46 49 47 48 47 47 47 47 44 45 42 46 42 43 43 41 41 38 39 45 47 55 54 54 55 53 56 57 53 54 51 48 52 49 52 53 52 54 50 53 54 54 55 51 50 54 
33 32 26 33 32 36 32 35 34 38 37 39 45 42 44 48 47 44 44 46 41 45 41 41 37 37 34 32 39 42 42 48 47 47 47 49 46 48 46 48 48 47 48 45 46 46 45 44 44 41 43 42 39 46 45 55 54 55 60 54 53 54 55 56 52 50 50 54 52 53 52 54 50 52 58 55 56 54 52 50 
32 31 27 35 38 35 30 32 32 35 38 38 42 41 43 45 43 41 43 44 43 40 37 41 36 36 35 30 29 36 40 43 45 47 49 48 49 48 43 47 45 46 45 47 47 45 46 43 43 42 44 43 42 42 46 54 54 53 53 54 53 54 52 52 52 54 49 52 51 53 52 52 52 53 53 51 52 55 52 50 
37 33 29 31 34 35 33 34 34 33 37 41 43 44 42 43 44 42 43 48 43 42 42 41 40 34 39 32 33 37 38 44 46 48 46 47 50 47 44 48 46 46 49 46 50 48 45 46 44 44 47 46 44 43 44 51 54 55 52 55 52 54 53 52 54 54 51 54 51 50 52 50 52 48 54 53 56 56 58 54 
37 34 32 32 32 39 36 34 36 41 33 42 40 41 43 44 45 43 42 44 45 45 41 41 40 40 36 34 31 38 40 43 48 45 47 47 50 50 49 50 51 49 52 48 44 48 47 46 47 48 50 48 45 44 45 48 52 53 51 50 51 51 52 54 52 54 55 52 52 57 54 53 53 52 57 59 55 57 55 53 
39 36 33 34 33 34 40 40 38 39 38 41 43 43 45 48 48 47 43 43 44 46 47 45 47 48 46 41 37 34 40 44 44 46 48 50 49 49 47 49 52 54 50 51 51 47 49 49 50 51 52 50 51 47 46 50 53 54 55 54 56 53 52 56 54 58 53 56 55 53 54 53 55 57 56 57 59 57 60 52 
41 38 33 33 32 36 34 38 37 36 34 41 42 41 45 43 45 45 45 43 43 44 45 43 44 45 46 40 37 37 36 38 41 40 45 46 49 45 48 51 48 50 49 49 45 50 46 46 50 47 49 50 51 52 45 46 52 52 55 53 52 53 52 54 51 54 54 55 53 53 51 52 54 52 55 54 54 57 59 55 
39 37 28 33 27 32 36 35 39 35 35 39 43 42 42 45 43 44 42 42 47 44 45 45 49 44 43 44 40 35 38 37 38 43 44 46 45 51 49 48 49 49 45 47 44 45 47 49 47 48 52 56 51 49 47 43 49 51 50 49 55 53 55 52 54 51 53 52 54 52 54 51 52 53 53 55 55 57 58 50 
42 36 33 32 31 30 36 36 38 38 37 36 40 41 46 44 41 42 44 44 47 44 48 45 46 44 42 40 43 43 35 36 36 42 44 47 48 47 50 50 50 47 49 46 50 48 51 47 45 49 51 53 49 51 45 47 52 53 52 50 53 53 51 56 51 51 53 53 51 49 52 50 54 53 58 56 56 56 54 51 
47 33 34 34 32 29 31 36 40 39 35 37 40 39 44 42 42 44 42 48 44 46 43 47 47 43 44 43 41 41 36 39 35 41 42 44 40 48 46 44 49 46 47 48 49 46 46 44 47 44 53 51 53 53 48 44 49 48 52 52 51 55 52 51 51 54 52 52 49 49 53 50 52 55 56 53 54 54 57 52 
50 36 37 34 31 31 28 35 43 41 35 38 40 43 43 43 42 48 46 46 50 44 48 50 46 48 48 46 46 44 41 40 35 37 41 45 46 48 48 47 46 45 46 45 49 46 47 45 48 46 53 54 52 51 49 49 49 47 49 50 51 53 50 52 51 54 54 53 53 49 54 50 53 50 57 55 56 56 56 54 
52 39 34 38 36 30 32 36 40 44 37 37 40 40 41 45 49 48 46 48 51 48 52 49 53 52 47 45 46 44 42 45 37 36 41 44 45 49 48 46 46 47 49 49 45 47 46 49 51 52 53 49 54 54 50 47 50 51 53 46 54 52 52 52 55 55 56 54 52 55 57 51 51 58 58 60 57 58 59 54 
55 39 39 39 32 37 34 38 41 39 38 34 40 37 43 44 44 49 49 48 49 51 49 49 49 51 46 47 45 49 47 42 36 37 39 42 46 49 45 47 46 44 43 48 45 47 48 49 50 49 53 49 51 52 49 47 49 54 52 50 51 49 52 55 53 53 55 51 49 51 54 51 51 54 56 56 57 57 61 53 
59 43 37 40 38 34 36 38 40 40 39 37 37 38 38 44 45 45 44 48 47 47 50 50 51 49 49 46 48 49 42 43 41 35 39 43 43 47 47 45 48 46 45 50 46 46 48 47 48 46 52 47 51 52 46 47 50 49 51 49 49 51 47 51 53 53 53 49 50 52 56 57 51 54 52 57 57 56 62 60 
99 50 41 42 38 37 39 36 37 38 40 37 28 35 40 45 47 46 46 47 47 51 49 53 54 52 50 51 50 49 47 45 44 37 36 40 43 50 45 44 49 47 47 50 46 47 48 48 49 47 51 50 54 53 48 48 47 55 54 49 51 51 52 49 49 53 52 50 53 55 54 53 54 56 58 55 55 56 54 56 
132 56 45 45 40 38 40 36 35 36 41 41 37 35 42 42 45 48 49 47 48 50 54 51 55 53 52 49 52 49 49 50 44 43 40 35 37 46 45 49 46 46 48 49 47 47 50 49 52 49 52 54 51 49 50 48 50 48 49 52 54 55 55 53 54 58 52 55 51 53 56 54 52 56 56 54 55 57 58 54 
163 82 51 45 39 37 39 40 39 39 37 46 41 39 39 44 42 47 47 50 50 47 53 52 54 55 51 50 52 53 50 50 45 44 40 39 36 43 44 48 48 48 49 46 45 46 49 47 48 48 53 49 51 50 50 51 51 53 53 50 53 54 55 55 54 55 55 50 55 55 53 53 55 59 59 54 58 61 61 52 
180 111 51 45 45 39 40 36 38 36 38 40 38 36 37 38 44 46 48 44 49 46 49 51 51 50 51 50 50 51 46 46 45 43 41 36 34 37 40 43 43 47 46 49 46 44 47 45 49 48 48 49 48 52 51 49 48 50 48 49 49 51 50 51 48 51 53 52 52 55 52 52 53 50 53 56 56 52 60 58 
191 146 65 44 44 37 38 37 33 35 35 38 39 37 41 35 44 44 51 48 47 48 53 50 50 54 53 52 49 55 49 47 47 45 42 38 35 35 38 44 47 44 45 45 44 44 46 47 45 45 52 52 50 52 51 48 48 49 48 47 45 49 47 45 45 48 50 53 54 51 51 52 53 54 53 55 56 54 64 54 
205 171 99 57 43 37 41 40 41 40 35 38 43 43 44 35 43 49 49 50 53 53 56 55 51 54 52 53 56 54 49 50 49 47 45 41 36 37 41 43 47 46 44 48 44 49 46 49 51 49 53 52 57 55 52 52 53 53 50 50 53 46 48 51 47 50 53 52 56 49 55 56 52 55 57 57 56 57 63 61 


